<svg width="156" height="29" viewBox="0 0 156 29" fill="none" xmlns="http://www.w3.org/2000/svg">
<g clip-path="url(#clip0)">
<path d="M9.83471 9.20249C9.66929 8.77716 9.44026 8.40338 9.13487 8.08116C8.84221 7.75893 8.48593 7.50116 8.07876 7.29493C7.79882 7.15316 7.50616 7.06293 7.20078 6.99849C7.7861 6.7536 8.28234 6.4056 8.65135 5.9416C9.10942 5.37449 9.35119 4.65271 9.35119 3.78916C9.35119 3.10604 9.21122 2.52604 8.91856 2.06204C8.63863 1.59804 8.2569 1.22427 7.81155 0.940713C7.36619 0.657157 6.8445 0.450934 6.2719 0.322045C5.71204 0.193156 5.11399 0.141602 4.52867 0.141602H0.0878906V14.719H4.45233C5.11399 14.719 5.77566 14.6545 6.43732 14.5385C7.11171 14.4097 7.72248 14.1905 8.2569 13.8812C8.80404 13.5719 9.24939 13.1465 9.58022 12.618C9.92378 12.0896 10.0892 11.4065 10.0892 10.5816C10.0892 10.0918 10.0001 9.62782 9.83471 9.20249ZM4.74499 12.8758H2.03471V8.0296H4.78316C5.20306 8.0296 5.61024 8.06827 6.00469 8.1456C6.39915 8.22293 6.7427 8.36471 7.03536 8.55804C7.32802 8.75138 7.56978 9.00916 7.74792 9.31849C7.92606 9.64071 8.01513 10.0403 8.01513 10.5043C8.01513 10.9296 7.92606 11.3034 7.7352 11.5998C7.54434 11.8963 7.28985 12.1412 6.98447 12.3216C6.66636 12.5149 6.31008 12.6438 5.92835 12.734C5.54662 12.8372 5.15217 12.8758 4.74499 12.8758ZM7.06081 5.1296C6.88267 5.41316 6.65363 5.63227 6.3737 5.78693C6.08104 5.9416 5.75021 6.0576 5.39393 6.10916C5.02492 6.16071 4.63047 6.18649 4.24874 6.18649H2.03471V1.94604H4.40143C4.77044 1.94604 5.12672 1.97182 5.49572 2.03627C5.83928 2.08782 6.15739 2.20382 6.43732 2.35849C6.70453 2.51316 6.92084 2.71938 7.08626 2.97716C7.25168 3.23493 7.32802 3.57004 7.32802 3.99538C7.3153 4.47227 7.22623 4.85893 7.06081 5.1296Z" fill="white"/>
<path d="M24.3309 0.128906H22.5877L16.2383 14.7062H18.4141L19.8774 11.1876H26.774L28.2118 14.7062H30.4513L24.3309 0.128906ZM26.036 9.35735H20.6409L23.4021 2.73246L26.036 9.35735Z" fill="white"/>
<path d="M43.4288 8.08135C44.4722 7.88801 45.2993 7.47557 45.91 6.84402C46.559 6.17379 46.8898 5.28446 46.8898 4.20179C46.8898 3.28668 46.7117 2.55202 46.3681 2.01068C46.0246 1.46935 45.5665 1.05691 45.0193 0.786241C44.4722 0.515574 43.8487 0.335127 43.1743 0.244905C42.4999 0.167572 41.8128 0.128906 41.1257 0.128906H37.3848V14.7062H39.3189V8.27468H41.2784L45.1084 14.7062H47.4624L43.4288 8.08135ZM44.4467 5.47779C44.1923 5.77424 43.8614 5.99335 43.467 6.13513C43.0598 6.2769 42.6144 6.36713 42.1182 6.3929C41.622 6.41868 41.1384 6.43157 40.6804 6.43157H39.3061V1.95913H41.5329C41.9401 1.95913 42.3472 1.98491 42.7417 2.03646C43.1361 2.08802 43.4924 2.19113 43.7978 2.35868C44.1032 2.51335 44.3577 2.74535 44.5358 3.02891C44.7267 3.31246 44.8157 3.71202 44.8157 4.1889C44.8285 4.75602 44.7012 5.19424 44.4467 5.47779Z" fill="white"/>
<path d="M64.8171 9.20249C64.6517 8.77716 64.4227 8.40338 64.1173 8.08116C63.8246 7.75893 63.4684 7.50116 63.0612 7.29493C62.7812 7.15316 62.4886 7.06293 62.1832 6.99849C62.7685 6.7536 63.2648 6.4056 63.6338 5.9416C64.0918 5.37449 64.3336 4.65271 64.3336 3.78916C64.3336 3.10604 64.1936 2.52604 63.901 2.06204C63.621 1.59804 63.2393 1.22427 62.794 0.940713C62.3486 0.657157 61.8269 0.450934 61.2543 0.322045C60.6945 0.193156 60.0964 0.141602 59.5111 0.141602H55.0703V14.719H59.422C60.0837 14.719 60.7454 14.6545 61.407 14.5385C62.0814 14.4097 62.6922 14.1905 63.2266 13.8812C63.7737 13.5719 64.2191 13.1465 64.5499 12.618C64.8935 12.0896 65.0589 11.4065 65.0589 10.5816C65.0716 10.0918 64.9825 9.62782 64.8171 9.20249ZM57.0171 1.95893H59.3839C59.7529 1.95893 60.1091 1.98471 60.4781 2.04916C60.8217 2.10071 61.1398 2.21671 61.4197 2.37138C61.687 2.52604 61.9033 2.73227 62.0687 2.99004C62.2341 3.24782 62.3104 3.58293 62.3104 4.00827C62.3104 4.48516 62.2214 4.85893 62.056 5.14249C61.8778 5.42604 61.6488 5.64516 61.3688 5.79982C61.0762 5.95449 60.7454 6.07049 60.3891 6.12204C60.0201 6.1736 59.6256 6.19938 59.2439 6.19938H57.0553V1.95893H57.0171ZM62.7303 11.6127C62.5395 11.9092 62.285 12.154 61.9796 12.3345C61.6615 12.5278 61.3052 12.6567 60.9235 12.7469C60.529 12.8372 60.1219 12.8758 59.7274 12.8758H57.0171V8.0296H59.7656C60.1855 8.0296 60.5927 8.06827 60.9871 8.1456C61.3816 8.22293 61.7251 8.36471 62.0178 8.55804C62.3104 8.75138 62.5522 9.00916 62.7303 9.31849C62.9085 9.64071 62.9976 10.0403 62.9976 10.5043C63.0103 10.9425 62.9212 11.3163 62.7303 11.6127Z" fill="white"/>
<path d="M74.8579 12.876V8.02979H81.5891V6.19957H74.8579V1.95913H82.0599V0.128906H72.9238V14.7062H82.4289V12.876H74.8579Z" fill="white"/>
<path d="M96.1827 8.08135C97.2261 7.88801 98.0531 7.47557 98.6639 6.84402C99.3128 6.17379 99.6437 5.28446 99.6437 4.20179C99.6437 3.28668 99.4655 2.55202 99.122 2.01068C98.7784 1.46935 98.3204 1.05691 97.7732 0.786241C97.2261 0.515574 96.6026 0.335127 95.9282 0.244905C95.2538 0.167572 94.5667 0.128906 93.8796 0.128906H90.1387V14.7062H92.0727V8.27468H94.0323L97.8623 14.7062H100.216L96.1827 8.08135ZM97.2133 5.47779C96.9589 5.77424 96.628 5.99335 96.2336 6.13513C95.8264 6.2769 95.3811 6.36713 94.8848 6.3929C94.3886 6.41868 93.905 6.43157 93.447 6.43157H92.0727V1.95913H94.2995C94.7067 1.95913 95.1138 1.98491 95.5083 2.03646C95.9027 2.08802 96.259 2.19113 96.5644 2.35868C96.8698 2.51335 97.1243 2.74535 97.3024 3.02891C97.4933 3.31246 97.5823 3.71202 97.5823 4.1889C97.5951 4.75602 97.4678 5.19424 97.2133 5.47779Z" fill="white"/>
<path d="M122.728 2.24288C122.448 1.71443 122.066 1.30199 121.582 0.979768C121.112 0.670434 120.564 0.451322 119.966 0.309544C119.368 0.180655 118.732 0.116211 118.07 0.116211H113.744V14.6935H115.678V8.26199H118.389C118.885 8.26199 119.419 8.19755 119.979 8.08155C120.539 7.95266 121.061 7.74644 121.531 7.4371C122.002 7.12777 122.397 6.70244 122.702 6.17399C123.007 5.64555 123.16 4.96243 123.16 4.16332C123.147 3.42866 123.007 2.77132 122.728 2.24288ZM121.099 4.20199C121.099 4.97532 120.857 5.52955 120.361 5.89044C119.865 6.25132 119.19 6.44466 118.389 6.44466H115.678V1.97221H118.389C119.19 1.97221 119.865 2.15266 120.361 2.52643C120.857 2.87443 121.099 3.42866 121.099 4.20199Z" fill="white"/>
<path d="M131.494 12.876V8.02979H138.237V6.19957H131.494V1.95913H138.708V0.128906H129.572V14.7062H139.064V12.876H131.494Z" fill="white"/>
<path d="M144.613 0.128906V1.95913H149.283V14.7062H151.217V1.95913H155.9V0.128906H144.613Z" fill="white"/>
<path d="M58.825 28.1621L58.3669 27.8012C58.2142 27.9946 58.036 28.1492 57.8325 28.2395C57.6289 28.3426 57.3744 28.3941 57.0817 28.3941C56.8908 28.3941 56.7254 28.3555 56.56 28.291C56.4073 28.2137 56.2674 28.1235 56.1528 28.0075C56.0383 27.8915 55.9365 27.7497 55.8729 27.5821C55.7966 27.4146 55.7584 27.247 55.7457 27.0666V27.0279H58.9904V26.8475C58.9904 26.5124 58.9395 26.2159 58.8504 25.9581C58.7613 25.7004 58.6341 25.4812 58.4687 25.3008C58.3033 25.1204 58.0997 24.9915 57.8706 24.8884C57.6416 24.7981 57.3871 24.7466 57.1072 24.7466C56.8145 24.7466 56.5473 24.7981 56.2928 24.9012C56.051 25.0044 55.8347 25.1461 55.6566 25.3266C55.4784 25.507 55.3385 25.739 55.2367 25.9968C55.1349 26.2546 55.084 26.5381 55.084 26.8475C55.084 27.131 55.1349 27.4146 55.224 27.6724C55.313 27.9301 55.453 28.1492 55.6184 28.3426C55.7838 28.5359 56.0001 28.6777 56.2419 28.7937C56.4837 28.9097 56.7636 28.9612 57.0817 28.9612C57.4507 28.9612 57.7816 28.8968 58.0615 28.7808C58.3414 28.6648 58.5959 28.4586 58.825 28.1621ZM55.7457 26.4866C55.7966 26.1386 55.9365 25.8421 56.1656 25.6359C56.3946 25.4168 56.7127 25.3137 57.0817 25.3137C57.4634 25.3137 57.7561 25.4168 57.9724 25.6359C58.1887 25.855 58.3033 26.1386 58.316 26.4866V26.5252H58.2778H55.7329L55.7457 26.4866Z" fill="white"/>
<path d="M65.3388 28.2912C65.4279 28.1366 65.466 27.9432 65.466 27.7112C65.466 27.5179 65.4279 27.3503 65.3642 27.2086C65.3006 27.0797 65.2115 26.9637 65.0843 26.8734C64.9698 26.7832 64.8298 26.7059 64.6771 26.6543C64.5244 26.6028 64.3463 26.5512 64.1809 26.5254C64.0536 26.4997 63.9264 26.4739 63.7991 26.4352C63.6719 26.3966 63.5574 26.3579 63.4683 26.3063C63.3665 26.2548 63.2902 26.2032 63.2393 26.1388C63.1756 26.0743 63.1502 25.9841 63.1502 25.8939C63.1502 25.7908 63.1756 25.7006 63.2265 25.6232C63.2774 25.5459 63.341 25.4814 63.4174 25.4299C63.4937 25.3783 63.5828 25.3397 63.6846 25.3268C63.7864 25.301 63.8755 25.2881 63.9645 25.2881C64.1681 25.2881 64.3463 25.3397 64.4862 25.4299C64.6262 25.5201 64.728 25.6232 64.8171 25.765L65.3261 25.4299C65.1988 25.185 65.0079 25.0174 64.7789 24.9014C64.5371 24.7854 64.2827 24.7339 64.0027 24.7339C63.8119 24.7339 63.6337 24.7597 63.4683 24.8112C63.2902 24.8628 63.1375 24.9401 62.9975 25.0303C62.8575 25.1206 62.743 25.2494 62.6667 25.3912C62.5903 25.533 62.5394 25.7006 62.5394 25.8939C62.5394 26.1001 62.5776 26.2677 62.6539 26.3837C62.7303 26.5126 62.8321 26.6157 62.9466 26.693C63.0738 26.7703 63.2265 26.8477 63.3919 26.8992C63.5574 26.9508 63.7482 27.0023 63.9264 27.041C64.0409 27.0668 64.1427 27.0926 64.2445 27.1183C64.3463 27.1441 64.4481 27.1828 64.5244 27.2343C64.6135 27.2859 64.6771 27.3503 64.728 27.4277C64.7789 27.505 64.8044 27.5952 64.8044 27.7112C64.8044 27.8272 64.7789 27.9303 64.728 28.0077C64.6771 28.085 64.6008 28.1623 64.5117 28.2139C64.4226 28.2654 64.3208 28.3041 64.219 28.3299C64.1172 28.3557 64.0027 28.3686 63.9009 28.3686C63.6592 28.3686 63.4556 28.317 63.2902 28.2139C63.1375 28.1237 62.9975 27.9948 62.8702 27.8272L62.3867 28.201C62.5776 28.4717 62.7939 28.6521 63.0229 28.7552C63.2647 28.8583 63.5574 28.9099 63.9009 28.9099C64.0918 28.9099 64.2954 28.8841 64.4862 28.8454C64.6771 28.7939 64.8425 28.7294 64.9952 28.6263C65.1352 28.5877 65.2497 28.4459 65.3388 28.2912Z" fill="white"/>
<path d="M71.3567 28.2782C71.2804 28.3169 71.1913 28.3426 71.1022 28.3684C71.0004 28.3942 70.8986 28.4071 70.7968 28.4071C70.6441 28.4071 70.5169 28.3813 70.4405 28.3297C70.3515 28.2782 70.2879 28.2009 70.2497 28.1106C70.2115 28.0204 70.1861 27.9173 70.1733 27.8013C70.1733 27.6853 70.1606 27.5693 70.1606 27.4275V25.3653H71.344V24.8626H70.1606V23.7026H69.5498V24.8626H68.6719V25.3653H69.5498V27.6337C69.5498 27.84 69.5626 28.0333 69.588 28.2009C69.6135 28.3684 69.6644 28.5102 69.7407 28.6133C69.8171 28.7293 69.9189 28.8066 70.0588 28.8711C70.1988 28.9355 70.3897 28.9613 70.6187 28.9613C70.7459 28.9613 70.8732 28.9484 71.0131 28.9226C71.1404 28.8969 71.2549 28.8711 71.3694 28.8195L71.3567 28.2782Z" fill="white"/>
<path d="M75.8368 28.072C75.7478 27.9817 75.6333 27.9302 75.4933 27.9302C75.3533 27.9302 75.2515 27.9817 75.1497 28.072C75.0607 28.1622 75.0098 28.2782 75.0098 28.42C75.0098 28.5617 75.0608 28.6648 75.1626 28.768C75.2644 28.8582 75.3788 28.9097 75.4933 28.9097C75.6205 28.9097 75.7225 28.8582 75.8242 28.768C75.926 28.6777 75.9768 28.5617 75.9768 28.42C75.9768 28.2911 75.9386 28.1751 75.8368 28.072Z" fill="white"/>
<path d="M82.1853 28.3684L83.5085 27.1182C83.623 27.0151 83.7248 26.8991 83.8266 26.796C83.9284 26.6928 84.0175 26.5768 84.1065 26.448C84.1829 26.3191 84.2592 26.1902 84.3101 26.0484C84.361 25.9066 84.3866 25.7391 84.3866 25.5586C84.3866 25.3524 84.3483 25.172 84.272 25.0173C84.1956 24.8626 84.0939 24.7337 83.9667 24.6306C83.8395 24.5275 83.6994 24.4502 83.5339 24.3986C83.3685 24.3471 83.1904 24.3213 82.9995 24.3213C82.8214 24.3213 82.6432 24.3471 82.4905 24.3986C82.3379 24.4502 82.1852 24.5275 82.0706 24.6177C81.9434 24.708 81.8416 24.8368 81.7525 24.9786C81.6635 25.1204 81.6127 25.288 81.5872 25.4684V25.5071L82.2235 25.5586V25.5328C82.2616 25.3266 82.3506 25.1591 82.4905 25.0302C82.6305 24.9013 82.8087 24.8368 83.025 24.8368C83.1395 24.8368 83.2414 24.8497 83.3305 24.8884C83.4196 24.9271 83.5085 24.9657 83.5721 25.0302C83.6357 25.0946 83.6994 25.172 83.7375 25.2622C83.7757 25.3524 83.8012 25.4555 83.8012 25.5715C83.8012 25.6746 83.7884 25.7777 83.763 25.8551C83.7375 25.9453 83.6995 26.0226 83.6486 26.1C83.5977 26.1773 83.5341 26.2675 83.4577 26.3448C83.3814 26.4351 83.2923 26.5253 83.1778 26.6284L81.5108 28.2782L81.498 28.2911V28.9484H84.4121V28.3942H82.1853V28.3684Z" fill="white"/>
<path d="M89.9101 25.8553C89.872 25.5846 89.7829 25.3268 89.6811 25.0948C89.5666 24.8628 89.4139 24.6695 89.2103 24.5277C89.0067 24.373 88.7522 24.3086 88.4468 24.3086C88.1415 24.3086 87.8742 24.3859 87.6834 24.5277C87.4925 24.6695 87.3271 24.8628 87.2126 25.0948C87.0981 25.3268 87.0217 25.5846 86.9835 25.8553C86.9454 26.1259 86.9199 26.3966 86.9199 26.6544C86.9199 26.9122 86.9454 27.1828 86.9835 27.4535C87.0217 27.7242 87.0981 27.9819 87.2126 28.2139C87.3271 28.4459 87.4798 28.6393 87.6834 28.781C87.887 28.9357 88.1415 29.0002 88.4468 29.0002C88.7522 29.0002 89.0194 28.9228 89.2103 28.781C89.4012 28.6393 89.5666 28.4459 89.6811 28.2139C89.7956 27.9819 89.872 27.7242 89.9101 27.4535C89.9483 27.1828 89.9738 26.9122 89.9738 26.6544C89.9738 26.3966 89.9483 26.1259 89.9101 25.8553ZM88.7904 28.3944C88.6886 28.4588 88.5741 28.4846 88.4341 28.4846C88.2941 28.4846 88.1796 28.4588 88.0778 28.3944C87.976 28.3299 87.887 28.2526 87.8233 28.1624C87.747 28.0593 87.6961 27.9562 87.6579 27.8273C87.6198 27.6984 87.5816 27.5695 87.5561 27.4277C87.5307 27.2988 87.518 27.157 87.5052 27.0282C87.4925 26.8993 87.4925 26.7704 87.4925 26.6673C87.4925 26.5513 87.4925 26.4353 87.5052 26.3064C87.518 26.1775 87.5307 26.0357 87.5561 25.9068C87.5816 25.7779 87.607 25.6361 87.6579 25.5073C87.6961 25.3784 87.7597 25.2624 87.8233 25.1721C87.887 25.069 87.976 24.9917 88.0778 24.9401C88.1796 24.8757 88.2941 24.8499 88.4341 24.8499C88.5741 24.8499 88.6886 24.8757 88.7904 24.9401C88.8922 25.0046 88.9813 25.0819 89.0449 25.1721C89.1212 25.2753 89.1721 25.3913 89.2103 25.5073C89.2485 25.6361 89.2866 25.765 89.3121 25.9068C89.3375 26.0486 89.3503 26.1775 89.363 26.3064C89.3757 26.4353 89.3757 26.5641 89.3757 26.6673C89.3757 26.7704 89.3757 26.8993 89.363 27.0282C89.3503 27.157 89.3375 27.2988 89.3121 27.4277C89.2866 27.5566 89.2612 27.6984 89.2103 27.8273C89.1721 27.9562 89.1085 28.0722 89.0449 28.1624C88.9813 28.2526 88.8922 28.3299 88.7904 28.3944Z" fill="white"/>
<path d="M93.9686 24.373L92.7344 25.3784L93.0907 25.8166L93.8796 25.1464V28.9228H94.4649V24.373H93.9686Z" fill="white"/>
<path d="M100.813 26.9763C100.75 26.7959 100.648 26.6412 100.533 26.5252C100.406 26.3963 100.266 26.2932 100.101 26.2288C99.9353 26.1643 99.7445 26.1256 99.5536 26.1256C99.4645 26.1256 99.35 26.1385 99.2482 26.1514C99.1719 26.1643 99.0955 26.1901 99.0192 26.2159L100.19 24.3599H99.5027L98.3193 26.2674C98.1921 26.4608 98.0903 26.6541 98.014 26.8603C97.9376 27.0536 97.8867 27.2856 97.8867 27.5563C97.8867 27.7754 97.9249 27.9816 98.0012 28.1621C98.0776 28.3425 98.1921 28.4843 98.3193 28.6132C98.4593 28.7421 98.612 28.8323 98.8029 28.8968C98.981 28.9612 99.1846 28.9999 99.4009 28.9999C99.6172 28.9999 99.8081 28.9612 99.999 28.8968C100.177 28.8323 100.343 28.7292 100.482 28.6132C100.622 28.4843 100.724 28.3425 100.801 28.1621C100.877 27.9816 100.915 27.7883 100.915 27.5563C100.915 27.3501 100.877 27.1568 100.813 26.9763ZM100.33 27.5563C100.33 27.6981 100.304 27.827 100.253 27.943C100.203 28.059 100.139 28.1492 100.063 28.2265C99.9862 28.3039 99.8844 28.3683 99.7699 28.407C99.5409 28.4972 99.2609 28.4972 99.0446 28.407C98.9301 28.3683 98.8283 28.3039 98.752 28.2265C98.6756 28.1492 98.5993 28.0461 98.5611 27.943C98.5102 27.827 98.4848 27.6981 98.4848 27.5563C98.4848 27.4145 98.5102 27.2856 98.5611 27.1696C98.612 27.0536 98.6756 26.9634 98.752 26.8732C98.8283 26.7959 98.9301 26.7314 99.0446 26.6928C99.1592 26.6541 99.2737 26.6283 99.4136 26.6283C99.5409 26.6283 99.6681 26.6541 99.7826 26.6928C99.8972 26.7314 99.999 26.7959 100.075 26.8732C100.152 26.9505 100.228 27.0536 100.266 27.1696C100.304 27.2985 100.33 27.4274 100.33 27.5563Z" fill="white"/>
</g>
<defs>
<clipPath id="clip0">
<rect width="156" height="29" fill="white"/>
</clipPath>
</defs>
</svg>
