<svg width="70" height="76" viewBox="0 0 70 76" fill="none" xmlns="http://www.w3.org/2000/svg">
<path d="M59.1636 48.3828C57.9953 47.4954 55.5093 45.4398 54.6286 44.3101C52.7423 41.8901 52.592 38.3766 52.7766 35.0571C52.8949 32.9277 53.1504 30.8783 53.9008 29.1087C54.9427 26.6515 56.9386 24.734 58.0019 21.7719C58.8518 19.4053 59.107 16.3718 61.243 15.8895C61.9872 15.7217 62.9588 15.8633 63.5582 15.559C64.2176 15.2246 64.4264 14.3509 64.6827 13.2458C65.0597 11.6237 65.5396 9.50251 66.0044 9.70854C66.5491 9.94969 67.0728 13.3859 67.4049 13.9068C67.7939 14.5167 67.9207 11.127 68.1388 8.77555C68.3574 6.41672 68.668 5.10249 68.0054 3.57793C67.5184 2.45803 66.507 1.22495 65.3375 0.845669C64.1115 0.447655 62.7118 0.987713 61.3363 0.979126C60.1641 0.971325 59.0091 0.565498 57.9352 0.712608C57.2176 0.810555 56.5363 1.1555 55.8011 1.51215C53.9593 2.40456 51.7788 3.36839 51.2661 4.97723C50.8821 6.18181 51.4331 7.74734 51.533 9.24185C51.5736 9.8498 51.5393 10.446 51.3996 10.9748C50.5715 14.1066 46.0338 14.882 42.063 15.3061C35.0201 16.0584 29.7612 15.7069 23.9235 17.3719C20.9353 18.2241 17.7957 19.6043 14.9872 20.1038C11.728 20.6836 8.91484 20.0776 4.18337 19.1712C2.37345 18.8243 0.426963 18.1274 0.192992 18.5316C-0.0870233 19.0155 2.23762 20.5654 4.14388 21.3934C7.5276 22.8626 9.37911 22.0599 12.8529 21.5698C13.6315 21.4601 14.4776 21.3068 14.787 21.4367C15.5167 21.7434 13.2316 23.4533 12.0527 25.102C10.0211 27.9423 11.2756 30.5989 10.519 32.8317C9.82618 34.876 7.44819 36.5656 6.05073 38.496C5.1397 39.7548 4.2172 41.1046 4.38335 42.8941C4.61518 45.3914 4.20304 48.3618 5.94861 48.9844C6.35802 49.1308 6.8045 49.1589 7.42806 49.1472C8.3074 49.13 9.09227 49.114 9.44404 48.9521C9.79449 48.7905 8.69886 47.9691 8.1181 47.2254C7.3026 46.1816 7.23037 45.0425 7.45123 44.0936C7.90349 42.1507 9.58534 41.0039 11.9193 39.2955C16.056 36.2683 22.2419 31.4788 21.9896 33.4982C21.8756 34.4101 20.4486 36.7112 20.3889 38.496C20.3133 40.7643 22.4465 42.1991 24.0303 44.0838C25.5634 45.908 26.5817 48.1537 28.2836 48.9408C28.954 49.251 29.5439 49.0169 30.5953 49.0952C31.243 49.1433 32.0033 49.2958 32.1563 48.9989C32.3034 48.7125 32.0728 48.3196 31.6592 47.8615C30.6173 46.7076 29.5442 46.4853 28.4862 45.7703C26.4783 44.4132 24.5247 41.2821 25.313 39.294C25.7838 38.1069 27.2325 37.3273 27.8111 35.786C28.2609 34.5872 28.1846 32.9281 28.8912 32.6151C29.3831 32.3978 30.2539 32.8325 31.1867 33.0202C33.8381 33.5536 36.9902 32.0911 37.803 33.3573C38.2842 34.1073 37.9459 35.8129 37.533 37.2703C36.6995 40.2125 35.5632 42.1402 35.6424 44.9607C35.685 46.4738 36.0775 48.2438 37.128 48.9408C37.6583 49.2928 38.285 49.1378 39.1489 49.1795C39.9418 49.2178 40.8767 49.1495 41.1097 48.9009C41.4913 48.4936 40.0631 47.7069 39.2207 46.6471C38.491 45.7286 38.2526 44.8374 38.2756 44.0163C38.3443 41.5451 40.7757 39.7084 42.5964 36.7978C43.6172 35.1667 44.446 33.1977 45.2295 32.8851C46.5883 32.3435 47.8108 36.7822 48.9428 40.1712C50.1423 43.7619 52.3509 47.2672 54.172 48.8869C54.9399 49.5698 59.7329 48.8155 59.1636 48.3828Z" fill="#A49AD4"/>
<path d="M59.1602 23.8136C59.7135 23.0136 60.3215 21.4879 60.6782 20.0726C61.0344 18.6573 61.139 17.3525 60.8908 16.9326C60.643 16.5127 60.0429 16.9782 58.8613 16.8655C57.6798 16.7527 55.9172 16.0624 54.4328 15.1333C52.9485 14.2046 51.7423 13.0379 51.0302 11.589C50.3177 10.1402 50.0995 8.4096 49.7405 7.7993C49.3819 7.18901 48.8828 7.69941 49.1337 8.51925C49.3847 9.33947 50.3855 10.4695 50.2334 10.7173C50.0816 10.9651 48.7771 10.331 47.0098 10.4524C45.2426 10.5737 43.0129 11.4509 43.5584 11.5512C44.1043 11.6515 47.4262 10.9752 49.2855 11.8165C51.1445 12.6578 51.5414 15.0163 52.4521 16.6489C53.3629 18.2808 54.7879 19.1876 55.733 20.4191C56.6781 21.6506 57.1432 23.208 57.6255 23.9486C58.1078 24.6896 58.6065 24.6143 59.1602 23.8136Z" fill="#FAB41A"/>
<path d="M62.18 12.646C62.8426 12.9199 64.0366 11.7731 63.9258 11.0996C63.8599 10.6981 63.3292 10.4651 62.7314 10.3968C61.8113 10.2915 60.7308 10.5759 60.7093 11.0528C60.6925 11.4332 61.3508 11.9366 61.8124 12.3647C61.9373 12.4809 62.0481 12.5914 62.18 12.646Z" fill="#6C64B8"/>
<path d="M66.3611 8.96515C66.3923 8.78877 66.4122 8.61162 66.4165 8.43641C66.4216 7.31651 66.1317 6.25201 65.8433 5.20624L65.6217 4.42504C65.6053 4.36339 65.5881 4.29861 65.5733 4.2354C65.5842 4.25257 65.5951 4.27012 65.6065 4.28612C65.7524 4.50932 65.9057 4.72745 66.0462 4.95534C66.1808 5.18712 66.3022 5.42671 66.4076 5.67294C66.6187 6.16382 66.7654 6.68592 66.7915 7.21739C66.8243 7.75081 66.6979 8.27487 66.4618 8.75795C66.4298 8.82741 66.3951 8.89647 66.3611 8.96515ZM68.6993 7.83081C68.5857 8.34862 68.3844 8.85316 68.2127 9.3698C68.0386 9.88644 67.8931 10.4187 67.8143 10.9626C67.7351 11.5074 67.7245 12.0545 67.7144 12.5965C67.7089 12.8673 67.7058 13.1385 67.691 13.4065C67.6742 13.6703 67.6582 13.9528 67.5575 14.1682C67.4615 14.3739 67.1817 14.139 67.019 13.9638C66.8391 13.771 66.6846 13.5509 66.5422 13.3246C66.264 12.8669 66.0388 12.3733 65.8991 11.857C65.8339 11.5983 65.786 11.3345 65.7883 11.0692C65.7902 10.8038 65.8379 10.5404 65.9159 10.286C66.0716 9.77484 66.3506 9.30892 66.5843 8.81492C66.8286 8.32598 66.9695 7.76486 66.9379 7.21076C66.9152 6.65588 66.763 6.11778 66.5555 5.61089C66.4513 5.35648 66.3315 5.10908 66.1984 4.86949C66.0587 4.63341 65.9042 4.40475 65.7567 4.1714C65.7165 4.11404 65.6892 4.05434 65.6377 3.99893C65.6107 3.97005 65.592 3.94274 65.5374 3.9084C65.5253 3.90177 65.4984 3.88694 65.4574 3.89006C65.4035 3.89162 65.3653 3.94391 65.3602 3.96303C65.3411 4.01259 65.347 4.02976 65.3454 4.05473C65.3563 4.21667 65.3938 4.33997 65.4254 4.47616L65.6338 5.2636C65.9034 6.30586 66.168 7.37035 66.1434 8.42822C66.134 8.95773 65.9795 9.4494 65.6595 9.86302C65.3594 10.2864 64.9103 10.6251 64.645 11.1675C64.396 11.7079 64.3742 12.2734 64.2992 12.8025C64.2349 13.3351 64.1299 13.8557 63.9758 14.3665C63.8993 14.6197 63.8119 14.8729 63.7011 15.0993C63.6733 15.1555 63.6429 15.2093 63.6121 15.2542C63.6035 15.2694 63.5926 15.2823 63.5824 15.2932C63.5575 15.2557 63.5309 15.205 63.5075 15.1496C63.3167 14.6743 63.1653 14.1323 62.9448 13.627C62.8028 13.2926 62.6249 12.9605 62.4056 12.6577C62.6393 12.5613 62.8656 12.4474 63.0794 12.3108C63.312 12.1582 63.5403 11.9885 63.7147 11.7438C63.7978 11.6225 63.8743 11.4695 63.8618 11.2943C63.8521 11.1218 63.7674 10.974 63.6691 10.8592C63.4673 10.6282 63.2059 10.4893 62.9378 10.3894C62.6678 10.2911 62.3798 10.2431 62.0895 10.2497C61.7988 10.2583 61.5131 10.3231 61.2462 10.4452C61.1132 10.508 60.9832 10.5822 60.8666 10.6918C60.808 10.7445 60.7534 10.8116 60.7105 10.894C60.666 10.9771 60.6516 11.0883 60.6668 11.1851C60.7054 11.3802 60.8158 11.4988 60.9107 11.6073C61.0105 11.7134 61.1132 11.8082 61.2154 11.8991C61.4207 12.0814 61.622 12.255 61.8046 12.4431C61.8639 12.5016 61.9151 12.5656 61.9685 12.6285C61.8148 12.687 61.6599 12.7479 61.51 12.8239C60.5259 13.3281 59.742 14.1191 58.7368 14.5089C58.4874 14.6018 58.2225 14.6552 57.9599 14.6353C57.6957 14.6236 57.4428 14.5171 57.2111 14.3879C56.7452 14.1214 56.3581 13.73 56.0361 13.3008C55.3927 12.4255 55.0891 11.3614 54.7984 10.3227C54.7375 10.0593 54.6552 9.79981 54.6119 9.53369C54.5701 9.26834 54.5604 8.99675 54.5896 8.72946C54.6411 8.19214 54.8288 7.67862 55.0516 7.18774C55.5117 6.2087 56.0603 5.27024 56.5438 4.29705C56.6648 4.05356 56.783 3.80851 56.8903 3.55682C56.9438 3.43117 56.9945 3.30357 57.0343 3.16856C57.0526 3.09871 57.0749 3.03472 57.071 2.94419C57.076 2.91531 57.0472 2.81035 56.9621 2.80333C56.8927 2.79708 56.861 2.8201 56.8228 2.83532C56.5645 2.98633 56.3834 3.1869 56.1911 3.38396C56.0037 3.58452 55.8262 3.79251 55.6572 4.00752C55.3213 4.43831 55.004 4.88705 54.7562 5.3834C54.5034 5.87662 54.3477 6.42331 54.2798 6.97078C54.2068 7.51903 54.1932 8.05986 54.1061 8.58391C54.0203 9.10718 53.8689 9.61407 53.6539 10.1003C53.4389 10.5755 53.1829 11.0739 52.8313 11.4047C52.7463 11.482 52.6456 11.537 52.598 11.5265C52.5535 11.5253 52.4758 11.4758 52.4111 11.3747C52.2772 11.1878 52.182 10.9314 52.0919 10.686C51.9147 10.1842 51.7731 9.65855 51.5893 9.14035C51.4102 8.61825 51.1733 8.11215 50.9244 7.62828C50.6824 7.14364 50.4066 6.66876 50.2911 6.18802C50.2349 5.9496 50.2509 5.71742 50.3121 5.48759C50.389 5.26048 50.5135 5.04392 50.6688 4.8414C50.9833 4.43792 51.3934 4.08985 51.8086 3.75427C52.2273 3.41985 52.6635 3.0995 53.0982 2.77406C53.5337 2.45018 53.9672 2.11538 54.3902 1.77199C54.6009 1.60147 54.8078 1.43056 55.0196 1.27681C55.2292 1.12424 55.4524 0.98416 55.6619 0.92953C55.8746 0.885827 55.9885 0.934213 56.1294 1.15351C56.1989 1.25692 56.2636 1.37593 56.3491 1.50041C56.4244 1.61669 56.575 1.78604 56.7842 1.82311C56.888 1.8555 56.9801 1.82858 57.0725 1.81843C57.1506 1.79034 57.2395 1.7677 57.3028 1.7279C57.4432 1.65688 57.5615 1.57221 57.6735 1.48558C57.8978 1.31311 58.0996 1.13088 58.3048 0.959578C58.7114 0.626727 59.1449 0.29036 59.5917 0.398839C59.8263 0.445664 60.0694 0.561563 60.3456 0.64819C60.4818 0.691504 60.6383 0.724665 60.7916 0.729738C60.9423 0.735201 61.082 0.723493 61.2127 0.71842C61.7172 0.659498 62.1465 0.945138 62.6295 1.21126C62.8719 1.33964 63.1103 1.4926 63.4447 1.54177C63.6062 1.57065 63.8404 1.51017 63.959 1.36032C64.0858 1.2218 64.1291 1.08913 64.1939 0.979088C64.309 0.762911 64.4737 0.620872 64.677 0.624773C64.8842 0.624383 65.1175 0.750032 65.32 0.899093C65.7321 1.20697 66.086 1.61669 66.4142 2.03656C67.0655 2.88643 67.6293 3.81475 68.1101 4.77467C68.581 5.72639 68.9455 6.78855 68.6993 7.83081ZM62.0345 12.2179C61.837 12.0189 61.6255 11.8402 61.4234 11.6642C61.2322 11.4945 61.0016 11.2959 60.9676 11.132C60.9263 11.0056 61.1557 10.8101 61.3723 10.7141C61.5978 10.6095 61.8495 10.5428 62.1008 10.5311C62.5952 10.5119 63.1485 10.6712 63.4845 11.02C63.6534 11.1987 63.6765 11.4118 63.527 11.617C63.3904 11.8199 63.1809 11.9893 62.9647 12.1364C62.7528 12.2788 62.5253 12.4006 62.2893 12.5012C62.2093 12.4025 62.1258 12.3065 62.0345 12.2179ZM68.9037 6.21533C68.7824 5.67255 68.5767 5.15708 68.3414 4.66307C67.8638 3.67779 67.3089 2.73582 66.6522 1.85433C66.319 1.41846 65.9647 0.990788 65.5112 0.641159C65.283 0.474929 65.0219 0.3048 64.6797 0.292704C64.5111 0.288021 64.3324 0.346944 64.199 0.44996C64.0604 0.550634 63.9715 0.684478 63.8942 0.812858C63.8244 0.936165 63.7678 1.06454 63.7053 1.12229C63.6484 1.18707 63.5856 1.20307 63.4818 1.19136C63.2753 1.16366 63.0346 1.02942 62.8047 0.900265C62.571 0.767592 62.3341 0.624385 62.0692 0.509273C61.8128 0.384795 61.4765 0.330554 61.199 0.351625C60.9103 0.366453 60.6945 0.37855 60.4561 0.292704C60.2149 0.217783 59.9656 0.0936956 59.6674 0.0293102C59.3658 -0.0471706 59.0107 0.0343828 58.7575 0.174859C58.4941 0.312993 58.2709 0.487027 58.0578 0.661841C57.8455 0.837047 57.6426 1.01694 57.4362 1.1738C57.2407 1.32247 56.9918 1.47778 56.8661 1.43485C56.749 1.43602 56.6168 1.17146 56.4646 0.931874C56.3893 0.81325 56.2742 0.664578 56.099 0.579903C55.9253 0.493276 55.7259 0.496 55.5671 0.533851C55.2487 0.618136 55.0091 0.781243 54.7797 0.942401C54.551 1.1059 54.3387 1.27954 54.1288 1.45124C53.7109 1.79228 53.2863 2.12162 52.852 2.44589C52.4197 2.77132 51.9818 3.09403 51.5542 3.43741C51.1292 3.78392 50.7031 4.14214 50.35 4.59595C50.1756 4.82462 50.0249 5.08138 49.9293 5.37013C49.847 5.66201 49.8318 5.98588 49.9024 6.2762C50.0468 6.8541 50.3336 7.32509 50.5732 7.80817C50.821 8.28774 51.0461 8.76653 51.2205 9.27069C51.3996 9.77445 51.553 10.2938 51.743 10.8132C51.8441 11.0723 51.9374 11.3333 52.1211 11.5881C52.205 11.7072 52.3506 11.864 52.5808 11.88C52.8099 11.8843 52.9484 11.7614 53.0623 11.665C53.4955 11.2393 53.7265 10.7351 53.9528 10.2287C54.169 9.71943 54.3247 9.17703 54.3988 8.62761C54.4761 8.0782 54.4765 7.53073 54.5342 7.002C54.6158 5.93282 55.1488 4.97212 55.7997 4.11716C55.9612 3.90216 56.1313 3.69379 56.3101 3.49361C56.4892 3.29928 56.6788 3.0913 56.8884 2.9637C56.904 2.9555 56.9207 2.94965 56.9313 2.94653C56.9317 2.94965 56.9321 2.95278 56.9317 2.95746C56.936 3.00233 56.92 3.07218 56.904 3.13266C56.87 3.25831 56.8232 3.38435 56.7736 3.50922C56.6737 3.75856 56.5614 4.00478 56.4462 4.24984C55.992 5.23317 55.4411 6.16889 54.9896 7.15964C54.7699 7.65599 54.5842 8.1777 54.5366 8.72439C54.5088 8.99637 54.5213 9.27185 54.5662 9.5411C54.6126 9.80957 54.6973 10.0691 54.7605 10.3332C55.0438 11.3735 55.3388 12.4458 55.9842 13.3382C56.3077 13.7765 56.696 14.1768 57.1728 14.4546C57.4105 14.5897 57.6723 14.7013 57.9525 14.7192C58.2307 14.7465 58.5109 14.6954 58.7707 14.6049C59.8138 14.224 60.625 13.4417 61.5845 12.9793C61.7469 12.9008 61.9182 12.8399 62.0922 12.7779C62.3139 13.0745 62.4875 13.4069 62.6334 13.7585C62.8449 14.2498 62.971 14.7613 63.1879 15.2909C63.2172 15.358 63.2504 15.4263 63.3015 15.5C63.3288 15.5367 63.3565 15.5765 63.4158 15.6171C63.4661 15.6573 63.5805 15.6877 63.6605 15.6553C63.8064 15.5948 63.8474 15.5145 63.8969 15.4512C63.9422 15.3841 63.9777 15.319 64.0101 15.2534C64.1358 14.992 64.2232 14.7293 64.3024 14.4636C64.4592 13.9349 64.5658 13.3878 64.629 12.8435C64.6988 12.3042 64.7269 11.7594 64.9372 11.3056C65.1359 10.8834 65.53 10.5358 65.8476 10.1096C65.8312 10.1569 65.8117 10.2021 65.7973 10.2501C65.6267 10.7785 65.6388 11.3571 65.7797 11.8878C65.919 12.4205 66.1438 12.925 66.4243 13.3964C66.5683 13.6301 66.724 13.8576 66.9129 14.0636C67.0073 14.1659 67.1095 14.2642 67.2399 14.3395C67.3086 14.3723 67.3811 14.4121 67.4802 14.3977C67.5282 14.402 67.5684 14.3653 67.6094 14.3427C67.6426 14.3134 67.6648 14.2775 67.691 14.2443C67.8225 13.9645 67.8279 13.689 67.8517 13.4163C67.8689 13.1431 67.8744 12.8712 67.8826 12.6004C67.8978 12.0587 67.9138 11.5183 67.9953 10.99C68.0777 10.4604 68.224 9.94302 68.4008 9.43379C68.5748 8.92379 68.7832 8.41885 68.908 7.87685C69.0388 7.33484 69.0263 6.75616 68.9037 6.21533Z" fill="white"/>
<path d="M58.9503 48.6677C58.9125 48.7082 58.8383 48.748 58.7548 48.7765C58.4071 48.8888 57.9795 48.8991 57.5713 48.9143L56.3172 48.9426C55.9008 48.9544 55.4864 48.9677 55.0888 48.9276C54.2853 48.8974 53.6891 48.307 53.1966 47.6597C52.2391 46.3217 51.3825 44.8709 50.6021 43.408C49.824 41.9365 49.1474 40.4127 48.5317 38.8632C47.9073 37.3218 47.3887 35.7091 46.4741 34.2595C46.078 33.6461 45.5793 33.0533 44.9261 32.6639C45.0654 32.0571 45.1298 31.4386 45.1848 30.8303C45.259 29.996 45.3218 29.1672 45.4775 28.3552C45.7916 26.7358 46.3875 25.1586 47.2529 23.7565C47.6904 23.0612 48.2027 22.4064 48.8255 21.8863C49.4428 21.3712 50.1983 20.9923 50.9888 21.0005C51.7763 21.0001 52.5383 21.3669 53.1869 21.8441C53.8393 22.3264 54.4043 22.9352 54.8465 23.6165C55.2827 24.2958 55.6167 25.0661 55.6565 25.8543C55.7158 26.6468 55.3241 27.3691 54.823 28.0177C54.3294 28.6724 53.7437 29.2968 53.3332 30.0686C52.9293 30.8385 52.7171 31.6864 52.6144 32.5301C52.4213 34.2204 52.5489 35.9241 52.8583 37.5794C53.1654 39.2378 53.6329 40.8501 54.098 42.4582C54.3372 43.2616 54.5928 44.0733 54.9908 44.8369C55.1902 45.2171 55.4267 45.5846 55.7221 45.91C56.0105 46.2367 56.3854 46.5118 56.764 46.7049C57.1409 46.907 57.5178 47.0771 57.8573 47.2917C58.1995 47.5028 58.493 47.7667 58.7439 48.0779C58.8621 48.227 58.9764 48.4011 58.9921 48.5326C58.9995 48.5977 58.987 48.6267 58.9503 48.6677ZM44.4703 33.2356C43.935 34.7929 42.8432 36.0978 41.7986 37.389C40.7395 38.6759 39.6797 40.0139 38.9883 41.5631C38.639 42.3329 38.3745 43.1372 38.1926 43.9636C38.1076 44.3784 38.0482 44.8077 38.0959 45.2447C38.1204 45.462 38.179 45.6817 38.2871 45.8812C38.3951 46.0808 38.5473 46.2472 38.7112 46.3895C39.0413 46.6737 39.414 46.877 39.7667 47.0959C40.1214 47.309 40.4527 47.5512 40.7434 47.8385C40.8855 47.9804 41.0185 48.1362 41.095 48.3048C41.1699 48.4764 41.1391 48.6357 40.9877 48.743C40.6814 48.9549 40.2428 49.0017 39.8417 49.0384C39.4319 49.0687 39.0132 49.0571 38.5961 49.0575C38.179 49.0544 37.7634 49.0437 37.3498 49.0094C36.9412 49.0141 36.6294 48.7363 36.3953 48.4074C36.1612 48.0754 35.9899 47.6957 35.8447 47.3093C35.5337 46.5393 35.4358 45.7079 35.4947 44.8799C35.5493 44.0518 35.7046 43.2296 35.9001 42.4203C36.2981 40.8002 36.894 39.2347 37.4227 37.6481C37.9359 36.1547 38.314 34.6212 38.6741 33.0869C39.8167 32.8742 40.9417 32.6179 42.078 32.5254C42.8919 32.4641 43.7289 32.4957 44.4528 32.8204C44.493 32.8387 44.5312 32.8613 44.5706 32.8812C44.5386 32.9999 44.5098 33.1193 44.4703 33.2356ZM28.0319 34.478C27.668 35.2229 27.1444 35.8718 26.5823 36.486C26.034 37.1061 25.3958 37.6914 25.0573 38.4987C24.8963 38.9022 24.8593 39.3548 24.9317 39.7767C24.997 40.2012 25.1321 40.6078 25.2981 40.9965C25.6336 41.7742 26.0762 42.4921 26.5273 43.1973C26.9804 43.902 27.4603 44.5907 27.9663 45.2591C28.2206 45.5935 28.4741 45.924 28.7448 46.2491C29.0179 46.5706 29.3196 46.8843 29.6984 47.1071C30.0817 47.337 30.5164 47.3978 30.8972 47.5294C31.2869 47.6542 31.6094 47.8758 31.8135 48.231C31.9204 48.4011 32.016 48.5834 32.0784 48.7683C32.1081 48.8538 32.1284 48.9631 32.1151 49.0047C32.1112 49.0047 32.1053 49.0047 32.0928 49.0067L31.9364 49.0102L30.6807 49.0329C29.8489 49.0739 29.0185 49.0407 28.1829 49.0052C27.9646 48.9985 27.788 48.9919 27.6264 48.8994C27.4679 48.8108 27.3385 48.6649 27.2248 48.5002C26.9998 48.1677 26.8103 47.7815 26.5439 47.4408C26.0047 46.7829 25.4225 46.1836 24.8291 45.5903C23.6481 44.4096 22.4093 43.2691 21.5432 41.8608C20.684 40.4619 20.2731 38.7836 20.4275 37.1525C20.5705 35.5214 21.3922 33.9734 22.639 32.9226C23.2594 32.4001 23.9946 32.0013 24.7861 31.8597C25.5801 31.7149 26.407 31.8047 27.2123 31.9709C27.7043 32.0723 28.1927 32.2034 28.6826 32.3389C28.6015 33.081 28.3626 33.8064 28.0319 34.478ZM17.3511 20.2544C17.3611 20.2528 17.3681 20.2517 17.3607 20.2532C17.3782 20.2727 17.3689 20.2688 17.3511 20.2544ZM59.3643 48.4877C59.3171 48.2002 59.1696 48.0229 59.0373 47.8443C58.765 47.5036 58.4278 47.2016 58.0579 46.9738C57.6899 46.7415 57.302 46.5668 56.9427 46.3735C56.2149 46.0193 55.6998 45.3832 55.326 44.6618C54.9499 43.9394 54.6986 43.1473 54.4621 42.3505C53.9993 40.7475 53.5353 39.1418 53.2349 37.5099C52.9309 35.882 52.8095 34.213 52.9976 32.5769C53.0967 31.7641 53.3004 30.9637 53.6758 30.25C54.0528 29.5383 54.6209 28.928 55.1336 28.2518C55.39 27.9139 55.6335 27.5517 55.8095 27.144C55.9929 26.7405 56.0686 26.2761 56.0432 25.8356C55.9917 24.9443 55.6249 24.1292 55.1614 23.4116C54.6904 22.6936 54.0965 22.0591 53.4023 21.5503C52.7136 21.05 51.8898 20.6462 50.9884 20.6477C50.0882 20.6438 49.2586 21.0746 48.6066 21.624C47.9471 22.1809 47.4203 22.8633 46.9724 23.5821C46.0882 25.031 45.4907 26.6375 45.1755 28.299C45.0202 29.1317 44.9601 29.9738 44.8902 30.8045C44.8407 31.3844 44.7802 31.9623 44.6608 32.5226C44.6401 32.5129 44.6217 32.5012 44.6011 32.4918C43.7855 32.1285 42.8923 32.1047 42.0506 32.1672C40.354 32.3084 38.7389 32.7884 37.0954 32.9737C35.4522 33.1712 33.784 33.0884 32.1514 32.802C31.3339 32.6619 30.5242 32.4704 29.7198 32.2585C29.4355 32.1832 29.1507 32.1047 28.865 32.0267C28.876 31.633 28.8368 31.2291 28.6687 30.8588C28.4981 30.451 28.1148 30.1502 27.7031 30.0276C26.8695 29.7767 25.999 29.9024 25.187 30.1014C24.3697 30.3101 23.5915 30.6648 22.8866 31.1257C22.1781 31.585 21.56 32.1656 20.9875 32.7771C19.8472 33.9996 18.854 35.3759 17.4657 36.3104C16.0948 37.259 14.537 37.8927 12.9952 38.5299C11.465 39.1695 9.8439 39.7689 8.60423 40.9508C7.98934 41.5334 7.50232 42.2526 7.17996 43.0353C6.86748 43.8146 6.64034 44.6698 6.79935 45.533C6.87099 45.9627 7.14808 46.3717 7.51133 46.6058C7.8642 46.852 8.23549 47.0369 8.55163 47.294C8.87204 47.5403 9.10722 47.8813 9.34349 48.22C9.45154 48.3831 9.5654 48.5799 9.53083 48.7145C9.50032 48.8405 9.29015 48.9419 9.11346 48.9872C8.73441 49.0797 8.30623 49.0359 7.88722 49.0579C7.4688 49.0684 7.05252 49.0875 6.64647 49.0532C6.24346 49.0189 5.84544 48.9111 5.57003 48.6329C5.29048 48.3586 5.10697 47.9871 4.97707 47.6016C4.71812 46.8247 4.60793 45.99 4.4637 45.169C4.32822 44.3461 4.20749 43.5211 4.16574 42.6943C4.12531 41.8701 4.16359 41.0335 4.41356 40.2578C4.54116 39.8727 4.72358 39.509 4.96231 39.1839C5.20588 38.8624 5.50526 38.5803 5.82336 38.32C6.46217 37.7987 7.17509 37.357 7.84086 36.8353C8.51261 36.3241 9.11026 35.6791 9.53356 34.9388C10.3971 33.4533 10.7103 31.7563 10.9787 30.1111C11.2412 28.4625 11.4075 26.7783 12.1567 25.3088C12.5291 24.5795 13.0209 23.915 13.5963 23.3273C14.1724 22.7389 14.8253 22.2293 15.5023 21.7454L16.5273 21.0282L17.0434 20.6669L17.3004 20.4756C17.3434 20.4425 17.3861 20.4081 17.4297 20.3691C17.451 20.3512 17.4739 20.3281 17.4966 20.3059C17.5199 20.277 17.544 20.2622 17.5786 20.1846C17.6774 20.0515 17.3812 19.8412 17.3904 19.9145C17.3236 19.9095 17.3123 19.9192 17.2722 19.9216C17.2111 19.9321 17.1556 19.9438 17.1028 19.9578C16.9955 19.9844 16.8942 20.0156 16.7925 20.0468L16.1923 20.2446L15.0072 20.6532C13.4323 21.1909 11.825 21.6283 10.1744 21.8031C9.34958 21.8925 8.5187 21.9534 7.69454 21.9335C6.87006 21.9144 6.05061 21.7992 5.25525 21.587C4.46066 21.3712 3.69183 21.0633 2.95745 20.6829C2.22518 20.3012 1.50742 19.8712 0.871497 19.3577C0.714788 19.2285 0.563113 19.0916 0.439806 18.9445C0.37944 18.8723 0.325786 18.7919 0.306276 18.7295C0.293321 18.6635 0.288911 18.6822 0.343775 18.6362C0.470594 18.5663 0.68841 18.5461 0.883359 18.5386C1.08486 18.532 1.29019 18.5398 1.49583 18.5527C2.31969 18.6085 3.14643 18.7341 3.97122 18.8586C5.62064 19.1185 7.27642 19.3815 8.94064 19.5735C10.6054 19.7553 12.2841 19.8903 13.9655 19.8146C15.6469 19.7577 17.3193 19.4564 18.9245 18.9612C20.5355 18.4715 22.058 17.7645 23.6424 17.2548C24.4343 17.002 25.2388 16.7893 26.0616 16.6844C26.8838 16.5743 27.7164 16.5431 28.5486 16.554C30.2146 16.5751 31.8778 16.7874 33.5596 16.7815C35.2415 16.7772 36.9159 16.4943 38.5192 16.0058C40.1273 15.5247 41.6628 14.8515 43.2213 14.2506C44.7798 13.6442 46.327 13.0074 47.8586 12.337C47.8683 12.3323 47.873 12.321 47.8687 12.3113C47.8644 12.3015 47.8531 12.2968 47.8429 12.3011C46.3055 12.9578 44.7544 13.5806 43.1912 14.173C41.6257 14.7602 40.0852 15.4193 38.4829 15.8833C36.8842 16.3542 35.2243 16.6192 33.5593 16.6087C31.895 16.5958 30.2306 16.3855 28.5518 16.3562C27.713 16.3418 26.8702 16.3706 26.0342 16.4795C25.1966 16.5833 24.3767 16.7975 23.5764 17.05C21.9744 17.5596 20.4494 18.2612 18.8566 18.7388C17.266 19.2231 15.618 19.5142 13.9556 19.5649C12.2937 19.634 10.6277 19.4947 8.97158 19.3077C7.31424 19.1107 5.66727 18.8434 4.0148 18.5769C3.18728 18.4497 2.35945 18.3201 1.51456 18.26C1.30315 18.246 1.09052 18.237 0.873916 18.2433C0.655788 18.2577 0.440118 18.2538 0.192724 18.3798C0.132203 18.4153 0.0622378 18.4727 0.0244653 18.5632C-0.0136583 18.6553 -0.00101566 18.7497 0.020485 18.8165C0.0657495 18.9538 0.137236 19.0459 0.20841 19.1353C0.35353 19.3093 0.51418 19.4529 0.678966 19.5907C1.34295 20.1303 2.0671 20.5654 2.81463 20.9587C3.56286 21.3501 4.35366 21.6705 5.1719 21.8952C5.9915 22.1173 6.83869 22.2386 7.6854 22.2613C8.53365 22.2847 9.37459 22.2254 10.2116 22.138C11.891 21.9635 13.5347 21.5304 15.1197 20.9825L16.3042 20.5697L16.8561 20.3859L16.846 20.3933L16.3362 20.7531L15.3087 21.4769C14.6283 21.967 13.9588 22.4923 13.3659 23.1022C12.7735 23.7109 12.2618 24.4059 11.8767 25.1679C11.1003 26.7089 10.9426 28.4297 10.6859 30.0655C10.4259 31.7028 10.1184 33.3698 9.29272 34.7984C8.88573 35.512 8.3291 36.1192 7.67382 36.623C7.02509 37.1353 6.31342 37.5798 5.6572 38.1179C5.3304 38.3871 5.01702 38.6833 4.75636 39.0294C4.50046 39.3798 4.30657 39.7712 4.17288 40.1801C3.91163 41.0023 3.87823 41.8666 3.92186 42.7064C3.96728 43.55 4.09257 44.3819 4.23188 45.2076C4.38035 46.0298 4.49086 46.8637 4.76385 47.6754C4.90179 48.0769 5.09643 48.4791 5.4173 48.7925C5.74227 49.1167 6.20717 49.2353 6.62739 49.2686C7.05556 49.3029 7.47641 49.2806 7.89331 49.269C8.30685 49.244 8.72571 49.2923 9.16501 49.1865C9.2729 49.1589 9.38204 49.1175 9.48112 49.0571C9.57473 49.0024 9.69269 48.9081 9.72789 48.7655C9.76449 48.6235 9.71829 48.4991 9.6747 48.3956C9.62838 48.2903 9.57001 48.1985 9.51038 48.1092C9.2688 47.7658 9.02051 47.4088 8.67326 47.1419C8.33764 46.8718 7.95426 46.6822 7.62121 46.4508C7.28072 46.2272 7.05467 45.8932 6.98041 45.4948C6.82862 44.7004 7.03925 43.8598 7.34229 43.102C7.65384 42.3384 8.12271 41.6407 8.71915 41.0706C9.91979 39.9148 11.5211 39.3108 13.0514 38.6657C14.5909 38.0223 16.1553 37.38 17.5388 36.4154C18.9422 35.4594 19.9382 34.0687 21.0776 32.8617C21.6483 32.2561 22.2605 31.6849 22.9585 31.2353C23.6533 30.7842 24.4177 30.4389 25.2214 30.2356C26.0176 30.0409 26.8765 29.927 27.6574 30.1665C28.0439 30.286 28.3756 30.5493 28.5323 30.9216C28.6806 31.2486 28.7204 31.6189 28.7124 31.9849C28.2404 31.8573 27.765 31.7332 27.2804 31.6349C26.4535 31.4687 25.584 31.3739 24.7259 31.5335C23.8657 31.6915 23.0833 32.1238 22.4319 32.6776C21.1248 33.7873 20.2721 35.4168 20.1292 37.1244C19.9758 38.8265 20.4107 40.561 21.306 42.0063C22.2077 43.456 23.4676 44.6005 24.6478 45.7727C25.2396 46.358 25.8261 46.9581 26.3495 47.5919C26.6013 47.9098 26.7834 48.279 27.0272 48.6384C27.151 48.8151 27.3034 48.9931 27.5129 49.1085C27.7194 49.2295 27.9779 49.2362 28.1735 49.2405C29.008 49.2725 29.8505 49.3029 30.6896 49.2573L31.9411 49.2288L32.0979 49.2248C32.1143 49.2248 32.1791 49.2233 32.2243 49.1968C32.277 49.1687 32.3078 49.1167 32.3215 49.0754C32.3601 48.9103 32.3129 48.8101 32.2837 48.7C32.2111 48.4889 32.1096 48.2988 31.9941 48.1159C31.8806 47.9368 31.7362 47.7522 31.5523 47.6231C31.3729 47.4888 31.168 47.3991 30.9646 47.33C30.5567 47.1934 30.1426 47.1341 29.8021 46.9288C29.1119 46.5125 28.6425 45.7844 28.1248 45.139C27.6197 44.476 27.1411 43.7931 26.6881 43.0935C26.2369 42.393 25.7968 41.6825 25.4671 40.9239C25.1502 40.1774 24.9116 39.3221 25.2213 38.5631C25.5314 37.81 26.1567 37.2223 26.7073 36.5992C27.8037 35.4535 28.6483 33.9863 28.832 32.3798C29.097 32.4536 29.3622 32.5273 29.6293 32.5983C30.441 32.8126 31.2603 33.0069 32.0909 33.1497C33.7493 33.4424 35.4569 33.5282 37.1363 33.3276C37.6389 33.2707 38.1357 33.1868 38.6297 33.0951C38.2578 34.6204 37.8684 36.1422 37.3463 37.6223C36.805 39.2023 36.1955 40.7639 35.7811 42.3907C35.5778 43.2039 35.4139 44.0296 35.3515 44.8704C35.2832 45.7083 35.3788 46.5784 35.6902 47.3663C35.8357 47.762 36.0071 48.1534 36.2525 48.5081C36.377 48.6837 36.5221 48.8506 36.7048 48.9801C36.8796 49.1152 37.1289 49.1835 37.3345 49.19C37.7544 49.2265 38.1751 49.2393 38.5942 49.2443C39.0125 49.2455 39.4308 49.2595 39.8553 49.2303C40.2744 49.1882 40.7126 49.1643 41.1079 48.9009C41.2023 48.8311 41.2913 48.7258 41.3217 48.595C41.3529 48.4643 41.3241 48.3356 41.2808 48.2267C41.1844 48.0129 41.0384 47.8473 40.8878 47.694C40.585 47.3908 40.2377 47.1357 39.8772 46.9168C39.5213 46.6947 39.1564 46.4913 38.8529 46.2269C38.5419 45.9678 38.3507 45.6208 38.3159 45.2193C38.2742 44.8224 38.33 44.4116 38.415 44.0105C38.5961 43.2055 38.8599 42.4133 39.2056 41.6622C39.89 40.1478 40.9346 38.8378 42.0011 37.5548C43.0504 36.2659 44.1691 34.9544 44.74 33.3265C44.7739 33.2281 44.7969 33.1275 44.8258 33.028C45.3694 33.3772 45.8099 33.8962 46.1697 34.4557C47.0469 35.8445 47.5667 37.4463 48.1926 38.9982C48.8099 40.5563 49.4916 42.0937 50.2763 43.5797C50.6677 44.3226 51.0825 45.0531 51.5176 45.7707C51.9597 46.486 52.3905 47.1992 52.9016 47.8848C53.1611 48.2235 53.446 48.5537 53.8026 48.8233C53.9802 48.9571 54.1768 49.0747 54.3934 49.1562C54.6119 49.2358 54.8328 49.2753 55.0505 49.2983C55.4856 49.3419 55.9094 49.3271 56.3281 49.3158L57.5811 49.2881C58.0044 49.2693 58.4266 49.2721 58.8793 49.13C58.9917 49.0894 59.1122 49.0367 59.2207 48.9271C59.3335 48.8206 59.3905 48.6302 59.3643 48.4877Z" fill="white"/>
<path d="M60.5131 18.3424C60.1674 19.755 59.7113 21.1469 59.1037 22.4635C58.9511 22.792 58.7865 23.1147 58.605 23.4253C58.422 23.732 58.2269 24.045 57.9881 24.2814C57.8667 24.3997 57.7364 24.4781 57.624 24.4535C57.5062 24.4368 57.3778 24.3263 57.2732 24.1983C57.0594 23.9369 56.8982 23.6115 56.7394 23.2903C56.1401 21.9745 55.5266 20.6224 54.772 19.3687C54.0325 18.1025 53.2123 16.894 52.4963 15.6324C52.14 14.9999 51.8239 14.3471 51.5465 13.6755C51.2811 13.027 51.0408 12.3648 50.7637 11.7159C50.9479 11.8575 51.1336 11.9968 51.3124 12.1451C51.8665 12.6071 52.385 13.1109 52.9173 13.6131C53.4464 14.1161 54.0021 14.6198 54.6428 15.0182C55.2847 15.417 56.0023 15.6757 56.734 15.8322C57.4648 15.9797 58.2015 16.0277 58.9039 16.1452C59.0768 16.1764 59.2512 16.2134 59.3952 16.2739C59.4662 16.3028 59.5275 16.3426 59.5517 16.3742C59.5712 16.4035 59.5763 16.4156 59.556 16.4788C59.5111 16.5974 59.3897 16.7293 59.2633 16.8366C59.1349 16.947 58.9902 17.0434 58.8384 17.1269C58.2292 17.4641 57.4976 17.5928 56.8424 17.3369C56.5123 17.2194 56.1974 17.0473 55.8962 16.8526C55.737 16.7547 55.6133 16.654 55.4193 16.5471C55.3971 16.54 55.4002 16.5326 55.3491 16.5268C55.328 16.5244 55.2543 16.5299 55.2242 16.6029C55.2086 16.6458 55.2172 16.6778 55.2195 16.6868C55.2352 16.7398 55.2496 16.7566 55.2636 16.7816C55.2925 16.8269 55.3214 16.8643 55.351 16.9022C55.4104 16.9767 55.4724 17.0465 55.5348 17.1152C56.0421 17.6549 56.6056 18.1341 57.2323 18.529C57.5472 18.7225 57.8804 18.895 58.2445 18.9937C58.4259 19.0429 58.6163 19.0721 58.8091 19.0596C59.003 19.0495 59.1911 18.9781 59.3566 18.8825C59.682 18.6745 59.9138 18.3697 60.1073 18.056C60.3001 17.7403 60.4531 17.4048 60.6045 17.0739C60.6431 16.9919 60.6813 16.9092 60.7239 16.8331C60.7403 16.8062 60.7578 16.7789 60.775 16.7566C60.7882 16.917 60.7586 17.1023 60.7336 17.276C60.6766 17.6334 60.5982 17.9893 60.5131 18.3424ZM49.6313 11.3245C49.27 11.3346 48.9063 11.321 48.5426 11.3054C47.8141 11.2741 47.0856 11.2379 46.361 11.1801C45.9989 11.1504 45.6375 11.1157 45.2801 11.0669C44.9269 11.0143 44.5605 10.962 44.2527 10.8434C44.1797 10.8149 44.1083 10.7727 44.0845 10.7438C44.0825 10.7411 44.0833 10.7423 44.0825 10.7407C44.0845 10.7372 44.0896 10.7275 44.1024 10.7119C44.1832 10.6186 44.3424 10.5234 44.493 10.45C44.804 10.2994 45.1447 10.189 45.4877 10.1094C45.8315 10.0298 46.1826 9.9845 46.5284 9.9802C46.8757 9.97084 47.1976 10.0438 47.5449 10.1515C48.227 10.3614 48.9016 10.635 49.547 10.9475C49.7574 11.0525 49.9614 11.1641 50.1577 11.2839C49.9845 11.3085 49.8069 11.3186 49.6313 11.3245ZM50.2564 10.6521C50.0848 10.3263 49.8612 10.0341 49.702 9.71018C49.5412 9.38669 49.4479 9.03199 49.3913 8.67456C49.3636 8.49545 49.3461 8.314 49.35 8.13373C49.3519 8.04359 49.3601 7.95345 49.3812 7.86721C49.4027 7.78448 49.4425 7.69279 49.5221 7.67367C49.6899 7.66547 49.8381 7.81492 49.9665 7.92964C50.0961 8.05568 50.2139 8.19421 50.3251 8.33781C50.5468 8.625 50.7364 8.93678 50.8886 9.26495C51.0353 9.59429 51.1504 9.9447 51.1606 10.3021C51.1649 10.4789 51.1403 10.6592 51.0591 10.811C50.9795 10.9604 50.8425 11.0705 50.6861 11.1415C50.5967 11.0755 50.505 11.015 50.4121 10.9577C50.3606 10.8555 50.3111 10.7528 50.2564 10.6521ZM60.8507 16.6353C60.8323 16.6103 60.7754 16.6056 60.7586 16.6181C60.7321 16.6282 60.7246 16.6392 60.7106 16.6501C60.6688 16.6922 60.647 16.7324 60.6212 16.7742C60.574 16.8569 60.535 16.94 60.4956 17.0227C60.3407 17.3536 60.1873 17.6822 59.9973 17.9885C59.8073 18.2917 59.5805 18.5797 59.2852 18.7646C58.9878 18.9488 58.6226 18.9558 58.2835 18.8528C57.9436 18.7533 57.6244 18.5809 57.3228 18.3865C56.7542 18.0119 56.2349 17.5546 55.7736 17.0543C56.078 17.2592 56.4015 17.4457 56.7542 17.5792C57.1074 17.7146 57.5066 17.7794 57.8898 17.7321C58.2733 17.69 58.6417 17.569 58.9804 17.3919C59.1497 17.3029 59.3121 17.1995 59.4635 17.0754C59.6122 16.9478 59.7608 16.8155 59.8568 16.5943C59.9075 16.4917 59.9122 16.2958 59.8155 16.1799C59.7273 16.0655 59.6235 16.0133 59.5294 15.9688C59.3374 15.8853 59.1521 15.8451 58.9675 15.8072C58.2328 15.6699 57.5081 15.6227 56.8085 15.4724C56.1166 15.3171 55.4439 15.0678 54.8477 14.6893C54.2499 14.3108 53.7207 13.825 53.1979 13.3185C52.6761 12.812 52.1439 12.3012 51.575 11.8302C51.3159 11.6171 51.0501 11.4123 50.7801 11.2129C50.9292 11.1298 51.063 11.0092 51.1395 10.8527C51.2261 10.6791 51.2499 10.4855 51.2429 10.2994C51.2265 9.9248 51.1036 9.56931 50.9502 9.23685C50.791 8.90478 50.5951 8.59223 50.3673 8.30464C50.2533 8.16143 50.132 8.0229 49.9985 7.89609C49.931 7.83326 49.8608 7.77317 49.7831 7.72166C49.7059 7.67289 49.6185 7.62021 49.5139 7.63543C49.4058 7.66313 49.3648 7.77122 49.3402 7.85667C49.3172 7.94759 49.3078 8.04008 49.3047 8.13217C49.2989 8.31673 49.3145 8.50052 49.3402 8.68197C49.3933 9.04409 49.4834 9.40543 49.6446 9.73828C49.8038 10.0723 50.0239 10.3657 50.1889 10.6888C50.2225 10.7517 50.2514 10.8172 50.2834 10.8812C50.0988 10.7747 49.9103 10.6787 49.7234 10.5858C49.0542 10.2651 48.3709 9.99074 47.658 9.773C47.3096 9.66413 46.9104 9.57595 46.5249 9.58921C46.1401 9.5935 45.7655 9.6575 45.4003 9.74803C45.035 9.84168 44.6788 9.96421 44.3362 10.1386C44.1653 10.2323 43.9967 10.3181 43.8379 10.5031C43.8004 10.5534 43.7567 10.6178 43.7473 10.7161C43.7376 10.8149 43.7871 10.9136 43.8371 10.9639C43.9393 11.0693 44.0384 11.1067 44.1333 11.1458C44.5118 11.28 44.8766 11.3202 45.245 11.3612C45.6125 11.3982 45.9786 11.4201 46.345 11.4365C47.077 11.4692 47.8079 11.4778 48.538 11.4856C48.9032 11.4892 49.27 11.4911 49.638 11.4685C49.86 11.4536 50.0855 11.4294 50.3068 11.3799C50.3575 11.4135 50.4125 11.4427 50.4609 11.479C50.5085 11.5141 50.5534 11.5528 50.6006 11.5883C50.6131 11.6191 50.6271 11.6499 50.6392 11.6807C50.9061 12.3578 51.1305 13.0516 51.3857 13.7379C51.6436 14.4239 51.9414 15.0974 52.2801 15.7487C52.9524 17.0563 53.768 18.271 54.4789 19.538C54.8344 20.1717 55.1852 20.807 55.5087 21.4571C55.8396 22.1045 56.1272 22.767 56.4495 23.4327C56.6153 23.7629 56.7909 24.093 57.0457 24.3934C57.1753 24.5363 57.3333 24.6966 57.5831 24.7364C57.7052 24.7548 57.8359 24.7236 57.9327 24.6681C58.0314 24.6139 58.1091 24.546 58.1793 24.4758C58.4517 24.1894 58.6351 23.8682 58.8177 23.5463C58.9964 23.2224 59.1548 22.8896 59.3012 22.5524C59.8767 21.1999 60.3028 19.796 60.6443 18.3733C60.7262 18.0166 60.8011 17.6584 60.8558 17.2947C60.8788 17.1101 60.9112 16.9338 60.8917 16.7316C60.8862 16.7059 60.8862 16.6766 60.8507 16.6353Z" fill="white"/>
<path d="M3.44938 55.3176C2.81146 55.3176 2.14034 55.3559 1.43628 55.4328V61.4077H3.87889C5.43029 61.3417 6.20599 60.2305 6.20599 58.0734C6.20599 57.1934 5.9746 56.5141 5.5129 56.0353C5.05061 55.5568 4.36302 55.3176 3.44938 55.3176ZM0.0664062 55.2846C1.34267 55.1963 2.46468 55.1523 3.43307 55.1523C6.16162 55.1523 7.526 56.1153 7.526 58.0406C7.526 58.9318 7.29507 59.7135 6.83294 60.3841C6.59117 60.7471 6.21696 61.0358 5.71109 61.2508C5.20424 61.4655 4.59379 61.5723 3.87889 61.5723H1.43628V66.7056H0.0664062V55.2846Z" fill="white"/>
<path d="M13.6013 56.9348L11.0099 62.9097H15.7139L13.6013 56.9348ZM9.37573 66.7056H9.17773L14.1127 55.1523L14.2942 55.0695L18.4536 66.7056H17.0502L15.7632 63.0743H10.9444L9.37573 66.7056Z" fill="white"/>
<path d="M22.7104 66.7056H22.4961L23.9321 55.1523H24.477L27.9424 65.8308L31.3923 55.1523H31.9364L33.3723 66.7056H32.0027L30.8637 57.4631L27.8769 66.7056H26.837L23.8167 57.5786L22.7104 66.7056Z" fill="white"/>
<path d="M41.5437 55.3176C40.9053 55.3176 40.2337 55.3559 39.5298 55.4328V61.4077H41.9725C43.524 61.3417 44.2997 60.2305 44.2997 58.0734C44.2997 57.1934 44.0691 56.5141 43.6067 56.0353C43.1443 55.5568 42.4568 55.3176 41.5437 55.3176ZM38.1602 55.2846C39.4365 55.1963 40.5588 55.1523 41.5273 55.1523C44.256 55.1523 45.6202 56.1153 45.6202 58.0406C45.6202 58.9318 45.3896 59.7135 44.9272 60.3841C44.6849 60.7471 44.3107 61.0358 43.8046 61.2508C43.2985 61.4655 42.6882 61.5723 41.9725 61.5723H39.5298V66.7056H38.1602V55.2846Z" fill="white"/>
<path d="M53.1292 55.3176C52.4916 55.3176 51.8201 55.3559 51.1161 55.4328V61.4077H53.5585C55.1099 61.3417 55.8857 60.2305 55.8857 58.0734C55.8857 57.1934 55.6543 56.5141 55.1927 56.0353C54.7303 55.5568 54.0427 55.3176 53.1292 55.3176ZM49.7461 55.2846C51.0225 55.1963 52.1443 55.1523 53.1128 55.1523C55.8412 55.1523 57.2058 56.1153 57.2058 58.0406C57.2058 58.9318 56.9751 59.7135 56.5127 60.3841C56.2712 60.7471 55.897 61.0358 55.3909 61.2508C54.884 61.4655 54.2737 61.5723 53.5585 61.5723H51.1161V66.7056H49.7461V55.2846Z" fill="white"/>
<path d="M68.4928 55.1523C68.702 55.3614 68.807 55.6311 68.807 55.9612C68.807 56.2362 68.7465 56.5168 68.6255 56.8027L65.6708 62.7937V66.7056H64.3012V63.1571L61 55.1523H62.4032L65.5553 62.5959L68.4273 56.8027C68.5483 56.5278 68.6091 56.2417 68.6091 55.9447C68.6091 55.6474 68.5264 55.4164 68.3613 55.2513L68.4928 55.1523Z" fill="white"/>
<path d="M11.0976 74.211H11.3885V75.4316C11.2264 75.5685 11.0378 75.6758 10.8234 75.7535C10.6089 75.8316 10.3902 75.8706 10.1676 75.8706C9.85287 75.8706 9.56278 75.7941 9.29728 75.6415C9.03175 75.4889 8.82107 75.2821 8.66514 75.0212C8.50937 74.7608 8.43164 74.4764 8.43164 74.1677C8.43164 73.8591 8.50937 73.5762 8.66514 73.319C8.82107 73.0611 9.03327 72.857 9.30201 72.7064C9.57086 72.5551 9.86399 72.4796 10.1821 72.4796C10.4077 72.4796 10.6261 72.5191 10.8377 72.5986C11.0491 72.6784 11.2358 72.7895 11.398 72.9323L11.2073 73.1661C11.0708 73.0393 10.9133 72.9413 10.7351 72.873C10.5572 72.8047 10.3728 72.7707 10.1821 72.7707C9.9242 72.7707 9.68765 72.8332 9.47136 72.9588C9.25491 73.0844 9.08341 73.2539 8.95628 73.4669C8.82903 73.68 8.76562 73.9136 8.76562 74.1677C8.76562 74.4249 8.82903 74.6613 8.95628 74.8759C9.08341 75.091 9.25612 75.2607 9.47362 75.3859C9.69144 75.512 9.92923 75.5747 10.1867 75.5747C10.3455 75.5747 10.5039 75.5483 10.6612 75.496C10.8186 75.4437 10.964 75.3696 11.0976 75.2743V74.211Z" fill="white"/>
<path d="M14.3173 74.4678C14.6353 74.4678 14.88 74.3957 15.0515 74.2509C15.2235 74.1061 15.3093 73.8974 15.3093 73.6238C15.3093 73.3569 15.2235 73.1533 15.0515 73.0132C14.88 72.8734 14.6353 72.8036 14.3173 72.8036H13.4015V74.4678H14.3173ZM15.271 75.8413L14.5511 74.7539C14.4491 74.7605 14.3711 74.7637 14.3173 74.7637H13.4015V75.8413H13.0723V72.5077H14.3173C14.7337 72.5077 15.0558 72.6042 15.2829 72.7961C15.5103 72.9885 15.6242 73.2613 15.6242 73.6145C15.6242 73.8907 15.5571 74.1213 15.4238 74.3055C15.2901 74.49 15.0994 74.6189 14.8514 74.6922L15.6527 75.8413H15.271Z" fill="white"/>
<path d="M17.9518 72.9613C17.7353 73.0853 17.5639 73.2539 17.4369 73.4669C17.3095 73.68 17.2461 73.9136 17.2461 74.1677C17.2461 74.4221 17.3095 74.6578 17.4369 74.8736C17.5639 75.0902 17.7353 75.2607 17.9518 75.3859C18.1679 75.512 18.4033 75.5747 18.6575 75.5747C18.9087 75.5747 19.1415 75.512 19.3562 75.3859C19.5709 75.2607 19.7419 75.0902 19.869 74.8736C19.9961 74.6578 20.0597 74.4221 20.0597 74.1677C20.0597 73.9136 19.9961 73.68 19.869 73.4669C19.7419 73.2539 19.5709 73.0853 19.3562 72.9613C19.1415 72.8375 18.9087 72.775 18.6575 72.775C18.4033 72.775 18.1679 72.8375 17.9518 72.9613ZM19.5279 72.7064C19.7935 72.857 20.0042 73.0611 20.1597 73.319C20.3156 73.5762 20.3937 73.8591 20.3937 74.1677C20.3937 74.4764 20.3156 74.7608 20.1597 75.0212C20.0042 75.2821 19.7935 75.4889 19.5279 75.6415C19.2625 75.7941 18.9707 75.8706 18.6528 75.8706C18.3349 75.8706 18.0433 75.7941 17.7777 75.6415C17.5123 75.4889 17.3015 75.2821 17.1458 75.0212C16.9898 74.7608 16.9121 74.4764 16.9121 74.1677C16.9121 73.8591 16.9898 73.5762 17.1458 73.319C17.3015 73.0611 17.5123 72.857 17.7777 72.7064C18.0433 72.5551 18.3349 72.4796 18.6528 72.4796C18.9707 72.4796 19.2625 72.5551 19.5279 72.7064Z" fill="white"/>
<path d="M22.4811 72.9613C22.2647 73.0853 22.0932 73.2539 21.966 73.4669C21.8388 73.68 21.7754 73.9136 21.7754 74.1677C21.7754 74.4221 21.8388 74.6578 21.966 74.8736C22.0932 75.0902 22.2647 75.2607 22.4811 75.3859C22.6974 75.512 22.9324 75.5747 23.1868 75.5747C23.438 75.5747 23.6708 75.512 23.8856 75.3859C24.1 75.2607 24.2712 75.0902 24.3983 74.8736C24.5253 74.6578 24.589 74.4221 24.589 74.1677C24.589 73.9136 24.5253 73.68 24.3983 73.4669C24.2712 73.2539 24.1 73.0853 23.8856 72.9613C23.6708 72.8375 23.438 72.775 23.1868 72.775C22.9324 72.775 22.6974 72.8375 22.4811 72.9613ZM24.0572 72.7064C24.3229 72.857 24.5335 73.0611 24.6891 73.319C24.8449 73.5762 24.923 73.8591 24.923 74.1677C24.923 74.4764 24.8449 74.7608 24.6891 75.0212C24.5335 75.2821 24.3229 75.4889 24.0572 75.6415C23.7918 75.7941 23.5001 75.8706 23.1821 75.8706C22.8643 75.8706 22.5725 75.7941 22.307 75.6415C22.0415 75.4889 21.8308 75.2821 21.6749 75.0212C21.5191 74.7608 21.4414 74.4764 21.4414 74.1677C21.4414 73.8591 21.5191 73.5762 21.6749 73.319C21.8308 73.0611 22.0415 72.857 22.307 72.7064C22.5725 72.5551 22.8643 72.4796 23.1821 72.4796C23.5001 72.4796 23.7918 72.5551 24.0572 72.7064Z" fill="white"/>
<path d="M26.3633 72.5027H26.7735L28.0804 75.0071L29.3726 72.5027H29.7827V75.8413H29.4775L29.4729 72.9609L28.166 75.4836H27.9848L26.6733 72.9609V75.8413H26.3633V72.5027Z" fill="white"/>
<path d="M31.5449 72.5077H31.8738V75.8413H31.5449V72.5077Z" fill="white"/>
<path d="M36.0588 72.5077H36.3834V75.8413H36.0354L33.97 73.0182V75.8413H33.6406V72.5077H33.9891L36.0588 75.331V72.5077Z" fill="white"/>
<path d="M40.4941 74.211H40.7851V75.4316C40.6228 75.5685 40.4347 75.6758 40.2201 75.7535C40.0051 75.8316 39.7866 75.8706 39.5642 75.8706C39.2493 75.8706 38.9593 75.7941 38.694 75.6415C38.4283 75.4889 38.2176 75.2821 38.0619 75.0212C37.9062 74.7608 37.8281 74.4764 37.8281 74.1677C37.8281 73.8591 37.9062 73.5762 38.0619 73.319C38.2176 73.0611 38.4298 72.857 38.6987 72.7064C38.9672 72.5551 39.2606 72.4796 39.5786 72.4796C39.8042 72.4796 40.0227 72.5191 40.2342 72.5986C40.4457 72.6784 40.6326 72.7895 40.7945 72.9323L40.6041 73.1661C40.4671 73.0393 40.3099 72.9413 40.1315 72.873C39.9536 72.8047 39.7694 72.7707 39.5786 72.7707C39.3211 72.7707 39.0842 72.8332 38.868 72.9588C38.6515 73.0844 38.4802 73.2539 38.353 73.4669C38.2258 73.68 38.1621 73.9136 38.1621 74.1677C38.1621 74.4249 38.2258 74.6613 38.353 74.8759C38.4802 75.091 38.6526 75.2607 38.8704 75.3859C39.0881 75.512 39.3258 75.5747 39.5833 75.5747C39.7421 75.5747 39.9001 75.5483 40.0578 75.496C40.215 75.4437 40.3606 75.3696 40.4941 75.2743V74.211Z" fill="white"/>
<path d="M45.2384 73.8815C45.3972 73.7987 45.5252 73.7254 45.622 73.6617C45.7191 73.5986 45.7987 73.5243 45.8604 73.4405C45.9224 73.3562 45.9537 73.2582 45.9537 73.147C45.9537 73.0163 45.9092 72.9109 45.8198 72.8297C45.7312 72.7486 45.613 72.7084 45.4671 72.7084C45.3079 72.7084 45.1795 72.7544 45.0808 72.8465C44.982 72.9387 44.9329 73.055 44.9329 73.1946C44.9329 73.3823 45.0347 73.6109 45.2384 73.8815ZM46.0871 75.1452C45.6516 74.716 45.3434 74.3933 45.1619 74.1769C44.9582 74.2915 44.801 74.405 44.6898 74.5178C44.5786 74.6309 44.5228 74.7683 44.5228 74.9306C44.5228 75.1246 44.591 75.2853 44.728 75.4121C44.8646 75.5394 45.0332 75.6034 45.2333 75.6034C45.5322 75.6034 45.8167 75.4501 46.0871 75.1452ZM46.8359 75.8848C46.6927 75.7415 46.5035 75.5554 46.2686 75.3263C46.1156 75.4981 45.9505 75.6292 45.7726 75.72C45.5943 75.8105 45.4113 75.8558 45.2236 75.8558C45.0456 75.8558 44.8821 75.816 44.7327 75.7368C44.5832 75.6572 44.465 75.5479 44.3772 75.4098C44.2898 75.2717 44.2461 75.1179 44.2461 74.9498C44.2461 74.7304 44.3136 74.5491 44.449 74.4058C44.584 74.263 44.7741 74.1264 45.0191 73.9961C44.9013 73.8432 44.8131 73.7014 44.7541 73.5711C44.6952 73.4408 44.666 73.3157 44.666 73.1946C44.666 73.0608 44.6991 72.941 44.7662 72.8344C44.8326 72.7279 44.9274 72.6443 45.0499 72.584C45.1721 72.5238 45.3114 72.4934 45.4671 72.4934C45.6895 72.4934 45.8709 72.5547 46.0106 72.6771C46.1507 72.7994 46.2206 72.9578 46.2206 73.1516C46.2206 73.2914 46.1823 73.4158 46.1062 73.5236C46.0298 73.6321 45.9361 73.7234 45.8249 73.7982C45.7133 73.8724 45.5658 73.959 45.3812 74.0578C45.5467 74.2579 45.8311 74.5568 46.235 74.9541C46.3653 74.7605 46.4828 74.5376 46.5878 74.2864L46.8121 74.4488C46.6943 74.716 46.5639 74.9448 46.4207 75.1354L47.0076 75.7177L46.8359 75.8848Z" fill="white"/>
<path d="M51.7157 72.8539C51.5534 72.8074 51.4008 72.7841 51.2576 72.7841C51.0289 72.7841 50.8451 72.8297 50.707 72.9207C50.5685 73.0108 50.4994 73.1341 50.4994 73.2898C50.4994 73.4264 50.5377 73.538 50.6137 73.6238C50.6902 73.7093 50.7839 73.7772 50.8955 73.8264C51.0067 73.8755 51.1589 73.9305 51.3532 73.991C51.5787 74.0578 51.761 74.1236 51.8991 74.1888C52.0376 74.2539 52.1551 74.3488 52.2522 74.4725C52.349 74.5966 52.3974 74.7605 52.3974 74.9638C52.3974 75.1421 52.3475 75.2994 52.2472 75.4363C52.1473 75.5729 52.0064 75.6782 51.8254 75.7532C51.6443 75.8277 51.4359 75.8652 51.2002 75.8652C50.9685 75.8652 50.7417 75.8192 50.5209 75.727C50.2996 75.6349 50.11 75.5124 49.9512 75.3598L50.1037 75.0879C50.2532 75.2342 50.4261 75.3485 50.6235 75.4313C50.8206 75.514 51.0145 75.5554 51.2053 75.5554C51.4597 75.5554 51.6615 75.5039 51.8109 75.4001C51.9604 75.297 52.0353 75.1577 52.0353 74.9829C52.0353 74.8432 51.997 74.7285 51.9206 74.6396C51.8445 74.5506 51.7508 74.4823 51.6392 74.4343C51.528 74.3867 51.3723 74.3312 51.1721 74.2677C50.9462 74.1979 50.7652 74.1319 50.6282 74.0698C50.4916 74.0078 50.3757 73.9157 50.2797 73.7927C50.1845 73.6706 50.1369 73.5107 50.1369 73.3136C50.1369 73.145 50.1845 72.9972 50.2797 72.8704C50.3757 72.7431 50.5088 72.6451 50.6809 72.5768C50.8522 72.5085 51.0512 72.4742 51.2771 72.4742C51.4582 72.4742 51.64 72.5012 51.823 72.5555C52.0056 72.6097 52.1668 72.6811 52.3069 72.7704L52.1641 73.0513C52.0271 72.9655 51.8776 72.8996 51.7157 72.8539Z" fill="white"/>
<path d="M55.8807 74.2509C56.054 74.1061 56.1406 73.8974 56.1406 73.6238C56.1406 73.3569 56.0548 73.1533 55.8831 73.0132C55.7114 72.8734 55.4652 72.8036 55.1436 72.8036H54.2567V74.4678H55.1436C55.4617 74.4678 55.7075 74.3957 55.8807 74.2509ZM56.1168 72.7961C56.3428 72.9885 56.4555 73.2613 56.4555 73.6145C56.4555 73.98 56.3428 74.2629 56.1168 74.4632C55.8909 74.6634 55.5713 74.7637 55.1581 74.7637H54.2567V75.8413H53.9277V72.5077H55.1581C55.5713 72.5077 55.8909 72.6042 56.1168 72.7961Z" fill="white"/>
<path d="M58.0252 74.6591H59.6181L58.817 72.8559L58.0252 74.6591ZM60.1425 75.8413L59.7469 74.954H57.8965L57.5055 75.8413H57.1523L58.6547 72.5077H58.998L60.5004 75.8413H60.1425Z" fill="white"/>
</svg>
