<svg width="75" height="76" viewBox="0 0 75 76" fill="none" xmlns="http://www.w3.org/2000/svg">
<path d="M39.4526 21.7131C39.5997 21.7722 39.7569 21.8023 39.9154 21.8017C40.1648 21.8018 40.4086 21.7271 40.6152 21.5872C40.8217 21.4474 40.9816 21.2488 41.0742 21.0171L46.0636 8.54356C46.1244 8.39138 46.1546 8.22873 46.1525 8.06488C46.1504 7.90103 46.1161 7.7392 46.0514 7.58863C45.9868 7.43805 45.8931 7.30168 45.7758 7.1873C45.6585 7.07292 45.5198 6.98277 45.3676 6.922C45.2154 6.86122 45.0528 6.83102 44.8889 6.83311C44.7251 6.8352 44.5632 6.86954 44.4126 6.93417C44.2621 6.9988 44.1257 7.09246 44.0113 7.2098C43.8969 7.32713 43.8068 7.46585 43.746 7.61802L38.7566 20.0916C38.6958 20.2437 38.6655 20.4064 38.6676 20.5703C38.6696 20.7341 38.704 20.896 38.7686 21.0466C38.8332 21.1972 38.9269 21.3335 39.0443 21.4479C39.1617 21.5623 39.3004 21.6524 39.4526 21.7131Z" fill="#72AF3A"/>
<path d="M59.4102 21.8903L46.9366 26.8797C46.6671 26.9871 46.4434 27.185 46.3041 27.4395C46.1648 27.694 46.1185 27.9891 46.1733 28.2741C46.2281 28.559 46.3805 28.8159 46.6043 29.0005C46.8281 29.1852 47.1092 29.2861 47.3994 29.2858C47.5579 29.2864 47.715 29.2563 47.8622 29.1973L60.3357 24.2078C60.643 24.0851 60.889 23.8453 61.0196 23.5412C61.1501 23.2371 61.1545 22.8936 61.0317 22.5863C60.909 22.279 60.6692 22.033 60.3651 21.9024C60.061 21.7719 59.7175 21.7675 59.4102 21.8903Z" fill="#72AF3A"/>
<path d="M68.8453 31.7804H28.5744C27.7699 31.7819 26.9864 31.5241 26.3399 31.0453C25.6935 30.5664 25.2186 29.892 24.9856 29.122C24.7526 28.3519 24.774 27.5273 25.0466 26.7704C25.3192 26.0135 25.8284 25.3646 26.4988 24.9199L32.9028 20.6502C34.5445 19.5556 35.7671 17.9371 36.3713 16.0586C36.9754 14.1801 36.9254 12.1524 36.2295 10.3059C36.0628 9.8673 35.806 9.46851 35.4757 9.13526C35.1454 8.80202 34.7489 8.54173 34.3118 8.37118C33.8746 8.20064 33.4066 8.12363 32.9379 8.14513C32.4692 8.16663 32.0102 8.28615 31.5905 8.496L0 24.2963V67.9537C11.0042 72.8213 22.8934 75.369 34.926 75.4378C36.2196 75.5009 37.4911 75.0852 38.4978 74.2703C39.5044 73.4553 40.1756 72.2981 40.3831 71.0197C40.6183 70.1941 40.624 69.3201 40.3996 68.4915C40.1752 67.663 39.7292 66.9112 39.1096 66.3172C39.0266 66.2424 38.9653 66.1468 38.9319 66.0402C38.8985 65.9337 38.8944 65.8201 38.9198 65.7114C38.9453 65.6027 38.9995 65.5029 39.0768 65.4222C39.1541 65.3416 39.2515 65.2832 39.3591 65.2532C40.4811 64.9765 41.4916 64.3628 42.2544 63.4946C43.0173 62.6265 43.4961 61.5456 43.6263 60.3972C43.7205 59.4119 43.5771 58.4184 43.2081 57.4999C42.8392 56.5814 42.2554 55.7648 41.5058 55.1184C41.4218 55.0438 41.3596 54.9479 41.3256 54.8409C41.2916 54.7339 41.2872 54.6196 41.3127 54.5103C41.3383 54.4009 41.3929 54.3005 41.4707 54.2196C41.5486 54.1387 41.6469 54.0803 41.7552 54.0507C42.8961 53.7858 43.9272 53.1748 44.7074 52.3013C45.4876 51.4278 45.9787 50.3345 46.1135 49.171C46.2208 48.0801 46.0063 46.9816 45.4964 46.0111C44.9866 45.0407 44.2038 44.2408 43.2446 43.7101C43.1705 43.6702 43.1121 43.6065 43.0786 43.5293C43.0452 43.452 43.0388 43.3658 43.0605 43.2845C43.0821 43.2032 43.1305 43.1315 43.1978 43.0811C43.2652 43.0307 43.3476 43.0044 43.4317 43.0066H68.6046C70.0293 43.0304 71.4125 42.5267 72.4883 41.5923C73.564 40.6579 74.2564 39.3588 74.4322 37.9448C74.5092 37.1649 74.422 36.3775 74.1763 35.6334C73.9305 34.8892 73.5316 34.2047 73.0054 33.624C72.4791 33.0433 71.837 32.5793 71.1205 32.2618C70.404 31.9442 69.629 31.7803 68.8453 31.7804Z" fill="#72AF3A"/>
<path d="M55.249 12.705C55.4829 12.9388 55.8001 13.0702 56.1309 13.0702C56.4616 13.0702 56.7788 12.9388 57.0128 12.705L61.1203 8.59741L65.2278 12.705C65.4631 12.9322 65.7782 13.0579 66.1052 13.0551C66.4323 13.0522 66.7451 12.921 66.9764 12.6898C67.2077 12.4585 67.3389 12.1456 67.3417 11.8186C67.3445 11.4915 67.2188 11.1764 66.9916 10.9412L62.8841 6.83365L66.9916 2.72611C67.1107 2.61104 67.2058 2.4734 67.2711 2.32122C67.3365 2.16904 67.3709 2.00536 67.3724 1.83974C67.3738 1.67411 67.3422 1.50986 67.2795 1.35657C67.2168 1.20327 67.1242 1.064 67.0071 0.946885C66.8899 0.829767 66.7507 0.737147 66.5974 0.674429C66.4441 0.611711 66.2798 0.580151 66.1142 0.58159C65.9486 0.583029 65.7849 0.617439 65.6327 0.682812C65.4805 0.748185 65.3429 0.843211 65.2278 0.962346L61.1203 5.06989L57.0128 0.962346C56.7775 0.73513 56.4624 0.609404 56.1354 0.612246C55.8083 0.615088 55.4955 0.746271 55.2642 0.977541C55.0329 1.20881 54.9017 1.52166 54.8989 1.84872C54.8961 2.17577 55.0218 2.49085 55.249 2.72611L59.3565 6.83365L55.249 10.9412C55.0152 11.1751 54.8838 11.4923 54.8838 11.8231C54.8838 12.1538 55.0152 12.471 55.249 12.705Z" fill="#72AF3A"/>
<path d="M40.2807 27.6731C40.5146 27.907 40.8319 28.0383 41.1626 28.0383C41.4934 28.0383 41.8106 27.907 42.0445 27.6731L53.2707 16.4469C53.4979 16.2117 53.6236 15.8966 53.6208 15.5695C53.618 15.2425 53.4868 14.9296 53.2555 14.6983C53.0242 14.4671 52.7114 14.3359 52.3843 14.3331C52.0573 14.3302 51.7422 14.4559 51.5069 14.6832L40.2807 25.9094C40.0469 26.1433 39.9155 26.4605 39.9155 26.7912C39.9155 27.122 40.0469 27.4392 40.2807 27.6731Z" fill="#72AF3A"/>
</svg>
