<svg width="24" height="24" viewBox="0 0 24 24" fill="none" xmlns="http://www.w3.org/2000/svg">
<path d="M24 15H0V17H24V15Z" fill="white"/>
<path d="M8 11H2V13H8V11Z" fill="white"/>
<path d="M4 4C4 4.552 4.448 5 5 5H19.719L17.787 12.728L19.727 13.213L21.97 4.243C22.045 3.944 21.977 3.628 21.788 3.385C21.599 3.142 21.308 3 21 3H6V1C6 0.448 5.552 0 5 0H0V2H4V4Z" fill="white"/>
<path d="M10 7H4V9H10V7Z" fill="white"/>
<path d="M5.5 24C6.88071 24 8 22.8807 8 21.5C8 20.1193 6.88071 19 5.5 19C4.11929 19 3 20.1193 3 21.5C3 22.8807 4.11929 24 5.5 24Z" fill="white"/>
<path d="M20.5 24C21.8807 24 23 22.8807 23 21.5C23 20.1193 21.8807 19 20.5 19C19.1193 19 18 20.1193 18 21.5C18 22.8807 19.1193 24 20.5 24Z" fill="white"/>
</svg>
