<svg width="42" height="42" viewBox="0 0 42 42" fill="none" xmlns="http://www.w3.org/2000/svg">
<path fill-rule="evenodd" clip-rule="evenodd" d="M32.2071 9.79289C32.5976 10.1834 32.5976 10.8166 32.2071 11.2071L11.2071 32.2071C10.8166 32.5976 10.1834 32.5976 9.79289 32.2071C9.40237 31.8166 9.40237 31.1834 9.79289 30.7929L30.7929 9.79289C31.1834 9.40237 31.8166 9.40237 32.2071 9.79289Z" fill="#fff"/>
<path fill-rule="evenodd" clip-rule="evenodd" d="M9.79289 9.79289C10.1834 9.40237 10.8166 9.40237 11.2071 9.79289L32.2071 30.7929C32.5976 31.1834 32.5976 31.8166 32.2071 32.2071C31.8166 32.5976 31.1834 32.5976 30.7929 32.2071L9.79289 11.2071C9.40237 10.8166 9.40237 10.1834 9.79289 9.79289Z" fill="#fff"/>
</svg>
