<svg width="447" height="477" viewBox="0 0 447 477" fill="none" xmlns="http://www.w3.org/2000/svg">
<path d="M101.163 99.3043C95.843 81.0174 92.0136 57.6996 94.318 38.7705C96.8498 17.9731 108.979 50.9377 113.783 56.7381C119.974 64.2141 122.098 43.9343 124.692 39.1983C129.785 29.8972 138.51 11.7639 148.863 7.32709C160.055 2.53045 165.121 41.5512 178.167 41.5512C183.017 41.5512 187.513 30.3934 190.573 27.2198C199.46 18.0041 208.319 7.64637 220.198 2.30042C233.897 -3.86384 229.195 44.3467 233.353 42.8346C237.59 41.2939 241.932 33.7707 245.118 30.8561C252.47 24.1301 261.022 18.5689 270.358 15.0275C281.642 10.7475 289.992 6.42307 289.823 19.7333C289.707 28.9158 281.741 53.0909 286.828 60.5883C286.859 60.6335 321.776 46.535 325.331 45.8292C329.073 45.086 357.582 37.4611 354.421 45.8292C349.678 58.3835 344.983 71.0826 339.983 83.5826C335.259 95.3918 346.078 86.4851 355.597 85.8286C361.88 85.3953 396.969 79.2224 398.912 87.9676C400.504 95.1283 383.151 113.907 379.447 119.304C372.229 129.822 362.823 139.732 380.089 139.732C397.452 139.732 439.244 131.981 424.58 160.052C421.335 166.264 413.987 174.516 407.682 177.806C406.722 178.307 428.175 186.74 431.318 187.966C436.201 189.872 447.132 192.472 445.543 199.624C443.334 209.561 431.583 216.263 422.869 219.409C418.91 220.839 406.329 220.9 411.532 226.682C417.353 233.15 422.522 239.752 427.682 246.789C432.187 252.932 444.939 263.964 445.757 272.136C446.077 275.338 415.245 281.088 412.816 281.761C408.13 283.061 380.32 287.604 386.078 292.243C399.8 303.296 410.644 318.289 415.597 335.237C417.397 341.397 420.065 350.9 418.377 357.482C417.345 361.508 409.992 355.57 408.538 354.809C401.649 351.2 411.817 406.355 401.158 405.289C390.155 404.189 383.916 394.755 374.955 389.46C367.916 385.301 370.677 398.16 370.677 401.974C370.677 408.555 371.996 435.913 364.795 439.513C361.411 441.205 357.913 427.1 357.416 424.861C355.859 417.855 355.215 429.346 354.1 432.775C350.543 443.722 344.381 471.007 327.47 462.935C318.13 458.477 306.164 448.018 305.224 437.053C304.611 429.903 291.802 450.498 290.465 452.026C278.302 465.926 254.928 484.403 236.134 470.422C225.743 462.692 230.054 451.104 226.188 441.438C225.06 438.62 222.799 446.476 221.161 449.032C216.16 456.833 210.035 463.171 202.338 468.39C185.809 479.596 181.644 466.202 175.921 452.133C172.88 444.659 164.988 417.004 154.21 423.471C132.929 436.24 113.761 454.542 87.4732 455.449C78.2266 455.768 87.5851 430.732 88.5427 427C92.1575 412.909 95.2842 398.846 97.3126 384.434C97.5157 382.99 100.934 371.076 95.6014 374.808C76.8213 387.954 55.4132 402.906 31.0034 398.765C10.9002 395.355 31.9485 365.949 36.6718 358.231C38.1274 355.852 56.9561 326.015 45.7626 335.664C41.9409 338.959 11.6613 358.964 10.7898 348.071C9.44936 331.315 26.2682 314.246 35.3884 301.868C35.6831 301.468 42.6345 292.469 43.6236 289.997C44.3041 288.295 40.5165 291.999 39.2386 293.312C32.1615 300.586 18.0752 313.064 7.04657 304.221C-3.69256 295.61 5.27937 273.972 8.75778 264.222C9.27791 262.764 16.2792 240.215 20.7362 244.329C22.1283 245.614 24.0009 251.016 22.6613 249.676C19.5624 246.577 19.024 241.675 17.7416 237.484C13.6364 224.069 10.6568 210.123 7.68827 196.415C7.63788 196.182 5.44376 179.696 5.76317 179.945C9.85825 183.13 12.1229 190.646 15.3887 194.704C17.0401 196.756 23.9054 205.763 24.1586 197.912C24.8069 177.814 21.0355 157.277 19.5598 137.272C19.0343 130.149 15.9518 112.222 22.0196 115.989C30.7059 121.38 37.0471 130.316 45.7626 135.988C67.6548 150.236 56.208 120.266 53.356 109.572C50.7943 99.9649 50.3351 94.3179 61.1634 99.7321C73.4412 105.871 81.8213 112.819 95.3875 107.005" stroke="white" stroke-width="2" stroke-linecap="round"/>
</svg>
