<svg width="436" height="420" viewBox="0 0 436 420" fill="none" xmlns="http://www.w3.org/2000/svg">
<path d="M83.9729 368.401C86.6142 375.445 99.1346 418.322 111.352 416.101C116.995 415.075 122.431 410.201 125.791 405.834C126.797 404.525 131.557 394.379 131.673 394.711C136.046 407.285 135.522 414.961 151.993 417.277C174.533 420.447 192.244 413.89 211.351 404.336C213.135 403.444 221.549 408.193 223.115 408.614C238.747 412.823 256.895 409.433 272.419 406.475C277.452 405.517 320.537 396.376 311.991 382.946C309.008 378.258 314.152 382.34 321.189 381.449C330.361 380.288 361.554 368.042 358.835 355.353C357.522 349.226 351.042 353.383 358.728 347.974C374.182 337.098 389.266 330.866 393.059 310.006C394.23 303.566 392.616 297.7 390.065 291.825C389.323 290.117 384.503 284.497 384.503 282.734C384.503 281.51 391.619 279.467 392.418 278.991C400.303 274.285 407.676 266.867 411.669 258.563C415.479 250.637 417.616 238.844 411.241 231.719C405.808 225.647 413.895 217.9 417.444 213.109C422.934 205.697 440.67 181.599 432.952 171.506C428.407 165.563 406.567 172.503 407.497 164.126C409.69 144.396 417.79 126.429 418.513 105.945C418.936 93.963 417.673 81.3081 412.738 70.2238C405.993 55.0743 391.618 53.2915 376.589 54.0743C365.438 54.6551 354.87 57.714 343.862 58.994C336.109 59.8956 338.434 53.0621 336.803 47.5504C326.625 13.1538 299.657 12.239 268.997 18.4599C257.785 20.7347 246.815 23.6164 235.842 26.802C231.136 28.1685 232.468 25.2604 231.992 21.4545C229.015 -2.36493 199.097 -0.232247 181.512 2.84515C166.352 5.49806 150.866 9.86867 136.592 15.6792C135.522 16.1149 123.888 21.9171 131.887 22.4171C137.266 22.7533 124.368 16.3545 123.117 16.107C113.097 14.1239 101.957 13.367 92.1012 16.5348C84.1465 19.0917 80.987 23.5917 80.3366 31.7217C80.0836 34.885 83.168 53.7115 79.481 53.3257C61.4066 51.4341 51.406 44.1653 32.8507 54.1813C11.3808 65.7706 -9.00732 88.3915 10.2842 110.651C13.7527 114.653 24.3646 126.539 31.1395 125.41C32.4027 125.2 24.8501 122.682 23.4391 122.843C-2.08773 125.761 -2.53263 173.03 5.89926 189.366C7.93989 193.32 11.9688 201.463 16.1665 203.912C17.6294 204.765 12.7097 205.062 11.7815 206.478C1.98464 221.432 1.27482 257.316 11.5676 272.36C18.2783 282.168 17.6914 295.441 25.792 305.942C34.8206 317.646 53.1714 321.814 66.647 316.423" stroke="white" stroke-width="2" stroke-linecap="round"/>
</svg>
