<svg width="437" height="420" viewBox="0 0 437 420" fill="none" xmlns="http://www.w3.org/2000/svg">
<path d="M84.2737 51.178C86.915 44.1346 99.4354 1.25675 111.653 3.47814C117.296 4.50414 122.732 9.37826 126.091 13.7454C127.098 15.0543 131.858 25.2 131.974 24.8682C136.347 12.294 135.823 4.61791 152.294 2.30169C174.834 -0.868014 192.545 5.68926 211.651 15.2427C213.436 16.135 221.85 11.3863 223.416 10.9647C239.048 6.75601 257.195 10.1466 272.72 13.1037C277.753 14.0622 320.838 23.203 312.292 36.6327C309.308 41.3208 314.452 37.2393 321.489 38.13C330.662 39.2911 361.855 51.5367 359.136 64.2259C357.823 70.3533 351.343 66.1966 359.029 71.6055C374.483 82.4806 389.567 88.7128 393.36 109.573C394.531 116.013 392.916 121.879 390.365 127.754C389.624 129.462 384.804 135.082 384.804 136.845C384.804 138.069 391.92 140.112 392.718 140.588C400.604 145.294 407.977 152.712 411.969 161.016C415.78 168.942 417.917 180.735 411.542 187.86C406.109 193.932 414.196 201.679 417.745 206.47C423.235 213.882 440.971 237.98 433.252 248.073C428.708 254.016 406.867 247.076 407.798 255.453C409.99 275.183 418.091 293.151 418.814 313.634C419.237 325.616 417.974 338.271 413.039 349.355C406.294 364.505 391.919 366.288 376.89 365.505C365.739 364.924 355.171 361.865 344.163 360.585C336.41 359.684 338.735 366.517 337.104 372.029C326.926 406.425 299.958 407.34 269.298 401.119C258.086 398.844 247.116 395.963 236.143 392.777C231.436 391.411 232.769 394.319 232.293 398.125C229.315 421.944 199.398 419.811 181.812 416.734C166.653 414.081 151.167 409.71 136.893 403.9C135.823 403.464 124.189 397.662 132.187 397.162C137.567 396.826 124.668 403.225 123.418 403.472C113.398 405.455 102.257 406.212 92.4019 403.044C84.4473 400.487 81.2878 395.987 80.6374 387.857C80.3844 384.694 83.4688 365.868 79.7818 366.253C61.7074 368.145 51.7068 375.414 33.1515 365.398C11.6816 353.809 -8.70654 331.188 10.585 308.928C14.0535 304.926 24.6654 293.04 31.4403 294.169C32.7035 294.379 25.1509 296.897 23.7399 296.736C-1.78695 293.818 -2.23185 246.549 6.20004 230.213C8.24067 226.259 12.2695 218.116 16.4673 215.667C17.9302 214.814 13.0105 214.517 12.0823 213.101C2.28543 198.148 1.5756 162.263 11.8684 147.219C18.5791 137.411 17.9922 124.138 26.0928 113.637C35.1214 101.933 53.4722 97.7656 66.9478 103.156" stroke="white" stroke-width="2" stroke-linecap="round"/>
</svg>
