<svg width="215" height="96" viewBox="0 0 215 96" fill="none" xmlns="http://www.w3.org/2000/svg">
<path d="M67.9725 58.1664C68.3165 57.7451 68.7151 57.3985 69.2031 57.1545C69.6431 56.9358 70.1552 56.9038 70.5712 56.6478C70.7405 56.5438 70.6992 56.2985 70.5178 56.2385C69.4618 55.8891 68.1418 56.9691 67.5458 57.7384C67.3125 58.0398 67.7232 58.4704 67.9725 58.1664Z" fill="white"/>
<path d="M67.201 61.9438C67.981 61.8104 68.741 61.4838 69.485 61.2198C70.097 61.0024 70.7903 60.8318 71.2677 60.3784C71.4597 60.1958 71.309 59.8771 71.0583 59.8718C70.3997 59.8571 69.7637 60.2078 69.165 60.4611C68.441 60.7678 67.6597 61.0331 66.9957 61.4584C66.733 61.6278 66.909 61.9944 67.201 61.9438Z" fill="white"/>
<path d="M67.8839 65.6815C69.1213 65.3321 70.4186 65.0575 71.5626 64.4575C71.8093 64.3282 71.7106 63.8655 71.4133 63.9041C70.1293 64.0721 68.9159 64.5841 67.6986 65.0095C67.2799 65.1548 67.4466 65.8055 67.8839 65.6815Z" fill="white"/>
<path d="M147.623 36.9402C148.511 36.4882 149.513 36.1042 150.276 35.4549C150.481 35.2816 150.26 34.9722 150.028 35.0282C149.053 35.2615 148.141 35.8589 147.255 36.3095C146.836 36.5229 147.204 37.1522 147.623 36.9402Z" fill="white"/>
<path d="M148.839 40.8691C150.355 40.3491 152.173 39.9758 153.525 39.0971C153.667 39.0051 153.629 38.7251 153.432 38.7478C151.828 38.9278 150.195 39.7784 148.692 40.3371C148.364 40.4598 148.499 40.9865 148.839 40.8691Z" fill="white"/>
<path d="M150.28 44.2559C151.247 43.7146 152.246 43.2586 153.3 42.9213C154.159 42.6479 155.088 42.5359 155.902 42.1532C156.09 42.0652 156.05 41.732 155.842 41.696C153.875 41.356 151.515 42.5972 149.928 43.6532C149.556 43.8999 149.886 44.4773 150.28 44.2559Z" fill="white"/>
<path d="M150.836 48.2174C152.321 47.7148 153.864 47.2881 155.2 46.4481C155.397 46.3241 155.259 46.0668 155.052 46.0962C153.511 46.3122 152.084 46.9615 150.646 47.5241C150.224 47.6881 150.391 48.3681 150.836 48.2174Z" fill="white"/>
<path d="M48.6875 72.445C46.4048 77.4943 45.5022 84.9371 47.6675 90.1931C48.9168 93.2251 53.3128 96.7637 56.1688 93.4957C56.4848 93.1331 56.3102 92.3664 55.7262 92.4291C54.0342 92.6117 51.1555 91.677 50.0342 90.4464C48.6435 88.921 48.7062 85.6943 48.6368 83.7397C48.5048 80.0517 49.1755 76.5011 49.6768 72.8624C49.7515 72.3211 48.9662 71.8263 48.6875 72.445Z" fill="white"/>
<path d="M55.0355 94.0334C57.7075 96.0801 61.0595 95.3241 63.2048 92.7294C66.3102 88.9748 65.7955 82.4361 65.1035 78.0334C64.2635 72.6854 55.8528 55.7241 48.4262 62.7481C47.7795 63.3614 48.4462 64.6614 49.3382 64.3161C56.0448 61.7134 61.2915 71.5787 62.5768 76.3414C63.6528 80.3307 65.5342 96.4108 55.4768 92.9854C54.8088 92.7574 54.5635 93.6707 55.0355 94.0334Z" fill="white"/>
<path d="M64.2455 87.4718C68.3975 91.1744 73.2402 86.3837 75.3509 82.7477C78.1749 77.8837 77.9482 71.1371 73.4749 67.2651C72.9362 66.7985 71.9229 67.2304 72.1869 68.0144C73.3135 71.3731 75.3762 74.1264 74.6909 77.8637C73.8749 82.3197 70.1202 87.7104 65.0362 86.1131C64.2762 85.8758 63.6389 86.9304 64.2455 87.4718Z" fill="white"/>
<path d="M65.7999 82.6278C70.9706 73.6652 71.2759 56.6731 61.6839 50.1345C53.8746 44.8118 46.3479 54.7465 50.1279 62.0692C50.6133 63.0105 52.1026 62.3572 51.8226 61.3545C49.7639 55.9585 52.9866 53.2772 61.4919 53.3118C62.2106 54.2665 62.9279 55.2225 63.6466 56.1772C65.3719 59.0545 66.1879 62.3345 66.6399 65.6132C67.4359 71.3865 66.3213 76.6532 64.7719 82.1945C64.5999 82.8065 65.4786 83.1838 65.7999 82.6278Z" fill="white"/>
<path d="M67.0955 57.8989C69.0555 53.1776 73.4395 50.2149 78.1195 48.5509C81.7315 47.2655 85.5849 47.6735 89.1249 46.5775C89.5649 46.4415 89.7462 45.7335 89.2649 45.5109C85.4022 43.7295 79.3995 45.8215 75.7915 47.4375C71.2315 49.4802 67.3862 52.6895 65.8302 57.5495C65.5662 58.3762 66.7822 58.6549 67.0955 57.8989Z" fill="white"/>
<path d="M69.3559 53.1985C71.3252 45.0012 54.8892 44.6038 56.0945 51.1131C56.1879 51.6171 56.8612 51.7198 57.1919 51.4025C58.8545 49.8065 59.8625 48.7771 62.3559 48.8025C65.1932 48.8305 68.1012 50.1385 68.7332 53.1985C68.7972 53.5118 69.2825 53.4998 69.3559 53.1985Z" fill="white"/>
<path d="M69.011 68.7238C75.1003 70.5985 77.063 64.2065 78.8817 59.7625C80.6444 55.4558 83.407 51.9451 87.3097 49.3718C90.947 46.9731 94.931 46.4371 98.847 44.8371C99.683 44.4958 99.5684 43.3491 98.6337 43.2611C93.5524 42.7838 87.823 45.8051 83.9723 48.9225C81.831 50.6558 80.003 52.6971 78.5644 55.0451C76.2604 58.8078 75.1883 67.2198 69.2417 67.0265C68.2443 66.9945 68.0963 68.4438 69.011 68.7238Z" fill="white"/>
<path d="M74.6515 66.0304C80.8929 68.9357 86.0875 64.765 89.3849 59.5117C92.5662 54.4424 94.4102 49.4357 99.6729 45.9544C104.972 42.4504 109.973 42.1784 116.07 41.7584C117.049 41.6904 117.377 40.2024 116.313 39.9571C109.488 38.3918 103.113 40.6544 97.6089 44.7144C89.8315 50.4504 87.0569 67.6917 75.0849 65.0024C74.4955 64.8704 74.0449 65.7477 74.6515 66.0304Z" fill="white"/>
<path d="M87.7036 64.7865C94.6036 67.1332 101.732 64.4585 105.858 58.5332C108.968 54.0705 110.321 48.6825 114.008 44.5678C118.965 39.0331 125.21 37.4772 132.332 37.1612C133.441 37.1118 133.824 35.3171 132.609 35.1145C125.064 33.8585 117.348 37.2452 112.308 42.8692C109.569 45.9252 108.06 49.5731 106.236 53.1838C102.444 60.6905 96.7262 64.6531 88.1462 63.1785C87.0996 62.9985 86.6742 64.4358 87.7036 64.7865Z" fill="white"/>
<path d="M103.595 61.9761C110.817 63.1775 117.987 60.2415 122.576 54.5121C125.032 51.4455 126.028 47.8268 127.691 44.3455C131.511 36.3468 136.961 36.1535 144.819 35.6068C145.813 35.5388 146.024 34.1908 145.055 33.8681C138.809 31.7894 131.196 34.1481 127.383 39.5695C124.681 43.4108 124.028 48.2748 121.323 52.1361C117.179 58.0495 110.787 60.2708 103.795 60.5041C102.991 60.5308 102.724 61.8321 103.595 61.9761Z" fill="white"/>
<path d="M119.668 58.5638C125.333 58.0118 132.18 57.1651 136.138 52.6184C138.028 50.4491 138.958 47.7717 139.978 45.1424C142.1 39.6771 143.928 37.1851 148.888 33.9544C149.348 33.6544 149.324 32.8504 148.725 32.7171C143.605 31.5757 140.304 37.4011 138.632 41.4331C136.441 46.7144 135.444 51.9384 129.393 54.3117C126.086 55.6091 122.545 55.8544 119.405 57.5931C118.976 57.8318 119.141 58.6158 119.668 58.5638Z" fill="white"/>
<path d="M137.088 51.9505C142.779 54.1265 153.151 52.0625 156.459 46.5279C156.764 46.0159 156.247 45.2252 155.635 45.4559C152.73 46.5532 150.408 48.5959 147.376 49.5479C144.047 50.5932 140.687 50.5052 137.254 50.7225C136.53 50.7692 136.431 51.6999 137.088 51.9505Z" fill="white"/>
<path d="M49.3939 62.7667C46.1645 65.5427 47.3619 69.6707 48.4779 73.3107C50.4205 79.6493 51.8299 87.1626 55.2352 92.868C55.5512 93.3973 56.5472 93.2187 56.4779 92.5307C56.0392 88.2133 54.1325 84.06 52.7299 79.964C51.1019 75.2133 47.0392 68.2013 50.4419 63.5733C50.9152 62.9293 49.9312 62.304 49.3939 62.7667Z" fill="white"/>
<path d="M50.9134 60.2215C45.4241 53.7575 38.4494 50.3575 30.1267 48.9242C20.7947 47.3162 9.71072 46.0308 0.442717 48.3655C-0.285284 48.5482 -0.0332874 49.4881 0.605379 49.5721C9.08805 50.6868 17.7867 49.8534 26.3347 50.9014C35.4041 52.0134 43.1401 55.0908 50.2494 60.8855C50.7161 61.2655 51.3081 60.6868 50.9134 60.2215Z" fill="white"/>
<path d="M48.6102 65.0384C41.3956 61.3998 33.0596 60.5411 25.0756 60.2757C17.7516 60.0317 9.48491 60.3051 3.14358 64.3811C2.52624 64.7771 2.91158 65.7731 3.64891 65.5811C19.0142 61.5704 32.7409 62.1531 48.0969 66.2571C48.8076 66.4465 49.3022 65.3878 48.6102 65.0384Z" fill="white"/>
<path d="M47.7507 72.2548C41.0987 71.9948 34.448 72.7534 27.8267 73.3161C22.0133 73.8094 15.78 73.7961 10.2893 75.9094C9.57598 76.1841 9.61332 77.3374 10.48 77.3214C22.5587 77.0948 36.0426 75.7068 47.856 73.0321C48.304 72.9308 48.184 72.2721 47.7507 72.2548Z" fill="white"/>
<path d="M48.5242 78.5118C41.4855 80.8531 35.0015 84.5211 27.8068 86.5865C20.0895 88.8011 12.8468 89.3785 4.88551 89.3198C4.18817 89.3145 3.80151 90.4051 4.50684 90.7171C11.1082 93.6358 19.5282 91.2705 26.1615 89.4838C33.8882 87.4025 42.7722 84.4585 48.9095 79.1745C49.2082 78.9171 48.8908 78.3905 48.5242 78.5118Z" fill="white"/>
<path d="M144.739 22.1158C140.907 15.9332 152.303 15.5051 155.739 15.8718C160.04 16.3318 162.571 18.5678 166.189 20.5652C166.581 20.7812 167.204 20.4131 167.016 19.9305C164.496 13.4491 154.412 13.2438 148.76 14.2265C146.432 14.6305 143.896 15.4491 142.793 17.7358C141.868 19.6545 142.309 21.7065 144.24 22.6145C144.548 22.7598 144.945 22.4492 144.739 22.1158Z" fill="white"/>
<path d="M150.845 30.5319C147.681 28.7772 141.65 27.4692 148.303 23.3172C150.822 21.7465 156.089 22.3039 158.843 22.8412C161.75 23.4065 164.675 24.5359 167.118 26.2212C170.075 28.2625 170.533 31.5265 170.983 34.8545C171.077 35.5479 172.223 35.5145 172.349 34.8545C174.517 23.4999 160.685 19.4838 151.597 20.6478C149.026 20.9785 143.029 21.9798 142.502 25.4038C141.931 29.1172 148.067 31.0479 150.682 31.1332C151.002 31.1439 151.122 30.6852 150.845 30.5319Z" fill="white"/>
<path d="M160.137 42.6748C157.157 41.2388 152.318 39.3975 151.182 35.8722C148.458 27.4282 161.502 31.3215 164.191 32.1882C167.807 33.3548 171.686 35.1095 173.681 38.5629C175.909 42.4202 174.691 45.9522 173.558 49.8242C173.405 50.3469 174.055 50.6642 174.429 50.3308C178.355 46.8255 177.798 40.2495 174.814 36.3002C171.091 31.3748 163.849 29.4202 158.034 28.5909C154.153 28.0362 147.925 28.9215 148.498 34.2055C149.037 39.1668 155.365 43.2415 159.874 43.6455C160.382 43.6921 160.593 42.8948 160.137 42.6748Z" fill="white"/>
<path d="M155.579 41.5427C151.443 49.7907 166.029 56.4947 172.272 53.3854C175.3 51.8774 175.647 48.6093 173.488 46.2093C170.511 42.9 163.648 40.992 159.495 42.536C158.904 42.7547 158.708 43.8267 159.495 43.9414C161.829 44.2814 164.172 44.0533 166.487 44.656C167.923 45.0307 169.372 45.568 170.635 46.36C173.087 47.4507 173.188 49.3454 170.936 52.044C169.9 52.3174 168.864 52.352 167.829 52.148C161.94 51.6613 155.653 48.5467 156.356 41.7533C156.397 41.3427 155.759 41.1867 155.579 41.5427Z" fill="white"/>
<path d="M167.114 23.3638C173.119 16.1132 180.512 10.4852 189.66 7.84919C195.856 6.06386 202.838 5.96787 207.976 1.69321C208.903 0.921206 207.723 -0.378815 206.751 0.105185C199.111 3.91452 190.61 4.41717 182.962 8.12517C176.131 11.4372 170.496 16.4345 166.346 22.7705C166.046 23.2291 166.756 23.7958 167.114 23.3638Z" fill="white"/>
<path d="M170.96 27.1333C183.562 22.612 199.4 19.8866 209.305 10.2466C210.118 9.45465 209.013 7.90933 208.056 8.62666C196.585 17.2253 182.724 19.1733 170.566 26.2C170.08 26.4813 170.402 27.3333 170.96 27.1333Z" fill="white"/>
<path d="M172.197 34.4157C181.319 33.5677 190.593 32.8543 199.683 31.7583C205.09 31.1063 210.638 29.5504 214.006 25.0597C214.491 24.413 213.558 23.573 212.923 23.9757C205.666 28.5797 199.379 29.4424 190.85 29.9384C184.497 30.3077 178.021 31.0036 172.042 33.2703C171.478 33.4836 171.49 34.481 172.197 34.4157Z" fill="white"/>
<path d="M175.401 41.2667C182.565 41.3227 189.683 40.4548 196.867 40.6574C201.786 40.7961 206.722 41.5081 211.202 39.1201C211.827 38.7881 211.394 37.8281 210.729 37.9974C199.233 40.9307 186.957 37.5721 175.307 40.5721C174.918 40.6721 175.002 41.2641 175.401 41.2667Z" fill="white"/>
</svg>
