<svg width="149" height="150" viewBox="0 0 149 150" fill="none" xmlns="http://www.w3.org/2000/svg">
<path d="M35.7923 55.2417C33.9924 59.4858 35.0079 65.4838 35.6404 69.9102C36.4248 75.3999 37.8465 81.0355 40.4189 85.9773C40.5328 86.197 40.9082 86.0452 40.8235 85.8062C39.1511 81.0841 37.5122 76.4572 36.6273 71.5062C35.7504 66.5978 34.774 60.2787 36.1463 55.3905C36.204 55.186 35.8801 55.0341 35.7923 55.2417Z" fill="white"/>
<path d="M86.244 29.8365C92.551 32.2578 97.7672 36.7946 101.132 42.6418C101.284 42.9071 101.685 42.6712 101.541 42.4018C98.2543 36.2265 92.953 31.7191 86.3747 29.3636C86.0749 29.2563 85.9534 29.7252 86.244 29.8365Z" fill="white"/>
<path d="M122.272 72.5037C127.968 78.7741 130.868 86.3185 132.109 94.6052C132.135 94.7703 132.4 94.7287 132.397 94.5667C132.239 86.196 128.31 78.1614 122.664 72.1127C122.42 71.8505 122.033 72.2414 122.272 72.5037Z" fill="white"/>
<path d="M47.0098 106.433C50.163 115.967 56.6155 125.679 65.7174 130.467C65.9422 130.585 66.2278 130.266 66.005 130.093C62.1133 127.073 58.3583 124.132 55.2514 120.265C51.8904 116.082 49.2634 111.373 47.5514 106.283C47.437 105.943 46.8959 106.088 47.0098 106.433Z" fill="white"/>
<path d="M102.417 96.508C102.761 92.7186 101.371 88.5484 98.0393 86.3884C95.0863 84.4724 91.4052 85.2856 89.7191 88.442C87.8538 91.9348 89.628 96.0209 92.2852 98.5344C94.0351 100.19 98.5669 103.864 100.836 101.422C101.117 101.121 100.936 100.531 100.478 100.559C95.5936 100.851 89.3353 95.4396 90.7419 90.2649C91.9794 85.7129 96.6468 86.1899 99.1896 89.3069C100.853 91.3464 101.539 93.9125 101.61 96.508C101.624 97.0346 102.37 97.0194 102.417 96.508Z" fill="white"/>
<path d="M102.102 97.5087C102.236 94.658 97.686 87.9784 94.4546 91.1653C91.6738 93.9086 95.9149 99.5806 99.1736 99.3426C99.5676 99.3132 99.918 98.7674 99.5372 98.4646C97.8845 97.1451 94.2591 95.6646 95.1594 92.8068C95.9159 90.4017 98.4567 92.8423 99.2739 93.8144C100.231 94.9527 101.092 96.1284 101.435 97.5988C101.524 97.9856 102.085 97.8803 102.102 97.5087Z" fill="white"/>
<path d="M101.406 97.2563C105.243 95.0315 109.001 92.9201 113.36 91.8628C115.558 91.3302 119.144 90.2851 121.441 90.9423C123.128 90.4785 123.89 91.2026 123.73 93.1125C123.564 93.8406 123.361 94.5565 123.12 95.2624C120.273 104.451 115.79 112.033 106.758 116.038C106.107 116.327 106.576 117.342 107.234 117.166C117.712 114.376 125.138 100.622 125.54 90.3803C125.557 89.9408 125.173 89.6481 124.773 89.6137C116.41 88.8977 107.317 90.9484 100.907 96.6102C100.552 96.9231 101.008 97.4862 101.406 97.2563Z" fill="white"/>
<path d="M113.042 99.934C112.844 98.0545 111.016 96.105 109 97.0124C107.653 97.618 106.605 100.223 108.166 101.181C108.481 101.374 108.83 101.056 108.758 100.725C108.643 100.197 108.411 99.7983 108.549 99.2413C108.676 98.7269 109.042 98.1831 109.554 97.9907C110.894 97.4863 112.144 98.9952 112.614 100.05C112.706 100.254 113.065 100.156 113.042 99.934Z" fill="white"/>
<path d="M98.6404 117.941C99.325 121.623 102.628 124.85 105.594 126.869C106.361 127.39 107.089 126.14 106.321 125.625C104.837 124.632 103.493 123.455 102.365 122.067C101.229 120.669 100.476 119.066 99.4647 117.594C99.1711 117.165 98.5463 117.433 98.6404 117.941Z" fill="white"/>
<path d="M101.741 117.537C101.843 119.4 102.443 121.089 103.463 122.654C104.311 123.953 105.577 125.702 107.137 126.113C107.483 126.205 107.851 125.799 107.629 125.474C106.756 124.201 105.366 123.387 104.479 122.061C103.538 120.653 102.939 119.055 102.471 117.438C102.358 117.047 101.717 117.106 101.741 117.537Z" fill="white"/>
<path d="M112.367 114.619C113.46 114.748 114.586 114.968 115.658 115.211C116.634 115.433 117.566 115.845 118.542 116.037C119.12 116.151 119.509 115.374 118.957 115.054C117.053 113.948 114.504 113.821 112.367 113.986C111.955 114.018 111.967 114.571 112.367 114.619Z" fill="white"/>
<path d="M101.774 122.325C94.2573 128.811 84.9933 132.862 75.0104 133.283C64.9961 133.705 52.28 130.355 47.1873 120.819C40.8763 109.003 49.9515 99.1621 60.7803 95.0405C70.1536 91.4729 79.9695 92.2638 89.0734 96.1291C90.0658 96.5504 90.956 95.159 89.9443 94.6395C80.3918 89.7361 68.5445 89.8911 58.7844 94.1352C48.8237 98.4664 40.4379 107.279 44.5535 118.732C48.3151 129.199 60.0563 134.034 70.3957 134.759C82.1953 135.585 94.0335 131.317 102.446 122.996C102.885 122.562 102.232 121.93 101.774 122.325Z" fill="white"/>
<path d="M46.0237 122.071C44.5292 123.234 43.1617 124.27 41.4476 125.084C40.4287 125.568 39.312 125.951 38.6541 126.937C37.4374 128.761 37.9152 132.626 38.7483 134.511C39.1913 135.514 40.3376 136.338 41.3092 135.41C42.674 134.105 41.6372 130.375 41.0205 128.96C40.7977 128.449 40.1012 128.842 40.1818 129.314C40.3223 130.136 41.5106 134.346 39.6248 133.566C39.1668 133.375 39.1973 130.722 39.1751 130.35C39.0917 128.936 39.0118 127.822 40.5466 126.667C42.5659 125.149 44.8421 124.629 46.572 122.619C46.9042 122.232 46.4122 121.768 46.0237 122.071Z" fill="white"/>
<path d="M40.7576 129.343C40.3548 130.652 40.9715 132.091 41.7714 133.13C42.3656 133.903 43.6215 135.245 44.7319 134.619C45.7774 134.029 45.3284 132.563 44.9526 131.705C44.3837 130.407 43.4099 129.394 42.1772 128.711C41.6448 128.416 40.9775 129.185 41.4972 129.593C42.6401 130.489 45.6405 133.081 46.9436 131.042C48.0492 129.312 44.614 127.499 43.3683 127.202C42.8331 127.073 42.6144 127.737 43.0147 128.04C43.7857 128.626 45.3205 129.088 45.8015 129.958C46.2066 130.276 45.8822 130.447 44.8272 130.47C44.5725 130.338 44.3233 130.197 44.0791 130.048C43.4545 129.672 42.8636 129.25 42.2908 128.799C42.0641 129.093 41.8375 129.386 41.6107 129.68C42.2267 130.023 42.7856 130.436 43.239 130.981C43.5215 131.319 43.7722 131.723 43.9566 132.125C44.2188 132.698 44.4803 132.966 43.7983 133.163C42.2777 133.6 41.6163 130.364 41.1998 129.343C41.1175 129.141 40.8292 129.11 40.7576 129.343Z" fill="white"/>
<path d="M43.3259 128.352C44.3331 127.634 45.1202 126.662 46.1507 125.953C46.9889 125.377 48.1575 125.025 48.7813 124.214C48.9106 124.045 48.7287 123.848 48.5626 123.832C47.4601 123.727 46.225 124.735 45.3932 125.362C44.4707 126.057 43.4173 126.869 42.8931 127.92C42.765 128.176 43.0471 128.552 43.3259 128.352Z" fill="white"/>
<path d="M44.7258 114.366C41.9239 112.49 37.7628 111.932 34.5088 111.306C33.8977 111.189 33.4839 111.652 33.5725 112.243C33.8791 114.289 36.438 116.049 37.9808 117.192C39.8056 118.544 42.6375 120.038 44.9243 119.096C45.378 118.91 45.5319 118.133 44.9243 118.013C42.8697 117.609 41.1287 117.502 39.3123 116.273C38.0141 115.395 35.2944 113.523 35.0405 111.838C34.7283 112.151 34.4162 112.462 34.1041 112.774C37.5013 113.423 41.0868 114.922 44.526 115.103C44.943 115.126 45.0304 114.571 44.7258 114.366Z" fill="white"/>
<path d="M45.2826 108.256C43.7066 105.994 41.5571 104.099 39.6267 102.143C39.4376 101.952 39.1643 101.943 38.9348 102.054C36.8146 103.083 31.4937 105.702 32.2991 108.916C32.9885 111.669 36.0392 108.171 36.8438 107.306C37.3498 106.763 36.5341 105.944 36.0269 106.49C35.7738 106.762 34.9577 107.863 34.5238 107.973C33.1115 108.331 34.2651 106.574 34.8042 106.054C35.4616 105.419 37.7117 103.416 38.7648 103.403C39.8858 103.389 40.9962 105.147 41.7292 105.87C42.7406 106.866 43.7047 107.851 44.8606 108.678C45.109 108.855 45.4555 108.504 45.2826 108.256Z" fill="white"/>
<path d="M36.2485 106.639C35.5903 107.567 33.19 111.22 35.7125 111.563C37.7813 111.845 38.8213 108.561 39.2071 107.092C38.8237 107.041 38.4404 106.988 38.0571 106.936C38.0301 107.866 37.84 111.536 39.6485 111.049C41.2011 110.631 41.2553 107.951 40.9598 106.746C40.7802 106.015 39.6508 106.325 39.8305 107.058C39.9535 107.558 39.9994 108.049 39.9116 108.562C39.8855 108.715 39.5057 109.888 39.4103 109.833C39.2798 109.758 39.2632 108.566 39.2493 108.376C39.2133 107.896 39.2142 107.417 39.228 106.936C39.2474 106.275 38.2457 106.143 38.078 106.781C37.9072 107.431 37.6975 108.06 37.4055 108.668C37.1741 109.149 36.8319 109.996 36.3094 110.234C35.3067 110.69 36.1025 109.11 36.2869 108.75C36.5824 108.174 36.8779 107.607 37.1014 106.998C37.2956 106.469 36.5337 106.236 36.2485 106.639Z" fill="white"/>
<path d="M39.9343 106.825C40.6012 107.689 41.5553 108.271 42.483 108.823C43.3438 109.335 44.4565 110.182 45.4988 110.089C45.7373 110.068 45.9647 109.801 45.7995 109.565C45.2179 108.736 44.0894 108.413 43.2226 107.938C42.2543 107.406 41.3176 106.737 40.2558 106.407C40.0371 106.338 39.7784 106.622 39.9343 106.825Z" fill="white"/>
<path d="M107.421 125.91C108.241 125.184 111.597 120.178 112.843 121.065C112.77 120.787 112.696 120.507 112.623 120.228C111.854 121.799 110.939 123.128 109.788 124.459C109.404 124.902 109.983 125.474 110.428 125.099C111.089 124.54 113.092 122.671 114.032 122.67C114.581 122.67 114.646 122.741 114.296 123.334C113.977 123.874 112.979 124.386 112.476 124.74C112.076 125.022 112.304 125.799 112.837 125.596C113.167 125.47 115.935 124.225 116.117 124.402C116.969 125.235 114.457 126.654 114.035 126.921C111.786 128.349 107.948 129.897 106.259 126.897C106.03 126.49 105.451 126.776 105.536 127.202C106.499 132.036 113.443 128.855 115.737 127.046C116.412 126.513 118.434 125.056 117.8 123.86C116.938 122.234 113.567 124.339 112.588 124.693C112.709 124.978 112.829 125.264 112.949 125.549C113.759 124.999 117.664 122.708 116.07 121.294C114.671 120.052 110.86 123.659 109.879 124.389C110.062 124.625 110.245 124.862 110.428 125.099C111.828 123.908 112.874 122.496 113.682 120.845C113.836 120.531 113.752 120.206 113.462 120.008C111.214 118.463 107.348 123.811 106.972 125.649C106.917 125.914 107.217 126.092 107.421 125.91Z" fill="white"/>
<path d="M108.066 117.119C109.927 117.243 111.788 117.217 113.653 117.232C115.287 117.246 116.959 117.48 118.568 117.179C119.038 117.09 118.986 116.398 118.568 116.278C115.441 115.387 111.15 115.901 107.982 116.497C107.613 116.567 107.729 117.097 108.066 117.119Z" fill="white"/>
<path d="M118.528 114.984C118.679 113.398 118.864 111.963 119.778 110.602C119.916 110.384 120.072 110.18 120.246 109.988C120.185 110.05 120.124 110.112 120.065 110.173C120.056 110.614 120.004 111.097 119.938 111.529C119.824 112.278 119.565 112.989 119.41 113.729C119.306 114.228 119.971 114.543 120.25 114.083C120.659 113.403 122.136 108.272 119.944 108.981C119.164 109.233 118.589 110.674 118.321 111.344C117.861 112.495 117.62 113.847 117.891 115.07C117.975 115.451 118.496 115.326 118.528 114.984Z" fill="white"/>
<path d="M120.394 114.116C120.901 112.994 121.687 111.909 122.821 111.352C122.87 110.901 122.829 110.931 122.7 111.442C122.572 111.799 122.416 112.144 122.232 112.474C121.907 113.059 121.496 113.564 121.03 114.043C120.507 114.581 121.296 115.356 121.848 114.862C122.522 114.258 123.289 113.789 124.17 113.559C124.439 113.489 125.226 113.266 125.365 113.724C125.45 114.009 124.634 114.941 124.499 115.078C123.101 116.506 121.337 116.367 119.574 116.882C119.108 117.019 119.047 117.787 119.574 117.889C121.981 118.355 126.426 116.621 126.645 113.743C126.724 112.707 125.874 112.158 124.909 112.184C123.466 112.223 122.055 113.096 121.03 114.043C121.302 114.316 121.576 114.588 121.848 114.862C122.424 114.251 125.117 110.82 123.399 110.198C122.781 109.974 121.986 110.667 121.568 111.027C120.68 111.79 120.148 112.783 119.961 113.933C119.921 114.174 120.274 114.383 120.394 114.116Z" fill="white"/>
<path d="M121.991 90.0593C121.45 90.1849 121.327 90.6841 121.246 91.1702C121.141 91.8041 121.14 92.4563 121.427 93.0467C121.816 93.8477 123.296 94.7166 123.906 93.6553C124.078 93.3556 123.906 93.0366 123.608 92.9231C123.221 92.7773 122.857 92.8513 122.614 92.426C122.481 92.192 122.469 91.9004 122.458 91.6371C122.454 91.5206 122.382 90.9656 122.476 90.8917C122.895 90.5636 122.431 89.9571 121.991 90.0593Z" fill="white"/>
<path d="M85.2378 107.396C85.3077 114.307 89.1164 122.752 93.5326 128.053C94.998 129.811 100.581 135.942 103.025 132.945C106.103 129.171 97.3322 117.835 95.7332 115.121C93.8243 111.881 89.7523 104.328 84.9705 107.44C84.4155 107.801 84.7588 108.699 85.4282 108.524C90.8055 107.128 94.2992 115.67 96.3874 119.253C97.7413 121.576 104.43 131.457 99.3312 131.189C96.3256 131.031 92.5301 124.204 91.3118 121.911C88.9999 117.561 86.6363 112.32 86.1877 107.396C86.133 106.799 85.2318 106.774 85.2378 107.396Z" fill="white"/>
<path d="M128.317 63.6236C130.521 68.0965 132.065 72.6607 133.601 77.3878C134.25 79.3838 134.819 83.6148 136.516 84.9262C140.049 87.6573 140.229 81.7362 140.052 79.7008C139.56 74.0511 138.389 66.3447 134.707 61.7421C132.688 59.2165 128.589 58.1997 127.363 61.9486C127.144 62.623 128.067 62.9006 128.434 62.4003C131.996 57.5273 135.282 66.4601 135.816 67.9163C136.382 69.4566 136.87 71.0313 137.262 72.6252C137.769 74.6779 138.118 76.7772 138.314 78.8825C138.511 80.9939 138.71 83.7069 136.615 80.8856C134.94 78.6293 134.393 74.0369 133.393 71.3888C132.285 68.4591 131.015 65.6732 129.138 63.1446C128.777 62.6595 128.043 63.0656 128.317 63.6236Z" fill="white"/>
<path d="M32.0735 119.502C28.8404 123.328 33.4109 127.262 36.0308 129.919C39.9834 133.928 45.5563 139.847 51.5673 140.057C52.1628 140.077 52.6742 139.43 52.4838 138.855C52.3846 138.555 52.2853 138.257 52.1861 137.958C52.0433 137.526 51.3567 137.34 51.1299 137.82C50.1528 139.885 40.2793 131.716 39.6444 131.147C37.2777 129.026 29.9639 123.926 32.7693 120.039C33.0617 119.633 32.3983 119.118 32.0735 119.502Z" fill="white"/>
<path d="M32.0531 120.72C35.6043 120.159 40.5631 125.83 42.9761 128.084C45.5331 130.473 51.2554 134.911 51.0792 138.779C51.0367 139.708 52.5061 139.917 52.7106 139C53.8043 134.097 46.7966 129.255 43.6071 126.471C40.9223 124.128 35.7905 118.385 31.8581 120.257C31.5785 120.391 31.7929 120.762 32.0531 120.72Z" fill="white"/>
<path d="M6.084 99.6453C13.863 103.146 24.8426 100.822 32.9214 99.5157C44.9995 97.5602 56.7734 92.3784 67.9229 87.5094C82.2087 81.2704 95.9496 73.7614 108.722 64.8124C120.131 56.8184 131.771 47.8148 137.052 34.4698C137.486 33.371 135.712 32.894 135.282 33.9816C129.668 48.1681 116.502 57.5789 104.281 65.8018C92.786 73.5366 80.554 80.1392 67.8895 85.7454C57.2909 90.4361 45.8698 95.6068 34.4124 97.7476C25.6491 99.3851 15.1922 101.197 6.40087 98.8929C5.96734 98.7795 5.64572 99.4478 6.084 99.6453Z" fill="white"/>
<path d="M17.0036 57.5797C11.0649 56.4263 9.8675 65.9018 9.3718 69.8867C8.88329 73.8169 7.83143 87.2095 14.178 87.253C14.9577 87.2581 15.176 86.0004 14.3671 85.8545C7.5253 84.613 9.47783 58.4871 16.8561 58.6683C17.4676 58.6825 17.6263 57.7012 17.0036 57.5797Z" fill="white"/>
<path d="M16.6775 57.9685C20.0399 60.2551 16.4239 67.3752 16.0339 70.6603C15.5158 75.0209 17.2946 82.8954 13.8665 86.2211C13.562 86.5168 13.8895 86.9208 14.2439 86.8692C19.2084 86.1471 17.0822 74.0558 17.4426 70.7565C17.8057 67.433 21.6558 59.3701 17.0367 57.3538C16.6221 57.1736 16.2911 57.7062 16.6775 57.9685Z" fill="white"/>
<path d="M96.3035 19.0822C99.9168 15.23 108.055 22.0524 110.637 24.3674C112.838 26.3411 120.021 32.8941 117.43 36.3706C116.92 37.0551 117.976 37.7276 118.548 37.2334C123.036 33.3569 113.297 24.6752 110.628 22.4595C107.425 19.8012 98.9527 13.1085 95.4337 18.4118C95.0863 18.9354 95.8752 19.54 96.3035 19.0822Z" fill="white"/>
<path d="M95.2439 18.2799C94.6029 20.4663 95.6439 21.8232 97.3219 23.2318C100.621 26.0015 104.449 27.638 107.582 30.7388C109.19 32.3307 115.908 40.4118 118.371 36.8675C118.538 36.6275 118.318 36.2731 118.037 36.2842C113.783 36.4624 109.576 30.4765 106.622 27.9145C103.781 25.4486 95.5183 22.6415 95.9437 18.3751C95.9842 17.9649 95.3533 17.9072 95.2439 18.2799Z" fill="white"/>
<path d="M62.6154 47.9312C57.8173 50.4203 62.6731 57.8129 64.1901 60.9876C65.9734 64.7172 69.8864 74.5118 75.4672 72.6789C76.3918 72.3751 76.015 71.0393 75.0682 71.2287C69.4884 72.3447 59.4315 52.2543 62.9323 48.3413C63.1298 48.1206 62.8837 47.7924 62.6154 47.9312Z" fill="white"/>
<path d="M62.3835 49.2526C63.4296 48.2784 68.8353 57.6244 69.5411 58.7373C72.0657 62.7161 75.3801 66.7202 75.2769 71.658C75.2536 72.7618 76.9295 72.7507 76.9852 71.658C77.3265 64.9653 71.5087 58.9034 68.017 53.6345C67.1522 52.3281 64.3076 45.9695 61.9471 48.8162C61.6969 49.1179 62.0878 49.5281 62.3835 49.2526Z" fill="white"/>
<path d="M33.9539 9.47864C7.4175 25.7219 -5.42368 58.2641 2.15434 88.3364C6.30944 104.825 16.0964 117.821 28.3292 129.29C40.4508 140.653 53.5756 148.844 70.5814 149.573C101.162 150.885 130.28 130.819 142.806 103.43C154.52 77.8188 149.09 45.7971 130.984 24.3811C106.831 -4.18939 66.3039 -5.27399 34.2006 8.9095C33.167 9.36621 34.0618 10.8741 35.0871 10.4265C63.7135 -2.082 97.6167 -2.41316 122.515 18.455C142.823 35.476 152.153 66.6916 145.199 92.1441C137.663 119.733 113.176 142.118 84.9603 146.921C69.2578 149.592 53.3103 146.725 40.368 137.206C27.6716 127.867 15.5109 115.345 8.58603 101.093C-7.21054 68.5812 5.07884 30.1837 34.4649 10.3526C34.9997 9.99205 34.5155 9.13432 33.9539 9.47864Z" fill="white"/>
<path d="M43.0925 11.2583C32.7795 15.4346 21.1515 22.9233 16.6729 33.6576C14.9565 37.77 14.9387 42.9104 18.0622 46.394C21.2144 49.911 26.3281 49.7003 30.611 49.0117C43.6843 46.9084 57.4045 39.8075 67.8593 31.8904C74.0224 27.2241 87.7644 16.3875 79.1557 7.94684C74.5662 3.44754 67.4401 4.17363 61.6061 4.94427C54.9204 5.82733 48.5297 7.8476 42.3892 10.6051C41.4996 11.0041 42.1385 12.5535 43.0597 12.195C48.1689 10.2102 53.2829 8.34581 58.6896 7.34631C64.1712 6.33262 74.5662 4.33969 78.4043 9.63698C86.5593 20.8908 60.6582 35.2171 52.7897 39.1746C45.1238 43.0299 18.309 56.1298 17.0736 39.7549C16.5281 32.5234 22.8276 25.9896 27.936 21.5936C32.5916 17.5885 37.9457 14.6933 43.3058 11.7636C43.5739 11.6178 43.3884 11.1378 43.0925 11.2583Z" fill="white"/>
<path d="M55.969 11.866C49.0124 11.7597 41.7069 15.3283 36.2472 19.4185C34.896 20.4311 27.4587 25.4631 31.8548 27.1786C33.7275 27.9098 36.519 25.6728 37.972 24.9406C42.5274 22.6439 47.0674 20.3178 51.6236 18.022C53.3786 17.137 61.7382 13.5592 55.6844 11.9095C54.7396 11.6523 54.3842 13.0366 55.2854 13.3587C56.0855 13.6452 49.59 17.4498 49.1976 17.6564C47.5053 18.5456 45.8115 19.4317 44.116 20.3157C41.8557 21.4935 39.5969 22.6742 37.3414 23.8621C36.0689 24.5315 31.7266 27.1179 32.7919 23.9462C33.2681 22.5284 37.3086 20.0413 38.2639 19.3851C39.8216 18.3137 41.4542 17.3628 43.1469 16.5223C47.319 14.4503 51.6246 13.6341 56.0298 12.3166C56.2769 12.2427 56.2313 11.8701 55.969 11.866Z" fill="white"/>
<path d="M57.0592 24.2404C48.892 25.3929 40.4246 28.4015 33.7501 33.3211C31.5626 34.9332 26.3707 38.2265 30.2311 40.8878C32.0749 42.1587 34.6137 41.2868 36.4401 40.591C40.8222 38.9201 45.1032 36.275 49.1444 33.9155C51.5006 32.5403 61.203 28.6496 57.8754 24.6587C57.2162 23.8688 56.087 25.005 56.7453 25.7888C58.1043 27.4081 44.8215 34.5707 43.5422 35.2583C41.9247 36.1272 40.2953 36.9941 38.6478 37.8052C37.2917 38.5384 35.8879 39.1673 34.4361 39.6908C30.6037 39.0478 29.8268 38.0199 32.1057 36.6062C33.3376 33.7717 40.2644 30.9798 43.1379 29.7069C47.7274 27.6734 52.5062 26.5119 57.2941 25.0951C57.8572 24.928 57.6081 24.1625 57.0592 24.2404Z" fill="white"/>
</svg>
