<svg width="137" height="238" viewBox="0 0 137 238" fill="none" xmlns="http://www.w3.org/2000/svg">
<path d="M28.919 93.2835C30.7333 95.1365 32.9888 96.6734 35.509 97.3586C35.8744 97.4586 36.0631 96.9029 35.7304 96.7362C33.4477 95.5968 31.3493 94.424 29.4158 92.7354C29.0543 92.4196 28.5881 92.9456 28.919 93.2835Z" fill="white"/>
<path d="M26.3898 103.181C28.2353 105.326 30.5759 106.896 33.3854 107.395C33.7509 107.461 33.8343 106.961 33.5008 106.846C30.9518 105.967 28.6577 104.709 26.7957 102.733C26.5244 102.445 26.1432 102.893 26.3898 103.181Z" fill="white"/>
<path d="M23.017 121.173C24.5147 122.661 26.3829 123.845 28.5001 124.154C28.8625 124.207 29.1237 123.644 28.7318 123.503C26.8027 122.808 25.0684 122 23.5625 120.571C23.1809 120.209 22.6475 120.807 23.017 121.173Z" fill="white"/>
<path d="M121.363 77.3442C119.01 78.7489 116.828 79.4578 114.074 79.5463C113.731 79.5573 113.686 80.0942 114.03 80.1544C116.702 80.6234 119.817 79.74 121.779 77.8323C122.05 77.5678 121.667 77.1628 121.363 77.3442Z" fill="white"/>
<path d="M119.336 91.4393C117.907 91.8842 116.564 92.0977 115.073 92.1861C114.759 92.206 114.704 92.7068 115.031 92.7524C116.555 92.9664 118.206 92.627 119.548 91.8776C119.797 91.7378 119.596 91.359 119.336 91.4393Z" fill="white"/>
<path d="M115.952 106.86C114.681 107.181 113.338 107.419 112.119 107.903C111.767 108.043 111.833 108.649 112.252 108.593C113.587 108.412 114.902 107.955 116.199 107.601C116.686 107.469 116.437 106.738 115.952 106.86Z" fill="white"/>
<path d="M110.051 130.585C108.233 131.309 106.402 131.48 104.48 131.706C104.117 131.749 104.038 132.306 104.431 132.375C106.436 132.727 108.482 132.194 110.321 131.396C110.817 131.178 110.568 130.378 110.051 130.585Z" fill="white"/>
<path d="M104.495 155.239C103.449 155.18 102.416 155.153 101.368 155.161C100.973 155.163 100.92 155.805 101.317 155.861C102.354 156.006 103.381 156.117 104.426 156.197C105.121 156.249 105.203 155.279 104.495 155.239Z" fill="white"/>
<path d="M15.5822 161.812C17.1425 162.309 18.6968 162.797 20.2785 163.219C20.4963 163.277 20.6307 162.919 20.4136 162.84C18.8533 162.272 17.2791 161.775 15.6935 161.283C15.3604 161.178 15.2534 161.708 15.5822 161.812Z" fill="white"/>
<path d="M99.9301 21.5448C96.7197 19.6736 92.8596 21.9753 93.2759 25.8083C93.7749 30.4012 100.011 31.343 103.625 31.7256C107.213 32.1052 111.053 30.67 110.547 26.3889C110.022 21.9348 104.711 19.6097 100.7 20.1427C99.8088 20.2618 99.7943 21.3678 100.591 21.6457C102.77 22.409 105.286 22.2622 107.132 23.8983C108.073 24.731 108.942 26.392 108.611 27.7135C108.05 29.9446 105.991 30.0117 104.273 29.942C102.295 29.8613 100.157 29.5139 98.2764 28.8856C96.7998 28.3913 95.944 27.8993 95.2565 26.4454C93.7906 23.3469 96.9296 21.3132 99.7351 22.0897C100.066 22.1811 100.202 21.7041 99.9301 21.5448Z" fill="white"/>
<path d="M56.7026 46.2294C58.3401 36.8129 60.3827 27.6422 64.3203 18.8673C66.5616 13.8723 69.6464 9.76579 75.6289 9.41994C80.3018 9.14892 85.322 10.2139 89.8595 11.2674C98.5333 13.2817 112.853 16.941 113.74 27.6349C114.534 37.1907 111.728 46.8561 109.834 56.1043C109.54 57.5412 111.537 57.8548 111.996 56.5589C114.399 49.7639 115.488 42.4379 116.039 35.2685C116.373 30.9134 116.913 26.043 114.931 21.9789C110.861 13.631 97.3477 10.6127 89.1563 8.85099C80.9661 7.09089 70.6888 5.04868 65.0821 12.8568C58.6887 21.7585 56.0703 35.4964 55.3022 46.1285C55.2446 46.927 56.5675 47.0062 56.7026 46.2294Z" fill="white"/>
<path d="M64.2445 17.2997C70.7235 21.2193 79.5558 21.0693 86.847 22.5041C95.8955 24.2853 104.763 26.6797 113.575 29.3879C114.68 29.728 115.028 27.9822 113.943 27.6342C105.594 24.9632 97.088 22.7866 88.485 21.1032C80.4887 19.5378 72.2992 19.0054 64.514 16.5416C64.054 16.3958 63.8755 17.0777 64.2445 17.2997Z" fill="white"/>
<path d="M62.23 110.368C61.32 108.462 59.8396 106.104 60.8507 103.97C61.3113 102.998 62.2187 102.157 63.2739 101.887C64.824 101.491 65.8252 102.363 67.1686 102.842C67.6103 102.999 68.3029 102.651 68.0479 102.09C66.6671 99.0429 61.9197 99.7465 60.1254 101.98C57.7269 104.966 59.4245 108.356 61.8755 110.599C62.0253 110.737 62.3283 110.574 62.23 110.368Z" fill="white"/>
<path d="M67.7044 102.493C68.4348 100.888 69.7117 99.1927 71.7302 99.598C72.5734 99.7671 73.3314 100.342 73.7845 101.064C74.2094 101.739 74.164 102.499 74.5567 103.172C74.7542 103.509 75.2239 103.427 75.4009 103.129C76.6686 101.014 73.5091 98.4147 71.6126 98.2653C69.4086 98.0907 66.8139 100 67.1734 102.381C67.212 102.633 67.5799 102.767 67.7044 102.493Z" fill="white"/>
<path d="M74.6702 103.167C76.9984 102.741 80.1816 103.296 80.5678 106.177C80.7225 107.327 80.2475 108.536 79.4923 109.394C78.8208 110.157 77.7434 110.376 77.173 111.203C77.0414 111.395 77.1838 111.644 77.3483 111.75C78.6874 112.606 80.4661 110.931 81.1791 109.905C82.0895 108.595 82.4503 106.872 81.9733 105.331C81.0804 102.443 76.9127 100.414 74.4016 102.611C74.1927 102.794 74.391 103.219 74.6702 103.167Z" fill="white"/>
<path d="M63.2307 120.629C60.5847 118.974 57.5486 118.032 54.5287 117.303C52.7309 116.868 50.0991 115.847 48.4186 117.031C46.674 118.258 45.5219 121.366 44.6693 123.224C43.606 125.54 42.5814 128.062 42.615 130.651C42.6498 133.344 44.417 137.195 47.6345 135.607C52.3454 133.283 54.5306 125.65 54.5532 120.89C54.5573 120 53.3226 120.04 53.0905 120.785C51.8156 124.871 51.7363 129.349 48.7325 132.759C46.723 135.039 44.4924 134.28 44.1894 131.081C43.9987 129.067 44.7906 126.887 45.5566 125.077C46.2014 123.552 46.9885 122.086 47.8705 120.686C49.2351 118.519 50.3037 118.338 52.905 118.677C56.3297 119.123 59.5783 120.691 62.8913 121.582C63.4798 121.74 63.6918 120.917 63.2307 120.629Z" fill="white"/>
<path d="M53.6264 125.076C55.3832 125.668 56.9632 126.373 58.0953 127.912C58.5074 128.473 59.3981 130.066 60.2245 129.028C60.4214 128.781 60.5439 128.433 60.4152 128.122C59.397 125.657 56.3816 123.701 53.711 123.922C53.0148 123.98 53.0281 124.874 53.6264 125.076Z" fill="white"/>
<path d="M63.6202 129.121C63.367 130.772 63.4263 132.797 64.3266 134.27C65.0431 135.444 66.4782 136.206 67.8272 135.661C69.2013 135.107 69.7128 133.542 70.0447 132.229C70.3971 130.832 70.7995 128.821 69.3541 127.945C69.0703 127.772 68.6796 127.984 68.6201 128.293C68.4572 129.146 68.7014 129.974 68.5786 130.836C68.4678 131.622 68.2661 132.809 67.7781 133.471C65.6359 136.369 64.6453 130.336 64.4441 129.181C64.3701 128.755 63.6975 128.617 63.6202 129.121Z" fill="white"/>
<path d="M77.3634 127.419C75.9724 129.927 78.2382 134.061 81.2353 133.713C82.6278 133.551 83.5772 132.392 83.8819 131.085C84.203 129.707 83.8201 127.342 82.5942 126.491C82.2984 126.285 81.7507 126.324 81.701 126.781C81.587 127.841 82.2553 128.674 82.3868 129.714C82.5235 130.787 82.098 132.254 80.7708 132.183C78.3011 132.051 78.7547 128.844 77.7781 127.397C77.6753 127.245 77.4513 127.26 77.3634 127.419Z" fill="white"/>
<path d="M60.7556 131.178C62.3338 137.043 58.1302 142.323 58.6194 148.262C58.8856 151.494 60.2974 154.609 62.8879 156.623C66.6203 159.523 75.3105 158.991 75.2199 152.89C75.2144 152.488 74.6608 152.302 74.4039 152.604C71.879 155.573 69.0371 158.164 64.9231 155.938C60.1656 153.364 59.632 147.315 60.667 142.665C61.5868 138.529 63.7084 134.828 61.5367 130.802C61.2902 130.344 60.6327 130.722 60.7556 131.178Z" fill="white"/>
<path d="M78.3692 153.131C76.6592 152.444 70.1692 149.103 73.9221 146.857C76.274 145.45 79.341 146.506 81.8219 145.755C82.3937 145.582 82.5306 144.633 81.9278 144.396C79.9325 143.609 77.1449 144.036 75.0726 144.425C73.4585 144.727 71.7947 145.409 71.1565 147.044C69.5968 151.041 74.7571 154.356 78.138 154.231C78.6857 154.211 78.9147 153.349 78.3692 153.131Z" fill="white"/>
<path d="M80.9666 145.578C81.9487 145.637 83.1064 146.19 83.5335 147.121C84.0885 148.33 83.1157 149.581 82.2016 150.293C81.1185 151.135 78.7524 151.696 78.6106 153.252C78.586 153.518 78.7037 153.697 78.9568 153.783C80.2529 154.228 82.3081 152.735 83.2973 151.97C84.4364 151.089 85.4166 149.822 85.56 148.349C85.8051 145.842 83.0769 143.531 80.8274 145.158C80.6286 145.3 80.7434 145.564 80.9666 145.578Z" fill="white"/>
<path d="M76.1897 152.992C75.1077 154.497 76.0232 156.486 76.8902 157.91C77.8149 159.428 79.3328 160.504 81.1733 160.259C82.9397 160.022 84.4228 158.71 85.0765 157.084C85.7233 155.479 85.9047 152.621 84.4968 151.391C84.1056 151.049 83.4476 151.236 83.3446 151.765C83.1043 153.011 83.7962 154.16 83.6421 155.45C83.4744 156.863 82.6394 158.172 81.1681 158.475C78.4167 159.041 77.3671 155.13 76.9465 153.151C76.8802 152.838 76.3766 152.732 76.1897 152.992Z" fill="white"/>
<path d="M74.458 125.815C73.9053 129.876 74.6511 133.969 76.2241 137.737C77.4297 140.628 79.49 144.936 82.6621 145.947C83.1131 146.089 83.5163 145.558 83.3718 145.15C82.3607 142.312 79.5539 140.148 78.1305 137.386C76.2737 133.781 75.6287 129.883 75.3436 125.88C75.3084 125.393 74.5282 125.299 74.458 125.815Z" fill="white"/>
<path d="M63.712 111.395C62.5411 108.484 58.7584 107.764 56.5907 110.108C55.1639 111.652 52.415 117.673 56.0033 118.42C56.2972 118.48 56.6569 118.227 56.6057 117.899C56.5015 117.236 56.1765 116.649 56.0963 115.988C55.9543 114.818 56.4977 113.687 57.0086 112.659C57.5021 111.666 58.0299 110.685 59.1683 110.338C60.6204 109.897 61.9175 110.739 62.7071 111.882C63.0569 112.387 63.959 112.01 63.712 111.395Z" fill="white"/>
<path d="M63.7063 111.781C64.2811 111.267 64.5716 110.596 65.3427 110.28C66.2882 109.892 67.3404 109.993 68.2051 110.518C69.3699 111.225 69.8289 112.761 71.0748 113.258C71.4921 113.425 71.8787 113.173 71.8944 112.723C71.9718 110.488 68.8957 108.504 66.8712 108.526C65.5686 108.54 61.985 109.941 63.279 111.747C63.3886 111.899 63.574 111.899 63.7063 111.781Z" fill="white"/>
<path d="M71.4937 113.081C72.3844 111.987 73.1985 110.733 74.8116 110.902C76.5462 111.083 76.7416 112.461 77.5715 113.639C77.947 114.173 78.6507 113.963 78.8395 113.402C79.5501 111.292 76.7919 109.279 74.9364 109.213C73.0621 109.146 70.5562 110.768 70.8961 112.871C70.9393 113.139 71.2914 113.33 71.4937 113.081Z" fill="white"/>
<path d="M78.8774 113.244C80.1705 112.706 81.4356 111.258 82.9084 111.387C84.951 111.568 84.3311 114.004 85.3106 115.177C85.5879 115.511 86.0676 115.53 86.2993 115.128C87.3204 113.356 85.8284 110.388 83.9809 109.753C81.9871 109.068 79.248 110.814 78.1992 112.452C77.9392 112.859 78.4386 113.426 78.8774 113.244Z" fill="white"/>
<path d="M80.3763 119.676C82.8898 117.448 89.375 113.12 92.8043 114.844C96.1387 116.52 96.7758 122.362 96.9219 125.51C96.9997 127.168 97.0139 133.763 93.0374 132.6C91.6333 132.189 90.3982 130.144 89.736 129.004C88.1821 126.331 88.1651 123.67 87.5555 120.743C87.4224 120.106 86.5897 120.335 86.4302 120.808C84.9974 125.07 87.6125 131.282 91.2164 133.841C95.9651 137.215 98.7441 131.942 99.0458 127.662C99.3539 123.268 98.1607 116.144 94.068 113.635C88.9546 110.499 83.3125 116.001 80.0513 119.381C79.8524 119.589 80.1706 119.857 80.3763 119.676Z" fill="white"/>
<path d="M86.4326 121.58C85.43 121.528 84.5652 121.5 83.6412 121.968C82.9258 122.331 81.7252 123.006 81.6219 123.88C81.5599 124.395 81.9692 124.781 82.4846 124.65C82.858 124.552 83.0367 124.324 83.3034 124.067C83.5959 123.784 83.9254 123.545 84.2768 123.338C84.9378 122.949 85.7209 122.451 86.4772 122.308C86.9383 122.221 86.907 121.605 86.4326 121.58Z" fill="white"/>
<path d="M62.3251 118.142C62.1913 121.65 65.0478 125.752 68.9443 124.891C71.7319 124.275 75.3691 120.261 73.5324 117.384C73.2463 116.937 72.4362 117.037 72.3592 117.604C72.0515 119.885 71.0317 122.862 68.2487 123.164C65.2005 123.496 64.1756 120.114 63.2784 117.957C63.0597 117.433 62.3461 117.587 62.3251 118.142Z" fill="white"/>
<path d="M72.8345 120.056C73.319 121.342 73.8399 122.273 75.1164 122.928C76.172 123.468 77.4191 123.628 78.5604 123.293C81.0572 122.557 82.2768 119.815 81.7401 117.359C81.6582 116.983 81.1427 116.94 80.9128 117.185C79.7934 118.375 80.3296 120.328 78.7208 121.241C76.9928 122.221 74.8239 121.079 73.7473 119.616C73.4175 119.169 72.6215 119.488 72.8345 120.056Z" fill="white"/>
<path d="M61.4857 134.633C59.4022 130.546 51.2988 129.974 49.7081 134.853C49.5416 135.365 50.195 135.67 50.5819 135.451C52.2731 134.493 53.3187 133.165 55.4294 133.032C57.5143 132.899 59.3115 133.917 60.9513 135.089C61.2817 135.325 61.6733 135.001 61.4857 134.633Z" fill="white"/>
<path d="M50.466 136.274C49.6117 133.802 45.5663 134.067 43.5366 134.625C40.8952 135.352 39.0266 137.266 38.8711 140.03C39.279 139.895 39.6863 139.76 40.0937 139.625C37.7049 136.796 30.4857 136.255 29.8944 140.943C29.7917 141.758 30.8544 141.949 31.1176 141.2C32.1769 138.192 37.1136 138.097 38.9784 140.353C39.3184 140.763 40.0806 140.748 40.1879 140.126C40.9032 135.967 46.6799 134.395 50.011 136.664C50.2528 136.828 50.5507 136.52 50.466 136.274Z" fill="white"/>
<path d="M78.8495 140.005C83.8146 140.217 87.7167 141.793 88.0746 147.387C88.1076 147.911 88.697 148.393 89.2249 148.163C93.6829 146.226 92.892 151.984 92.9179 153.629C92.9243 154.014 93.4904 154.238 93.7339 153.915C96.5732 150.17 93.0646 145.414 88.6719 146.503C89.0494 146.84 89.4268 147.177 89.8042 147.514C90.072 144.4 89.3145 142.19 86.6215 140.437C84.264 138.903 81.2217 137.943 78.6209 139.316C78.2532 139.51 78.5189 139.99 78.8495 140.005Z" fill="white"/>
<path d="M55.3705 84.8551C52.7353 82.0843 48.9039 80.5648 45.9218 83.8155C43.4066 86.5566 42.9453 91.1807 45.6821 93.9265C48.23 96.4827 51.9246 96.0632 54.3861 93.6405C56.3909 91.6668 58.5474 86.9604 55.602 84.9283C55.1976 84.6498 54.66 85.0927 54.6915 85.523C54.8641 87.8891 55.2274 89.606 53.6331 91.6606C52.0481 93.7035 49.2498 94.8046 47.0862 92.8783C44.7825 90.8271 45.2061 87.0726 47.1701 84.9458C49.5557 82.3627 52.4391 84.1434 54.8407 85.6184C55.3185 85.9123 55.7158 85.2179 55.3705 84.8551Z" fill="white"/>
<path d="M83.9886 84.8388C82.7561 84.0715 81.1141 84.4484 80.3715 85.7188C79.6092 87.0245 80.0827 88.8163 81.4094 89.5503C82.6588 90.2435 84.4031 89.8145 85.1438 88.5792C85.713 87.6279 85.7859 85.1295 84.2679 84.9752C83.9904 84.9468 83.6162 85.1393 83.6784 85.4848C83.8105 86.2047 84.439 86.6693 84.2708 87.4759C84.0866 88.3583 83.0347 88.7993 82.2339 88.4606C81.4985 88.148 81.1609 87.1355 81.5 86.4234C81.8733 85.6394 82.9425 85.3887 83.7119 85.6172C84.1888 85.7597 84.3618 85.0726 83.9886 84.8388Z" fill="white"/>
<path d="M95.544 98.1884C93.9096 96.0081 90.5783 95.7942 88.8239 98.0018C87.3991 99.795 88.0904 103.37 89.8259 104.765C91.7393 106.305 94.8095 105.758 96.3592 103.973C97.6049 102.539 98.2593 98.247 95.6163 97.8507C95.1578 97.7829 94.721 98.1107 94.7504 98.5992C94.8298 99.9389 95.9799 100.82 95.3712 102.302C94.7654 103.777 92.6627 104.602 91.219 103.874C89.9555 103.235 89.4658 100.859 89.8527 99.5955C90.5665 97.2632 93.4062 98.13 94.9901 98.8009C95.3518 98.9532 95.8207 98.5572 95.544 98.1884Z" fill="white"/>
<path d="M59.2187 147.878C49.4617 144.643 38.6186 143.547 28.53 141.572C27.7276 141.414 27.4633 142.664 28.2685 142.815C38.3912 144.72 48.8991 147.721 59.1851 148.332C59.4646 148.348 59.4416 147.952 59.2187 147.878Z" fill="white"/>
<path d="M85.4023 154.578C87.071 155.105 88.7892 155.416 90.502 155.765C91.2909 155.927 92.0804 156.086 92.8709 156.24C93.2035 156.297 93.5347 156.361 93.8651 156.43C95.3067 157.395 95.3843 158.438 94.0977 159.562C93.9042 159.633 93.7975 159.933 93.9901 160.073C95.9869 161.515 96.5184 157.827 95.8973 156.556C95.2982 155.329 93.9827 155.08 92.7622 154.8C90.4187 154.262 88.0339 153.687 85.6424 153.436C84.8947 153.357 84.6818 154.35 85.4023 154.578Z" fill="white"/>
<path d="M28.608 141.904C28.1978 141.255 27.364 141.305 26.7916 141.739C26.0887 142.272 25.6833 143.467 25.55 144.308C25.2588 146.151 26.7842 147.495 28.5603 147.525C29.2973 147.539 29.4558 146.466 28.8483 146.155C28.2135 145.831 27.2093 145.762 26.9617 144.975C26.8211 144.53 27.027 144.022 27.1861 143.601C27.3999 143.037 27.608 142.691 28.2446 142.628C28.5949 142.594 28.8008 142.209 28.608 141.904Z" fill="white"/>
<path d="M27.996 147.341C38.214 150.648 49.3935 152.181 59.9577 154.088C61.0235 154.281 61.3697 152.667 60.3047 152.438C49.8085 150.179 38.8833 147.343 28.1718 146.505C27.6271 146.462 27.4652 147.17 27.996 147.341Z" fill="white"/>
<path d="M73.4736 156.706C74.252 157.016 74.9802 157.259 75.8012 157.43C76.4147 157.558 77.1149 157.753 77.606 157.277C77.7084 157.179 77.6961 157.023 77.6355 156.91C77.3166 156.314 76.5016 156.302 75.9007 156.244C75.1078 156.166 74.3712 156.164 73.5768 156.216C73.3366 156.231 73.2246 156.608 73.4736 156.706Z" fill="white"/>
<path d="M83.8198 158.524C85.4553 159.267 87.3349 159.399 89.1 159.668C90.856 159.935 92.7904 160.436 94.5551 160.155C94.92 160.098 95.1111 159.572 94.7162 159.389C93.0973 158.639 91.1342 158.586 89.3738 158.366C87.6004 158.143 85.7061 157.743 83.9274 158.012C83.6838 158.049 83.5564 158.403 83.8198 158.524Z" fill="white"/>
<path d="M29.3672 147.312C27.3004 155.08 27.2004 164.142 32.6255 170.639C38.3162 177.453 48.791 180.459 57.2119 181.554C65.2451 182.597 74.7877 183.7 82.242 179.74C89.6198 175.819 91.6888 167.76 92.0254 159.912C92.0683 158.924 90.3913 158.793 90.2754 159.785C89.3332 167.889 87.3823 176.041 78.8888 179.254C72.0117 181.856 63.4107 180.843 56.3389 179.75C50.1748 178.796 43.8807 176.647 38.5919 173.271C29.2261 167.293 29.2099 157.406 30.7536 147.604C30.8957 146.703 29.6022 146.43 29.3672 147.312Z" fill="white"/>
<path d="M43.8798 177.812C40.8026 181.037 35.698 176.792 32.3975 179.234C30.007 181.002 31.7381 184.02 33.1449 185.741C33.3694 185.412 33.5945 185.084 33.8191 184.755C31.4797 184.394 29.0023 184.019 29.7372 180.847C30.2829 178.495 32.2253 178.395 34.0219 177.391C35.6333 176.49 36.93 174.942 36.0433 173.09C35.8005 172.583 34.9175 172.627 34.9885 173.294C35.3406 176.625 31.7049 176.483 29.9143 177.929C28.9437 178.713 28.4011 179.763 28.2897 181.004C28.1888 182.127 28.4542 183.89 29.1816 184.804C30.1244 185.99 32.0831 185.792 33.553 186.021C34.0516 186.097 34.6061 185.502 34.227 185.034C32.9122 183.413 31.6061 180.874 34.4391 179.933C35.9663 179.425 38.3473 180.122 39.8817 180.223C41.8411 180.351 43.4186 180.12 44.7139 178.567C45.1771 178.011 44.3811 177.287 43.8798 177.812Z" fill="white"/>
<path d="M67.9588 182.431C68.5167 184.366 69.8717 185.225 71.715 185.893C73.1786 186.423 75.3303 186.654 76.5305 187.672C77.1905 188.234 77.9087 189.393 77.773 190.401C77.6531 191.296 75.7389 192.17 74.9536 192.574C74.4174 192.85 74.6839 193.617 75.174 193.749C76.3456 194.06 78.1796 194.987 79.3605 194.645C80.4761 194.323 81.675 192.275 82.0117 191.276C82.3999 190.123 82.339 188.974 81.7988 187.882C80.7698 185.803 77.3152 184.439 78.9845 181.522C79.3145 180.944 78.5313 180.541 78.1009 180.91C76.561 182.233 77.1007 184.202 78.2192 185.661C79.1637 186.891 80.8576 187.939 80.979 189.636C81.0885 191.157 79.8104 193.088 78.2149 193.224C77.4211 193.293 76.1868 192.684 75.4401 192.483C75.5131 192.874 75.5862 193.266 75.6592 193.657C77.6198 192.659 80.4684 190.574 78.9642 188.002C76.8978 184.467 70.5401 186.258 69.0266 182.077C68.7791 181.394 67.7578 181.735 67.9588 182.431Z" fill="white"/>
<path d="M55.259 45.5365C61.9457 51.6579 72.9183 52.9906 81.4493 54.697C86.805 55.7672 92.1872 56.7053 97.59 57.506C101.603 58.1017 105.542 59.193 109.346 57.5225C109.906 57.2778 109.821 56.3444 109.13 56.4075C100.242 57.2162 90.5108 54.6729 81.8161 52.9525C72.6753 51.1438 63.9083 49.4436 55.6589 44.9584C55.3035 44.7651 54.9645 45.2661 55.259 45.5365Z" fill="white"/>
<path d="M55.826 45.1474C37.6476 45.6813 34.4817 62.653 31.1423 77.1917C26.2057 98.6824 21.5575 120.254 18.0857 142.035C14.9958 161.422 11.9521 181.676 12.3123 201.369C12.6106 217.657 24.0797 226.227 39.9132 226.213C40.7349 226.212 40.7687 224.996 40.0152 224.813C31.5634 222.751 22.7388 222.119 17.6572 213.933C13.2295 206.8 14.5713 197.102 15.0518 189.139C16.0723 172.223 18.188 155.378 20.8779 138.652C23.5561 122.003 26.8975 105.47 30.4177 88.9801C33.8228 73.0315 34.7945 47.4372 55.8931 46.2283C56.5897 46.1881 56.5229 45.1263 55.826 45.1474Z" fill="white"/>
<path d="M109.46 57.4905C120.278 62.9982 122.139 73.3602 120.115 84.3986C118.502 93.1909 116.615 101.949 114.785 110.698C110.98 128.894 106.904 147.039 101.956 164.963C97.2293 182.087 92.2841 199.821 84.8149 215.983C80.1063 226.176 71.9758 230.974 60.7123 229.314C53.4967 228.251 46.7377 224.977 39.3961 224.735C38.5599 224.707 38.564 225.936 39.2945 226.134C53.8607 230.117 72.6067 238.115 83.5563 223.032C88.6383 216.033 91.1314 206.606 93.935 198.514C97.5745 188.014 100.861 177.393 103.792 166.672C109.837 144.562 114.56 122.123 118.899 99.6235C121.87 84.2265 127.72 64.9921 109.956 56.5281C109.327 56.2283 108.837 57.1743 109.46 57.4905Z" fill="white"/>
</svg>
