<svg width="172" height="109" viewBox="0 0 172 109" fill="none" xmlns="http://www.w3.org/2000/svg">
<path d="M47.2945 51.6573C47.3798 51.6573 47.3798 51.524 47.2945 51.524C47.2091 51.524 47.2091 51.6573 47.2945 51.6573Z" fill="white"/>
<path d="M41.5543 54.1041C40.2037 51.6601 39.6489 49.0268 39.4929 46.2575C39.4783 45.9841 39.1077 45.9948 39.077 46.2575C38.7357 49.1695 39.4983 51.9361 40.9157 54.4775C41.1477 54.8935 41.785 54.5215 41.5543 54.1041Z" fill="white"/>
<path d="M50.1671 55.4723C48.8298 53.2483 48.6338 50.8136 48.9365 48.2869C48.9671 48.0349 48.6072 48.0336 48.5272 48.2323C47.4992 50.7896 48.1431 53.5483 49.6725 55.7616C49.8791 56.0616 50.3591 55.7936 50.1671 55.4723Z" fill="white"/>
<path d="M61.5916 56.1749C61.1396 54.4029 60.8116 52.4882 60.0849 50.8069C59.9676 50.5362 59.4903 50.6695 59.5209 50.9602C59.7143 52.7815 60.3716 54.6149 60.8476 56.3789C60.977 56.8575 61.7143 56.6562 61.5916 56.1749Z" fill="white"/>
<path d="M71.6335 57.499C71.0122 55.7537 70.9122 54.091 70.9122 52.2616C70.9122 51.9683 70.4775 51.9056 70.4002 52.1923C69.9175 53.995 70.2322 55.9923 70.9308 57.6923C71.1042 58.115 71.7948 57.9497 71.6335 57.499Z" fill="white"/>
<path d="M82.9665 60.1641C82.3505 57.9961 82.2598 55.8281 82.2091 53.5934C82.2038 53.3428 81.8171 53.2721 81.7585 53.5321C81.2438 55.8201 81.5758 58.1441 82.2638 60.3574C82.4025 60.8041 83.0958 60.6174 82.9665 60.1641Z" fill="white"/>
<path d="M93.7483 62.9244C93.7523 60.4884 93.8456 58.0138 93.555 55.5911C93.515 55.2564 93.0749 55.2564 93.0349 55.5911C92.7442 58.0124 92.8376 60.4884 92.8416 62.9244C92.843 63.5071 93.7469 63.5084 93.7483 62.9244Z" fill="white"/>
<path d="M105.656 66.7124C105.025 65.2204 105.082 63.8284 104.993 62.2604C104.97 61.867 104.433 61.7884 104.308 62.1684C103.785 63.7497 104.285 65.667 104.936 67.1322C105.154 67.6254 105.861 67.1978 105.656 66.7124Z" fill="white"/>
<path d="M114.839 68.8507C114.408 66.2001 114.119 63.4695 113.378 60.8841C113.303 60.6215 112.871 60.6615 112.887 60.9508C113.043 63.6655 113.674 66.3695 114.147 69.0429C114.227 69.4987 114.912 69.3028 114.839 68.8507Z" fill="white"/>
<path d="M123.798 74.7586C123.193 71.6747 122.503 68.6523 122.071 65.5335C122.034 65.2682 121.65 65.3589 121.631 65.5922C121.373 68.7627 121.875 72.107 123.37 74.9387C123.499 75.1857 123.847 75.0081 123.798 74.7586Z" fill="white"/>
<path d="M132.34 72.9242C132.529 71.1825 132.477 69.2497 132.236 67.5149C132.198 67.2414 131.721 67.2414 131.684 67.5149C131.442 69.2497 131.39 71.1841 131.58 72.9242C131.633 73.4122 132.286 73.4133 132.34 72.9242Z" fill="white"/>
<path d="M135.837 42.687C132.252 45.227 128.666 48.3137 126.457 52.167C126.309 52.4243 126.664 52.7137 126.874 52.4897C129.894 49.267 132.674 46.0523 136.269 43.4243C136.706 43.1043 136.289 42.367 135.837 42.687Z" fill="white"/>
<path d="M125.891 44.0214C123.533 44.8654 120.864 46.8881 120.2 49.4361C120.133 49.6881 120.473 49.9214 120.661 49.7041C121.463 48.7761 122.095 47.7254 122.952 46.8374C123.859 45.8961 124.949 45.1068 126.064 44.4308C126.272 44.3028 126.139 43.9321 125.891 44.0214Z" fill="white"/>
<path d="M111.585 44.039C110.424 45.9817 108.968 47.9523 108.261 50.1177C108.186 50.3457 108.509 50.539 108.67 50.3563C110.177 48.6483 111.138 46.3977 112.224 44.4123C112.452 43.9937 111.83 43.6297 111.585 44.039Z" fill="white"/>
<path d="M100.382 44.4963C99.3904 45.0203 98.4558 45.6483 97.6184 46.3976C96.9131 47.031 95.9517 47.9216 95.737 48.8829C95.6864 49.1109 95.9384 49.3536 96.1584 49.207C96.9304 48.6923 97.4717 47.7763 98.1331 47.1216C98.9197 46.3403 99.7877 45.675 100.74 45.1083C101.133 44.8736 100.785 44.283 100.382 44.4963Z" fill="white"/>
<path d="M88.2903 42.5988C87.6996 43.3001 87.105 43.9988 86.5183 44.7028C85.989 45.3361 85.3556 46.0094 85.0023 46.7534C84.8303 47.1148 85.2316 47.3974 85.5329 47.1628C86.1849 46.6588 86.7116 45.8948 87.2156 45.2414C87.7756 44.5161 88.3356 43.7908 88.8956 43.0655C89.1609 42.7228 88.5716 42.2641 88.2903 42.5988Z" fill="white"/>
<path d="M77.7046 40.5323C77.1419 40.9523 76.5873 41.379 76.034 41.8123C75.7686 42.019 75.5033 42.2243 75.2446 42.4377C74.882 42.7363 74.6766 42.9937 74.3793 43.3403C74.1499 43.607 74.438 44.0443 74.77 43.847C75.078 43.6643 75.3246 43.5617 75.6046 43.327C75.8926 43.0857 76.1753 42.839 76.4553 42.587C77.014 42.0843 77.5686 41.579 78.1153 41.0643C78.3873 40.807 78.0179 40.299 77.7046 40.5323Z" fill="white"/>
<path d="M64.306 39.2895C63.7634 39.9348 63.2234 40.5788 62.706 41.2442C62.322 41.7388 61.7541 42.2575 61.7074 42.9055C61.6981 43.0495 61.8634 43.1735 61.998 43.1268C62.6114 42.9162 62.966 42.2335 63.3447 41.7362C63.854 41.0655 64.3368 40.3775 64.8208 39.6868C65.0328 39.3855 64.546 39.0042 64.306 39.2895Z" fill="white"/>
<path d="M58.4712 37.4908C57.5352 39.2242 56.3219 40.9908 55.6992 42.8642C55.5739 43.2402 56.0846 43.3828 56.2886 43.1135C57.4579 41.5722 58.2259 39.5815 59.1099 37.8642C59.3272 37.4428 58.6992 37.0695 58.4712 37.4908Z" fill="white"/>
<path d="M50.4304 34.5895C48.4224 35.7748 46.1438 37.7735 45.6304 40.1655C45.5491 40.5469 46.0198 40.7268 46.2398 40.4228C46.9225 39.4788 47.4211 38.4255 48.1758 37.5255C48.9278 36.6282 49.8131 35.8455 50.7878 35.2002C51.1651 34.9508 50.8264 34.3548 50.4304 34.5895Z" fill="white"/>
<path d="M45.7743 30.0853C43.889 31.6187 42.4636 33.772 42.3596 36.2453C42.3502 36.4693 42.673 36.4974 42.7383 36.2974C43.4543 34.0814 44.4356 32.08 46.2383 30.5493C46.5623 30.2747 46.097 29.8227 45.7743 30.0853Z" fill="white"/>
<path d="M46.1403 28.9215C46.303 17.1522 39.871 -5.77978 23.0897 1.34555C8.13634 7.69622 12.499 28.3895 20.5843 38.2935C21.3937 39.2855 22.615 38.0175 22.203 37.0442C18.0244 27.1829 9.94299 12.3015 22.7323 4.55354C28.9043 0.813541 36.1003 4.52021 39.827 9.93888C43.6456 15.4909 44.011 22.4642 44.787 28.9215C44.8883 29.7629 46.1283 29.8175 46.1403 28.9215Z" fill="white"/>
<path d="M21.2568 36.5601C6.71943 37.0614 -6.13792 55.0068 3.13808 68.1866C6.94741 73.5976 14.3167 76.372 20.5967 73.9361C26.8074 71.5268 33.3527 64.2241 31.626 57.3254C31.3127 56.0721 29.4527 56.3748 29.4167 57.6254C29.2141 64.5841 22.4301 72.496 14.9581 72.0506C8.38207 71.6574 3.70605 66.1588 2.97271 59.9268C1.59138 48.1721 11.2927 40.6841 21.4167 37.7468C22.0567 37.5614 21.9541 36.5361 21.2568 36.5601Z" fill="white"/>
<path d="M44.4696 28.4456C53.9816 39.0763 72.5456 40.667 85.7869 42.5763C103.152 45.079 121.131 45.935 138.604 44.0296C140.375 43.8363 140.459 41.1016 138.604 41.1963C122.695 42.007 106.992 42.2216 91.1256 40.4296C82.9589 39.507 74.8242 38.1616 66.7789 36.4896C59.1509 34.9043 50.9469 33.4043 45.2509 27.6657C44.7469 27.1563 43.9989 27.919 44.4696 28.4456Z" fill="white"/>
<path d="M138.54 41.596C139.676 29.156 156.857 13.676 166.182 29.4387C172.99 40.9453 166.176 53.1467 155.274 58.2573C153.94 58.8827 154.881 61.0893 156.278 60.6373C170.929 55.8973 177.286 35.3653 165.569 24.1947C153.417 12.6093 137.141 28.4947 136.957 41.596C136.942 42.6293 138.449 42.5933 138.54 41.596Z" fill="white"/>
<path d="M156.85 60.7587C169.05 68.6532 170.373 99.5464 155.254 104.424C152.326 105.368 148.759 106.119 145.697 105.981C139.265 105.693 136.313 101.021 133.981 95.7839C130.001 86.8412 130.162 78.5985 136.743 71.0376C137.481 70.1907 136.545 68.7761 135.494 69.4172C126.153 75.124 127.551 88.0745 131.339 96.7068C136.01 107.351 143.037 110.157 154.119 107.556C164.699 105.073 168.03 96.7625 168.599 86.4437C169.073 77.8891 166.861 62.5773 157.589 59.0067C156.534 58.6013 155.979 60.196 156.85 60.7587Z" fill="white"/>
<path d="M132.021 74.9386C117.143 67.0079 99.3893 62.88 83.0586 59.092C74.5226 57.1134 65.9093 55.3774 57.2453 54.0494C49.724 52.896 41.6173 51.844 34.2986 54.4294C33.34 54.768 33.3973 56.44 34.556 56.332C51.664 54.732 68.1826 58.2494 84.7933 62.2174C100.635 66.0027 115.875 72.036 131.677 75.7574C132.155 75.8694 132.485 75.1855 132.021 74.9386Z" fill="white"/>
</svg>
