<svg width="172" height="109" viewBox="0 0 172 109" fill="none" xmlns="http://www.w3.org/2000/svg">
<path d="M47.2945 51.6572C47.3798 51.6572 47.3798 51.5239 47.2945 51.5239C47.2091 51.5239 47.2091 51.6572 47.2945 51.6572Z" fill="white"/>
<path d="M41.5543 54.104C40.2037 51.66 39.6489 49.0267 39.4929 46.2574C39.4783 45.984 39.1077 45.9947 39.077 46.2574C38.7357 49.1694 39.4983 51.936 40.9157 54.4774C41.1477 54.8934 41.785 54.5213 41.5543 54.104Z" fill="white"/>
<path d="M50.1671 55.4722C48.8298 53.2482 48.6338 50.8135 48.9365 48.2868C48.9671 48.0348 48.6072 48.0335 48.5272 48.2322C47.4992 50.7895 48.1431 53.5482 49.6725 55.7615C49.8791 56.0615 50.3591 55.7935 50.1671 55.4722Z" fill="white"/>
<path d="M61.5916 56.1747C61.1396 54.4027 60.8116 52.4881 60.0849 50.8067C59.9676 50.5361 59.4903 50.6694 59.5209 50.9601C59.7143 52.7814 60.3716 54.6147 60.8476 56.3787C60.977 56.8574 61.7143 56.6561 61.5916 56.1747Z" fill="white"/>
<path d="M71.6335 57.4989C71.0122 55.7535 70.9122 54.0909 70.9122 52.2615C70.9122 51.9682 70.4775 51.9055 70.4002 52.1922C69.9175 53.9949 70.2322 55.9922 70.9308 57.6922C71.1042 58.1149 71.7948 57.9495 71.6335 57.4989Z" fill="white"/>
<path d="M82.9665 60.164C82.3505 57.996 82.2598 55.828 82.2091 53.5933C82.2038 53.3427 81.8171 53.272 81.7585 53.532C81.2438 55.82 81.5758 58.144 82.2638 60.3573C82.4025 60.804 83.0958 60.6173 82.9665 60.164Z" fill="white"/>
<path d="M93.7483 62.9243C93.7523 60.4883 93.8456 58.0136 93.555 55.591C93.515 55.2563 93.0749 55.2563 93.0349 55.591C92.7442 58.0123 92.8376 60.4883 92.8416 62.9243C92.843 63.507 93.7469 63.5083 93.7483 62.9243Z" fill="white"/>
<path d="M105.656 66.7123C105.025 65.2203 105.082 63.8283 104.993 62.2603C104.97 61.8669 104.433 61.7883 104.308 62.1683C103.785 63.7496 104.285 65.6669 104.936 67.1321C105.154 67.6253 105.861 67.1977 105.656 66.7123Z" fill="white"/>
<path d="M114.839 68.8506C114.408 66.2 114.119 63.4694 113.378 60.884C113.303 60.6214 112.871 60.6614 112.887 60.9507C113.043 63.6654 113.674 66.3694 114.147 69.0428C114.227 69.4986 114.912 69.3027 114.839 68.8506Z" fill="white"/>
<path d="M123.798 74.7585C123.193 71.6746 122.503 68.6522 122.071 65.5334C122.034 65.2681 121.65 65.3588 121.631 65.5921C121.373 68.7626 121.875 72.1069 123.37 74.9386C123.499 75.1856 123.847 75.008 123.798 74.7585Z" fill="white"/>
<path d="M132.34 72.9241C132.529 71.1824 132.477 69.2496 132.236 67.5148C132.198 67.2413 131.721 67.2413 131.684 67.5148C131.442 69.2496 131.39 71.184 131.58 72.9241C131.633 73.4121 132.286 73.4132 132.34 72.9241Z" fill="white"/>
<path d="M135.837 42.6869C132.252 45.2269 128.666 48.3135 126.457 52.1669C126.309 52.4242 126.664 52.7136 126.874 52.4896C129.894 49.2669 132.674 46.0522 136.269 43.4242C136.706 43.1042 136.289 42.3669 135.837 42.6869Z" fill="white"/>
<path d="M125.891 44.0213C123.533 44.8653 120.864 46.888 120.2 49.436C120.133 49.688 120.473 49.9213 120.661 49.704C121.463 48.776 122.095 47.7253 122.952 46.8373C123.859 45.896 124.949 45.1067 126.064 44.4307C126.272 44.3027 126.139 43.932 125.891 44.0213Z" fill="white"/>
<path d="M111.585 44.0389C110.424 45.9815 108.968 47.9522 108.261 50.1175C108.186 50.3455 108.509 50.5389 108.67 50.3562C110.177 48.6482 111.138 46.3976 112.224 44.4122C112.452 43.9936 111.83 43.6295 111.585 44.0389Z" fill="white"/>
<path d="M100.382 44.4962C99.3904 45.0202 98.4558 45.6482 97.6184 46.3975C96.9131 47.0308 95.9517 47.9215 95.737 48.8828C95.6864 49.1108 95.9384 49.3535 96.1584 49.2068C96.9304 48.6922 97.4717 47.7762 98.1331 47.1215C98.9197 46.3402 99.7877 45.6748 100.74 45.1082C101.133 44.8735 100.785 44.2828 100.382 44.4962Z" fill="white"/>
<path d="M88.2903 42.5987C87.6996 43.3 87.105 43.9987 86.5183 44.7027C85.989 45.336 85.3556 46.0093 85.0023 46.7533C84.8303 47.1147 85.2316 47.3973 85.5329 47.1627C86.1849 46.6587 86.7116 45.8947 87.2156 45.2413C87.7756 44.516 88.3356 43.7907 88.8956 43.0653C89.1609 42.7227 88.5716 42.264 88.2903 42.5987Z" fill="white"/>
<path d="M77.7046 40.5322C77.1419 40.9522 76.5873 41.3789 76.034 41.8122C75.7686 42.0189 75.5033 42.2242 75.2446 42.4375C74.882 42.7362 74.6766 42.9935 74.3793 43.3402C74.1499 43.6069 74.438 44.0442 74.77 43.8469C75.078 43.6642 75.3246 43.5615 75.6046 43.3269C75.8926 43.0855 76.1753 42.8389 76.4553 42.5869C77.014 42.0842 77.5686 41.5789 78.1153 41.0642C78.3873 40.8069 78.0179 40.2989 77.7046 40.5322Z" fill="white"/>
<path d="M64.306 39.2894C63.7634 39.9347 63.2234 40.5787 62.706 41.2441C62.322 41.7387 61.7541 42.2574 61.7074 42.9054C61.6981 43.0494 61.8634 43.1734 61.998 43.1267C62.6114 42.9161 62.966 42.2334 63.3447 41.7361C63.854 41.0654 64.3368 40.3774 64.8208 39.6867C65.0328 39.3854 64.546 39.0041 64.306 39.2894Z" fill="white"/>
<path d="M58.4712 37.4907C57.5352 39.224 56.3219 40.9907 55.6992 42.864C55.5739 43.24 56.0846 43.3827 56.2886 43.1134C57.4579 41.572 58.2259 39.5814 59.1099 37.864C59.3272 37.4427 58.6992 37.0694 58.4712 37.4907Z" fill="white"/>
<path d="M50.4304 34.5894C48.4224 35.7747 46.1438 37.7734 45.6304 40.1654C45.5491 40.5467 46.0198 40.7267 46.2398 40.4227C46.9225 39.4787 47.4211 38.4254 48.1758 37.5254C48.9278 36.6281 49.8131 35.8454 50.7878 35.2C51.1651 34.9507 50.8264 34.3547 50.4304 34.5894Z" fill="white"/>
<path d="M45.7743 30.0852C43.889 31.6186 42.4636 33.7719 42.3596 36.2452C42.3502 36.4692 42.673 36.4972 42.7383 36.2972C43.4543 34.0812 44.4356 32.0799 46.2383 30.5492C46.5623 30.2745 46.097 29.8226 45.7743 30.0852Z" fill="white"/>
<path d="M46.1403 28.9214C46.303 17.1521 39.871 -5.7799 23.0897 1.34543C8.13634 7.69609 12.499 28.3894 20.5843 38.2934C21.3937 39.2854 22.615 38.0174 22.203 37.0441C18.0244 27.1828 9.94299 12.3014 22.7323 4.55342C28.9043 0.813419 36.1003 4.52009 39.827 9.93876C43.6456 15.4908 44.011 22.4641 44.787 28.9214C44.8883 29.7628 46.1283 29.8174 46.1403 28.9214Z" fill="white"/>
<path d="M21.2568 36.56C6.71943 37.0613 -6.13792 55.0066 3.13808 68.1865C6.94741 73.5974 14.3167 76.3718 20.5967 73.936C26.8074 71.5266 33.3527 64.224 31.626 57.3253C31.3127 56.072 29.4527 56.3746 29.4167 57.6253C29.2141 64.584 22.4301 72.4958 14.9581 72.0505C8.38207 71.6573 3.70605 66.1586 2.97271 59.9266C1.59138 48.172 11.2927 40.684 21.4167 37.7466C22.0567 37.5613 21.9541 36.536 21.2568 36.56Z" fill="white"/>
<path d="M44.4696 28.4455C53.9816 39.0762 72.5456 40.6669 85.7869 42.5762C103.152 45.0789 121.131 45.9349 138.604 44.0295C140.375 43.8362 140.459 41.1015 138.604 41.1962C122.695 42.0069 106.992 42.2215 91.1256 40.4295C82.9589 39.5069 74.8242 38.1615 66.7789 36.4895C59.1509 34.9042 50.9469 33.4042 45.2509 27.6655C44.7469 27.1562 43.9989 27.9189 44.4696 28.4455Z" fill="white"/>
<path d="M138.54 41.5959C139.676 29.1559 156.857 13.6759 166.182 29.4385C172.99 40.9452 166.176 53.1465 155.274 58.2572C153.94 58.8825 154.881 61.0892 156.278 60.6372C170.929 55.8972 177.286 35.3652 165.569 24.1945C153.417 12.6092 137.141 28.4946 136.957 41.5959C136.942 42.6292 138.449 42.5932 138.54 41.5959Z" fill="white"/>
<path d="M156.85 60.7586C169.05 68.6531 170.373 99.5463 155.254 104.424C152.326 105.368 148.759 106.119 145.697 105.981C139.265 105.693 136.313 101.021 133.981 95.7838C130.001 86.8411 130.162 78.5984 136.743 71.0375C137.481 70.1906 136.545 68.776 135.494 69.4171C126.153 75.1239 127.551 88.0744 131.339 96.7067C136.01 107.35 143.037 110.157 154.119 107.556C164.699 105.073 168.03 96.7624 168.599 86.4436C169.073 77.889 166.861 62.5772 157.589 59.0066C156.534 58.6012 155.979 60.1959 156.85 60.7586Z" fill="white"/>
<path d="M132.021 74.9384C117.143 67.0078 99.3893 62.8799 83.0586 59.0919C74.5226 57.1132 65.9093 55.3772 57.2453 54.0492C49.724 52.8959 41.6173 51.8439 34.2986 54.4292C33.34 54.7679 33.3973 56.4399 34.556 56.3319C51.664 54.7319 68.1826 58.2492 84.7933 62.2172C100.635 66.0026 115.875 72.0359 131.677 75.7572C132.155 75.8692 132.485 75.1854 132.021 74.9384Z" fill="white"/>
</svg>
