<svg width="84" height="221" viewBox="0 0 84 221" fill="none" xmlns="http://www.w3.org/2000/svg">
<path d="M64.6827 0.428329C65.7973 18.323 68.856 35.9043 65.5693 53.7923C64.0653 61.9683 61.3627 69.8203 57.1413 77.003C53.6413 82.959 49.4014 88.4603 47.7894 95.291C47.536 96.3643 49.0974 96.7897 49.4374 95.7443C52.1494 87.399 57.8107 80.871 61.5814 73.059C64.9414 66.1017 66.9867 58.5617 68.1027 50.935C70.5333 34.3137 68.86 16.715 65.5427 0.311005C65.4454 -0.168991 64.652 -0.0650101 64.6827 0.428329Z" fill="white"/>
<path d="M48.1424 96.0579C42.2424 89.6979 38.357 81.3885 33.989 73.9232C33.6624 73.3645 32.7357 73.4539 32.5784 74.1072C30.6464 82.1312 36.029 90.9072 39.7877 97.6766C40.029 97.2566 40.2704 96.8352 40.5117 96.4152C33.8504 96.9606 27.485 94.8525 20.897 94.2579C20.253 94.2005 19.9477 94.9725 20.2037 95.4659C23.4584 101.722 33.1943 102.403 39.333 101.31C40.1063 101.171 39.893 99.9966 39.153 99.9792C33.377 99.8499 24.7424 100.749 21.589 94.6552C21.3584 95.0579 21.1276 95.4605 20.897 95.8632C27.5076 96.4872 33.821 98.6592 40.5117 98.0912C41.133 98.0392 41.5717 97.4165 41.2357 96.8299C37.6103 90.5072 32.2637 82.0419 34.0663 74.5165C33.597 74.5792 33.1263 74.6406 32.657 74.7019C35.4677 79.6565 38.181 84.6672 41.093 89.5645C42.8103 92.4525 44.4583 95.3125 47.5997 96.7605C48.0503 96.9685 48.505 96.4485 48.1424 96.0579Z" fill="white"/>
<path d="M63.9489 111.74C60.5875 112.952 56.7528 111.526 53.4835 110.36C50.6942 109.366 49.1115 107.319 46.9648 105.402C46.4848 104.972 45.7462 105.51 46.0662 106.095C47.5462 108.815 49.8368 110.771 52.7355 111.832C56.4062 113.178 60.5448 114.668 64.3755 113.287C65.3395 112.94 64.9235 111.388 63.9489 111.74Z" fill="white"/>
<path d="M63.397 110.446C63.6757 110.588 64.217 110.83 64.3184 111.159C64.4304 111.519 64.0424 111.675 63.757 111.822C62.8397 112.292 63.6503 113.683 64.5677 113.207C65.3837 112.782 66.073 112.056 65.9397 111.068C65.813 110.123 64.993 109.48 64.1956 109.079C63.289 108.622 62.4864 109.98 63.397 110.446Z" fill="white"/>
<path d="M46.9244 96.458C51.5031 98.5167 56.6591 99.2287 61.6538 99.326C62.9204 99.35 64.2631 99.146 65.5204 99.266C67.0404 98.7793 67.4498 98.8767 66.7484 99.5553C66.1631 100.363 65.3858 100.966 64.4151 101.363C60.9618 103.305 56.7964 103.457 52.9391 103.606C52.2511 103.633 51.9231 104.435 52.3871 104.941C55.3471 108.166 59.5231 108.759 63.3911 110.455C64.3284 110.866 65.1444 109.479 64.2004 109.07C60.5444 107.482 56.2977 106.87 53.4924 103.834C53.3084 104.279 53.1244 104.725 52.9391 105.17C57.1297 105.078 61.5711 105.018 65.3644 102.985C66.6644 102.289 69.8817 100.485 69.4417 98.5154C68.9497 96.3074 65.3364 97.2553 63.9738 97.2913C58.3044 97.4407 52.8858 96.3314 47.3098 95.5434C46.8098 95.4727 46.3551 96.202 46.9244 96.458Z" fill="white"/>
<path d="M38.491 100.364C21.4284 115.792 11.691 137.558 6.48965 159.606C3.74432 171.244 2.09633 183.126 0.869667 195.011C0.169667 201.8 -2.23304 216.435 5.99629 220.278C12.891 223.499 21.335 213.311 24.855 208.81C31.0257 200.924 34.7617 191.496 37.3003 181.887C43.691 157.695 47.1097 131.398 47.6697 106.399C47.703 104.879 45.3856 104.891 45.315 106.399C44.3616 126.8 42.0883 146.912 38.3483 166.996C36.4563 177.158 34.2257 187.406 29.711 196.772C26.6203 203.183 12.2977 226.884 3.51635 213.326C1.09368 209.586 2.54431 201.834 2.94564 197.538C3.48831 191.74 4.17233 185.944 5.003 180.182C6.45233 170.135 8.42429 160.155 11.2963 150.412C16.819 131.683 26.0697 115.535 39.5523 101.424C40.223 100.723 39.2057 99.7176 38.491 100.364Z" fill="white"/>
<path d="M47.3492 95.0393C36.0239 111.801 31.1799 132.147 25.3492 151.231C18.6945 173.013 10.7386 194.419 3.27324 215.933C2.77991 217.354 5.03456 217.965 5.52389 216.553C12.7226 195.762 20.1625 175.037 26.4279 153.939C32.4172 133.77 37.7359 113.957 48.1399 95.5019C48.4332 94.9833 47.6772 94.5553 47.3492 95.0393Z" fill="white"/>
<path d="M30.8634 137.236C24.6407 137.332 17.574 139.452 12.0287 142.21C11.2913 142.575 11.8047 143.796 12.5901 143.542C15.6381 142.551 18.594 141.323 21.6754 140.423C24.7487 139.524 27.9234 139.012 30.974 138.055C31.4114 137.918 31.3474 137.23 30.8634 137.236Z" fill="white"/>
<path d="M33.7072 125.894C34.5886 128.986 36.2739 131.75 37.6699 134.631C39.2099 137.812 40.3699 141.463 42.4566 144.314C42.9113 144.935 43.8779 144.579 43.7139 143.784C43.0272 140.46 41.0712 137.323 39.5326 134.324C37.9806 131.3 36.5445 128.118 34.2645 125.57C34.0392 125.318 33.6192 125.583 33.7072 125.894Z" fill="white"/>
<path d="M25.8827 150.282C28.9667 158.581 33.2694 166.543 37.9441 174.05C38.5321 174.993 39.9894 174.15 39.4374 173.178C35.0787 165.49 30.9934 157.637 26.5681 149.993C26.3627 149.637 25.7307 149.873 25.8827 150.282Z" fill="white"/>
<path d="M22.9096 161.074C19.9736 161.423 17.2056 162.305 14.3989 163.207C11.6282 164.099 8.63229 164.851 6.12162 166.343C5.57362 166.67 5.95094 167.446 6.53894 167.334C9.54427 166.761 12.4603 165.357 15.3669 164.386C17.9629 163.518 20.5669 162.765 23.0563 161.618C23.3123 161.501 23.1936 161.041 22.9096 161.074Z" fill="white"/>
<path d="M17.3152 176.97C19.4312 186.002 22.6672 195.2 26.3112 203.732C26.6565 204.543 28.0165 203.964 27.7379 203.13C24.8019 194.294 21.8472 185.339 18.6019 176.615C18.3059 175.82 17.1165 176.12 17.3152 176.97Z" fill="white"/>
<path d="M18.3514 177.909C14.874 178.607 11.5073 180.206 8.20599 181.481C6.19266 182.259 3.81269 182.826 2.59935 184.731C2.24202 185.293 2.92469 185.814 3.44069 185.573C8.40069 183.253 14.0513 181.661 18.7286 178.803C19.2153 178.506 18.8887 177.801 18.3514 177.909Z" fill="white"/>
<path d="M38.255 113.231C38.691 115.691 39.8097 118.081 40.811 120.362C41.775 122.557 42.623 125.275 44.343 126.981C44.7243 127.359 45.2523 126.962 45.1777 126.494C44.815 124.227 43.335 122.091 42.4003 120.001C41.343 117.633 40.499 115.071 39.1696 112.846C38.8643 112.337 38.159 112.691 38.255 113.231Z" fill="white"/>
<path d="M39.1371 113.156C36.5278 113.496 33.9651 114.235 31.4624 115.04C29.0091 115.83 26.2291 116.539 24.1184 118.048C23.5891 118.426 23.9051 119.222 24.5598 119.095C27.0571 118.611 29.4371 117.299 31.8571 116.472C34.3091 115.634 36.8291 114.988 39.2678 114.119C39.7464 113.947 39.7211 113.08 39.1371 113.156Z" fill="white"/>
<path d="M62.1657 69.1378C56.1111 82.6204 53.6391 98.6631 54.8164 113.37C55.8391 126.156 59.8244 141.814 69.1217 151.208C69.5991 151.691 70.3378 151.08 70.0378 150.502C66.7684 144.214 62.9391 138.563 60.5937 131.771C58.2977 125.126 56.9244 118.144 56.4777 111.13C55.5537 96.6151 58.9991 83.2631 62.9084 69.4511C63.0297 69.0217 62.3591 68.7084 62.1657 69.1378Z" fill="white"/>
<path d="M70.0091 150.248C57.6331 154.87 65.6745 175.091 78.0531 169.347C90.1545 163.731 79.7185 141.466 69.0065 150.308C68.4038 150.806 69.0611 151.704 69.7264 151.544C71.9531 151.006 74.2465 150.019 76.5065 151.062C78.2118 151.848 79.5131 153.686 80.3145 155.311C82.4585 159.667 81.7425 165.904 76.7585 167.887C72.1598 169.716 67.1612 167.05 65.7692 162.318C64.3705 157.568 67.1932 154.044 70.4745 151.05C70.8158 150.738 70.4611 150.08 70.0091 150.248Z" fill="white"/>
<path d="M72.2397 158.091C70.865 159.416 70.9637 161.798 72.573 162.902C74.2477 164.051 76.7503 163.248 77.5597 161.419C78.393 159.534 77.1183 157.163 75.1597 156.652C72.957 156.079 70.289 158.244 71.1983 160.566C71.4317 161.16 72.2771 161.234 72.4851 160.566C72.7797 159.618 73.6023 158.314 74.773 158.543C75.7743 158.739 76.4491 159.975 75.9544 160.895C75.4904 161.759 74.145 162.128 73.3597 161.492C72.525 160.816 72.3864 159.499 72.9437 158.634C73.225 158.198 72.5997 157.744 72.2397 158.091Z" fill="white"/>
<path d="M73.4934 157.675C72.8121 156.307 72.1054 154.97 71.3508 153.642C70.7708 152.62 70.3602 151.392 69.2242 150.931C68.8695 150.787 68.5881 151.143 68.5521 151.443C68.4108 152.627 69.4481 153.74 70.0374 154.703C70.7894 155.934 71.5774 157.128 72.3961 158.316C72.8601 158.988 73.8601 158.411 73.4934 157.675Z" fill="white"/>
</svg>
