<svg width="112" height="124" viewBox="0 0 112 124" fill="none" xmlns="http://www.w3.org/2000/svg">
<path d="M106.424 122.229C105.435 122.253 104.405 122.409 103.419 122.363C102.632 122.369 101.905 122.165 101.24 121.751C100.928 120.935 100.616 120.119 100.305 119.303C100.361 117.293 103.073 115.35 104.727 114.722C107.243 113.767 110.395 114.597 109.979 117.809C109.653 120.326 107.556 121.683 105.175 121.901C104.497 121.963 104.408 122.797 105.019 123.047C108.265 124.378 111.543 121.071 111.893 117.939C112.328 114.043 108.971 111.886 105.391 112.645C102.189 113.323 98.3841 116.515 98.5774 120.078C98.8067 124.282 103.783 124.202 106.556 122.714C106.784 122.591 106.68 122.222 106.424 122.229Z" fill="white"/>
<path d="M73.4513 91.9063C68.454 85.7396 63.9073 80.717 55.5406 81.0863C50.17 81.3236 46.1753 84.8769 45.1873 90.1703C44.3233 94.7983 45.6886 100.984 50.038 103.46C55.566 106.606 62.2153 103.252 66.7046 99.8689C67.7073 99.1143 66.8526 97.5023 65.6953 98.1423C62.2726 100.034 58.7673 102.689 54.6353 102.414C47.4193 101.936 45.6046 92.7476 48.7286 87.4756C51.606 82.6209 58.9259 82.1276 63.4753 84.9663C66.9099 87.1103 69.6366 90.2156 72.9086 92.6103C73.3499 92.9343 73.7446 92.2689 73.4513 91.9063Z" fill="white"/>
<path d="M70.9629 95.668C67.8043 93.6933 64.0403 92.772 60.3536 92.4426C57.695 92.204 54.0203 91.82 52.5936 94.552C52.2776 95.156 52.8949 95.6613 53.4629 95.4213C58.9269 93.1093 65.2189 95.024 70.6496 96.4106C71.0989 96.5253 71.3549 95.9133 70.9629 95.668Z" fill="white"/>
<path d="M94.2106 82.8247C93.9453 79.018 94.104 75.2567 95.4533 71.6474C96.9587 67.6194 102.472 58.9461 107.576 64.2181C110.956 67.7101 109.405 74.0954 107.175 77.6514C105.331 80.5887 102.329 81.73 100.124 84.1634C99.8066 84.5127 100.028 85.0714 100.507 85.0874C105.335 85.2554 109.519 79.2007 110.892 75.1207C112.377 70.7087 112.241 64.6007 108.107 61.6234C104.119 58.7514 99.808 61.1967 97.1666 64.5727C93.172 69.6767 91.6626 76.6994 93.2693 82.9514C93.4013 83.4634 94.2493 83.3727 94.2106 82.8247Z" fill="white"/>
<path d="M98.348 84.618C98.828 82.286 99.3 79.9567 100.135 77.7193C101.077 75.1927 102.551 73.062 103.871 70.7393C104.161 70.2287 103.476 69.6847 103.053 70.1087C99.4826 73.678 97.4946 79.5326 97.6933 84.5286C97.7066 84.8886 98.268 85.002 98.348 84.618Z" fill="white"/>
<path d="M79.2715 99.3304C75.1115 98.0184 71.0422 101.448 70.6062 105.593C70.1528 109.913 73.2795 113.701 77.6008 114.102C82.2862 114.538 85.5262 110.756 85.1262 106.226C84.8316 102.897 81.0688 97.5371 77.2315 100.132C76.8715 100.376 76.8382 101.1 77.3689 101.18C78.7009 101.378 80.0235 101.344 81.1715 102.156C82.5662 103.142 83.2929 104.917 83.3769 106.597C83.5649 110.358 80.4862 113.164 76.7409 112.194C73.6555 111.396 71.7795 108.304 72.3862 105.205C73.0489 101.816 76.1529 100.39 79.2715 99.9531C79.6102 99.9051 79.5475 99.4171 79.2715 99.3304Z" fill="white"/>
<path d="M78.551 104.536C78.9336 104.856 79.0203 105.875 78.3056 105.822C78.0709 105.804 77.7843 105.627 77.7629 105.374C77.7216 104.907 78.2269 104.752 78.5776 104.715C78.9976 104.67 79.3229 104.02 78.8243 103.802C77.9709 103.428 76.955 104.01 76.687 104.887C76.419 105.77 77.0003 106.65 77.859 106.895C79.7803 107.444 80.7483 104.678 78.8749 103.979C78.5683 103.864 78.299 104.326 78.551 104.536Z" fill="white"/>
<path d="M78.2725 108.869C78.1658 108.173 77.3738 107.96 76.7738 108.164C76.0392 108.416 75.7205 109.236 75.9885 109.937C76.2832 110.704 77.1512 111.132 77.9432 111.089C78.9445 111.036 79.1965 109.412 78.8378 108.672C78.7058 108.397 78.2965 108.432 78.1552 108.672C77.8712 109.152 77.8578 109.721 77.6218 110.226C77.7832 110.134 77.9432 110.042 78.1045 109.95C77.8125 109.988 76.9379 109.913 77.0179 109.412C77.0645 109.125 77.5552 108.976 77.7498 109.173C77.9885 109.413 78.3165 109.158 78.2725 108.869Z" fill="white"/>
<path d="M102.951 91.9824C105.287 92.4971 107.228 93.7424 107.425 96.3611C107.591 98.5411 106.417 100.337 105.225 102.029C104.653 102.84 105.909 103.769 106.583 103.077C108.696 100.906 109.96 97.5304 108.88 94.5691C108.019 92.2037 105.56 90.0638 102.951 90.8171C102.401 90.9758 102.351 91.8491 102.951 91.9824Z" fill="white"/>
<path d="M94.9647 69.55C92.246 51.4446 73.2527 40.0606 56.1821 47.0979C39.6541 53.9113 33.7367 75.2073 45.0194 89.3406C45.782 90.2953 47.4127 89.0406 46.7207 88.0273C36.8367 73.5393 41.8634 53.7633 59.334 48.234C75.382 43.1539 90.3314 54.35 93.9807 69.8206C94.134 70.4753 95.0594 70.1833 94.9647 69.55Z" fill="white"/>
<path d="M58.9953 103.512C66.9886 115.628 84.1819 123.312 98.4966 122.38C99.6246 122.306 99.5899 120.772 98.4966 120.65C90.8286 119.801 83.6633 118.6 76.6419 115.217C70.1766 112.102 65.1593 107.54 59.8126 102.881C59.3913 102.513 58.65 102.989 58.9953 103.512Z" fill="white"/>
<path d="M100.15 85.417C101.22 89.9223 103.096 94.2156 104.231 98.7223C105.37 103.244 106.015 107.825 106.669 112.436C106.808 113.408 108.458 113.184 108.388 112.204C107.764 103.274 105.872 92.7076 101.14 84.9996C100.816 84.473 100.007 84.817 100.15 85.417Z" fill="white"/>
<path d="M49.4402 51.59C49.6455 45.7993 46.8841 40.6646 42.4268 36.9926C36.2508 31.902 29.4082 32.5113 21.8868 32.502C16.3428 32.4953 8.20813 31.7993 6.16946 25.3286C4.75479 20.838 8.35884 16.61 8.71217 12.3313C9.15617 6.92732 6.16679 1.67666 0.936128 0.040657C0.0507943 -0.236675 -0.329201 0.967335 0.341466 1.45C5.63213 5.25267 7.30552 9.60467 5.52552 15.9527C4.76152 18.682 3.40013 21.2207 3.74147 24.1527C4.24947 28.514 7.62413 31.582 11.5081 33.1993C17.1761 35.5593 23.1775 34.2887 29.1161 34.5793C39.6801 35.098 46.0041 41.89 48.7441 51.6833C48.8535 52.074 49.4255 51.986 49.4402 51.59Z" fill="white"/>
<path d="M46.3022 87.9837C46.6675 83.4597 48.2449 79.8877 50.7875 76.1783C50.9555 75.9317 50.5982 75.6983 50.3942 75.8756C47.0155 78.8183 45.3702 83.5543 45.6769 87.9837C45.7049 88.3863 46.2702 88.385 46.3022 87.9837Z" fill="white"/>
<path d="M43.1813 81.1623C44.1146 78.5703 45.1986 76.213 46.376 73.733C46.5093 73.4517 46.1413 73.0957 45.9093 73.373C44.2026 75.4197 42.98 78.377 42.6093 81.005C42.5573 81.377 43.0493 81.5303 43.1813 81.1623Z" fill="white"/>
<path d="M41.7784 75.1767C42.4957 71.2634 45.3944 69.4247 48.0931 66.9087C48.3704 66.6501 48.0157 66.2154 47.6957 66.3927C44.5211 68.1474 41.2104 71.2167 41.2464 75.1047C41.2491 75.3994 41.7224 75.4861 41.7784 75.1767Z" fill="white"/>
<path d="M94.4459 68.0331C93.0552 66.4798 90.9312 64.6784 88.7965 64.3704C88.4792 64.3251 88.2952 64.6998 88.5752 64.8944C89.4245 65.4824 90.4246 65.8638 91.3099 66.4024C92.2846 66.9944 93.1806 67.6918 94.0406 68.4384C94.3179 68.6798 94.6926 68.3104 94.4459 68.0331Z" fill="white"/>
<path d="M92.0287 62.0048C90.8953 60.8301 88.79 59.4888 87.0767 60.1074C86.774 60.2181 86.7687 60.6221 87.0767 60.7301C87.826 60.9941 88.654 60.9674 89.4207 61.2141C90.234 61.4754 91.042 61.8848 91.726 62.3968C91.958 62.5714 92.2193 62.2021 92.0287 62.0048Z" fill="white"/>
<path d="M87.3963 55.746C86.0416 54.4553 84.0696 53.6633 82.2056 54.1753C81.9776 54.238 81.9483 54.6233 82.2056 54.6673C83.9376 54.962 85.503 55.294 87.0123 56.246C87.3163 56.438 87.6576 55.9953 87.3963 55.746Z" fill="white"/>
<path d="M81.6916 51.2454C80.109 50.5814 78.305 50.2267 76.649 50.8254C76.4077 50.9134 76.4343 51.2827 76.7116 51.2867C78.3703 51.3107 79.9357 51.2707 81.5383 51.7974C81.8983 51.916 82.0196 51.3827 81.6916 51.2454Z" fill="white"/>
<path d="M65.1138 108.649C65.3165 106.78 65.6884 105.005 66.1338 103.186C66.2031 102.901 65.8125 102.728 65.6578 102.985C64.6471 104.669 64.2418 106.708 64.4258 108.649C64.4685 109.093 65.0658 109.089 65.1138 108.649Z" fill="white"/>
</svg>
