<svg width="200" height="106" viewBox="0 0 200 106" fill="none" xmlns="http://www.w3.org/2000/svg">
<path d="M34.0169 41.6687C39.2365 28.1707 44.635 14.7458 50.2138 1.39245C49.4955 1.39245 48.7771 1.39245 48.058 1.39245C52.205 12.1502 56.1154 22.9938 59.7948 33.921C59.9103 34.2646 60.1872 34.6457 60.5756 34.7061C66.6385 35.6519 72.6319 35.3664 78.7178 34.7928C81.9399 34.4882 85.1573 34.1207 88.3889 33.9178C90.2259 33.8033 92.0667 33.7269 93.9084 33.7468C95.7073 33.7667 97.8085 33.7317 97.3877 36.3567C97.1907 37.5817 95.2343 39.5282 94.4923 40.5185C93.5445 41.7809 92.5525 43.0091 91.5233 44.2039C89.6365 46.3906 87.6184 48.4627 85.4761 50.3973C81.1986 54.2592 77.3349 55.5526 78.0271 61.9226C78.6363 67.5187 81.2279 72.5253 83.3631 77.6416C84.5996 80.6031 85.6486 83.6227 86.4681 86.7289C86.9808 88.6714 89.294 95.5521 87.6279 96.7819C86.2016 97.8359 84.8187 96.3635 83.3789 95.475C82.0412 94.6501 80.7153 93.8061 79.3997 92.9462C76.7559 91.2193 74.1579 89.4239 71.6058 87.5634C65.9693 83.454 60.5977 79.0122 55.4335 74.3214C54.9984 73.9269 54.28 73.8569 53.8528 74.3214C44.438 84.5573 34.7075 94.4886 24.6598 104.098C25.2966 104.363 25.9327 104.627 26.5679 104.892C26.2594 93.013 26.5616 81.1432 27.4714 69.2965C27.4983 68.9417 27.2467 68.4724 26.9184 68.3253C17.5573 64.1436 9.2113 58.32 1.90236 51.1116C1.82641 51.7002 1.75125 52.2881 1.6753 52.8767C11.2404 47.2624 21.7407 43.908 32.8136 43.2795C34.2431 43.1984 34.2534 40.9504 32.8136 41.0316C21.3491 41.6823 10.4525 45.1218 0.547992 50.9366C-0.0698543 51.2985 -0.193255 52.1942 0.321749 52.7009C3.78991 56.1222 7.48116 59.2921 11.4485 62.1159C13.5323 63.6003 15.6848 64.9875 17.8975 66.269C18.9948 66.9046 20.1086 67.5139 21.2352 68.0962C21.925 68.4525 24.1416 69.1812 24.6408 69.7531C25.935 71.2342 24.7516 76.2846 24.6527 78.1841C24.4984 81.1496 24.3837 84.1167 24.3078 87.0861C24.1567 93.021 24.1788 98.9575 24.3331 104.892C24.3584 105.873 25.5324 106.363 26.2404 105.687C36.2881 96.0779 46.0178 86.1467 55.4335 75.9107C54.9066 75.9107 54.3797 75.9107 53.8528 75.9107C58.8225 80.4249 63.9884 84.7077 69.3821 88.7001C72.1042 90.7141 74.8802 92.6551 77.7068 94.5188C80.1584 96.1336 82.8149 98.2758 85.5742 99.3122C89.3936 100.748 90.7812 98.0204 90.2963 94.5236C89.4087 88.1281 87.6334 81.9721 85.1027 76.0436C83.6977 72.7528 82.1274 69.5105 81.1338 66.0606C80.6362 64.3297 80.1323 62.4286 80.1537 60.6157C80.1901 57.4148 82.2073 56.0355 84.2729 54.365C89.0091 50.5357 93.1861 46.0557 96.7959 41.1438C98.4952 38.8314 102.505 33.4119 97.7618 31.7327C95.5412 30.9468 92.0715 31.479 89.7694 31.5911C86.075 31.7725 82.3996 32.1973 78.7178 32.5449C74.8296 32.9116 70.9279 33.225 67.0191 33.0985C66.1141 33.0699 65.1758 33.0937 64.2818 32.937C62.172 32.5648 61.9149 32.0947 61.0257 30.5873C60.1105 29.0337 59.7473 26.8486 59.1477 25.1264C56.306 16.9667 53.3212 8.8578 50.2138 0.795059C49.7961 -0.288353 48.4916 -0.241425 48.058 0.795059C42.4808 14.1476 37.0808 27.5733 31.862 41.0714C31.3406 42.4204 33.5003 43.0043 34.0169 41.6687Z" fill="white"/>
<path d="M74.3974 22.9678C98.8502 17.3111 123.457 12.4061 148.191 8.25601C149.609 8.0186 149.007 5.7809 147.595 6.01749C122.862 10.1676 98.256 15.0734 73.8024 20.7293C72.3971 21.0546 72.9921 23.2931 74.3974 22.9678Z" fill="white"/>
<path d="M110.406 46.9755C139.646 41.3934 169.195 37.4424 198.923 35.1416C200.355 35.0304 200.363 32.8923 198.923 33.0042C168.996 35.3194 139.244 39.2953 109.809 44.9146C108.392 45.1847 108.992 47.2464 110.406 46.9755Z" fill="white"/>
<path d="M104.07 69.9923C135.719 66.6364 167.34 63.0363 198.936 59.1936C200.347 59.0212 200.363 56.836 198.936 57.0098C167.34 60.8526 135.719 64.4527 104.07 67.8094C102.651 67.9608 102.636 70.1453 104.07 69.9923Z" fill="white"/>
</svg>
