<svg width="187" height="114" viewBox="0 0 187 114" fill="none" xmlns="http://www.w3.org/2000/svg">
<path d="M103.347 27.3942C107.046 26.9754 110.75 27.0967 114.447 26.7915C114.674 26.7728 114.767 26.3994 114.506 26.3623C110.815 25.8368 106.938 26.3062 103.266 26.8008C102.933 26.8462 103.007 27.4327 103.347 27.3942Z" fill="white"/>
<path d="M104.671 30.8559C106.792 30.8371 108.945 30.6491 110.973 30.0011C111.185 29.933 111.163 29.5689 110.917 29.5918C108.831 29.7893 106.761 30.1303 104.671 30.3142C104.329 30.345 104.317 30.8595 104.671 30.8559Z" fill="white"/>
<path d="M101.948 44.4918C104.654 45.2132 107.67 45.7533 110.474 45.8533C110.854 45.8664 110.922 45.2986 110.563 45.1986C107.88 44.4492 104.806 44.0492 102.026 43.92C101.695 43.9038 101.634 44.408 101.948 44.4918Z" fill="white"/>
<path d="M99.5879 46.9035C101.625 48.189 103.987 49.4984 106.396 49.8874C106.732 49.941 107.011 49.465 106.648 49.2874C104.451 48.2114 102.087 47.4838 99.8772 46.4087C99.5479 46.2489 99.2732 46.7051 99.5879 46.9035Z" fill="white"/>
<path d="M88.0976 29.9076C88.9856 29.6821 89.9936 29.53 90.8043 29.0899C91.075 28.9436 90.9496 28.5155 90.6496 28.5171C89.7256 28.5232 88.7656 28.8821 87.879 29.1139C87.3656 29.2488 87.583 30.0395 88.0976 29.9076Z" fill="white"/>
<path d="M49.3108 28.6891C48.3882 30.0197 47.3135 31.5823 47.1535 33.2396C47.1322 33.4531 47.4122 33.4703 47.5122 33.3369C48.4908 32.0437 49.0575 30.4249 49.9402 29.0567C50.1975 28.6583 49.5748 28.3077 49.3108 28.6891Z" fill="white"/>
<path d="M52.3846 30.953C51.8353 31.477 51.338 32.0447 50.898 32.665C50.494 33.2327 50.0553 33.8379 50.0353 34.5557C50.0273 34.8051 50.3286 34.8942 50.4966 34.7473C50.978 34.3285 51.2247 33.7139 51.578 33.1942C51.986 32.5942 52.462 32.053 52.982 31.5489C53.3726 31.1702 52.778 30.5781 52.3846 30.953Z" fill="white"/>
<path d="M55.3909 31.9565C54.7535 32.7035 54.2415 33.6223 54.4429 34.6289C54.4789 34.8087 54.7749 34.8565 54.8522 34.6821C55.1909 33.9248 55.4055 33.166 55.9655 32.53C56.3109 32.1384 55.7295 31.5592 55.3909 31.9565Z" fill="white"/>
<path d="M58.0736 33.7262C57.7882 34.5319 57.3869 35.3731 57.3442 36.2355C57.3269 36.584 57.7749 36.6355 57.9469 36.3986C58.4509 35.7038 58.6642 34.7678 58.9469 33.9678C59.1416 33.4158 58.2656 33.1798 58.0736 33.7262Z" fill="white"/>
<path d="M61.2762 34.7983C61.0482 35.3675 60.7082 35.9593 60.6762 36.577C60.6602 36.865 61.0682 37.042 61.2629 36.8196C61.6909 36.3275 61.8656 35.6259 62.1109 35.0275C62.3202 34.5139 61.4829 34.2863 61.2762 34.7983Z" fill="white"/>
<path d="M65.1761 34.9635C64.4774 35.4984 63.8001 36.3891 64.0241 37.3224C64.1041 37.6593 64.5387 37.5968 64.6467 37.3224C64.9201 36.626 64.9921 36.0156 65.5614 35.4624C65.8121 35.2181 65.4681 34.7396 65.1761 34.9635Z" fill="white"/>
<path d="M68.898 37.1902C68.2713 37.4278 67.9113 37.9664 68.1713 38.6184C68.2366 38.7809 68.5086 38.8288 68.554 38.6184C68.6153 38.3288 68.8246 38.0398 69.106 37.944C69.5833 37.7809 69.366 37.0132 68.898 37.1902Z" fill="white"/>
<path d="M99.6917 46.966C67.1184 34.8232 34.2104 23.5502 1.35572 12.2235C0.948921 12.0835 0.774521 12.7275 1.17865 12.8675C34.0251 24.1902 66.2797 37.4447 99.4211 47.9514C100.056 48.153 100.298 47.1926 99.6917 46.966Z" fill="white"/>
<path d="M1.80021 12.9664C1.33875 10.5718 1.19448 7.94511 3.00861 6.04378C3.78874 5.22644 4.83354 4.66378 5.93154 4.41178C6.99861 4.16645 8.02475 4.43044 9.07995 4.24378C9.57995 4.15578 9.53355 3.51311 9.20702 3.27311C6.93195 1.59577 3.04821 3.55578 1.52674 5.46111C-0.241924 7.67578 -0.656054 11.0731 1.26061 13.2798C1.48928 13.5438 1.85595 13.2558 1.80021 12.9664Z" fill="white"/>
<path d="M8.58175 3.55011C26.7542 7.36877 45.0751 12.4781 62.6284 18.4728C67.8764 20.2648 73.0444 22.2834 78.0657 24.6368C83.0524 26.9742 84.8631 28.8821 86.8844 33.8258C89.2777 39.6846 95.2217 41.5102 100.871 42.93C101.938 43.1982 102.392 41.5556 101.326 41.2832C95.4164 39.7685 90.2551 37.9326 88.0991 31.7341C87.3817 29.6701 87.1364 28.2993 85.5004 26.766C79.9644 21.5741 69.0418 18.6661 61.9724 16.3288C54.1431 13.7394 46.1497 11.7354 38.2697 9.35411C28.601 6.43278 18.7667 4.28878 8.76401 2.88744C8.33908 2.82745 8.13855 3.45678 8.58175 3.55011Z" fill="white"/>
<path d="M8.07066 14.7421C8.79453 13.6088 9.18626 12.3221 9.62106 11.0581C10.0049 9.94214 10.5983 8.72614 10.3836 7.54081C10.3207 7.19148 9.84505 7.11281 9.61745 7.33814C8.77372 8.17547 8.56586 9.5648 8.24919 10.6795C7.88466 11.9621 7.48306 13.2288 7.42999 14.5688C7.41586 14.9235 7.89559 15.0155 8.07066 14.7421Z" fill="white"/>
<path d="M14.6197 17.2571C15.2066 16.1998 15.541 15.0078 15.9509 13.8731C16.4041 12.6184 16.9254 11.3558 17.2009 10.0478C17.3295 9.43709 16.4431 8.97309 16.1347 9.59843C15.5967 10.6891 15.241 11.8651 14.8598 13.0171C14.4426 14.2758 13.8983 15.5531 13.6869 16.8638C13.6003 17.3984 14.3175 17.7998 14.6197 17.2571Z" fill="white"/>
<path d="M21.1135 19.1611C21.3015 19.1611 21.3015 18.8691 21.1135 18.8691C20.926 18.8691 20.9255 19.1611 21.1135 19.1611Z" fill="white"/>
<path d="M21.9832 19.1798C23.1207 16.6918 23.778 13.7851 24.4696 11.1438C24.6728 10.3704 23.5467 10.0798 23.2842 10.8171C22.3732 13.3838 21.8186 16.1624 20.7639 18.6651C20.4732 19.3558 21.6691 19.8651 21.9832 19.1798Z" fill="white"/>
<path d="M28.0016 22.0556C29.415 22.1543 29.5656 20.1409 29.8734 19.1302C30.4068 17.3796 31.5614 15.1529 31.2578 13.3182C31.2166 13.0716 30.8589 12.9983 30.7005 13.1716C29.8448 14.1116 29.6828 15.4423 29.3396 16.6436C28.9656 17.9516 28.7474 20.4516 27.7365 21.4142C27.4865 21.6529 27.6928 22.0329 28.0016 22.0556Z" fill="white"/>
<path d="M35.2087 24.3342C36.1687 23.4448 36.406 21.8835 36.818 20.6782C37.2847 19.3142 38.1167 17.7635 38.066 16.3115C38.0553 16.0022 37.618 15.7462 37.39 16.0315C36.5007 17.1448 36.2447 18.7502 35.8113 20.0942C35.3927 21.3862 34.5967 22.8742 34.8433 24.2382C34.874 24.4088 35.098 24.4382 35.2087 24.3342Z" fill="white"/>
<path d="M42.4334 27.026C43.1987 25.7052 43.7774 24.2956 44.3667 22.8889C44.9321 21.5423 45.8241 20.0463 45.7494 18.5623C45.7321 18.2089 45.2694 17.9529 45.0027 18.2529C44.0947 19.2729 43.8441 20.6969 43.4027 21.9689C42.8521 23.5583 42.2174 25.1223 41.7681 26.7448C41.6574 27.1421 42.2254 27.3864 42.4334 27.026Z" fill="white"/>
<path d="M49.645 29.5179C50.5063 28.2075 50.961 26.5794 51.5316 25.1274C52.013 23.9021 53.001 22.4341 52.6396 21.1127C52.5876 20.9261 52.3503 20.8154 52.1796 20.9261C51.1063 21.6261 50.9236 23.0447 50.4983 24.2034C49.909 25.8061 49.077 27.4805 48.8263 29.1742C48.7543 29.6607 49.3503 29.9674 49.645 29.5179Z" fill="white"/>
<path d="M58.0657 32.2846C58.7564 30.8752 59.5577 29.5299 60.1297 28.0659C60.6271 26.7898 61.4911 25.3982 61.2391 24.018C61.1631 23.6047 60.6524 23.574 60.3857 23.7927C59.3737 24.622 59.1564 26.1674 58.7404 27.37C58.2097 28.9034 57.9311 30.4888 57.5324 32.0607C57.4537 32.37 57.9151 32.5914 58.0657 32.2846Z" fill="white"/>
<path d="M79.6936 27.9065C77.3096 26.8199 74.2003 27.5319 73.0176 30.0439C71.927 32.3611 72.8043 35.2663 75.219 36.2902C77.855 37.4079 80.7216 36.0022 81.783 33.4278C82.7123 31.1715 82.039 27.5678 79.1083 27.5079C78.3296 27.4918 78.299 28.5226 78.9363 28.7757C82.7776 30.3117 79.311 36.7809 75.4896 34.8465C73.867 34.0251 73.467 31.8731 74.2976 30.3439C75.2963 28.5065 77.5443 28.0278 79.4456 28.497C79.7856 28.5809 80.0403 28.0637 79.6936 27.9065Z" fill="white"/>
<path d="M73.8068 31.2847C74.7655 31.9462 75.9762 32.2327 77.0628 32.629C78.1042 33.0087 79.3428 33.7462 80.4588 33.6249C81.0188 33.5634 81.2802 32.9806 80.9082 32.5395C80.1802 31.6781 78.7815 31.4129 77.7348 31.1009C76.5642 30.7541 75.2628 30.3223 74.0335 30.4499C73.5895 30.4951 73.4255 31.0207 73.8068 31.2847Z" fill="white"/>
<path d="M104.215 30.509C99.4964 29.1236 90.539 28.1757 88.2657 34.0626C88.131 34.4117 88.6057 34.7678 88.9084 34.556C90.9684 33.1158 92.555 31.8278 95.1164 31.3997C98.1044 30.9012 101.064 31.5705 104.038 31.8184C104.806 31.8825 104.916 30.7142 104.215 30.509Z" fill="white"/>
<path d="M104.222 26.7127C98.0796 25.8888 91.2889 26.3564 85.1143 26.805C84.3423 26.8607 84.3316 27.9768 85.1143 28.0138C91.3356 28.3102 98.1836 28.6007 104.344 27.6138C104.905 27.5231 104.681 26.7752 104.222 26.7127Z" fill="white"/>
<path d="M47.5656 28.6062C35.2803 27.1729 22.8403 26.5661 10.5002 25.741C6.43082 25.4686 -1.48638 25.0156 0.464154 31.4823C0.727221 32.3531 1.91163 31.9687 1.79029 31.1156C1.51683 29.19 6.45589 27.3874 7.85216 27.1676C9.44069 26.9181 11.5376 27.4317 13.1475 27.5462C17.1188 27.8301 21.0903 28.1114 25.0616 28.3968C32.5554 28.9353 40.0523 29.6129 47.5656 29.814C48.3603 29.8353 48.3176 28.6942 47.5656 28.6062Z" fill="white"/>
<path d="M0.715404 32.3249C13.2342 34.6676 26.1525 35.5822 38.8009 37.0437C45.3169 37.7968 51.8409 38.4822 58.3582 39.2249C64.0782 39.877 69.8582 40.9806 75.5755 39.9114C76.5155 39.7353 76.3102 38.165 75.3489 38.2328C63.2849 39.0942 50.7822 36.5317 38.8009 35.214C26.2181 33.8301 13.5066 31.8104 0.857136 31.2822C0.268603 31.2566 0.120604 32.214 0.715404 32.3249Z" fill="white"/>
<path d="M104.094 22.6569C103.688 24.3555 103.635 26.0994 103.484 27.8342C103.315 29.7795 102.923 31.7369 102.934 33.6874C102.938 34.4473 104.024 34.5838 104.243 33.865C105.248 30.565 105.63 26.0541 105.059 22.6569C104.975 22.1622 104.204 22.1982 104.094 22.6569Z" fill="white"/>
<path d="M104.439 23.6782C116.738 24.1942 127.772 22.5075 137.888 15.1528C143.494 11.0768 148.652 6.33551 155.144 3.68484C164.12 0.018177 174.599 2.53951 178.723 11.9355C182.09 19.6035 179.098 28.3899 173.051 33.878C166.694 39.6472 155.151 38.6488 147.135 37.8035C132.688 36.2795 118.503 31.83 103.854 32.8514C102.755 32.9275 102.728 34.6008 103.854 34.5806C123.227 34.2447 142.148 41.6618 161.515 39.8275C173.507 38.6915 184.034 28.7207 182.135 15.8382C180.16 2.42885 166.199 -3.06583 154.455 1.67951C146.716 4.80751 140.944 10.9648 134.074 15.4688C124.784 21.5582 115.196 21.9342 104.439 22.1982C103.484 22.2222 103.488 23.6382 104.439 23.6782Z" fill="white"/>
<path d="M142.381 20.1101C143.562 29.0529 149.477 34.042 158.571 34.7728C166.829 35.4352 175.477 30.4103 176.658 21.6755C179.505 0.624798 144.173 3.13013 142.815 20.1395C142.718 21.3661 144.535 21.3008 144.691 20.1395C145.755 12.2021 156.371 8.73013 163.173 8.90613C171.401 9.11946 176.97 16.7048 173.601 24.6088C170.623 31.5956 162.859 33.9623 155.882 32.4436C148.769 30.8967 145.454 26.8327 143.67 19.9355C143.49 19.2421 142.282 19.3608 142.381 20.1101Z" fill="white"/>
<path d="M102.007 40.4462C101.292 42.214 100.779 44.0385 100.196 45.8514C99.6816 47.4489 98.8936 49.0806 98.8096 50.7634C98.7736 51.4864 99.6963 51.5864 100.052 51.0994C101.11 49.6582 101.492 47.6531 101.983 45.95C102.494 44.1807 102.93 42.4301 103.132 40.5984C103.208 39.9009 102.226 39.902 102.007 40.4462Z" fill="white"/>
<path d="M102.982 40.7783C117.472 46.7652 133.098 50.6423 148.487 53.497C155.635 54.8226 163.335 55.6704 169.676 59.5131C179.182 65.2731 180.568 74.2371 176.139 83.9491C175.659 85.0022 177.15 85.9303 177.722 84.8746C180.939 78.9439 182.935 72.7439 179.658 66.3611C176.614 60.4344 170.8 56.7398 164.667 54.6371C155.276 51.4174 144.991 50.6464 135.32 48.4652C124.494 46.0235 113.963 42.6559 103.292 39.6532C102.548 39.4439 102.308 40.4996 102.982 40.7783Z" fill="white"/>
<path d="M99.6328 52.0687C107.749 54.8437 116.139 57.8984 123.323 62.6744C131.213 67.9181 136.677 75.4848 141.705 83.3515C148.17 93.4676 157.867 99.0624 169.669 93.4676C170.774 92.9437 169.977 90.9952 168.826 91.4687C159.522 95.2957 151.214 92.7411 145.411 84.5224C141.755 79.3473 138.495 73.9421 134.229 69.2208C125.241 59.2729 112.623 54.3796 99.9382 50.9635C99.2195 50.7703 98.9408 51.8317 99.6328 52.0687Z" fill="white"/>
<path d="M169.324 92.3285C173.257 96.0077 176.017 100.135 176.406 105.609C176.549 107.601 176.176 110.08 177.052 111.965C178.705 115.521 182.936 113.633 184.784 111.109C187.825 106.959 186.236 100.185 184.742 95.7781C183.71 92.7369 180.985 85.089 176.897 85.089C176.426 85.0874 176.184 85.5874 176.384 85.9822C178.13 89.4265 181.065 91.9317 182.57 95.7447C184.108 99.6369 186.534 107.273 182.745 110.586C177.264 115.38 178.762 105.105 178.181 102.486C177.153 97.8505 174.208 93.6114 169.816 91.6899C169.425 91.5197 168.958 91.9874 169.324 92.3285Z" fill="white"/>
<path d="M149.406 64.8956C144.659 70.3232 145.639 79.9686 150.635 84.9822C156.394 90.7608 166.135 88.6956 171.102 82.9623C176.048 77.2514 174.927 68.8863 169.219 64.13C163.799 59.6128 152.251 58.7942 148.368 65.7874C147.867 66.689 149.155 67.8035 149.856 66.9368C159.314 55.254 180.283 70.9232 168.542 82.3171C163.875 86.8447 155.708 87.8207 151.166 82.6566C146.864 77.766 147.624 70.9806 150.207 65.5139C150.438 65.0259 149.814 64.4275 149.406 64.8956Z" fill="white"/>
</svg>
