<svg width="168" height="119" viewBox="0 0 168 119" fill="none" xmlns="http://www.w3.org/2000/svg">
<path d="M41.8793 46.1884C37.9006 43.6524 34.1646 40.1897 32.0246 35.9244C31.9219 35.7217 32.194 35.4697 32.3593 35.6657C35.4366 39.3191 38.4113 42.8177 42.1753 45.8044C42.3939 45.9764 42.1113 46.3364 41.8793 46.1884Z" fill="white"/>
<path d="M13.4782 14.4031C14.3836 17.9977 16.3729 21.1044 19.0355 23.6578C19.1902 23.8058 18.9835 24.0884 18.8022 23.9604C15.5955 21.6951 13.6355 18.3978 12.8755 14.5684C12.7982 14.1778 13.3796 14.0084 13.4782 14.4031Z" fill="white"/>
<path d="M19.0646 47.632C17.3939 46.1613 15.4273 44.7386 14.0473 42.9826C13.8953 42.7893 14.0926 42.4387 14.3379 42.6066C16.2006 43.8813 17.7579 45.7573 19.3526 47.3453C19.5393 47.532 19.2593 47.804 19.0646 47.632Z" fill="white"/>
<path d="M7.80693 34.2439C6.95493 33.2586 6.18561 32.2279 5.52161 31.1053C4.95228 30.1439 4.18828 29.02 4.12295 27.8813C4.11095 27.6493 4.4216 27.5346 4.57627 27.6933C5.34827 28.4853 5.72694 29.7106 6.24961 30.6799C6.85361 31.7959 7.48961 32.8946 8.14961 33.9786C8.27627 34.1866 7.97226 34.4346 7.80693 34.2439Z" fill="white"/>
<path d="M7.2921 27.9587C6.74677 26.872 5.98143 25.7134 5.72143 24.516C5.68276 24.336 5.9241 24.1467 6.06144 24.3174C6.82944 25.2747 7.24942 26.5814 7.75076 27.6907C7.88942 27.9974 7.4481 28.268 7.2921 27.9587Z" fill="white"/>
<path d="M19.6436 13.9524C19.2063 13.195 18.769 12.4364 18.3316 11.6791C17.9463 11.0111 17.465 10.327 17.2796 9.57104C17.2303 9.36704 17.4823 9.2097 17.637 9.36304C18.1863 9.9137 18.521 10.675 18.8917 11.3524C19.313 12.119 19.7343 12.8857 20.1557 13.6524C20.3397 13.987 19.8343 14.2844 19.6436 13.9524Z" fill="white"/>
<path d="M10.9774 22.2843C10.1574 21.087 9.19339 19.9029 8.66006 18.5416C8.57606 18.3283 8.88803 18.1709 9.0347 18.3243C10.04 19.3816 10.7027 20.7669 11.436 22.0163C11.612 22.3149 11.1694 22.5643 10.9774 22.2843Z" fill="white"/>
<path d="M33.7582 12.9362C31.4395 10.8216 28.9062 7.37488 28.5755 4.16155C28.5489 3.89488 28.9275 3.83492 29.0515 4.03225C29.9342 5.44692 30.4115 7.09758 31.2435 8.55491C32.0715 10.0056 33.0395 11.3842 34.0035 12.7469C34.1102 12.8976 33.8835 13.0509 33.7582 12.9362Z" fill="white"/>
<path d="M27.5907 9.42009C26.7201 8.31076 25.6281 7.20137 25.0614 5.89737C24.9614 5.66937 25.2054 5.46807 25.404 5.63207C26.5027 6.53874 27.2627 7.89071 28.0894 9.03604C28.2987 9.32538 27.8134 9.70543 27.5907 9.42009Z" fill="white"/>
<path d="M36.1966 7.01361C35.4859 5.68828 34.6552 4.3736 34.1979 2.93627C34.1086 2.65227 34.4913 2.54028 34.6459 2.74695C35.5313 3.93361 36.1099 5.35765 36.7632 6.68165C36.9486 7.05765 36.3979 7.38828 36.1966 7.01361Z" fill="white"/>
<path d="M3.74574 42.2908C3.29907 41.7135 2.83907 41.1495 2.4724 40.5148C2.39373 40.3788 2.57241 40.2495 2.68441 40.3508C3.21241 40.8295 3.65641 41.3802 4.11508 41.9228C4.33241 42.1815 3.94841 42.5521 3.74574 42.2908Z" fill="white"/>
<path d="M93.9474 32.848C92.4754 35.5387 89.7474 38.1573 86.5594 38.472C86.2661 38.5013 86.1394 38.032 86.4061 37.9094C89.2901 36.5854 91.7448 35.364 93.5341 32.6067C93.7008 32.348 94.0968 32.576 93.9474 32.848Z" fill="white"/>
<path d="M95.7701 46.0295C94.0568 47.5015 91.8675 49.1295 89.5461 49.3362C89.3195 49.3562 89.2621 49.0348 89.4355 48.9282C90.4075 48.3322 91.5088 47.9562 92.5208 47.4295C93.5435 46.8975 94.5061 46.2775 95.4221 45.5789C95.6795 45.3829 96.0155 45.8175 95.7701 46.0295Z" fill="white"/>
<path d="M74.5035 8.88949C73.6968 11.0815 72.9835 13.6108 71.6728 15.5641C71.5048 15.8148 71.1248 15.6588 71.1875 15.3588C71.6741 13.0588 72.9915 10.7841 73.9995 8.67745C74.1328 8.39878 74.6128 8.59616 74.5035 8.88949Z" fill="white"/>
<path d="M63.1029 4.93341C62.3643 6.16807 61.9083 7.51611 61.4443 8.87078C61.3709 9.08411 61.0016 9.06675 61.0243 8.81342C61.1643 7.28675 61.7909 5.93476 62.6256 4.65476C62.8189 4.36009 63.2856 4.62674 63.1029 4.93341Z" fill="white"/>
<path d="M51.5376 1.9882C50.7123 3.81753 50.2483 5.78021 49.4336 7.59888C49.3363 7.81621 48.9723 7.70686 48.987 7.47752C49.1217 5.48686 50.1377 3.44955 51.1137 1.74022C51.2737 1.46155 51.6643 1.70687 51.5376 1.9882Z" fill="white"/>
<path d="M77.4355 11.1934C76.9275 12.5387 76.5222 14.044 75.7435 15.26C75.5848 15.5094 75.2195 15.3467 75.2768 15.064C75.5595 13.6533 76.3182 12.2774 76.8835 10.96C77.0168 10.6494 77.5568 10.8734 77.4355 11.1934Z" fill="white"/>
<path d="M55.6799 2.17367C55.5213 2.99367 55.2679 3.76702 54.9973 4.55635C54.7599 5.24969 54.5826 6.03235 54.1386 6.62302C53.9852 6.82569 53.5839 6.79231 53.6039 6.47764C53.6559 5.68564 54.0546 4.93631 54.3493 4.20564C54.6493 3.45764 54.9546 2.73767 55.3559 2.03767C55.4599 1.85634 55.7173 1.98301 55.6799 2.17367Z" fill="white"/>
<path d="M69.7715 7.19745C69.4435 8.02812 69.1475 8.79483 68.6462 9.53749C68.5502 9.68016 68.3342 9.59081 68.3702 9.42148C68.5529 8.54414 68.8982 7.79751 69.2675 6.98417C69.3955 6.70284 69.8875 6.90545 69.7715 7.19745Z" fill="white"/>
<path d="M95.8849 58.6854C94.4103 58.7747 92.5903 59.1147 91.1543 58.708C90.9263 58.6427 90.9263 58.3107 91.1543 58.2454C92.5929 57.8387 94.4116 58.1787 95.8849 58.2681C96.1529 58.2841 96.1529 58.668 95.8849 58.6854Z" fill="white"/>
<path d="M93.9452 64.3467C92.5438 64.6333 91.0652 64.6653 89.7478 64.0573C89.5172 63.9507 89.6278 63.5493 89.8798 63.572C91.2238 63.692 92.5252 63.9307 93.8838 63.8867C94.1438 63.8787 94.2078 64.2933 93.9452 64.3467Z" fill="white"/>
<path d="M88.1681 75.6614C85.9947 75.0654 83.5241 74.1055 81.9881 72.3855C81.7974 72.1708 82.0361 71.8402 82.2974 71.9842C84.3281 73.1015 86.0787 74.3828 88.3161 75.1295C88.6494 75.2415 88.5147 75.7561 88.1681 75.6614Z" fill="white"/>
<path d="M85.6979 80.8013C83.6125 79.6919 81.0845 78.6986 79.3325 77.0933C79.1952 76.9679 79.3392 76.7266 79.5152 76.7799C81.7859 77.4786 83.9232 79.1586 85.9339 80.3959C86.1912 80.5546 85.9645 80.9426 85.6979 80.8013Z" fill="white"/>
<path d="M80.2813 82.3775C78.78 82.6229 77.044 82.0375 76.344 80.5962C76.2106 80.3215 76.5533 80.0109 76.7853 80.2549C77.7307 81.2455 78.804 81.9455 80.22 81.9269C80.4707 81.9242 80.5413 82.3349 80.2813 82.3775Z" fill="white"/>
<path d="M69.8241 86.3749C68.0627 85.9162 66.1388 85.1109 65.0654 83.5669C64.9588 83.4122 65.1654 83.2296 65.3148 83.3176C66.8748 84.2282 68.2161 85.3016 69.9628 85.8736C70.2788 85.9776 70.1507 86.4602 69.8241 86.3749Z" fill="white"/>
<path d="M62.1638 87.6882C61.2705 87.3829 60.3878 86.8348 59.9838 85.9495C59.8638 85.6868 60.1731 85.4042 60.4011 85.6269C61.0225 86.2362 61.5638 86.8428 62.3398 87.2695C62.5638 87.3922 62.4132 87.7749 62.1638 87.6882Z" fill="white"/>
<path d="M44.1497 87.9404C42.6217 86.9898 40.907 85.651 40.2804 83.8977C40.195 83.6604 40.5244 83.4964 40.6884 83.6604C41.2991 84.2644 41.7817 84.9871 42.3644 85.6178C42.9977 86.3018 43.6697 86.9231 44.4231 87.4724C44.6991 87.6737 44.4524 88.1284 44.1497 87.9404Z" fill="white"/>
<path d="M34.1245 85.1626C32.4405 84.7933 31.2858 83.4973 31.0991 81.796C31.0751 81.5746 31.4018 81.56 31.4685 81.7466C31.9218 83.0253 32.9991 84.1573 34.2685 84.64C34.5911 84.7627 34.4711 85.2373 34.1245 85.1626Z" fill="white"/>
<path d="M25.2713 82.0723C24.1447 80.8789 23.4047 79.4563 23.102 77.8403C23.0673 77.6523 23.342 77.5003 23.4353 77.7003C24.0887 79.1043 24.8327 80.4603 25.6727 81.763C25.8287 82.007 25.47 82.2829 25.2713 82.0723Z" fill="white"/>
<path d="M17.5534 76.988C16.9587 75.6734 16.2187 74.3307 15.888 72.9174C15.828 72.6654 16.1667 72.5187 16.3067 72.7414C17.0813 73.968 17.52 75.4374 18.0387 76.7827C18.1467 77.0614 17.6774 77.2627 17.5534 76.988Z" fill="white"/>
<path d="M11.9551 53.6905C9.15242 54.1025 5.48308 54.1665 3.04708 52.4825C2.88041 52.3678 2.91639 52.0292 3.16306 52.0559C4.44573 52.1959 5.67107 52.6358 6.94174 52.8665C8.56707 53.1612 10.2311 53.2065 11.8777 53.1172C12.2004 53.1012 12.2831 53.6425 11.9551 53.6905Z" fill="white"/>
<path d="M10.9018 65.0613C9.65515 64.9186 8.33381 64.884 7.13115 64.5147C6.80715 64.4147 6.87383 63.9466 7.20983 63.9306C8.46716 63.8746 9.75515 64.172 10.9978 64.3453C11.4005 64.4013 11.3098 65.1093 10.9018 65.0613Z" fill="white"/>
<path d="M63.6375 41.1417C63.6268 38.747 63.7988 35.9497 64.8641 33.767C64.9255 33.6403 65.1495 33.6977 65.1361 33.8404C64.8961 36.2884 64.2321 38.671 64.0321 41.1417C64.0121 41.3923 63.6375 41.4003 63.6375 41.1417Z" fill="white"/>
<path d="M50.352 40.5362C49.892 38.6149 50.1107 36.4469 50.9614 34.6656C51.0961 34.3843 51.5094 34.5896 51.4467 34.8709C51.024 36.7629 50.8134 38.5349 50.812 40.4736C50.812 40.7336 50.4147 40.7976 50.352 40.5362Z" fill="white"/>
<path d="M43.3665 33.4764C43.3371 32.3524 43.2798 31.227 43.4331 30.111C43.4505 29.991 43.6585 29.991 43.6745 30.111C43.8291 31.2283 43.7718 32.3524 43.7411 33.4764C43.7358 33.7177 43.3731 33.719 43.3665 33.4764Z" fill="white"/>
<path d="M39.2571 30.1442C39.0931 27.7455 39.4678 25.2082 41.0744 23.3269C41.2131 23.1655 41.5171 23.3375 41.4411 23.5402C40.6171 25.7309 39.8091 27.7575 39.8198 30.1442C39.8211 30.5095 39.2811 30.5028 39.2571 30.1442Z" fill="white"/>
<path d="M68.5766 40.1378C68.6126 38.8138 68.558 37.3458 68.9433 36.0658C69.042 35.7378 69.4846 35.8244 69.5153 36.1444C69.6433 37.4644 69.298 38.9084 69.078 40.2057C69.03 40.4911 68.5686 40.4218 68.5766 40.1378Z" fill="white"/>
<path d="M69.0735 67.9524C67.6241 66.799 65.9548 65.6897 64.7508 64.2724C64.5868 64.079 64.7935 63.759 65.0348 63.9044C66.6415 64.879 68.0162 66.367 69.3975 67.6283C69.6202 67.831 69.2988 68.1324 69.0735 67.9524Z" fill="white"/>
<path d="M60.3576 69.0053C59.5576 68.2386 58.6616 67.5013 58.0082 66.6C57.8669 66.4053 58.1482 66.124 58.3429 66.2653C59.2442 66.9187 59.9816 67.8147 60.7483 68.6147C60.9949 68.872 60.6149 69.2506 60.3576 69.0053Z" fill="white"/>
<path d="M45.7241 71.0777C44.5895 70.223 43.2054 69.411 42.3321 68.2723C42.1614 68.0497 42.4801 67.827 42.6815 67.9244C43.9508 68.531 45.0161 69.719 46.0654 70.6363C46.3028 70.843 45.9815 71.271 45.7241 71.0777Z" fill="white"/>
<path d="M38.6581 71.3723C37.8755 70.5897 36.9941 69.8417 36.3861 68.9083C36.2835 68.751 36.4915 68.5337 36.6501 68.6443C37.5635 69.283 38.2821 70.183 39.0408 70.9897C39.2795 71.243 38.9048 71.619 38.6581 71.3723Z" fill="white"/>
<path d="M27.1152 73.3294C25.4712 72.3241 23.5646 70.7894 22.9406 68.892C22.8552 68.6347 23.2206 68.4161 23.4019 68.6228C24.0232 69.3308 24.4899 70.1574 25.1152 70.8654C25.7899 71.6294 26.5419 72.2987 27.3779 72.8787C27.6499 73.0681 27.4059 73.5067 27.1152 73.3294Z" fill="white"/>
<path d="M22.3574 75.0163C20.0321 73.1576 17.6934 70.7203 16.7428 67.8349C16.6601 67.5829 17.0054 67.4802 17.1428 67.6669C18.9428 70.1056 20.4361 72.6056 22.6308 74.7443C22.8121 74.9216 22.5468 75.1669 22.3574 75.0163Z" fill="white"/>
<path d="M48.3792 44.7736C47.3912 44.1042 46.2366 43.4816 45.3926 42.6296C45.1726 42.4069 45.4499 42.1042 45.7086 42.2202C46.7792 42.7029 47.7445 43.5482 48.6992 44.2255C49.0285 44.4589 48.7206 45.0056 48.3792 44.7736Z" fill="white"/>
<path d="M82.728 33.7495C81.4546 33.0949 80.1 32.1868 79.3973 30.9002C79.2906 30.7042 79.5306 30.5415 79.692 30.6722C80.796 31.5775 81.7493 32.5615 83.0173 33.2549C83.3426 33.4335 83.0546 33.9189 82.728 33.7495Z" fill="white"/>
<path d="M88.0699 77.2016C82.8686 85.1776 72.7579 87.1923 63.8993 88.4549C52.7659 90.0416 41.2339 89.5629 30.6246 85.5883C11.8846 78.5656 -1.22872 60.9589 0.0912781 40.5496C2.94862 -3.6544 63.8459 -13.0571 88.4099 18.9723C102.215 36.9736 100.689 62.1429 86.3486 79.3256C85.3953 80.4696 83.7619 78.8256 84.7139 77.6909C100.263 59.1469 99.2526 31.3509 81.1459 14.8469C63.7939 -0.967728 32.8073 -2.51836 15.2779 13.923C-2.0634 30.1883 -1.52206 58.5949 16.1433 74.4776C26.0219 83.3603 39.4313 87.171 52.5086 87.179C63.7686 87.187 79.5686 85.7403 87.5299 76.7843C87.7873 76.495 88.2833 76.8736 88.0699 77.2016Z" fill="white"/>
<path d="M83.7119 80.3642C93.5266 70.5855 107.808 79.2922 115.163 87.5309C121.691 94.8428 126.632 103.234 134.745 109.039C143.995 115.659 159.028 122.188 166.552 110.004C166.924 109.403 167.825 109.799 167.675 110.478C164.035 126.94 139.659 115.054 132.125 109.17C118.273 98.3522 106.199 68.2656 84.3053 81.1322C83.8266 81.4136 83.3159 80.7589 83.7119 80.3642Z" fill="white"/>
<path d="M96.0115 51.2763C83.0555 59.0496 68.2062 64.1576 53.3822 66.8669C39.7302 69.3629 23.5489 71.1043 9.95686 67.6416C9.01685 67.4016 9.22218 65.9683 10.1835 65.9629C17.1555 65.9243 24.0835 66.9376 31.0875 66.7936C38.7502 66.6349 46.3835 65.8402 53.9235 64.4696C68.5529 61.8096 82.0835 56.7136 95.4755 50.3589C96.0848 50.0696 96.6062 50.919 96.0115 51.2763Z" fill="white"/>
<path d="M96.3103 38.9973C82.7076 49.0533 64.4543 55.1747 48.0943 58.752C40.0677 60.5053 31.885 61.6707 23.6796 62.1213C17.2436 62.4733 9.20498 63.008 4.32498 58.0573C3.78498 57.5107 4.32497 56.416 5.11564 56.7C20.005 62.032 36.849 58.916 51.957 55.3454C67.6503 51.6347 81.2716 44.7733 95.7956 38.116C96.3983 37.84 96.8396 38.6053 96.3103 38.9973Z" fill="white"/>
<path d="M92.2092 30.1216C81.1825 39.6376 64.9478 42.4549 51.1358 45.4203C36.2625 48.6136 16.9825 52.5309 2.18118 47.5429C1.33717 47.2589 1.46252 45.9855 2.39452 45.9669C9.84119 45.8242 17.2398 47.0255 24.7492 46.6615C33.4212 46.2415 42.0105 44.8856 50.5105 43.1522C64.4825 40.3056 79.7318 37.7015 91.5278 29.2389C92.0438 28.8682 92.6918 29.7056 92.2092 30.1216Z" fill="white"/>
<path d="M89.6069 70.1601C86.5189 69.3254 83.7189 67.7454 81.0229 66.0521C78.7362 64.6161 75.6856 63.0054 74.2869 60.6267C74.0669 60.2547 74.4376 59.6774 74.8869 59.8467C77.4656 60.8187 79.5509 63.0961 81.8669 64.6068C84.4896 66.3161 87.3109 67.6841 89.9282 69.3988C90.3136 69.6521 90.0776 70.2881 89.6069 70.1601Z" fill="white"/>
<path d="M54.0782 43.4986C41.5182 35.9506 28.1702 22.152 21.6088 8.96262C21.1808 8.10129 22.3395 7.02129 23.0328 7.86529C28.0381 13.9546 32.2115 20.5973 37.5822 26.4373C42.9462 32.2706 49.0542 37.1586 54.7728 42.5986C55.2435 43.0466 54.6368 43.8346 54.0782 43.4986Z" fill="white"/>
<path d="M77.14 85.1359C67.6853 82.3212 56.6627 74.5385 50.3493 66.9545C49.852 66.3559 50.5253 65.2252 51.2587 65.7759C55.5533 69.0012 59.3827 72.7559 63.7853 75.8759C68.1773 78.9892 73.0427 81.3906 77.388 84.5452C77.6667 84.7479 77.5146 85.2479 77.14 85.1359Z" fill="white"/>
<path d="M30.8988 47.2026C25.7481 44.4932 21.2975 39.9679 17.4295 35.6919C13.9868 31.8879 9.66147 27.2946 8.0548 22.3826C7.8628 21.7959 8.65078 21.3839 9.06545 21.7945C12.9601 25.6599 15.6148 30.8559 19.3188 34.9866C23.0655 39.1639 27.4975 42.5773 31.3535 46.6146C31.6508 46.9266 31.2761 47.4012 30.8988 47.2026Z" fill="white"/>
<path d="M55.5262 88.3043C46.4595 84.831 36.8582 78.0149 30.8742 70.3109C30.1809 69.4189 31.2569 68.2576 32.1422 69.0443C36.0782 72.5456 39.6542 76.3176 43.8809 79.5043C47.7195 82.3976 51.8702 84.8123 55.8955 87.4283C56.3249 87.7083 56.0595 88.5096 55.5262 88.3043Z" fill="white"/>
<path d="M12.7324 47.6161C8.35903 44.8468 3.93639 39.7548 1.59372 35.1321C1.23772 34.4295 2.19772 33.5454 2.75638 34.2361C4.48438 36.3721 5.92704 38.7162 7.71237 40.8202C9.49371 42.9175 11.511 44.8228 13.2377 46.9614C13.5137 47.3041 13.1644 47.8895 12.7324 47.6161Z" fill="white"/>
<path d="M80.9551 11.5683C78.2071 20.5416 75.4111 29.4736 73.2111 38.6016C72.9578 39.6563 71.3165 39.2083 71.5845 38.1536C73.8938 29.0429 76.5525 20.0322 80.1925 11.3589C80.3831 10.9042 81.1098 11.0656 80.9551 11.5683Z" fill="white"/>
<path d="M68.78 4.60404C64.5653 17.0627 60.3573 28.844 58.3653 41.932C58.1693 43.2214 56.244 42.6613 56.416 41.3947C58.1347 28.7533 61.304 15.3147 67.676 4.13868C68.008 3.55734 69.004 3.94404 68.78 4.60404Z" fill="white"/>
<path d="M59.0665 2.49343C54.9692 13.6161 50.3505 24.0081 48.0039 35.7161C47.7652 36.9068 45.9145 36.4068 46.1759 35.2121C48.6505 23.9401 51.9586 11.9335 58.4199 2.22012C58.6279 1.90679 59.2132 2.0961 59.0665 2.49343Z" fill="white"/>
<path d="M46.1846 1.81779C44.6113 6.20579 42.5632 10.4071 40.9779 14.7964C39.5659 18.7031 38.7046 22.8284 37.0806 26.6431C36.8206 27.2538 35.7566 26.9497 35.8193 26.3004C36.6193 18.1137 40.7366 8.27512 45.3086 1.44846C45.5926 1.02446 46.3779 1.27779 46.1846 1.81779Z" fill="white"/>
<path d="M90.6423 28.5386C88.2917 27.4346 86.0877 26.1306 84.0423 24.5253C82.1157 23.0146 79.7463 21.3026 78.5263 19.1426C78.2637 18.6773 78.813 18.044 79.2957 18.3733C81.1743 19.6533 82.649 21.5773 84.393 23.0533C86.485 24.824 88.6863 26.472 90.937 28.0346C91.2463 28.2506 90.9823 28.6986 90.6423 28.5386Z" fill="white"/>
<path d="M42.2205 5.99745C41.6471 5.32812 41.0751 4.65884 40.5018 3.98951C40.0044 3.40951 39.4604 2.86548 39.2044 2.13215C39.1004 1.83215 39.4804 1.55747 39.7404 1.72147C40.3964 2.13347 40.8031 2.79479 41.2565 3.40813C41.7791 4.11479 42.3031 4.82278 42.8258 5.53078C43.0845 5.88145 42.5045 6.32945 42.2205 5.99745Z" fill="white"/>
</svg>
