<svg width="168" height="119" viewBox="0 0 168 119" fill="none" xmlns="http://www.w3.org/2000/svg">
<path d="M125.812 46.1882C129.791 43.6522 133.527 40.1896 135.667 35.9242C135.769 35.7216 135.497 35.4696 135.332 35.6656C132.255 39.3189 129.28 42.8176 125.516 45.8043C125.297 45.9763 125.58 46.3362 125.812 46.1882Z" fill="white"/>
<path d="M154.213 14.4029C153.308 17.9976 151.319 21.1043 148.656 23.6576C148.501 23.8056 148.708 24.0883 148.889 23.9603C152.096 21.6949 154.056 18.3976 154.816 14.5683C154.893 14.1776 154.312 14.0083 154.213 14.4029Z" fill="white"/>
<path d="M148.627 47.6318C150.297 46.1612 152.264 44.7385 153.644 42.9825C153.796 42.7891 153.599 42.4385 153.353 42.6065C151.491 43.8812 149.933 45.7572 148.339 47.3452C148.152 47.5318 148.432 47.8038 148.627 47.6318Z" fill="white"/>
<path d="M159.884 34.2438C160.736 33.2584 161.506 32.2278 162.17 31.1051C162.739 30.1438 163.503 29.0198 163.568 27.8811C163.58 27.6491 163.27 27.5345 163.115 27.6931C162.343 28.4851 161.964 29.7104 161.442 30.6798C160.838 31.7958 160.202 32.8945 159.542 33.9785C159.415 34.1865 159.719 34.4344 159.884 34.2438Z" fill="white"/>
<path d="M160.399 27.9585C160.945 26.8719 161.71 25.7132 161.97 24.5159C162.009 24.3359 161.767 24.1466 161.63 24.3173C160.862 25.2746 160.442 26.5812 159.941 27.6906C159.802 27.9972 160.243 28.2679 160.399 27.9585Z" fill="white"/>
<path d="M148.048 13.9522C148.485 13.1949 148.922 12.4362 149.36 11.6789C149.745 11.0109 150.226 10.3269 150.412 9.57089C150.461 9.36689 150.209 9.20955 150.054 9.36288C149.505 9.91355 149.17 10.6749 148.8 11.3522C148.378 12.1189 147.957 12.8855 147.536 13.6522C147.352 13.9869 147.857 14.2842 148.048 13.9522Z" fill="white"/>
<path d="M156.714 22.2842C157.534 21.0868 158.498 19.9028 159.031 18.5414C159.115 18.3281 158.803 18.1708 158.657 18.3241C157.651 19.3815 156.989 20.7668 156.255 22.0161C156.079 22.3148 156.522 22.5642 156.714 22.2842Z" fill="white"/>
<path d="M133.933 12.9361C136.252 10.8214 138.785 7.37473 139.116 4.1614C139.143 3.89473 138.764 3.83477 138.64 4.0321C137.757 5.44677 137.28 7.09742 136.448 8.55476C135.62 10.0054 134.652 11.3841 133.688 12.7467C133.581 12.8974 133.808 13.0507 133.933 12.9361Z" fill="white"/>
<path d="M140.101 9.41994C140.971 8.31061 142.063 7.20122 142.63 5.89722C142.73 5.66922 142.486 5.46792 142.287 5.63192C141.189 6.53859 140.429 7.89056 139.602 9.03589C139.393 9.32523 139.878 9.70527 140.101 9.41994Z" fill="white"/>
<path d="M131.495 7.01346C132.206 5.68813 133.036 4.37345 133.493 2.93612C133.583 2.65212 133.2 2.54013 133.045 2.74679C132.16 3.93346 131.581 5.35749 130.928 6.68149C130.743 7.05749 131.294 7.38813 131.495 7.01346Z" fill="white"/>
<path d="M163.946 42.2906C164.392 41.7133 164.852 41.1493 165.219 40.5147C165.298 40.3787 165.119 40.2493 165.007 40.3507C164.479 40.8293 164.035 41.38 163.576 41.9227C163.359 42.1813 163.743 42.552 163.946 42.2906Z" fill="white"/>
<path d="M73.744 32.8479C75.216 35.5385 77.944 38.1572 81.132 38.4718C81.4253 38.5012 81.552 38.0319 81.2853 37.9092C78.4013 36.5852 75.9466 35.3639 74.1573 32.6065C73.9906 32.3479 73.5946 32.5759 73.744 32.8479Z" fill="white"/>
<path d="M71.9213 46.0294C73.6346 47.5014 75.824 49.1294 78.1453 49.336C78.372 49.356 78.4293 49.0347 78.2559 48.928C77.2839 48.332 76.1826 47.956 75.1706 47.4294C74.1479 46.8974 73.1853 46.2774 72.2693 45.5787C72.0119 45.3827 71.6759 45.8174 71.9213 46.0294Z" fill="white"/>
<path d="M93.1879 8.88934C93.9946 11.0813 94.7079 13.6106 96.0186 15.5639C96.1866 15.8146 96.5666 15.6586 96.5039 15.3586C96.0173 13.0586 94.6999 10.784 93.6919 8.67729C93.5586 8.39863 93.0786 8.596 93.1879 8.88934Z" fill="white"/>
<path d="M104.588 4.93325C105.327 6.16792 105.783 7.51596 106.247 8.87062C106.32 9.08396 106.69 9.0666 106.667 8.81327C106.527 7.2866 105.9 5.93461 105.066 4.65461C104.872 4.35994 104.406 4.62659 104.588 4.93325Z" fill="white"/>
<path d="M116.154 1.98805C116.979 3.81738 117.443 5.78006 118.258 7.59872C118.355 7.81606 118.719 7.7067 118.704 7.47737C118.57 5.4867 117.554 3.4494 116.578 1.74006C116.418 1.4614 116.027 1.70671 116.154 1.98805Z" fill="white"/>
<path d="M90.2559 11.1932C90.7639 12.5386 91.1693 14.0439 91.9479 15.2599C92.1066 15.5092 92.4719 15.3465 92.4146 15.0639C92.1319 13.6532 91.3732 12.2772 90.8079 10.9599C90.6746 10.6492 90.1346 10.8732 90.2559 11.1932Z" fill="white"/>
<path d="M112.011 2.17352C112.17 2.99352 112.423 3.76687 112.694 4.5562C112.931 5.24954 113.109 6.0322 113.553 6.62287C113.706 6.82554 114.107 6.79216 114.087 6.47749C114.035 5.68549 113.637 4.93615 113.342 4.20549C113.042 3.45749 112.737 2.73752 112.335 2.03752C112.231 1.85618 111.974 1.98285 112.011 2.17352Z" fill="white"/>
<path d="M97.9199 7.1973C98.2479 8.02797 98.5439 8.79467 99.0452 9.53734C99.1412 9.68001 99.3572 9.59066 99.3212 9.42132C99.1386 8.54399 98.7932 7.79735 98.4239 6.98402C98.2959 6.70269 97.8039 6.9053 97.9199 7.1973Z" fill="white"/>
<path d="M71.8065 58.6852C73.2811 58.7746 75.1011 59.1146 76.5371 58.7079C76.7651 58.6426 76.7651 58.3106 76.5371 58.2453C75.0985 57.8386 73.2798 58.1786 71.8065 58.2679C71.5385 58.2839 71.5385 58.6679 71.8065 58.6852Z" fill="white"/>
<path d="M73.7463 64.3465C75.1476 64.6332 76.6262 64.6652 77.9436 64.0572C78.1742 63.9505 78.0636 63.5492 77.8116 63.5718C76.4676 63.6918 75.1662 63.9305 73.8076 63.8865C73.5476 63.8785 73.4836 64.2932 73.7463 64.3465Z" fill="white"/>
<path d="M79.5233 75.6613C81.6967 75.0653 84.1673 74.1053 85.7033 72.3853C85.894 72.1707 85.6553 71.84 85.394 71.984C83.3633 73.1013 81.6127 74.3827 79.3753 75.1293C79.042 75.2413 79.1767 75.756 79.5233 75.6613Z" fill="white"/>
<path d="M81.9935 80.8011C84.0789 79.6918 86.6069 78.6984 88.3589 77.0931C88.4962 76.9678 88.3522 76.7264 88.1762 76.7798C85.9055 77.4784 83.7682 79.1584 81.7575 80.3958C81.5002 80.5544 81.7269 80.9424 81.9935 80.8011Z" fill="white"/>
<path d="M87.4101 82.3774C88.9114 82.6227 90.6474 82.0374 91.3474 80.5961C91.4808 80.3214 91.1381 80.0107 90.9061 80.2547C89.9608 81.2454 88.8874 81.9454 87.4714 81.9267C87.2207 81.9241 87.1501 82.3347 87.4101 82.3774Z" fill="white"/>
<path d="M97.8673 86.3747C99.6287 85.916 101.553 85.1107 102.626 83.5667C102.733 83.412 102.526 83.2294 102.377 83.3174C100.817 84.2281 99.4753 85.3014 97.7287 85.8734C97.4127 85.9774 97.5407 86.46 97.8673 86.3747Z" fill="white"/>
<path d="M105.528 87.688C106.421 87.3827 107.304 86.8347 107.708 85.9494C107.828 85.6867 107.518 85.404 107.29 85.6267C106.669 86.236 106.128 86.8427 105.352 87.2693C105.128 87.392 105.278 87.7747 105.528 87.688Z" fill="white"/>
<path d="M123.542 87.9403C125.07 86.9896 126.784 85.6509 127.411 83.8976C127.496 83.6602 127.167 83.4963 127.003 83.6603C126.392 84.2643 125.91 84.9869 125.327 85.6176C124.694 86.3016 124.022 86.9229 123.268 87.4722C122.992 87.6736 123.239 88.1283 123.542 87.9403Z" fill="white"/>
<path d="M133.567 85.1625C135.251 84.7932 136.406 83.4972 136.592 81.7958C136.616 81.5745 136.29 81.5598 136.223 81.7465C135.77 83.0251 134.692 84.1572 133.423 84.6398C133.1 84.7625 133.22 85.2372 133.567 85.1625Z" fill="white"/>
<path d="M142.42 82.0721C143.547 80.8788 144.287 79.4561 144.589 77.8401C144.624 77.6521 144.349 77.5001 144.256 77.7001C143.603 79.1041 142.859 80.4601 142.019 81.7628C141.863 82.0068 142.221 82.2828 142.42 82.0721Z" fill="white"/>
<path d="M150.138 76.9879C150.733 75.6732 151.473 74.3306 151.803 72.9172C151.863 72.6652 151.525 72.5185 151.385 72.7412C150.61 73.9679 150.171 75.4372 149.653 76.7825C149.545 77.0612 150.014 77.2625 150.138 76.9879Z" fill="white"/>
<path d="M155.736 53.6904C158.539 54.1024 162.208 54.1664 164.644 52.4824C164.811 52.3677 164.775 52.0291 164.528 52.0557C163.246 52.1957 162.02 52.6357 160.75 52.8663C159.124 53.161 157.46 53.2064 155.814 53.1171C155.491 53.1011 155.408 53.6424 155.736 53.6904Z" fill="white"/>
<path d="M156.79 65.0611C158.036 64.9185 159.358 64.8839 160.56 64.5145C160.884 64.4145 160.818 63.9465 160.482 63.9305C159.224 63.8745 157.936 64.1719 156.694 64.3452C156.291 64.4012 156.382 65.1091 156.79 65.0611Z" fill="white"/>
<path d="M104.054 41.1415C104.065 38.7468 103.893 35.9495 102.827 33.7668C102.766 33.6402 102.542 33.6975 102.555 33.8402C102.795 36.2882 103.459 38.6708 103.659 41.1415C103.679 41.3922 104.054 41.4002 104.054 41.1415Z" fill="white"/>
<path d="M117.339 40.5361C117.799 38.6148 117.581 36.4468 116.73 34.6654C116.595 34.3841 116.182 34.5895 116.245 34.8708C116.667 36.7628 116.878 38.5348 116.879 40.4735C116.879 40.7335 117.277 40.7974 117.339 40.5361Z" fill="white"/>
<path d="M124.325 33.4762C124.354 32.3522 124.412 31.2269 124.258 30.1109C124.241 29.9909 124.033 29.9909 124.017 30.1109C123.862 31.2282 123.92 32.3522 123.95 33.4762C123.956 33.7175 124.318 33.7189 124.325 33.4762Z" fill="white"/>
<path d="M128.434 30.144C128.598 27.7454 128.224 25.208 126.617 23.3267C126.478 23.1654 126.174 23.3374 126.25 23.5401C127.074 25.7307 127.882 27.7574 127.872 30.144C127.87 30.5094 128.41 30.5027 128.434 30.144Z" fill="white"/>
<path d="M99.1148 40.1376C99.0788 38.8136 99.1334 37.3456 98.7481 36.0656C98.6494 35.7376 98.2068 35.8243 98.1761 36.1443C98.0481 37.4643 98.3934 38.9083 98.6134 40.2056C98.6614 40.4909 99.1228 40.4216 99.1148 40.1376Z" fill="white"/>
<path d="M98.6179 67.9522C100.067 66.7989 101.737 65.6895 102.941 64.2722C103.105 64.0789 102.898 63.7589 102.657 63.9042C101.05 64.8789 99.6753 66.3669 98.2939 67.6282C98.0713 67.8309 98.3926 68.1322 98.6179 67.9522Z" fill="white"/>
<path d="M107.334 69.0051C108.134 68.2385 109.03 67.5011 109.683 66.5998C109.824 66.4051 109.543 66.1238 109.348 66.2652C108.447 66.9185 107.71 67.8145 106.943 68.6145C106.696 68.8718 107.076 69.2505 107.334 69.0051Z" fill="white"/>
<path d="M121.967 71.0775C123.102 70.2229 124.486 69.4109 125.359 68.2722C125.53 68.0495 125.211 67.8269 125.01 67.9242C123.741 68.5309 122.675 69.7189 121.626 70.6362C121.389 70.8429 121.71 71.2709 121.967 71.0775Z" fill="white"/>
<path d="M129.033 71.3722C129.816 70.5895 130.697 69.8415 131.305 68.9082C131.408 68.7508 131.2 68.5335 131.041 68.6442C130.128 69.2829 129.409 70.1829 128.651 70.9896C128.412 71.2429 128.787 71.6188 129.033 71.3722Z" fill="white"/>
<path d="M140.576 73.3292C142.22 72.3239 144.127 70.7892 144.751 68.8919C144.836 68.6345 144.471 68.4159 144.29 68.6226C143.668 69.3306 143.202 70.1572 142.576 70.8652C141.902 71.6292 141.15 72.2986 140.314 72.8786C140.042 73.0679 140.286 73.5066 140.576 73.3292Z" fill="white"/>
<path d="M145.334 75.0161C147.659 73.1574 149.998 70.7201 150.949 67.8348C151.031 67.5828 150.686 67.4801 150.549 67.6668C148.749 70.1054 147.255 72.6054 145.061 74.7441C144.879 74.9214 145.145 75.1668 145.334 75.0161Z" fill="white"/>
<path d="M119.312 44.7734C120.3 44.1041 121.455 43.4814 122.299 42.6294C122.519 42.4067 122.242 42.1041 121.983 42.2201C120.912 42.7028 119.947 43.548 118.992 44.2254C118.663 44.4587 118.971 45.0054 119.312 44.7734Z" fill="white"/>
<path d="M84.9634 33.7494C86.2368 33.0947 87.5914 32.1867 88.2941 30.9C88.4008 30.704 88.1608 30.5414 87.9994 30.672C86.8954 31.5774 85.9421 32.5614 84.6741 33.2547C84.3488 33.4334 84.6368 33.9187 84.9634 33.7494Z" fill="white"/>
<path d="M79.6215 77.2015C84.8228 85.1775 94.9335 87.1921 103.792 88.4548C114.925 90.0415 126.457 89.5628 137.067 85.5881C155.807 78.5655 168.92 60.9588 167.6 40.5494C164.743 -3.65455 103.845 -13.0572 79.2815 18.9721C65.4761 36.9734 67.0028 62.1428 81.3428 79.3254C82.2961 80.4694 83.9295 78.8255 82.9775 77.6908C67.4281 59.1468 68.4388 31.3508 86.5455 14.8468C103.897 -0.96788 134.884 -2.51851 152.413 13.9228C169.755 30.1882 169.213 58.5948 151.548 74.4774C141.669 83.3601 128.26 87.1708 115.183 87.1788C103.923 87.1868 88.1228 85.7401 80.1615 76.7841C79.9041 76.4948 79.4081 76.8735 79.6215 77.2015Z" fill="white"/>
<path d="M83.9795 80.3641C74.1648 70.5854 59.8835 79.2921 52.5288 87.5307C46.0008 94.8427 41.0595 103.233 32.9461 109.039C23.6968 115.659 8.66347 122.188 1.13947 110.004C0.767474 109.403 -0.133849 109.799 0.0168173 110.477C3.65682 126.94 28.0328 115.053 35.5661 109.169C49.4181 98.3521 61.4928 68.2654 83.3862 81.1321C83.8648 81.4134 84.3755 80.7587 83.9795 80.3641Z" fill="white"/>
<path d="M71.6799 51.2761C84.6359 59.0495 99.4852 64.1574 114.309 66.8668C127.961 69.3628 144.143 71.1041 157.735 67.6414C158.675 67.4014 158.469 65.9681 157.508 65.9628C150.536 65.9241 143.608 66.9375 136.604 66.7935C128.941 66.6348 121.308 65.8401 113.768 64.4694C99.1385 61.8094 85.6079 56.7134 72.2159 50.3588C71.6066 50.0694 71.0852 50.9188 71.6799 51.2761Z" fill="white"/>
<path d="M71.3811 38.9972C84.9838 49.0532 103.237 55.1745 119.597 58.7518C127.624 60.5052 135.806 61.6705 144.012 62.1212C150.448 62.4732 158.486 63.0078 163.366 58.0572C163.906 57.5105 163.366 56.4158 162.576 56.6998C147.686 62.0318 130.842 58.9159 115.734 55.3452C100.041 51.6345 86.4198 44.7732 71.8958 38.1158C71.2931 37.8398 70.8518 38.6052 71.3811 38.9972Z" fill="white"/>
<path d="M75.4822 30.1214C86.5089 39.6374 102.744 42.4548 116.556 45.4201C131.429 48.6134 150.709 52.5308 165.51 47.5428C166.354 47.2588 166.229 45.9854 165.297 45.9667C157.85 45.824 150.452 47.0254 142.942 46.6614C134.27 46.2414 125.681 44.8854 117.181 43.1521C103.209 40.3054 87.9596 37.7014 76.1636 29.2387C75.6476 28.8681 74.9996 29.7054 75.4822 30.1214Z" fill="white"/>
<path d="M78.0845 70.1599C81.1725 69.3253 83.9725 67.7453 86.6685 66.0519C88.9552 64.6159 92.0058 63.0053 93.4045 60.6266C93.6245 60.2546 93.2538 59.6772 92.8045 59.8466C90.2258 60.8186 88.1405 63.0959 85.8245 64.6066C83.2018 66.3159 80.3805 67.6839 77.7632 69.3986C77.3778 69.6519 77.6138 70.2879 78.0845 70.1599Z" fill="white"/>
<path d="M113.613 43.4985C126.173 35.9505 139.521 22.1518 146.083 8.96247C146.511 8.10114 145.352 7.02114 144.659 7.86514C139.653 13.9545 135.48 20.5971 130.109 26.4371C124.745 32.2705 118.637 37.1585 112.919 42.5985C112.448 43.0465 113.055 43.8345 113.613 43.4985Z" fill="white"/>
<path d="M90.5514 85.1357C100.006 82.321 111.029 74.5384 117.342 66.9544C117.839 66.3557 117.166 65.2251 116.433 65.7757C112.138 69.0011 108.309 72.7557 103.906 75.8757C99.5141 78.9891 94.6487 81.3904 90.3034 84.5451C90.0247 84.7477 90.1768 85.2477 90.5514 85.1357Z" fill="white"/>
<path d="M136.793 47.2024C141.943 44.4931 146.394 39.9677 150.262 35.6917C153.705 31.8877 158.03 27.2944 159.637 22.3824C159.829 21.7958 159.041 21.3837 158.626 21.7944C154.731 25.6597 152.077 30.8558 148.373 34.9865C144.626 39.1638 140.194 42.5771 136.338 46.6145C136.041 46.9265 136.415 47.4011 136.793 47.2024Z" fill="white"/>
<path d="M112.165 88.3041C121.232 84.8308 130.833 78.0148 136.817 70.3108C137.511 69.4188 136.435 68.2575 135.549 69.0441C131.613 72.5455 128.037 76.3175 123.811 79.5041C119.972 82.3975 115.821 84.8121 111.796 87.4281C111.367 87.7081 111.632 88.5095 112.165 88.3041Z" fill="white"/>
<path d="M154.959 47.616C159.332 44.8466 163.755 39.7546 166.098 35.132C166.454 34.4293 165.494 33.5453 164.935 34.236C163.207 36.372 161.764 38.716 159.979 40.82C158.198 42.9173 156.18 44.8226 154.454 46.9613C154.178 47.3039 154.527 47.8893 154.959 47.616Z" fill="white"/>
<path d="M86.7363 11.5681C89.4843 20.5414 92.2803 29.4734 94.4803 38.6014C94.7336 39.6561 96.3749 39.2081 96.1069 38.1535C93.7976 29.0428 91.139 20.0321 87.499 11.3587C87.3083 10.9041 86.5816 11.0654 86.7363 11.5681Z" fill="white"/>
<path d="M98.9114 4.60389C103.126 17.0626 107.334 28.8439 109.326 41.9319C109.522 43.2212 111.447 42.6612 111.275 41.3945C109.557 28.7532 106.387 15.3145 100.015 4.13852C99.6834 3.55719 98.6874 3.94389 98.9114 4.60389Z" fill="white"/>
<path d="M108.625 2.49327C112.722 13.6159 117.341 24.0079 119.688 35.7159C119.926 36.9066 121.777 36.4066 121.516 35.212C119.041 23.94 115.733 11.9333 109.272 2.21997C109.064 1.90664 108.478 2.09594 108.625 2.49327Z" fill="white"/>
<path d="M121.507 1.81764C123.08 6.20564 125.128 10.4069 126.713 14.7963C128.125 18.7029 128.987 22.8283 130.611 26.643C130.871 27.2536 131.935 26.9496 131.872 26.3003C131.072 18.1136 126.955 8.27497 122.383 1.4483C122.099 1.0243 121.313 1.27764 121.507 1.81764Z" fill="white"/>
<path d="M77.0491 28.5384C79.3997 27.4345 81.6037 26.1304 83.6491 24.5251C85.5757 23.0144 87.9451 21.3025 89.1651 19.1425C89.4277 18.6772 88.8784 18.0438 88.3957 18.3732C86.5171 19.6532 85.0424 21.5772 83.2984 23.0532C81.2064 24.8238 79.0051 26.4718 76.7544 28.0345C76.4451 28.2505 76.7091 28.6984 77.0491 28.5384Z" fill="white"/>
<path d="M125.471 5.9973C126.044 5.32796 126.616 4.65869 127.19 3.98936C127.687 3.40936 128.231 2.86533 128.487 2.132C128.591 1.832 128.211 1.55732 127.951 1.72132C127.295 2.13332 126.888 2.79464 126.435 3.40798C125.912 4.11464 125.388 4.82263 124.866 5.53063C124.607 5.8813 125.187 6.3293 125.471 5.9973Z" fill="white"/>
</svg>
