<svg width="204" height="159" viewBox="0 0 204 159" fill="none" xmlns="http://www.w3.org/2000/svg">
<path d="M108.1 60.6321C106.067 63.8655 103.664 66.8051 101.573 69.9855C101.319 70.3716 101.88 70.7856 102.201 70.4741C104.91 67.8375 106.998 64.3372 108.764 61.0214C108.997 60.5842 108.365 60.2103 108.1 60.6321Z" fill="white"/>
<path d="M108.948 67.7501C107.535 71.108 105.347 73.4413 102.991 76.1408C102.733 76.4359 103.06 76.9489 103.429 76.7151C106.458 74.8045 108.465 71.3378 109.749 68.086C109.927 67.6313 109.14 67.2963 108.948 67.7501Z" fill="white"/>
<path d="M113.197 73.0639C111.563 76.3518 109.306 78.9714 106.876 81.6871C106.618 81.9755 106.966 82.5257 107.314 82.2615C110.269 80.0165 112.336 76.7908 113.835 73.4391C114.026 73.0128 113.411 72.6328 113.197 73.0639Z" fill="white"/>
<path d="M117.697 77.7705C115.129 80.9723 112.619 84.3331 110.925 88.0894C110.731 88.5179 111.293 88.8643 111.563 88.4633C113.851 85.0719 115.918 81.5813 118.432 78.3402C118.754 77.9254 118.029 77.3557 117.697 77.7705Z" fill="white"/>
<path d="M121.221 82.949C118.77 86.2429 116.126 89.4699 114.04 93.0119C113.807 93.4051 114.365 93.8651 114.684 93.513C117.477 90.4296 119.8 86.908 122.246 83.5493C122.696 82.9288 121.67 82.3433 121.221 82.949Z" fill="white"/>
<path d="M127.236 85.4483C124.065 89.2146 120.544 93.0805 118.004 97.3112C117.795 97.6583 118.279 98.039 118.567 97.7476C122.035 94.2363 124.905 89.8662 127.766 85.8608C127.987 85.5515 127.483 85.1555 127.236 85.4483Z" fill="white"/>
<path d="M131.042 90.1416C128.304 92.7968 125.521 95.8745 124.004 99.4187C123.801 99.893 124.384 100.242 124.696 99.8249C127.002 96.7436 129.013 93.6024 131.746 90.852C132.2 90.3939 131.505 89.6927 131.042 90.1416Z" fill="white"/>
<path d="M135.609 94.4385C132.529 97.9409 128.677 101.438 126.278 105.449C126.03 105.865 126.569 106.208 126.907 105.938C130.521 103.044 133.437 98.797 136.466 95.3045C136.977 94.7154 136.127 93.8473 135.609 94.4385Z" fill="white"/>
<path d="M141.07 99.2904C138.2 102.614 135.266 106.169 133.279 110.102C133.089 110.476 133.604 110.955 133.898 110.584C136.657 107.111 139.045 103.342 141.764 99.8296C142.068 99.4349 141.397 98.9126 141.07 99.2904Z" fill="white"/>
<path d="M147.362 100.875C143.365 104.557 139.673 109.072 137.801 114.23C137.644 114.663 138.298 114.9 138.525 114.533C141.416 109.879 144.128 105.462 147.971 101.489C148.358 101.088 147.771 100.499 147.362 100.875Z" fill="white"/>
<path d="M152.731 104.582C149.437 108.352 145.896 112.488 143.861 117.097C143.685 117.494 144.206 118.034 144.53 117.617C147.65 113.611 150.214 109.268 153.508 105.368C153.963 104.83 153.203 104.045 152.731 104.582Z" fill="white"/>
<path d="M155.352 106.462C152.989 110.711 150.119 114.778 147.981 119.136C147.721 119.665 148.407 120.039 148.753 119.59C151.693 115.768 153.829 111.126 155.98 106.831C156.189 106.415 155.581 106.049 155.352 106.462Z" fill="white"/>
<path d="M160.746 109.211C158.089 113.916 154.663 117.963 151.788 122.49C151.532 122.893 152.099 123.305 152.432 122.991C156.269 119.371 159.097 114.303 161.616 109.722C161.93 109.153 161.066 108.643 160.746 109.211Z" fill="white"/>
<path d="M164.1 111.932C161.558 115.501 158.831 119.883 158.117 124.288C158.045 124.73 158.676 125.092 158.908 124.619C160.944 120.459 162.391 116.351 165.089 112.511C165.515 111.906 164.525 111.336 164.1 111.932Z" fill="white"/>
<path d="M170.828 113.186C167.645 116.817 164.193 120.901 162.391 125.422C162.19 125.922 162.929 126.128 163.2 125.761C166.09 121.842 168.376 117.675 171.583 113.949C172.03 113.429 171.285 112.666 170.828 113.186Z" fill="white"/>
<path d="M173.695 114.057C171.86 117.866 169.758 121.662 168.322 125.644C168.14 126.15 168.917 126.448 169.179 126.002C171.305 122.396 172.862 118.393 174.603 114.59C174.882 113.981 173.991 113.443 173.695 114.057Z" fill="white"/>
<path d="M180.133 113.47C176.916 117.101 173.703 120.867 170.879 124.814C170.599 125.203 171.217 125.675 171.539 125.327C174.841 121.774 177.886 117.866 180.801 113.99C181.091 113.604 180.452 113.109 180.133 113.47Z" fill="white"/>
<path d="M177.402 93.4641C178.076 99.4947 178.826 105.794 180.681 111.585C180.792 111.932 181.264 111.784 181.214 111.439C180.332 105.403 178.846 99.4333 177.894 93.3957C177.85 93.1191 177.371 93.1825 177.402 93.4641Z" fill="white"/>
<path d="M171.615 88.4115C172.675 96.4325 172.847 104.933 174.864 112.779C174.937 113.059 175.369 113 175.366 112.709C175.275 104.651 173.232 96.386 172.177 88.4077C172.13 88.0541 171.567 88.0536 171.615 88.4115Z" fill="white"/>
<path d="M166.424 83.9885C167 88.5698 167.558 93.1544 168.097 97.7409C168.587 101.911 168.761 106.256 169.724 110.346C169.798 110.663 170.269 110.582 170.276 110.269C170.465 101.63 168.377 92.4172 166.966 83.9129C166.916 83.6083 166.384 83.677 166.424 83.9885Z" fill="white"/>
<path d="M160.825 80.8064C161.828 85.8056 162.683 90.8357 163.319 95.8955C163.601 98.1367 163.854 100.381 164.066 102.629C164.181 103.857 164.282 105.084 164.389 106.313C164.425 106.718 164.438 109.461 164.175 109.084C164.072 108.936 163.784 109.019 163.861 109.215C164.241 110.178 164.037 109.985 165.03 110.345C165.255 110.426 165.481 110.212 165.482 109.996C165.554 100.213 163.608 90.1381 161.439 80.6382C161.346 80.2378 160.745 80.4082 160.825 80.8064Z" fill="white"/>
<path d="M154.624 72.118C155.353 77.6981 156.34 83.2411 157.054 88.8241C157.716 93.9984 157.879 99.3387 158.919 104.449C158.971 104.711 159.361 104.637 159.369 104.387C159.545 98.834 158.486 93.066 157.732 87.5758C157.02 82.388 156.273 77.1579 155.085 72.0553C155.026 71.802 154.59 71.8506 154.624 72.118Z" fill="white"/>
<path d="M148.316 66.3177C149.296 72.0521 150.536 77.7277 151.357 83.4927C152.177 89.2367 152.491 95.0355 153.288 100.779C153.33 101.084 153.804 100.996 153.81 100.706C153.909 95.091 153.109 89.4228 152.295 83.8765C151.427 77.9581 150.41 71.9515 148.689 66.216C148.615 65.9741 148.275 66.0761 148.316 66.3177Z" fill="white"/>
<path d="M142.972 67.1179C144.116 72.9184 145.162 78.7215 145.932 84.5859C146.601 89.6833 146.779 94.8896 147.701 99.9457C147.753 100.236 148.178 100.147 148.191 99.877C148.441 94.5618 147.551 89.1 146.802 83.8459C145.993 78.1698 144.965 72.5135 143.645 66.9326C143.541 66.4933 142.886 66.6808 142.972 67.1179Z" fill="white"/>
<path d="M137.879 62.7702C139.112 73.9446 139.471 85.2412 140.865 96.3843C140.907 96.7172 141.382 96.7313 141.396 96.3803C141.845 85.2148 140.141 73.7029 138.309 62.7114C138.268 62.4685 137.852 62.5226 137.879 62.7702Z" fill="white"/>
<path d="M130.797 59.7108C132.466 69.9669 133.003 80.3683 134.614 90.6157C134.678 91.0207 135.304 90.9071 135.309 90.519C135.447 80.2102 133.364 69.625 131.4 59.5453C131.322 59.1462 130.733 59.3197 130.797 59.7108Z" fill="white"/>
<path d="M126.858 60.2684C127.947 69.4649 127.605 78.6535 128.336 87.8479C128.366 88.2246 128.863 88.2032 128.909 87.8443C130.066 78.8366 128.798 69.2111 127.598 60.2624C127.536 59.7998 126.802 59.7924 126.858 60.2684Z" fill="white"/>
<path d="M117.964 52.5994C119.623 62.1833 119.889 71.8123 121.155 81.4151C121.203 81.7843 121.704 81.7914 121.738 81.4113C122.579 71.8911 120.647 61.6985 118.487 52.4565C118.406 52.112 117.905 52.262 117.964 52.5994Z" fill="white"/>
<path d="M112.359 50.7817C112.586 58.32 112.806 66.7991 115.283 73.9963C115.38 74.2777 115.839 74.2502 115.825 73.9207C115.489 66.2068 113.722 58.5002 113.119 50.7757C113.082 50.2935 112.344 50.2862 112.359 50.7817Z" fill="white"/>
<path d="M122.581 54.6561C117.873 55.2622 112.323 55.8416 107.89 57.5346C107.635 57.6318 107.65 58.0432 107.958 58.0361C112.708 57.9297 118.071 56.3672 122.649 55.1466C122.914 55.0767 122.869 54.6189 122.581 54.6561Z" fill="white"/>
<path d="M129.684 57.0013C125.699 57.7997 121.785 58.8507 117.937 60.1592C116.045 60.8021 112.015 61.3443 111.51 63.6247C111.439 63.9466 111.873 64.2766 112.118 63.978C113.844 61.8812 118.843 60.9074 121.35 60.0773C124.152 59.1509 126.99 58.339 129.842 57.5848C130.223 57.4839 130.062 56.9258 129.684 57.0013Z" fill="white"/>
<path d="M134.976 62.3434C128.812 63.1517 121.235 64.9037 116.096 68.5829C115.815 68.7852 115.967 69.2842 116.343 69.1751C119.488 68.2619 122.431 66.6858 125.541 65.6295C128.671 64.566 131.863 63.802 135.068 63.0183C135.437 62.9281 135.368 62.2911 134.976 62.3434Z" fill="white"/>
<path d="M142.312 66.6702C134.704 67.8948 126.354 68.9329 119.15 71.7552C118.696 71.9345 118.87 72.5484 119.348 72.4792C127.107 71.3558 134.784 68.8561 142.505 67.3747C142.97 67.2855 142.768 66.5977 142.312 66.6702Z" fill="white"/>
<path d="M148.116 69.7682C143.427 70.6444 138.76 71.5886 134.129 72.7413C129.935 73.7846 125.475 74.6864 121.561 76.5543C121.217 76.719 121.476 77.1803 121.8 77.1279C126.263 76.3996 130.626 74.7248 135.006 73.5905C139.414 72.4473 143.851 71.3945 148.318 70.5013C148.799 70.4052 148.595 69.6783 148.116 69.7682Z" fill="white"/>
<path d="M154.504 74.554C145.107 75.4374 135.021 76.6649 126.159 80.0506C125.655 80.2439 125.843 80.9693 126.383 80.8655C135.809 79.0515 144.953 76.4604 154.507 75.1886C154.903 75.1358 154.917 74.5144 154.504 74.554Z" fill="white"/>
<path d="M160.726 79.6501C155.202 80.2128 149.728 81.0499 144.3 82.2251C139.024 83.368 133.247 84.5283 128.397 86.9694C128.075 87.1315 128.308 87.5834 128.628 87.5215C133.806 86.5345 138.84 84.59 143.981 83.378C149.507 82.0756 155.102 81.0944 160.731 80.3802C161.187 80.3216 161.198 79.6028 160.726 79.6501Z" fill="white"/>
<path d="M165.244 84.6099C155.813 85.1211 145.504 85.9561 136.569 89.1937C136.058 89.3785 136.262 90.0805 136.788 89.9978C146.334 88.5002 155.57 86.1477 165.249 85.3083C165.69 85.2704 165.696 84.5861 165.244 84.6099Z" fill="white"/>
<path d="M169.69 88.1739C160.959 89.6028 151.208 90.9517 143.096 94.6281C142.766 94.7772 143.015 95.2222 143.322 95.1717C147.788 94.4251 152.154 92.8701 156.552 91.7845C160.967 90.6942 165.421 89.7438 169.891 88.907C170.375 88.8158 170.166 88.0959 169.69 88.1739Z" fill="white"/>
<path d="M174.444 95.0408C166.333 96.4316 157.477 96.9711 149.651 99.5411C149.258 99.669 149.304 100.308 149.753 100.288C158.018 99.9043 166.507 97.2553 174.614 95.6633C175.025 95.5829 174.849 94.9713 174.444 95.0408Z" fill="white"/>
<path d="M179.47 99.5469C172.49 100.615 165.114 101.289 158.34 103.325C157.986 103.432 158.037 104.014 158.433 103.991C165.52 103.565 172.714 101.65 179.66 100.241C180.121 100.148 179.918 99.479 179.47 99.5469Z" fill="white"/>
<path d="M180.825 104.901C175.077 105.164 169.086 105.598 163.588 107.394C163.283 107.495 163.312 108.033 163.669 107.988C169.413 107.271 175.038 106.083 180.831 105.673C181.32 105.639 181.325 104.879 180.825 104.901Z" fill="white"/>
<path d="M179.46 108.564C176.049 108.802 172.559 108.848 169.191 109.473C168.862 109.534 168.956 110.026 169.27 110.036C172.658 110.147 176.09 109.664 179.466 109.387C179.989 109.344 179.992 108.527 179.46 108.564Z" fill="white"/>
<path d="M105.513 52.9174C104.155 55.1363 102.66 57.2755 101.287 59.4905C100.016 61.5433 98.1964 63.6495 97.7443 66.0476C97.6463 66.5679 98.1984 66.8567 98.596 66.5422C100.631 64.9328 101.744 62.0849 103.052 59.8737C104.33 57.7176 105.621 55.67 106.275 53.2362C106.397 52.779 105.758 52.5166 105.513 52.9174Z" fill="white"/>
<path d="M181.968 114.62C172.731 114.542 165.159 109.949 157.365 105.521C150.802 101.792 144.171 98.1617 137.71 94.2579C130.442 89.8657 125.349 84.1308 120.086 77.5857C117.565 74.449 100.847 55.7225 110.715 52.0129C113.659 50.9052 120.697 53.8412 123.579 54.8455C128.171 56.4473 132.535 58.5567 136.757 60.9577C143.136 64.5859 149.275 68.7539 155.132 73.178C166.734 81.9407 184.789 98.2605 180.679 114.62C180.378 115.82 182.161 116.291 182.531 115.116C187.647 98.8675 168.99 81.5776 157.766 72.8581C149.179 66.1885 139.864 60.0151 129.901 55.6022C125.371 53.5961 120.641 51.9767 115.771 51.0348C113.367 50.57 109.367 49.4361 107.041 50.635C96.5074 56.0754 123.274 85.5238 127.99 89.8727C135.447 96.749 145.604 100.963 154.39 105.842C162.9 110.566 171.809 116.823 181.979 116.016C182.864 115.946 182.879 114.628 181.968 114.62Z" fill="white"/>
<path d="M181.035 114.625C179.437 116.491 178.145 118.611 176.775 120.645C175.252 122.908 173.426 125.147 172.314 127.64C171.994 128.357 172.864 129.228 173.488 128.553C175.156 126.746 176.351 124.519 177.678 122.458C179.167 120.146 180.817 117.87 182.03 115.4C182.326 114.796 181.533 114.044 181.035 114.625Z" fill="white"/>
<path d="M97.5441 66.6946C108.229 97.1982 137.391 129.04 172.182 128.736C173.16 128.727 173.427 127.163 172.407 126.974C154.677 123.69 139.19 118.148 125.621 105.749C113.557 94.7275 105.313 80.9788 98.6505 66.2332C98.3699 65.6114 97.3169 66.0484 97.5441 66.6946Z" fill="white"/>
<path d="M166.648 144.132C166.798 145.814 167.182 147.464 167.323 149.15C167.435 150.485 167.284 152.045 168.03 153.21C168.175 153.439 168.473 153.427 168.624 153.212C169.538 151.914 169.204 150.027 169.02 148.541C168.82 146.916 168.544 145.303 167.892 143.795C167.629 143.187 166.591 143.49 166.648 144.132Z" fill="white"/>
<path d="M160.642 144.016C160.414 145.483 160.532 146.993 160.546 148.475C160.559 149.736 160.355 151.345 161.146 152.401C161.341 152.66 161.694 152.694 161.884 152.404C162.615 151.287 162.308 149.734 162.235 148.463C162.15 146.985 162.176 145.46 161.849 144.013C161.718 143.435 160.739 143.395 160.642 144.016Z" fill="white"/>
<path d="M153.286 142.613C153.09 144.243 153.088 145.89 152.918 147.525C152.769 148.952 152.343 150.454 152.784 151.855C152.909 152.254 153.371 152.259 153.602 151.964C154.552 150.74 154.572 149.007 154.678 147.512C154.798 145.816 154.853 144.117 154.576 142.435C154.444 141.634 153.367 141.947 153.286 142.613Z" fill="white"/>
<path d="M146.189 140.06C144.402 142.607 142.393 146.598 142.834 149.799C142.905 150.321 143.612 150.647 143.92 150.09C144.697 148.687 144.93 147.051 145.376 145.519C145.878 143.8 146.46 142.105 146.989 140.396C147.143 139.898 146.459 139.675 146.189 140.06Z" fill="white"/>
<path d="M138.669 136.8C136.641 138.379 134.055 141.303 134.106 144.046C134.115 144.588 134.781 144.857 135.17 144.485C136.122 143.575 136.615 142.268 137.282 141.146C138.015 139.913 138.789 138.7 139.55 137.484C139.914 136.903 139.138 136.433 138.669 136.8Z" fill="white"/>
<path d="M130.099 131.008C129.017 132.348 127.93 133.684 126.838 135.018C125.971 136.076 124.656 137.162 124.446 138.557C124.383 138.977 124.722 139.502 125.216 139.321C126.557 138.831 127.254 137.506 128.068 136.384C129.148 134.894 130.159 133.372 131.126 131.806C131.508 131.189 130.574 130.42 130.099 131.008Z" fill="white"/>
<path d="M123.604 125.243C121.119 127.162 118.191 129.675 116.88 132.579C116.72 132.936 117.054 133.342 117.435 133.136C120.279 131.601 122.579 128.476 124.338 125.813C124.656 125.332 123.991 124.944 123.604 125.243Z" fill="white"/>
<path d="M117.44 118.575C116.051 119.498 114.78 120.561 113.511 121.638C112.28 122.682 110.797 123.744 109.995 125.163C109.631 125.803 110.331 126.37 110.931 126.105C112.335 125.489 113.468 124.209 114.571 123.166C115.815 121.992 117.04 120.799 118.13 119.479C118.512 119.015 118.025 118.186 117.44 118.575Z" fill="white"/>
<path d="M110.825 110.861C109.299 111.691 107.904 112.675 106.566 113.784C105.53 114.644 103.951 115.786 103.943 117.255C103.942 117.501 104.175 117.77 104.436 117.742C105.817 117.592 106.781 116.219 107.734 115.314C108.981 114.132 110.333 113.05 111.691 111.995C112.354 111.479 111.515 110.486 110.825 110.861Z" fill="white"/>
<path d="M105.087 104.225C103.498 104.945 102.064 105.866 100.701 106.957C99.5523 107.877 97.9551 109.098 97.68 110.624C97.6079 111.027 97.9503 111.517 98.4104 111.35C99.7347 110.874 100.628 109.584 101.64 108.647C102.929 107.452 104.315 106.382 105.744 105.361C106.435 104.868 105.86 103.874 105.087 104.225Z" fill="white"/>
<path d="M99.0566 96.8816C97.535 97.2027 96.0453 98.2598 94.7664 99.1125C93.6186 99.8775 92.0923 100.741 91.6453 102.111C91.4816 102.614 91.9884 102.958 92.4265 102.889C93.7396 102.682 94.8777 101.376 95.8721 100.56C97.0343 99.6071 98.4926 98.703 99.43 97.5282C99.6669 97.2314 99.4571 96.7984 99.0566 96.8816Z" fill="white"/>
<path d="M93.9618 90.047C92.5189 90.1256 91.0843 91.0028 89.8744 91.7318C88.7619 92.4014 87.1806 93.2697 86.8086 94.6014C86.7088 94.9584 86.9984 95.3508 87.3764 95.3361C88.68 95.2879 89.8433 94.1764 90.8832 93.4791C92.0213 92.7143 93.4542 92.0492 94.3621 91.0101C94.6629 90.6655 94.4868 90.0193 93.9618 90.047Z" fill="white"/>
<path d="M90.295 83.9473C88.7987 84.3594 87.3937 84.8222 85.9593 85.4359C84.896 85.8908 83.0424 86.3383 82.7784 87.6272C82.727 87.8812 82.8151 88.1602 83.0515 88.2926C84.1681 88.9217 85.5686 87.9552 86.5981 87.4567C88.0697 86.7453 89.4041 85.9586 90.7564 85.0537C91.3082 84.6839 90.9848 83.758 90.295 83.9473Z" fill="white"/>
<path d="M103.891 56.7261C92.6457 48.8665 82.898 40.5551 74.5482 29.6131C68.3293 21.4646 62.3141 12.1642 53.0713 7.14081C46.8963 3.78423 36.8487 1.50193 32.0771 8.46557C27.58 15.0279 33.5175 21.0071 38.5164 24.8891C49.192 33.1787 61.2393 39.5429 71.7501 48.0561C81.3308 55.8161 88.4772 65.5674 94.9267 75.9822C107.228 95.8483 119.004 114.784 138.916 128.033C148.101 134.144 160.406 139.335 171.617 136.343C178.783 134.431 185.041 126.702 180 119.647C179.269 118.625 177.679 119.491 178.285 120.637C183.577 130.64 171.037 134.986 163.439 134.673C155.773 134.357 148.561 131.301 142.116 127.311C132.021 121.06 122.689 112.376 115.326 103.055C101.641 85.7348 93.5605 64.4669 76.7781 49.5786C68.563 42.2907 59.0871 36.6693 49.9663 30.624C44.7663 27.1781 36.6458 23.1953 33.7483 17.3999C28.5374 6.97324 40.6152 4.92957 46.776 6.51547C49.9409 7.33038 52.8952 8.92122 55.5616 10.7828C64.7087 17.1678 70.4697 27.1538 77.5452 35.5263C84.8461 44.165 93.3897 52.2048 103.142 58.001C103.972 58.494 104.662 57.2639 103.891 56.7261Z" fill="white"/>
<path d="M26.9253 14.0356C27.7195 33.2699 48.8705 39.5253 62.5326 47.9511C72.655 54.1943 80.0823 63.5667 85.6248 73.9772C90.6991 83.5073 94.1443 93.4815 100.531 102.314C112.002 118.178 127.389 132.331 144.991 141.14C152.328 144.812 160.97 147.462 168.977 144.362C175.015 142.025 180.003 136.765 179.893 130.053C179.877 129.041 178.277 128.764 178.071 129.82C172.971 155.944 141.354 137.421 129.193 128.252C114.79 117.393 101.952 103.267 94.0722 86.9607C87.1696 72.6782 80.6439 58.411 67.3742 48.8246C53.3478 38.6931 30.6631 34.4009 28.072 14.0267C27.9817 13.3179 26.8947 13.2792 26.9253 14.0356Z" fill="white"/>
</svg>
