<svg width="357" height="353" viewBox="0 0 357 353" fill="none" xmlns="http://www.w3.org/2000/svg">
<path d="M79.1599 112.313C79.3452 113.365 79.6039 114.526 80.1279 115.468C80.2439 115.674 80.6146 115.593 80.5946 115.341C80.5066 114.241 80.0679 113.118 79.6266 112.116C79.5026 111.833 79.1146 112.049 79.1599 112.313Z" fill="#CACACA"/>
<path d="M85.2277 113.135C85.1584 114.397 85.3477 115.973 86.337 116.867C86.5237 117.037 86.8264 116.873 86.7637 116.618C86.461 115.409 85.961 114.423 85.9984 113.135C86.013 112.637 85.2544 112.642 85.2277 113.135Z" fill="#CACACA"/>
<path d="M91.8572 111.81C91.9732 113.153 91.9638 114.595 92.3158 115.901C92.4158 116.273 92.9518 116.182 92.9705 115.813C93.0345 114.493 92.7238 113.117 92.5545 111.81C92.4985 111.377 91.8172 111.355 91.8572 111.81Z" fill="#CACACA"/>
<path d="M95.9026 112.246C95.864 113.871 95.6453 115.622 95.9613 117.225C96.0253 117.549 96.5506 117.549 96.6146 117.225C96.9306 115.622 96.7119 113.87 96.6733 112.246C96.6613 111.75 95.9146 111.75 95.9026 112.246Z" fill="#CACACA"/>
<path d="M101.969 113.888C101.563 115.869 101.089 118.374 101.865 120.309C101.946 120.512 102.297 120.578 102.347 120.309C102.726 118.289 102.421 116.156 102.742 114.101C102.821 113.602 102.074 113.374 101.969 113.888Z" fill="#CACACA"/>
<path d="M106.573 113.585C106.339 115.522 106.022 118.172 106.939 119.986C107.047 120.201 107.442 120.168 107.482 119.914C107.635 118.94 107.435 117.941 107.39 116.958C107.339 115.833 107.347 114.708 107.417 113.585C107.451 113.033 106.637 113.058 106.573 113.585Z" fill="#CACACA"/>
<path d="M111.569 113.491C111.373 114.793 111.193 116.098 111.101 117.411C111.023 118.553 110.851 119.769 111.349 120.823C111.425 120.982 111.709 120.991 111.781 120.823C112.207 119.831 112.077 118.751 112.097 117.685C112.124 116.317 112.181 114.954 112.307 113.591C112.344 113.175 111.633 113.073 111.569 113.491Z" fill="#CACACA"/>
<path d="M117.288 113.929C116.945 115.885 116.784 118.61 117.776 120.409C117.937 120.701 118.332 120.541 118.358 120.252C118.452 119.242 118.198 118.164 118.113 117.154C118.025 116.11 118.029 115.072 118.004 114.026C117.994 113.633 117.361 113.509 117.288 113.929Z" fill="#CACACA"/>
<path d="M122.443 113.142C122.489 115.934 122.12 119.449 123.02 122.11C123.112 122.38 123.543 122.425 123.613 122.11C124.224 119.361 123.487 115.924 123.235 113.142C123.189 112.644 122.433 112.624 122.443 113.142Z" fill="#CACACA"/>
<path d="M129.166 114.469C129.13 116.773 128.752 119.41 129.353 121.653C129.424 121.915 129.816 121.917 129.886 121.653C130.488 119.409 130.109 116.771 130.073 114.469C130.064 113.886 129.176 113.885 129.166 114.469Z" fill="#CACACA"/>
<path d="M133.129 114.474C133.265 117.278 133.156 120.257 133.72 123.013C133.809 123.456 134.436 123.317 134.467 122.912C134.671 120.144 134.183 117.238 133.963 114.474C133.921 113.945 133.104 113.933 133.129 114.474Z" fill="#CACACA"/>
<path d="M138.134 116.137C137.696 118.462 137.562 121.548 139.075 123.536C139.232 123.741 139.656 123.714 139.628 123.385C139.534 122.254 139.17 121.168 139.022 120.042C138.856 118.773 138.864 117.525 139.023 116.257C139.087 115.754 138.227 115.636 138.134 116.137Z" fill="#CACACA"/>
<path d="M143.483 115.694C143.1 118.501 142.787 122.362 144.464 124.834C144.6 125.034 144.926 124.966 144.93 124.708C144.951 123.236 144.475 121.766 144.323 120.302C144.167 118.802 144.186 117.31 144.332 115.81C144.379 115.33 143.548 115.212 143.483 115.694Z" fill="#CACACA"/>
<path d="M148.738 116.247C148.749 118.737 148.649 121.478 149.34 123.891C149.457 124.299 150.066 124.215 150.077 123.791C150.136 121.293 149.637 118.751 149.541 116.247C149.521 115.733 148.736 115.729 148.738 116.247Z" fill="#CACACA"/>
<path d="M154.004 118.913C154.012 120.717 154.172 123.638 155.688 124.869C155.867 125.013 156.187 124.935 156.177 124.666C156.141 123.775 155.7 122.966 155.443 122.121C155.121 121.071 154.963 120.009 154.921 118.913C154.899 118.326 154.001 118.321 154.004 118.913Z" fill="#CACACA"/>
<path d="M159.627 117.105C159.863 119.525 159.891 122.521 160.827 124.785C160.975 125.139 161.451 125.087 161.492 124.694C161.754 122.249 160.935 119.381 160.476 116.99C160.386 116.517 159.58 116.617 159.627 117.105Z" fill="#CACACA"/>
<path d="M165.213 116.692C165.152 118.918 164.934 121.242 165.284 123.45C165.336 123.784 165.904 123.784 165.956 123.45C166.305 121.241 166.086 118.917 166.026 116.692C166.012 116.169 165.228 116.168 165.213 116.692Z" fill="#CACACA"/>
<path d="M166.936 118.469C166.928 119.937 166.732 121.568 167.063 123.006C167.139 123.338 167.659 123.338 167.736 123.006C168.065 121.568 167.869 119.936 167.863 118.469C167.86 117.873 166.939 117.872 166.936 118.469Z" fill="#CACACA"/>
<path d="M254.143 128.692C254.17 127.43 254.18 126.157 254.352 124.905C254.411 124.48 253.82 124.393 253.767 124.825C253.414 127.686 253.175 131.276 253.763 134.108C253.826 134.405 254.304 134.406 254.366 134.108C254.955 131.272 254.715 127.684 254.363 124.825C254.31 124.4 253.718 124.473 253.778 124.905C253.948 126.157 253.959 127.429 253.987 128.692C253.988 128.792 254.14 128.792 254.143 128.692Z" fill="#CACACA"/>
<path d="M256.823 123.361C256.584 126.312 256.471 129.466 257.192 132.362C257.304 132.814 258.056 132.733 258.02 132.25C257.799 129.253 257.408 126.378 257.593 123.361C257.624 122.862 256.863 122.87 256.823 123.361Z" fill="#CACACA"/>
<path d="M259.579 124.613C259.254 126.846 258.886 130.625 260.502 132.457C260.671 132.649 260.973 132.486 260.982 132.258C261.029 131.15 260.49 130.056 260.305 128.958C260.066 127.54 260.057 126.126 260.213 124.698C260.253 124.34 259.631 124.252 259.579 124.613Z" fill="#CACACA"/>
<path d="M261.828 127.424C262.108 128.55 262.39 129.678 262.67 130.805C262.912 131.782 263.014 132.9 263.607 133.722C263.781 133.962 264.122 133.87 264.151 133.576C264.249 132.574 263.77 131.536 263.49 130.58C263.163 129.465 262.838 128.349 262.511 127.234C262.385 126.797 261.719 126.98 261.828 127.424Z" fill="#CACACA"/>
<path d="M264.295 128.698C264.415 129.813 264.535 130.927 264.655 132.042C264.752 132.941 264.767 133.822 265.155 134.647C265.263 134.877 265.66 134.823 265.707 134.575C265.876 133.678 265.668 132.818 265.538 131.923C265.376 130.814 265.214 129.705 265.052 128.595C264.99 128.17 264.248 128.265 264.295 128.698Z" fill="#CACACA"/>
<path d="M267.491 129.477C267.347 130.535 267.279 131.594 267.346 132.662C267.397 133.475 267.377 134.518 267.99 135.113C268.127 135.246 268.329 135.174 268.39 135.007C268.683 134.214 268.305 133.294 268.238 132.47C268.161 131.505 268.189 130.546 268.289 129.585C268.335 129.134 267.553 129.023 267.491 129.477Z" fill="#CACACA"/>
<path d="M270.112 130.025C270.083 131.825 270.28 134.239 271.527 135.646C271.787 135.938 272.203 135.621 272.136 135.291C271.968 134.445 271.539 133.675 271.311 132.841C271.057 131.918 270.932 130.981 270.904 130.025C270.888 129.515 270.12 129.513 270.112 130.025Z" fill="#CACACA"/>
<path d="M273.096 130.034C273.19 130.853 273.283 131.671 273.376 132.489C273.45 133.126 273.43 133.743 273.838 134.255C273.96 134.41 274.274 134.371 274.354 134.189C274.615 133.587 274.435 132.991 274.34 132.358C274.219 131.545 274.098 130.73 273.976 129.915C273.902 129.421 273.039 129.531 273.096 130.034Z" fill="#CACACA"/>
<path d="M275.387 131.358C275.383 132.102 275.279 132.957 275.504 133.674C275.608 134.01 276.081 134.01 276.187 133.674C276.411 132.957 276.307 132.102 276.303 131.358C276.3 130.768 275.389 130.768 275.387 131.358Z" fill="#CACACA"/>
<path d="M56.7579 144.242C55.9806 150.058 55.5606 155.927 55.1899 161.782C54.8246 167.559 54.1859 173.581 54.6619 179.358C54.6899 179.697 55.2512 179.838 55.3059 179.446C56.0779 173.854 55.9672 168.069 56.2899 162.433C56.6366 156.365 57.1672 150.309 57.4966 144.242C57.5232 143.754 56.8179 143.785 56.7579 144.242Z" fill="#CACACA"/>
<path d="M61.8644 139.358C61.4497 147.05 61.447 154.77 61.2457 162.47C61.0457 170.153 60.4177 177.889 60.5337 185.57C60.5417 186.132 61.3297 186.105 61.387 185.57C62.2097 177.941 62.1604 170.137 62.355 162.47C62.551 154.78 62.7737 147.048 62.4377 139.358C62.4217 138.989 61.8844 138.99 61.8644 139.358Z" fill="#CACACA"/>
<path d="M69.0654 135.789C69.2974 144.381 69.5467 152.97 69.508 161.568C69.468 170.161 68.8921 178.754 68.8867 187.342C68.8867 187.93 69.724 187.905 69.7827 187.342C70.66 178.832 70.5907 170.117 70.5921 161.568C70.5921 152.973 70.424 144.365 69.8467 135.789C69.8134 135.292 69.0521 135.281 69.0654 135.789Z" fill="#CACACA"/>
<path d="M77.9355 132.685C78.0008 142.03 78.3354 151.368 78.2141 160.716C78.0928 170.077 77.2261 179.353 76.7661 188.692C76.7435 189.145 77.5088 189.264 77.5741 188.801C78.8608 179.764 79.0581 170.457 79.2088 161.341C79.3661 151.796 79.2354 142.206 78.5194 132.685C78.4914 132.314 77.9328 132.304 77.9355 132.685Z" fill="#CACACA"/>
<path d="M85.1929 134.026C86.1502 152.784 86.2156 171.27 85.1689 190.025C85.1356 190.616 86.0129 190.592 86.0755 190.025C88.1275 171.51 87.6409 152.553 86.0049 134.026C85.9596 133.513 85.1662 133.498 85.1929 134.026Z" fill="#CACACA"/>
<path d="M94.2797 134.018C94.2984 143.5 94.6623 152.978 94.673 162.461C94.6837 171.936 94.1344 181.437 94.301 190.905C94.3117 191.484 95.1357 191.465 95.1864 190.905C96.0317 181.5 95.841 171.898 95.8197 162.461C95.7984 152.993 95.7464 143.464 95.0197 134.018C94.9837 133.55 94.2797 133.537 94.2797 134.018Z" fill="#CACACA"/>
<path d="M102.461 132.696C102.957 152.253 103.029 171.801 103.377 191.357C103.388 191.936 104.249 191.933 104.273 191.357C105.088 171.885 104.516 152.137 103.262 132.696C103.23 132.185 102.448 132.174 102.461 132.696Z" fill="#CACACA"/>
<path d="M113.378 134.916C112.725 144.372 112.824 153.905 113.012 163.376C113.198 172.837 113.412 182.39 114.382 191.809C114.444 192.409 115.36 192.437 115.34 191.809C115.052 182.328 114.406 172.864 114.213 163.376C114.02 153.889 114.21 144.402 114.056 134.916C114.049 134.477 113.409 134.485 113.378 134.916Z" fill="#CACACA"/>
<path d="M122.1 135.358C122.022 155.178 120.886 175.101 121.536 194.913C121.559 195.597 122.575 195.598 122.599 194.913C123.268 175.102 122.983 155.178 122.923 135.358C122.922 134.827 122.103 134.827 122.1 135.358Z" fill="#CACACA"/>
<path d="M130.983 137.137C131.384 146.755 131.387 156.39 131.271 166.014C131.155 175.61 130.463 185.327 130.911 194.913C130.94 195.547 131.843 195.538 131.891 194.913C132.619 185.35 132.428 175.603 132.492 166.014C132.556 156.378 132.415 146.753 131.754 137.137C131.72 136.647 130.962 136.638 130.983 137.137Z" fill="#CACACA"/>
<path d="M139.009 136.691C139.614 146.675 140.066 156.671 140.382 166.67C140.697 176.654 140.445 186.726 141.081 196.691C141.125 197.383 142.135 197.393 142.163 196.691C142.558 186.735 141.961 176.623 141.61 166.67C141.259 156.659 140.693 146.666 139.79 136.691C139.746 136.197 138.978 136.183 139.009 136.691Z" fill="#CACACA"/>
<path d="M147.761 138.016C147.477 147.69 148.181 157.461 148.491 167.133C148.803 176.838 149.148 186.544 149.44 196.249C149.46 196.938 150.536 196.941 150.512 196.249C150.177 186.545 149.896 176.838 149.58 167.133C149.265 157.457 149.333 147.657 148.428 138.016C148.388 137.596 147.775 137.58 147.761 138.016Z" fill="#CACACA"/>
<path d="M155.662 138.03C155.091 148.089 154.969 158.176 154.91 168.249C154.85 178.258 154.413 188.49 155.195 198.472C155.243 199.082 156.129 199.096 156.154 198.472C156.561 188.44 155.971 178.297 156.033 168.249C156.094 158.176 156.361 148.104 156.413 138.03C156.415 137.545 155.69 137.552 155.662 138.03Z" fill="#CACACA"/>
<path d="M163.222 138.915C161.949 148.481 162.655 158.647 162.913 168.274C163.173 178.055 163.661 187.841 164.485 197.591C164.543 198.279 165.619 198.29 165.569 197.591C164.859 187.827 164.289 178.062 164.034 168.274C163.781 158.546 164.533 148.602 163.743 138.915C163.715 138.574 163.266 138.587 163.222 138.915Z" fill="#CACACA"/>
<path d="M170.553 151.814C170.276 159.705 171.084 167.695 171.449 175.578C171.793 182.971 171.418 190.83 172.642 198.126C172.713 198.546 173.305 198.402 173.337 198.031C174.014 190.29 172.88 182.019 172.488 174.258C172.112 166.787 172.044 159.167 170.932 151.763C170.898 151.541 170.561 151.606 170.553 151.814Z" fill="#CACACA"/>
<path d="M180.014 151.802C179.558 159.787 179.686 167.815 179.82 175.809C179.952 183.777 179.914 191.87 180.712 199.803C180.768 200.365 181.606 200.391 181.608 199.803C181.625 191.813 181.028 183.801 180.877 175.809C180.728 167.809 180.845 159.801 180.609 151.802C180.597 151.418 180.037 151.422 180.014 151.802Z" fill="#CACACA"/>
<path d="M185.658 146.92C185.77 155.96 186.144 164.986 186.054 174.03C186.012 178.441 185.9 182.85 185.718 187.257C185.53 191.845 184.937 196.544 185.133 201.128C185.15 201.534 185.797 201.67 185.88 201.229C187.468 192.681 187.073 183.366 187.145 174.692C187.222 165.442 187.145 156.133 186.262 146.92C186.226 146.54 185.653 146.524 185.658 146.92Z" fill="#CACACA"/>
<path d="M282.434 189.15C284.846 230.48 287.3 271.904 290.813 313.155C290.87 313.821 291.902 313.838 291.865 313.155C289.65 271.804 286.357 230.428 283.04 189.15C283.008 188.768 282.412 188.76 282.434 189.15Z" fill="#CACACA"/>
<path d="M297.2 165.146C298.567 188.051 300.709 210.917 302.639 233.779C304.569 256.642 306.057 279.597 308.487 302.411C308.552 303.025 309.504 303.05 309.465 302.411C308.071 279.515 305.72 256.639 303.823 233.779C301.924 210.897 300.232 187.977 297.773 165.146C297.735 164.787 297.177 164.773 297.2 165.146Z" fill="#CACACA"/>
<path d="M315.109 157.138C315.316 179.812 316.372 202.496 317.328 225.148C317.801 236.369 318.308 247.59 318.871 258.808C319.444 270.221 319.688 281.738 320.763 293.116C320.827 293.79 321.848 293.818 321.836 293.116C321.633 281.686 320.661 270.228 320.109 258.808C319.567 247.589 319.044 236.369 318.564 225.148C317.597 202.482 317.043 179.796 315.943 157.138C315.917 156.606 315.104 156.598 315.109 157.138Z" fill="#CACACA"/>
<path d="M330.73 174.462C330.857 192.881 332.604 211.398 333.653 229.785C334.167 238.786 334.672 247.788 335.194 256.789C335.742 266.201 335.907 275.738 336.957 285.109C337.021 285.686 337.885 285.721 337.884 285.109C337.861 275.904 336.956 266.637 336.437 257.448C335.917 248.226 335.379 239.006 334.848 229.785C333.788 211.389 333.404 192.785 331.429 174.462C331.381 174.026 330.728 174.002 330.73 174.462Z" fill="#CACACA"/>
<path d="M327.819 291.136C328.099 278.265 327.296 265.264 326.444 252.424C325.59 239.542 324.45 226.637 322.755 213.836C322.739 213.72 322.555 213.714 322.567 213.836C323.787 226.692 324.963 239.533 325.755 252.424C326.548 265.324 326.727 278.236 327.38 291.136C327.395 291.416 327.812 291.42 327.819 291.136Z" fill="#CACACA"/>
<path d="M286.494 315.938C286.655 310.739 285.982 305.416 285.615 300.229C285.23 294.773 284.85 289.318 284.447 283.863C283.705 273.805 283.286 263.645 281.835 253.657C281.802 253.425 281.413 253.478 281.426 253.711C282.041 264.205 282.943 274.69 283.711 285.173C284.455 295.325 284.494 305.945 286.29 315.966C286.311 316.086 286.491 316.051 286.494 315.938Z" fill="#CACACA"/>
<path d="M291.107 233.135C291.177 225.126 290.713 217.098 290.153 209.113C289.629 201.655 289.433 193.719 287.783 186.417C287.73 186.182 287.358 186.234 287.363 186.474C287.545 194.205 288.963 202.035 289.551 209.761C290.146 217.546 290.406 225.341 290.817 233.135C290.826 233.322 291.106 233.325 291.107 233.135Z" fill="#CACACA"/>
<path d="M320.577 204.457C320.039 196.689 319.471 188.923 318.856 181.161C318.276 173.827 318.019 166.371 316.884 159.099C316.845 158.847 316.443 158.911 316.445 159.159C316.525 166.703 317.541 174.294 318.199 181.807C318.859 189.361 319.564 196.91 320.296 204.457C320.313 204.634 320.591 204.638 320.577 204.457Z" fill="#CACACA"/>
<path d="M313.758 199.797C312.907 192.603 312.147 185.398 311.553 178.179C310.959 170.975 311.091 163.619 310.181 156.458C310.154 156.249 309.862 156.239 309.847 156.458C309.329 163.817 310.29 171.499 310.937 178.837C311.558 185.865 312.431 192.859 313.563 199.823C313.581 199.931 313.771 199.907 313.758 199.797Z" fill="#CACACA"/>
<path d="M306.652 216.462C306.513 198.518 305.153 180.317 302.848 162.521C302.792 162.086 302.105 162.069 302.151 162.521C303.935 180.502 305.24 198.426 306.308 216.462C306.321 216.682 306.653 216.686 306.652 216.462Z" fill="#CACACA"/>
<path d="M297.629 221.81C297.159 213.034 296.677 204.26 296.143 195.486C295.89 191.317 295.637 187.149 295.383 182.981C295.131 178.848 295.229 174.474 294.391 170.413C294.334 170.134 293.939 170.222 293.921 170.477C293.602 174.793 294.307 179.322 294.605 183.64C294.891 187.808 295.178 191.976 295.466 196.144C296.055 204.702 296.697 213.257 297.347 221.81C297.362 221.989 297.639 221.993 297.629 221.81Z" fill="#CACACA"/>
<path d="M45.0892 245.69C45.9612 246.278 46.8012 246.773 47.5438 247.537C48.2292 248.243 48.6612 249.114 49.2892 249.854C49.5145 250.118 49.8718 249.826 49.8212 249.545C49.4705 247.613 47.1598 245.611 45.3305 245.119C44.9785 245.025 44.8012 245.497 45.0892 245.69Z" fill="#CACACA"/>
<path d="M47.2471 241.265C47.8671 241.818 48.4991 242.349 49.1458 242.871C49.6964 243.317 50.2484 243.809 50.9058 244.082C51.2764 244.237 51.4351 243.727 51.2511 243.49C50.8138 242.93 50.1365 242.515 49.5631 242.102C48.9271 241.642 48.2845 241.202 47.6258 240.774C47.3311 240.583 46.9804 241.027 47.2471 241.265Z" fill="#CACACA"/>
<path d="M49.6698 236.482C50.3911 236.218 51.2391 236.204 51.9751 236.42C52.7018 236.63 53.2284 237.105 53.8804 237.444C54.2071 237.613 54.4991 237.28 54.3578 236.966C53.5431 235.161 50.9204 235.206 49.4044 235.854C49.0497 236.006 49.3044 236.617 49.6698 236.482Z" fill="#CACACA"/>
<path d="M52.9995 230.329C53.8515 230.931 54.7662 231.779 55.7675 232.105C56.1048 232.214 56.2955 231.782 56.0915 231.547C55.4062 230.758 54.2475 230.243 53.3675 229.698C52.9622 229.447 52.6222 230.062 52.9995 230.329Z" fill="#CACACA"/>
<path d="M56.5542 225.837C57.1089 226.074 57.5755 226.39 58.0182 226.802C58.4262 227.182 58.7222 227.653 59.1182 228.042C59.2835 228.203 59.6435 228.098 59.6155 227.835C59.4662 226.446 58.1022 225.479 56.8996 225.018C56.4302 224.838 56.0875 225.637 56.5542 225.837Z" fill="#CACACA"/>
<path d="M59.6175 218.87C60.3508 219.29 61.0388 219.804 61.6388 220.4C62.2068 220.965 62.5815 221.737 63.1722 222.26C63.4388 222.496 63.8042 222.262 63.7455 221.925C63.6042 221.11 62.8522 220.318 62.2762 219.762C61.6015 219.108 60.8468 218.616 59.9855 218.241C59.5668 218.058 59.2002 218.63 59.6175 218.87Z" fill="#CACACA"/>
<path d="M40.7273 255.213C42.9366 255.179 44.5526 256.477 45.8099 258.166C45.9686 258.379 46.3286 258.263 46.2579 257.978C45.6686 255.586 43.0246 254.341 40.7273 254.546C40.3073 254.585 40.2913 255.219 40.7273 255.213Z" fill="#CACACA"/>
<path d="M37.2802 263.728C38.0055 264.298 38.7335 264.862 39.4655 265.425C40.2482 266.025 41.0362 266.738 41.9335 267.156C42.3029 267.328 42.6655 266.902 42.3762 266.584C41.7668 265.912 40.9308 265.401 40.1935 264.88C39.3722 264.301 38.5495 263.725 37.7215 263.156C37.3855 262.924 36.9535 263.47 37.2802 263.728Z" fill="#CACACA"/>
<path d="M41.5437 250.742C43.5597 251.52 45.177 252.805 46.8263 254.162C47.0437 254.341 47.3717 254.121 47.2263 253.853C46.1183 251.798 43.9557 250.574 41.721 250.1C41.2957 250.01 41.1477 250.59 41.5437 250.742Z" fill="#CACACA"/>
<path d="M33.3143 273.174C36.0317 272.578 38.2383 273.238 40.773 274.145C41.105 274.263 41.413 273.761 41.1277 273.535C38.9117 271.782 35.729 271.702 33.1343 272.521C32.717 272.651 32.8877 273.267 33.3143 273.174Z" fill="#CACACA"/>
<path d="M30.8009 281.873C33.3943 279.739 36.6729 280.334 39.1463 282.273C39.4036 282.475 39.8663 282.215 39.6449 281.887C37.5663 278.802 32.8249 279.006 30.3436 281.415C30.0396 281.711 30.4863 282.131 30.8009 281.873Z" fill="#CACACA"/>
<path d="M26.7132 293.033C30.4519 291.098 34.0359 291.258 38.0599 291.884C38.3292 291.925 38.5425 291.558 38.2612 291.408C34.5065 289.401 29.8585 290.338 26.3919 292.484C26.0425 292.7 26.3492 293.221 26.7132 293.033Z" fill="#CACACA"/>
<path d="M26.7072 304.809C29.3939 301.314 32.9806 300.188 37.2619 300.68C37.5126 300.709 37.6126 300.31 37.3912 300.205C33.4046 298.293 28.0353 300.594 26.2673 304.55C26.1313 304.854 26.5072 305.067 26.7072 304.809Z" fill="#CACACA"/>
<path d="M27.1748 315.862C29.3348 310.194 33.4348 307.461 39.0215 305.73C39.3521 305.629 39.2908 305.135 38.9401 305.128C33.1828 304.978 27.8134 310.354 26.7134 315.735C26.6508 316.041 27.0654 316.149 27.1748 315.862Z" fill="#CACACA"/>
<path d="M32.0748 324.274C31.4028 318.29 34.4522 313.967 39.9602 311.828C40.2962 311.697 40.2922 311.109 39.8669 311.142C33.9815 311.598 29.6188 318.882 31.4108 324.364C31.5215 324.705 32.1202 324.673 32.0748 324.274Z" fill="#CACACA"/>
<path d="M39.7798 331.865C38.2972 326.2 41.2225 322.03 46.5665 320.35C46.8492 320.262 46.8012 319.833 46.4959 319.829C40.4065 319.752 36.7745 326.897 39.3505 332.045C39.4718 332.288 39.8452 332.117 39.7798 331.865Z" fill="#CACACA"/>
<path d="M49.5991 338.076C49.2871 336.254 49.0004 334.652 49.5724 332.833C50.135 331.045 51.2737 329.833 52.5924 328.571C52.9164 328.262 52.5057 327.786 52.1324 327.974C48.8057 329.65 47.0524 335.079 49.0657 338.299C49.2484 338.593 49.6537 338.393 49.5991 338.076Z" fill="#CACACA"/>
<path d="M60.127 342.381C58.5457 338.128 59.8937 334.442 62.763 331.182C62.9803 330.937 62.7096 330.564 62.4096 330.725C58.3483 332.909 57.4803 338.822 59.6697 342.573C59.8083 342.81 60.2283 342.653 60.127 342.381Z" fill="#CACACA"/>
<path d="M71.4859 333.361C69.2419 336.555 68.6139 341.26 71.1526 344.481C71.3366 344.714 71.7646 344.461 71.6579 344.188C70.2619 340.583 69.8446 337.106 72.0619 333.697C72.2992 333.334 71.7299 333.014 71.4859 333.361Z" fill="#CACACA"/>
<path d="M82.1417 336.353C79.2844 339.45 78.1657 344.688 80.3537 348.44C80.5097 348.709 80.8764 348.518 80.8297 348.24C80.0924 343.945 80.2697 340.511 82.5991 336.706C82.7711 336.428 82.3684 336.107 82.1417 336.353Z" fill="#CACACA"/>
<path d="M91.9905 338.298C89.9585 341.076 88.8918 346.16 90.7505 349.258C90.8812 349.476 91.2065 349.377 91.2172 349.131C91.2892 347.416 90.9172 345.729 91.0518 344.001C91.2012 342.062 91.8305 340.313 92.4478 338.49C92.5452 338.202 92.1465 338.085 91.9905 338.298Z" fill="#CACACA"/>
<path d="M99.5586 338.379C98.9386 341.874 98.9159 345.922 100.18 349.285C100.331 349.686 101.061 349.677 100.999 349.174C100.549 345.537 100.076 342.164 100.295 338.479C100.32 338.062 99.6319 337.959 99.5586 338.379Z" fill="#CACACA"/>
<path d="M106.141 337.35C106.931 339.174 107.681 341.023 108.213 342.941C108.633 344.455 108.725 346.104 109.425 347.514C109.547 347.762 109.982 347.712 110.034 347.434C110.661 344.105 108.509 339.734 106.823 336.95C106.553 336.503 105.942 336.894 106.141 337.35Z" fill="#CACACA"/>
<path d="M114.829 334.413C117.288 337.636 117.96 340.913 118.663 344.795C118.729 345.157 119.331 345.157 119.396 344.795C120.101 340.891 118.115 336.698 115.524 333.877C115.192 333.514 114.52 334.009 114.829 334.413Z" fill="#CACACA"/>
<path d="M121.969 329.941C126.617 331.821 128.118 336.011 128.154 340.658C128.158 341.153 128.825 341.206 128.983 340.77C130.735 335.931 126.694 330.531 122.193 329.126C121.663 328.961 121.479 329.742 121.969 329.941Z" fill="#CACACA"/>
<path d="M126.953 324.955C129.196 325.174 131.193 326.236 132.542 328.066C133.8 329.773 133.885 331.546 134.08 333.564C134.11 333.871 134.568 334.085 134.73 333.74C136.856 329.221 131.3 323.983 126.953 324.413C126.605 324.446 126.604 324.92 126.953 324.955Z" fill="#CACACA"/>
<path d="M133.618 319.757C135.911 319.649 137.915 320.288 139.583 321.913C141.263 323.55 141.394 325.318 141.997 327.436C142.099 327.798 142.554 327.742 142.679 327.436C143.586 325.206 141.846 322.378 140.242 320.91C138.453 319.271 135.906 318.353 133.506 318.929C133.049 319.038 133.139 319.779 133.618 319.757Z" fill="#CACACA"/>
<path d="M140.914 314.186C142.824 313.877 144.622 313.983 146.308 315.037C147.952 316.065 148.572 317.481 149.49 319.078C149.706 319.454 150.291 319.285 150.295 318.86C150.34 314.534 144.138 311.807 140.592 313.425C140.13 313.637 140.486 314.255 140.914 314.186Z" fill="#CACACA"/>
<path d="M145.629 306.414C147.441 306.209 149.172 306.716 150.55 307.931C151.902 309.126 152.34 310.638 152.754 312.325C152.83 312.633 153.285 312.621 153.368 312.325C154.52 308.182 149.156 304.649 145.532 305.698C145.153 305.807 145.206 306.462 145.629 306.414Z" fill="#CACACA"/>
<path d="M151.854 299.37C153.676 299.324 155.459 299.56 157.115 300.368C158.511 301.048 159.547 302.146 160.819 302.994C161.028 303.133 161.359 302.898 161.263 302.653C159.931 299.222 155.028 297.938 151.752 298.613C151.324 298.701 151.423 299.381 151.854 299.37Z" fill="#CACACA"/>
<path d="M155.126 292.097C158.348 290.683 161.383 292.393 163.283 295.005C163.478 295.273 163.922 295.123 163.835 294.773C162.904 290.991 157.891 289.878 154.816 291.566C154.462 291.761 154.774 292.253 155.126 292.097Z" fill="#CACACA"/>
<path d="M160.533 286.882C163.207 285.498 166.369 287.382 167.16 290.101C167.256 290.433 167.783 290.378 167.773 290.017C167.676 286.357 163.109 284.442 160.155 286.234C159.74 286.486 160.105 287.103 160.533 286.882Z" fill="#CACACA"/>
<path d="M164.693 279.445C166.021 279.386 167.264 279.721 168.323 280.546C169.333 281.333 169.779 282.409 170.425 283.463C170.571 283.699 170.883 283.578 170.911 283.331C171.264 280.255 167.159 278.274 164.605 278.79C164.237 278.865 164.319 279.461 164.693 279.445Z" fill="#CACACA"/>
<path d="M168.737 273.068C171.471 272.708 173.235 274.276 174.645 276.409C174.786 276.622 175.195 276.565 175.17 276.268C174.907 273.294 171.266 271.718 168.643 272.372C168.266 272.466 168.334 273.121 168.737 273.068Z" fill="#CACACA"/>
<path d="M171.034 265.469C172.275 265.058 173.584 265.144 174.776 265.686C175.922 266.209 176.619 267.128 177.496 267.976C177.735 268.206 178.052 267.965 178.01 267.677C177.554 264.597 173.254 263.705 170.798 264.616C170.272 264.81 170.486 265.65 171.034 265.469Z" fill="#CACACA"/>
<path d="M175.08 259.818C176.032 259.684 176.97 259.752 177.872 260.096C178.718 260.417 179.335 261.012 180.08 261.488C180.451 261.724 180.798 261.273 180.636 260.932C179.703 258.948 176.751 258.405 174.852 258.996C174.314 259.162 174.55 259.894 175.08 259.818Z" fill="#CACACA"/>
<path d="M175.894 252.917C178.592 252.249 180.452 253.137 182.794 254.314C183.093 254.465 183.554 254.126 183.308 253.801C181.62 251.573 178.152 251.27 175.693 252.185C175.241 252.353 175.412 253.037 175.894 252.917Z" fill="#CACACA"/>
<path d="M179.49 245.307C180.682 244.675 182.079 244.567 183.365 244.975C184.601 245.367 185.421 246.263 186.394 247.055C186.586 247.213 186.847 247.066 186.803 246.818C186.219 243.546 181.397 243.195 179.107 244.65C178.694 244.913 179.057 245.537 179.49 245.307Z" fill="#CACACA"/>
<path d="M184.048 236.817C185.724 236.181 187.335 237.07 188.123 238.614C188.279 238.921 188.771 238.774 188.763 238.441C188.704 236.105 185.634 234.796 183.728 236.056C183.358 236.3 183.583 236.993 184.048 236.817Z" fill="#CACACA"/>
<path d="M216.882 62.8756C213.01 61.929 203.682 61.6143 202.844 67.2183C202.389 70.2516 205.662 73.1823 207.333 75.2903C209.34 77.8223 211.645 82.305 215.124 83.0183C220.18 84.0543 227.668 76.7716 230.136 73.053C234.388 66.649 222.692 64.121 218.366 63.5276C217.16 63.3623 216.717 64.8916 217.862 65.3556C220.088 66.257 222.389 66.905 224.617 67.805C227.625 69.021 229.34 69.7116 226.78 73.433C225.18 75.7596 220.681 79.7276 217.716 80.3556C213.013 81.3503 209.909 75.2036 207.582 72.261C201.308 64.3263 211.425 64.257 216.724 64.041C217.373 64.0156 217.556 63.0396 216.882 62.8756Z" fill="#CACACA"/>
<path d="M215.658 63.8633C209.45 55.166 203.423 50.2393 192.511 50.2833C184.124 50.3167 174.139 52.8633 169.038 60.0153C168.34 60.994 169.772 61.7993 170.559 61.19C177.299 55.9646 183.767 52.806 192.511 52.7473C196.787 52.718 200.789 53.214 204.469 55.4447C208.404 57.8313 211.287 61.5806 214.872 64.4686C215.273 64.7926 216.016 64.366 215.658 63.8633Z" fill="#CACACA"/>
<path d="M185.206 65.5128C178.64 61.2808 170.421 63.9262 166.286 70.2155C165.841 70.8928 166.428 71.8288 167.205 71.8168C170.105 71.7715 173.604 70.6208 176.346 71.6635C176.188 71.0621 176.029 70.4621 175.87 69.8608C169.753 75.0915 164.104 80.5568 164.121 89.1008C164.122 89.8581 165.08 90.5608 165.769 90.0462C168.502 88.0008 171.222 86.8128 174.624 86.2195C174.217 85.6915 173.812 85.1635 173.406 84.6368C171.145 89.1168 170.574 93.6515 172.372 98.4061C172.813 99.5755 174.621 99.1328 174.28 97.8795C173.092 93.5048 173.178 89.8275 175.268 85.7248C175.717 84.8395 174.98 83.9822 174.05 84.1408C170.436 84.7595 167.64 85.9435 164.664 88.1541C165.213 88.4701 165.761 88.7848 166.31 89.1008C166.321 81.2448 171.858 76.1475 177.396 71.3861C178.066 70.8101 177.614 69.8448 176.92 69.5835C173.485 68.2902 170.869 69.6208 167.205 69.6875C167.512 70.2221 167.818 70.7555 168.125 71.2888C171.902 65.5035 178.564 64.2088 184.765 66.5595C185.396 66.7981 185.728 65.8488 185.206 65.5128Z" fill="#CACACA"/>
<path d="M212.679 80.3955C208.555 86.2582 203.661 91.0169 198.343 95.7715C191.879 101.552 186.557 106.248 177.269 104.298C176.348 104.106 175.667 105.421 176.595 105.898C183.319 109.352 190.048 106.166 195.291 101.572C202.139 95.5689 210.043 89.4382 213.384 80.6915C213.549 80.2582 212.913 80.0622 212.679 80.3955Z" fill="#CACACA"/>
<path d="M220.342 82.117C224.591 92.9316 235.232 105.61 247.204 108.18C247.667 108.28 248.21 108.204 248.542 107.826C248.708 107.637 248.876 107.446 249.043 107.257C249.798 106.398 249.066 105.149 247.948 105.377C245.868 105.8 241.61 102.654 239.994 101.636C237.283 99.9249 234.734 97.9543 232.391 95.7676C227.995 91.6623 224.343 86.8743 221.218 81.7476C220.947 81.305 220.136 81.593 220.342 82.117Z" fill="#CACACA"/>
<path d="M220.064 64.7344C225.768 59.0157 231.672 56.5197 239.943 56.9397C248.345 57.3677 256.436 61.0864 258.765 69.789C259.447 69.265 260.128 68.7411 260.809 68.2171C257.288 65.8317 253.483 64.6491 249.301 65.6677C248.085 65.9637 248.412 67.7131 249.587 67.7744C253.323 67.9731 256.265 68.4664 259.405 70.6197C260.442 71.3317 261.738 70.1584 261.449 69.0491C257.036 52.1771 227.175 47.9531 219.393 64.2171C219.192 64.6371 219.702 65.0957 220.064 64.7344Z" fill="#CACACA"/>
<path d="M243.647 70.854C253.108 73.014 260.639 78.498 264.617 87.466C265.235 86.8487 265.852 86.2313 266.471 85.6127C262.655 83.138 258.657 81.3633 254.266 80.182C252.941 79.8247 252.154 81.4167 252.989 82.3767C256.453 86.362 258.536 90.8247 259.455 96.022C260.084 95.538 260.713 95.054 261.343 94.57C258.229 92.4407 254.499 90.8433 250.712 91.754C249.839 91.9633 249.857 93.282 250.712 93.502C254.08 94.3713 257.087 94.7727 260.045 96.79C261.06 97.4807 262.112 96.3433 261.933 95.338C260.926 89.6993 258.579 84.862 254.847 80.5193C254.421 81.2513 253.995 81.9833 253.569 82.7153C257.763 83.87 261.481 85.566 265.103 87.9527C266.356 88.778 267.442 87.2167 266.956 86.0993C262.934 76.8593 254.008 70.0287 243.824 69.5447C243.076 69.5087 242.912 70.686 243.647 70.854Z" fill="#CACACA"/>
<path d="M247.99 97.1342C247.967 98.3968 248.19 99.6408 248.246 100.902C248.293 101.981 248.153 103.122 248.661 104.101C248.881 104.526 249.447 104.443 249.686 104.101C250.998 102.222 249.805 98.5475 248.506 96.9208C248.334 96.7048 247.994 96.8942 247.99 97.1342Z" fill="#CACACA"/>
<path d="M212.182 51.0076C213.046 45.6863 213.715 37.6623 206.154 37.5103C202.351 37.4329 195.267 41.1636 197.731 45.8556C197.927 46.2289 198.482 46.2009 198.685 45.8556C200.47 42.8236 202.114 39.9676 206.154 39.9996C211.907 40.0476 210.566 47.2116 211.5 51.0076C211.578 51.3289 212.125 51.3609 212.182 51.0076Z" fill="#CACACA"/>
<path d="M225.579 50.658C225.045 47.1553 227.114 42.8207 231.145 42.8113C235.047 42.802 235.946 45.9167 237.635 48.622C237.99 49.19 238.745 49.022 238.969 48.4487C240.753 43.8553 233.973 39.9407 230.155 40.6113C225.487 41.4327 222.454 46.7887 224.438 51.1393C224.755 51.8393 225.677 51.2953 225.579 50.658Z" fill="#CACACA"/>
<path d="M205.896 1.8076C203.888 9.5236 202.009 16.9796 198.421 24.1676C196.908 27.1996 195.268 30.2916 193.289 33.0516C189.156 38.8183 182.996 33.3156 179.324 29.7583C176.74 27.2529 174.35 24.5529 172.438 21.4929C170.385 18.2089 168.216 13.9063 172.916 10.0996C174.246 9.01959 176.529 8.51027 178.149 7.97427C186.428 5.2356 195.194 4.50628 203.854 5.04628C205.556 5.15294 205.549 2.5076 203.854 2.40093C193.854 1.7716 177.888 1.95028 169.829 9.01294C162.706 15.2556 171.244 25.2809 176.009 30.1849C181.082 35.4063 188.057 43.5516 194.452 35.8809C201.74 27.1369 206.448 13.1943 207.492 2.02359C207.578 1.10092 206.122 0.936935 205.896 1.8076Z" fill="#CACACA"/>
<path d="M240.452 12.2929C241.04 18.4942 241.97 24.6289 243.148 30.7476C243.86 34.4502 244.24 43.5889 247.281 46.3036C249.605 48.3782 253.593 47.2049 256.165 46.3582C260.513 44.9262 266.602 43.0196 270.078 39.8462C276.396 34.0782 270.654 25.2262 266.696 19.6916C261.434 12.3382 252.189 6.21957 242.997 9.97824C241.638 10.5342 242.132 12.4369 243.606 12.1875C252.252 10.7262 259.41 14.2729 264.47 21.1982C266.173 23.5289 269.648 28.2156 269.934 31.2089C270.602 38.1742 265.443 39.8782 260.258 41.9836C257.149 43.2449 254.365 44.9542 251.009 43.8996C247.589 42.8249 248.157 41.9982 247.301 38.5236C246.908 36.9316 246.535 35.3356 246.161 33.7382C244.479 26.5689 242.996 19.3582 241.454 12.1569C241.336 11.6036 240.397 11.7142 240.452 12.2929Z" fill="#CACACA"/>
<path d="M214.038 16.6944C214.671 10.7838 216.309 5.69046 220.602 1.38113C220.143 1.19046 219.683 1.00113 219.225 0.810461C219.607 4.53179 219.329 9.11577 220.426 12.6891C220.85 14.0718 221.686 15.0185 223.203 14.2678C223.89 13.9291 224.214 13.2051 224.646 12.5958C225.866 10.8784 227.277 8.89446 229.155 7.81046C229.601 7.29713 230.146 7.08245 230.789 7.16378C231.549 6.89045 231.731 7.08379 231.338 7.74379C231.482 8.32913 230.615 10.3651 230.478 10.8598C229.989 12.6344 229.495 14.2571 229.57 16.1065C229.59 16.5878 230.202 16.7491 230.463 16.3478C231.907 14.1318 236.518 2.98378 230.271 4.89178C227.913 5.61311 225.421 8.29046 223.99 10.1758C224.071 10.0691 222.717 12.0958 222.701 12.0918C221.842 11.9024 221.805 9.27447 221.722 8.5838C221.41 5.99447 221.127 3.40246 220.838 0.810461C220.765 0.154461 219.991 -0.301542 219.461 0.23979C215.231 4.56246 212.391 10.5411 213.183 16.6944C213.254 17.2371 213.978 17.2491 214.038 16.6944Z" fill="#CACACA"/>
<path d="M192.823 36.2664C192.795 38.5024 193.062 40.7224 192.878 42.9611C192.694 45.2038 191.819 47.2931 191.674 49.5158C191.613 50.4705 192.861 50.6118 193.325 49.9624C195.853 46.4184 195.801 39.7878 194.143 35.9091C193.853 35.2291 192.831 35.6198 192.823 36.2664Z" fill="#CACACA"/>
<path d="M246.025 43.5207C244.604 45.5247 243.753 47.838 243.232 50.23C242.777 52.3087 242.173 54.8967 242.985 56.906C243.284 57.6474 244.243 57.682 244.532 56.906C245.28 54.9007 244.987 52.482 245.385 50.3633C245.795 48.186 246.477 46.0834 247.015 43.938C247.171 43.318 246.372 43.03 246.025 43.5207Z" fill="#CACACA"/>
<path d="M182.308 106.183C173.734 110.247 167.63 118.526 165.417 127.679C163.561 135.353 163.973 146.394 171.081 151.433C178.846 156.938 187.362 149.013 190.594 142.066C195.354 131.837 193.764 121.231 202.069 112.583C202.924 111.693 201.828 110.189 200.73 110.849C188.794 118.019 193.594 135.761 185.34 145.57C179.184 152.886 170.525 150.601 167.924 142.065C166.596 137.703 166.674 132.719 167.634 128.291C169.601 119.215 175.265 112.223 182.94 107.263C183.622 106.822 183.03 105.842 182.308 106.183Z" fill="#CACACA"/>
<path d="M231.868 107.553C219.228 115.279 206.494 141.897 224.797 150.999C231.969 154.567 240.578 151.751 244.828 145.146C251.226 135.198 251.137 119.989 250.268 108.687C250.15 107.158 247.957 107.135 247.872 108.687C247.436 116.661 247.898 124.575 246.358 132.477C244.518 141.923 237.605 154.342 226.088 148.419C209.748 140.015 222.604 116.381 232.65 108.567C233.233 108.114 232.484 107.177 231.868 107.553Z" fill="#CACACA"/>
<path d="M58.828 108.426C72.8613 118.083 93.4093 119.167 109.796 121.631C128.119 124.387 146.645 126.547 165.155 127.483C166.788 127.566 166.753 125.095 165.155 124.962C146.861 123.446 128.647 121.797 110.464 119.209C93.124 116.741 75.5173 114.634 59.4066 107.437C58.7386 107.138 58.212 108.002 58.828 108.426Z" fill="#CACACA"/>
<path d="M196.977 129.872C203.09 132.006 209.861 132.482 216.29 132.592C217.645 132.614 217.646 130.508 216.29 130.488C209.816 130.392 203.566 129.272 197.162 128.501C196.34 128.402 196.28 129.629 196.977 129.872Z" fill="#CACACA"/>
<path d="M249.055 134.95C260.431 139.338 272.722 133.305 284.13 132.079C285.174 131.967 285.794 130.541 284.709 129.946C279.825 127.275 274.607 127.009 269.226 126.001C262.894 124.817 256.937 122.463 250.886 120.331C249.537 119.857 249.029 121.926 250.305 122.441C255.535 124.558 260.891 126.509 266.406 127.754C272.225 129.067 278.195 129.003 283.553 131.923C283.746 131.211 283.938 130.501 284.13 129.79C272.242 131.086 261.514 135.655 249.365 133.825C248.625 133.713 248.346 134.677 249.055 134.95Z" fill="#CACACA"/>
<path d="M171.024 116.553C162.8 114.85 154.303 114.258 145.964 113.336C136.323 112.269 126.82 111.213 117.104 111.512C108.007 111.793 98.9828 112.006 89.8962 111.238C80.5562 110.449 71.2162 107.361 61.9242 107.08C61.2402 107.06 60.9042 108.112 61.5615 108.42C68.5655 111.704 77.3362 112.222 84.9842 112.998C94.4442 113.958 103.872 114.097 113.367 113.721C132.756 112.952 151.608 117.212 170.909 117.392C171.381 117.396 171.504 116.652 171.024 116.553Z" fill="#CACACA"/>
<path d="M58.4337 103.525C76.2297 108.761 96.291 111.056 114.812 111.349C124.142 111.497 133.452 110.981 142.78 111.448C153.222 111.97 163.606 113.23 173.978 114.485C175.291 114.644 175.282 112.578 173.978 112.422C154.536 110.101 135.61 109.52 116.071 109.384C96.5444 109.249 77.847 104.354 58.539 102.746C58.083 102.709 58.0177 103.402 58.4337 103.525Z" fill="#CACACA"/>
<path d="M250.276 119.525C261.27 122.419 273.112 122.747 284.412 123.454C292.438 123.955 301.937 126.157 309.894 124.797C311.028 124.602 310.778 122.659 309.62 122.771C301.448 123.555 292.592 121.825 284.412 121.326C273.074 120.633 261.742 118.989 250.41 118.522C249.833 118.498 249.722 119.378 250.276 119.525Z" fill="#CACACA"/>
<path d="M58.7739 102.257C22.4206 113.725 2.21127 154.074 0.303265 189.777C-0.300735 201.075 0.163248 212.445 0.285915 223.753C0.401915 234.459 0.413914 245.203 1.71791 255.849C3.44058 269.91 7.76858 293.203 24.8219 296.19C26.4872 296.482 27.2033 293.933 25.5259 293.639C6.27259 290.266 4.2579 259.061 3.47257 243.994C2.5179 225.682 1.90726 206.762 2.99659 188.457C4.09926 169.905 9.63126 151.634 20.0299 136.143C30.0193 121.265 43.5739 111.527 59.2792 103.455C59.9379 103.117 59.4832 102.033 58.7739 102.257Z" fill="#CACACA"/>
<path d="M207.719 333.716C218.136 335.731 228.895 336.043 239.376 337.883C249.908 339.733 260.295 342.227 270.569 345.181C272.132 345.63 272.792 343.214 271.24 342.75C260.581 339.565 249.759 337.03 238.773 335.269C228.749 333.661 218.008 331.806 207.86 332.672C207.307 332.718 207.089 333.593 207.719 333.716Z" fill="#CACACA"/>
<path d="M63.7132 213.031C46.9759 230.855 35.4625 256.333 28.3438 279.513C22.1625 299.641 22.4052 324.665 41.6892 337.641C51.5399 344.27 64.6185 348.598 76.1145 351.097C85.9719 353.241 96.2799 353.074 106.164 351.185C129.152 346.791 143.268 330.735 155.74 312.04C172.02 287.635 184.247 261.165 192.315 232.961C192.787 231.306 190.224 230.605 189.743 232.251C183.359 254.087 174.796 275.186 163.361 294.883C152.769 313.13 139.871 335.335 119.756 344.197C99.0892 353.302 77.7038 349.867 57.3038 342.182C45.2225 337.631 34.5519 331.165 29.8305 318.523C25.6425 307.312 26.5972 295.122 29.6559 283.762C36.5412 258.19 49.8999 235.413 64.4825 213.625C64.7919 213.161 64.0919 212.627 63.7132 213.031Z" fill="#CACACA"/>
<path d="M65.7344 216.437C59.3451 225.943 54.5477 236.559 50.0864 247.083C45.7464 257.322 41.7131 267.782 39.5291 278.718C35.8558 297.117 37.0598 317.023 55.0278 326.94C63.7918 331.776 73.9051 334.015 83.5704 336.267C92.7064 338.395 102.274 339.726 111.233 336.131C128.738 329.106 141.933 312.65 152.976 297.981C168.402 277.491 178.444 254.457 187.598 230.663C188.236 229.006 185.588 228.307 184.946 229.933C175.805 253.075 166.118 275.553 151.226 295.661C137.04 314.818 117.533 339.121 90.9691 334.795C79.8491 332.983 67.5024 330.122 57.4451 324.943C43.7971 317.917 39.9584 305.773 40.5877 291.149C41.7331 264.562 56.0824 240.595 66.2744 216.753C66.4291 216.389 65.9638 216.094 65.7344 216.437Z" fill="#CACACA"/>
<path d="M64.1466 213.66C65.7386 212.95 67.5786 213.637 67.5799 215.588C67.5799 216.325 67.2546 216.998 66.7572 217.532C66.3399 217.98 65.7906 218.201 65.5226 218.765C65.3892 219.045 65.4719 219.502 65.8452 219.561C66.9799 219.74 67.9092 218.728 68.4639 217.824C69.1186 216.761 69.2826 215.449 68.8679 214.266C68.1239 212.142 65.0039 210.885 63.5479 213.061C63.2799 213.462 63.7866 213.82 64.1466 213.66Z" fill="#CACACA"/>
<path d="M186.014 230.59C185.46 227.316 189.601 226.34 191.193 228.985C192.7 231.488 190.685 233.141 189.536 235.1C189.262 235.566 189.722 236.261 190.277 236.064C194.084 234.709 194.193 228.746 191.1 226.622C188.176 224.616 183.332 227.186 184.809 230.922C185.104 231.67 186.149 231.39 186.014 230.59Z" fill="#CACACA"/>
<path d="M56.8846 222.928C56.3992 219.042 56.3179 215.262 59.1139 212.18C61.5312 209.516 66.3726 207.549 69.7486 209.69C72.9539 211.721 73.4486 218.066 72.5993 221.354C71.2873 226.438 66.0846 228.593 61.5472 226.132C60.3059 225.458 59.2579 227.264 60.4432 228.021C64.9419 230.892 70.7233 229.401 73.4979 224.865C76.0233 220.737 75.7806 213.281 72.6899 209.432C65.2232 200.137 50.3859 213.653 55.8752 223.201C56.1232 223.633 56.9539 223.482 56.8846 222.928Z" fill="#CACACA"/>
<path d="M184.12 235.845C181.598 233.629 182.509 228.729 183.418 225.95C185.262 220.318 191.19 217.294 196.028 221.902C202.572 228.137 196.762 240.445 188.297 241.141C187.77 241.185 187.332 241.885 187.818 242.297C192.349 246.125 198.281 238.174 199.881 234.474C202.277 228.929 200.981 221.585 195.217 218.707C182.526 212.375 177.19 235.654 183.95 236.254C184.154 236.271 184.27 235.977 184.12 235.845Z" fill="#CACACA"/>
<path d="M51.157 247.266C70.7063 250.394 90.7103 251.267 110.354 253.942C130.836 256.73 151.142 260.378 171.422 264.358C172.976 264.663 173.649 262.301 172.081 261.967C151.83 257.665 131.35 254.342 110.834 251.599C91.349 248.994 70.981 245.867 51.2863 246.303C50.7597 246.315 50.5917 247.175 51.157 247.266Z" fill="#CACACA"/>
<path d="M181.029 265.569C196.183 271.207 204.851 282.335 206.864 298.413C208.672 312.845 205.336 326.429 204.849 340.706C204.812 341.79 206.316 341.882 206.649 340.95C209.449 333.133 209.732 323.747 210.028 315.519C210.319 307.458 210.241 299.139 208.233 291.274C204.9 278.217 195.005 266.85 181.317 264.523C180.631 264.407 180.371 265.323 181.029 265.569Z" fill="#CACACA"/>
<path d="M44.7075 312.934C68.3288 321.873 93.1329 327.612 117.986 331.923C119.352 332.159 119.936 330.067 118.562 329.834C93.5889 325.581 69.2635 319.077 44.9009 312.231C44.4409 312.102 44.2768 312.771 44.7075 312.934Z" fill="#CACACA"/>
<path d="M137.203 334.13C151.113 337.025 165.408 338.285 179.403 340.837C185.817 342.006 192.201 343.677 198.644 344.642C202.507 345.221 206.051 345.433 208.619 342.334C209.04 341.826 208.659 340.736 207.88 341.062C201.757 343.64 196.148 341.652 189.936 340.41C183.763 339.176 177.568 338.034 171.355 337.017C160.201 335.189 148.671 333.14 137.352 333.026C136.732 333.019 136.571 334 137.203 334.13Z" fill="#CACACA"/>
<path d="M106.656 274.107C93.7437 272.347 91.4157 288.311 94.2584 297.543C97.7677 308.941 110.497 312.923 121.373 310.583C132.52 308.185 138.917 297.105 134.369 286.325C129.588 274.989 114.336 269.189 103.08 273.714C102.444 273.97 102.486 274.943 103.249 274.962C112.37 275.19 121.097 274.355 128.141 281.518C135.085 288.579 135.292 301.329 125.79 306.336C118.676 310.086 108.089 309.458 101.76 304.459C92.449 297.106 91.9303 276.321 106.54 274.966C106.986 274.925 107.182 274.178 106.656 274.107Z" fill="#CACACA"/>
<path d="M110.06 278.968C101.844 276.322 98.9449 285.861 99.7396 292.148C100.746 300.101 108.61 304.679 116.298 303.538C123.434 302.479 129.016 295.594 127.5 288.272C125.842 280.268 115.71 276.194 108.39 278.305C107.6 278.533 107.514 279.812 108.39 279.993C113.045 280.953 118.112 280.342 121.898 283.877C126.561 288.228 125.681 295.704 120.412 299.174C115.333 302.521 107.536 301.564 103.638 296.749C101.766 294.434 101.15 291.145 101.381 288.178C101.793 282.896 104.822 280.074 109.966 279.664C110.358 279.632 110.453 279.094 110.06 278.968Z" fill="#CACACA"/>
<path d="M76.1935 127.394C57.4962 128.918 39.2281 142.35 37.0215 161.905C36.1215 169.87 38.3148 178.06 43.3215 184.361C49.5788 192.237 58.9455 194.46 68.2975 196.748C92.9535 202.78 118.295 205.34 143.557 207.198C156.604 208.158 169.661 208.996 182.715 209.848C192.656 210.497 203.501 212.029 212.975 208.038C222.759 203.917 229.203 193.936 233.569 184.706C238.781 173.694 241.077 161.708 240.784 149.562C240.743 147.81 238.013 147.804 238.056 149.562C238.624 173.14 227.811 207.109 199.869 208.101C187.08 208.554 173.96 206.672 161.205 205.805C148.593 204.948 135.981 204.082 123.397 202.878C110.116 201.608 96.8641 199.965 83.7495 197.49C71.7121 195.217 55.0348 193.669 46.2895 184.224C37.2055 174.412 36.8295 159.844 43.3761 148.545C50.4255 136.382 63.1121 130.91 76.3215 128.334C76.8455 128.233 76.7335 127.35 76.1935 127.394Z" fill="#CACACA"/>
<path d="M74.9551 128.141C89.8604 129.501 104.966 129.253 119.916 130.188C134.891 131.124 149.82 132.521 164.727 134.23C166.07 134.384 166.059 132.278 164.727 132.125C149.832 130.418 134.884 129.146 119.916 128.309C105.072 127.478 89.7924 126.349 74.9551 127.578C74.5924 127.608 74.5938 128.108 74.9551 128.141Z" fill="#CACACA"/>
<path d="M192.749 137.526C196.745 138.034 200.746 138.475 204.746 138.947C208.629 139.406 212.779 140.538 216.686 140.091C217.07 140.049 217.367 139.461 216.913 139.257C213.722 137.829 210.041 137.714 206.587 137.302C201.979 136.751 197.389 136.379 192.749 136.277C191.922 136.258 191.975 137.427 192.749 137.526Z" fill="#CACACA"/>
<path d="M164.393 139.271C148.925 136.823 133.361 134.97 117.751 133.733C109.548 133.083 101.333 132.573 93.1134 132.191C86.3707 131.878 79.6721 131.425 73.1041 133.311C62.6801 136.306 54.1667 144.375 50.0814 154.363C46.3507 163.483 45.9067 176.405 54.6787 182.855C64.6801 190.209 80.8734 191.033 92.7774 192.571C109.548 194.737 126.352 196.739 143.18 198.403C159.696 200.037 176.313 201.389 192.916 201.589C204.448 201.726 213.339 197.919 220.525 188.642C226.353 181.118 232.953 165.577 227.773 156.173C225.141 151.393 218.559 149.495 213.771 147.83C206.053 145.146 198.071 143.765 189.932 143.31C188.351 143.222 188.356 145.679 189.932 145.769C196.237 146.123 202.453 147.031 208.535 148.763C214.845 150.561 224.628 152.817 226.341 160.157C228.809 170.731 222.545 183.663 215.249 190.921C205.285 200.829 192.767 199.398 179.804 198.79C167.572 198.215 155.363 197.217 143.18 195.987C130.552 194.714 117.952 193.179 105.356 191.629C92.8187 190.085 80.1201 188.839 67.9067 185.474C60.876 183.538 53.4134 181.207 50.9614 173.511C49.1587 167.851 49.8907 161.437 51.9374 155.949C56.6267 143.378 68.2067 135.294 81.3574 134.155C94.5054 133.018 108.517 134.987 121.636 136.059C135.869 137.223 150.061 138.703 164.237 140.418C164.884 140.495 165.041 139.374 164.393 139.271Z" fill="#CACACA"/>
<path d="M83.8077 132.327C69.817 143.921 60.3517 162.487 55.0931 179.567C54.7117 180.803 56.6197 181.315 57.0211 180.099C60.0144 171.022 63.7917 162.319 68.7011 154.106C73.2824 146.441 79.0437 139.867 84.3811 132.769C84.6464 132.415 84.1024 132.083 83.8077 132.327Z" fill="#CACACA"/>
<path d="M100.483 133.67C86.6652 148.433 75.5852 167.307 69.3772 186.555C68.9732 187.807 70.8359 188.249 71.3066 187.086C79.1119 167.802 88.7879 150.921 101.415 134.389C101.827 133.851 100.937 133.183 100.483 133.67Z" fill="#CACACA"/>
<path d="M118.815 134.342C105.046 149.558 95.4083 168.85 88.8563 188.157C88.459 189.328 90.3097 189.83 90.7043 188.666C97.415 168.894 107.711 151.948 119.715 135.037C120.091 134.506 119.248 133.862 118.815 134.342Z" fill="#CACACA"/>
<path d="M133.677 135.839C121.267 151.711 112.831 172.151 106.801 191.245C106.454 192.342 108.13 192.777 108.509 191.715C112.061 181.773 115.918 171.977 120.514 162.463C124.805 153.582 129.994 145.206 134.413 136.407C134.635 135.963 134.023 135.395 133.677 135.839Z" fill="#CACACA"/>
<path d="M188.235 145.467C187.667 154.329 188.661 163.283 188.952 172.146C189.252 181.322 188.379 189.857 186.593 198.843C186.363 200.002 187.921 200.406 188.341 199.326C191.503 191.205 191.439 181.919 191.167 173.335C190.871 164.058 190.753 154.499 189.257 145.329C189.159 144.719 188.271 144.914 188.235 145.467Z" fill="#CACACA"/>
<path d="M155.649 138.543C141.603 153.049 131.683 175.177 127.011 194.633C126.735 195.782 128.424 196.245 128.779 195.119C132.041 184.762 135.553 174.687 140.52 164.993C145.185 155.889 151.204 147.898 156.583 139.263C156.939 138.69 156.119 138.058 155.649 138.543Z" fill="#CACACA"/>
<path d="M169.168 149.205C159.38 162.322 153.085 180.701 150.138 196.649C149.941 197.714 151.501 198.182 151.786 197.104C153.872 189.209 155.964 181.402 158.92 173.774C162.137 165.469 166.565 157.892 170.21 149.816C170.533 149.101 169.633 148.581 169.168 149.205Z" fill="#CACACA"/>
<path d="M196.07 145.98C190.172 153.5 185.877 162.624 181.942 171.289C177.976 180.024 174.112 189.262 172.105 198.662C171.928 199.489 173.049 199.769 173.35 199.005C177.01 189.722 179.979 180.292 184.135 171.184C187.979 162.764 192.936 154.957 196.921 146.637C197.166 146.125 196.477 145.462 196.07 145.98Z" fill="#CACACA"/>
<path d="M217.275 150.417C207.756 164.961 200.878 182.893 195.406 199.341C195.056 200.392 196.636 200.77 197.032 199.789C203.696 183.302 211.789 167.35 218.323 150.858C218.572 150.229 217.612 149.901 217.275 150.417Z" fill="#CACACA"/>
<path d="M62.9587 140.222C118.708 141.337 173.639 153.937 227.901 165.889C228.984 166.126 229.449 164.474 228.361 164.221C200.623 157.749 172.653 152.144 144.603 147.206C117.855 142.498 90.2001 137.726 62.9587 139.556C62.5334 139.584 62.5254 140.213 62.9587 140.222Z" fill="#CACACA"/>
<path d="M54.5806 149.358C83.398 152.73 112.054 155.501 140.641 160.698C168.706 165.801 196.562 171.973 224.395 178.201C225.506 178.45 225.979 176.742 224.866 176.494C196.194 170.078 167.521 163.591 138.593 158.411C111.009 153.47 82.6526 148.759 54.5806 148.191C53.8113 148.177 53.854 149.274 54.5806 149.358Z" fill="#CACACA"/>
<path d="M49.2479 161.452C77.9479 164.666 106.353 167.977 134.844 172.877C162.805 177.686 190.595 183.278 218.387 188.969C219.523 189.201 220.012 187.476 218.868 187.221C190.355 180.882 161.584 175.562 132.789 170.677C105.532 166.05 77.0039 160.057 49.2479 160.514C48.6319 160.525 48.6613 161.386 49.2479 161.452Z" fill="#CACACA"/>
<path d="M49.2149 173.889C74.9749 179.222 101.419 182.056 127.423 186.022C153.522 190.004 179.591 194.164 205.679 198.209C206.87 198.394 207.39 196.578 206.183 196.381C179.695 192.061 153.159 188.02 126.627 183.976C100.998 180.068 75.1869 175.136 49.3469 172.908C48.7882 172.86 48.6642 173.776 49.2149 173.889Z" fill="#CACACA"/>
<path d="M271.002 345.861C263.24 318.852 259.74 292.057 260.717 263.941C261.646 237.218 264.301 209.82 269.708 183.61C272.277 171.156 276.014 158.77 282.601 147.806C289.204 136.816 300.818 123.497 315.144 125.912C327.602 128.01 334.765 140.968 338.965 151.697C343.952 164.434 347.284 177.833 349.524 191.31C354.706 222.504 353.986 254.28 353.238 285.774C353.198 287.504 355.882 287.502 355.926 285.774C356.704 254.841 357.396 223.645 352.498 192.982C350.128 178.136 346.488 163.238 340.698 149.33C336.741 139.825 330.797 129.456 320.963 125.064C298.186 114.89 280.116 143.729 273.472 161.176C263.464 187.458 261.438 217.848 259.372 245.662C256.913 278.76 257.246 315.05 270.488 346.077C270.614 346.373 271.088 346.161 271.002 345.861Z" fill="#CACACA"/>
<path d="M270.065 344.831C277.909 345.301 284.381 340.298 290.504 336.038C299.548 329.748 308.585 323.445 317.621 317.144C326.296 311.095 335.005 305.089 343.64 298.982C348.867 295.288 353.24 291.309 355.545 285.198C355.975 284.058 354.148 283.308 353.584 284.372C349.586 291.918 343.971 295.933 337.072 300.801C329.867 305.886 322.66 310.967 315.459 316.055C308.617 320.89 301.777 325.727 294.937 330.564C287.219 336.02 279.791 342.507 270.065 343.664C269.333 343.75 269.3 344.784 270.065 344.831Z" fill="#CACACA"/>
<path d="M283 320.724C280.091 295.748 278.319 271.189 279.216 246.014C280.055 222.449 278.618 193.724 292.376 173.398C300.131 161.941 314.167 150.826 326.199 163.77C334.591 172.801 335.319 188.708 337.312 200.252C341.662 225.456 344.684 250.78 341.895 276.336C341.74 277.757 344.208 278.106 344.412 276.676C347.548 254.73 345.542 232.673 342.122 210.884C340.348 199.59 338.838 187.937 335.86 176.889C333.718 168.938 329.754 161.208 322.271 157.129C306.286 148.413 291.624 167.025 285.639 179.885C276.896 198.672 277.559 221.856 276.812 242.128C275.852 268.137 275.65 295.446 282.122 320.842C282.242 321.317 283.06 321.236 283 320.724Z" fill="#CACACA"/>
<path d="M283.317 321.543C295.348 315.541 306.525 306.811 317.652 299.281C325.998 293.631 336.557 288.266 342.57 279.914C343.292 278.913 341.722 277.759 340.885 278.614C324.106 295.747 300.694 305.065 282.497 320.479C281.881 321 282.665 321.869 283.317 321.543Z" fill="#CACACA"/>
<path d="M289.145 174.798C289.29 197.029 292.65 219.554 294.129 241.751C295.618 264.106 296.938 286.471 298.457 308.823C298.554 310.257 300.778 310.279 300.706 308.823C299.587 286.014 298.253 263.214 296.599 240.437C295.022 218.723 294.625 196.011 290.371 174.631C290.233 173.933 289.139 174.103 289.145 174.798Z" fill="#CACACA"/>
<path d="M304.968 158.933C304.879 170.301 306.459 181.771 307.324 193.102C308.227 204.938 309.038 216.781 309.756 228.629C311.167 251.899 312.063 275.198 313.46 298.466C313.546 299.886 315.704 299.913 315.69 298.466C315.435 274.751 313.974 250.965 312.288 227.313C310.679 204.733 310.332 181.034 305.848 158.814C305.746 158.31 304.972 158.438 304.968 158.933Z" fill="#CACACA"/>
<path d="M321.805 157.566C321.795 168.396 323.635 179.352 324.623 190.133C325.619 201.006 326.535 211.89 327.307 222.782C328.85 244.589 329.553 266.412 330.609 288.242C330.673 289.56 332.665 289.577 332.671 288.242C332.774 265.986 331.437 243.66 329.775 221.474C328.959 210.578 327.999 199.694 326.847 188.828C325.746 178.45 325.09 167.61 322.542 157.466C322.438 157.054 321.805 157.144 321.805 157.566Z" fill="#CACACA"/>
<path d="M282.664 193.265C290.199 188.605 297.177 183.074 304.739 178.422C312.317 173.761 320.152 169.59 328.137 165.677C329.365 165.076 328.289 163.24 327.065 163.842C311.563 171.47 294.76 180.628 282.248 192.725C281.969 192.994 282.329 193.472 282.664 193.265Z" fill="#CACACA"/>
<path d="M279.666 215.894C289.255 211.68 298.082 204.466 307.067 199.04C316.259 193.488 325.648 188.3 334.932 182.912C336.131 182.217 335.068 180.413 333.85 181.06C324.014 186.278 314.474 192.117 305.044 198.032C296.547 203.364 286.547 208.461 279.376 215.518C279.168 215.722 279.431 215.998 279.666 215.894Z" fill="#CACACA"/>
<path d="M278.129 247.781C289.209 241.836 299.283 233.173 309.775 226.189C319.694 219.588 330.623 213.906 340.011 206.61C340.818 205.984 339.791 204.909 338.989 205.285C327.642 210.606 317.001 218.841 306.649 225.897C296.953 232.504 285.994 238.89 277.637 247.142C277.302 247.473 277.726 247.997 278.129 247.781Z" fill="#CACACA"/>
<path d="M277.576 272.936C288.799 268.544 299.453 261.828 309.795 255.69C320.917 249.089 331.815 242.049 342.224 234.366C343.389 233.505 342.291 231.533 341.068 232.386C330.779 239.566 320.448 246.652 309.78 253.262C299.132 259.861 287.709 265.258 277.175 271.984C276.704 272.285 277 273.161 277.576 272.936Z" fill="#CACACA"/>
<path d="M279.842 296.849C301.803 285.41 323.071 271.891 343.981 258.642C345.154 257.898 344.083 256.039 342.887 256.77C321.699 269.722 299.999 282.213 279.285 295.895C278.691 296.287 279.209 297.179 279.842 296.849Z" fill="#CACACA"/>
</svg>
