<svg width="96" height="69" viewBox="0 0 96 69" fill="none" xmlns="http://www.w3.org/2000/svg">
<path d="M64.5 69C71.1274 69 76.5 63.6274 76.5 57C76.5 50.3726 71.1274 45 64.5 45C57.8726 45 52.5 50.3726 52.5 57C52.5 63.6274 57.8726 69 64.5 69Z" fill="#72AF3A"/>
<path d="M95.1705 30.1575L83.697 24.4215L74.9055 0.972C74.685 0.3885 74.1255 0 73.5 0H1.5C0.672 0 0 0.6705 0 1.5C0 2.3295 0.672 3 1.5 3H48C48.828 3 49.5 3.6705 49.5 4.5C49.5 5.3295 48.828 6 48 6H40.5V13.5H12C11.172 13.5 10.5 14.1705 10.5 15C10.5 15.8295 11.172 16.5 12 16.5H48C48.828 16.5 49.5 17.1705 49.5 18C49.5 18.8295 48.828 19.5 48 19.5H40.5V27H22.5C21.672 27 21 27.6705 21 28.5C21 29.3295 21.672 30 22.5 30H48C48.828 30 49.5 30.6705 49.5 31.5C49.5 32.3295 48.828 33 48 33H40.5V55.5C40.5 56.3295 41.172 57 42 57H49.5C49.5 48.729 56.229 42 64.5 42C72.771 42 79.5 48.729 79.5 57H94.5C95.328 57 96 56.3295 96 55.5V31.5C96 30.9315 95.679 30.4125 95.1705 30.1575Z" fill="#72AF3A"/>
</svg>
