<svg width="84" height="80" viewBox="0 0 84 80" fill="none" xmlns="http://www.w3.org/2000/svg">
<path d="M82.6608 22.1683C82.4654 22.1684 82.2724 22.1254 82.0956 22.0424L42.48 3.55125L2.86582 22.0424C2.54493 22.1863 2.18033 22.1982 1.85075 22.0755C1.52117 21.9529 1.25304 21.7055 1.10427 21.3869C0.955502 21.0683 0.93802 20.7039 1.0556 20.3725C1.17318 20.041 1.4164 19.7691 1.73272 19.6155L41.9135 0.864496C42.0909 0.781686 42.2843 0.73877 42.48 0.73877C42.6758 0.73877 42.8692 0.781686 43.0466 0.864496L83.2273 19.6155C83.5034 19.7445 83.7273 19.9638 83.8619 20.2372C83.9966 20.5105 84.034 20.8217 83.9679 21.1192C83.9019 21.4167 83.7364 21.6827 83.4988 21.8735C83.2611 22.0642 82.9655 22.1682 82.6608 22.1683Z" fill="#72AF3A"/>
<path d="M57.213 20.8286H46.4981V32.8828H38.4619V20.8286H27.7471C27.3919 20.8286 27.0512 20.9697 26.8 21.2209C26.5488 21.4721 26.4077 21.8128 26.4077 22.168V47.6158C26.4077 47.971 26.5488 48.3117 26.8 48.5629C27.0512 48.814 27.3919 48.9551 27.7471 48.9551H57.213C57.5682 48.9551 57.9088 48.814 58.16 48.5629C58.4112 48.3117 58.5523 47.971 58.5523 47.6158V22.168C58.5523 21.8128 58.4112 21.4721 58.16 21.2209C57.9088 20.9697 57.5682 20.8286 57.213 20.8286Z" fill="#72AF3A"/>
<path d="M74.6246 51.6338H63.9097V63.688H55.8736V51.6338H45.1587C44.8035 51.6338 44.4628 51.7749 44.2116 52.0261C43.9604 52.2773 43.8193 52.6179 43.8193 52.9731V78.421C43.8193 78.7762 43.9604 79.1168 44.2116 79.368C44.4628 79.6192 44.8035 79.7603 45.1587 79.7603H74.6246C74.9798 79.7603 75.3205 79.6192 75.5716 79.368C75.8228 79.1168 75.9639 78.7762 75.9639 78.421V52.9731C75.9639 52.6179 75.8228 52.2773 75.5716 52.0261C75.3205 51.7749 74.9798 51.6338 74.6246 51.6338Z" fill="#72AF3A"/>
<path d="M39.8013 51.6338H29.0865V63.688H21.0503V51.6338H10.3355C9.98023 51.6338 9.63956 51.7749 9.38838 52.0261C9.1372 52.2773 8.99609 52.6179 8.99609 52.9731V78.421C8.99609 78.7762 9.1372 79.1168 9.38838 79.368C9.63956 79.6192 9.98023 79.7603 10.3355 79.7603H39.8013C40.1566 79.7603 40.4972 79.6192 40.7484 79.368C40.9996 79.1168 41.1407 78.7762 41.1407 78.421V52.9731C41.1407 52.6179 40.9996 52.2773 40.7484 52.0261C40.4972 51.7749 40.1566 51.6338 39.8013 51.6338Z" fill="#72AF3A"/>
</svg>
