<svg width="22" height="22" viewBox="0 0 22 22" fill="none" xmlns="http://www.w3.org/2000/svg">
<path d="M14.3084 13.1855L12.1674 15.2975C11.0509 14.6243 10.0137 13.8276 9.07538 12.9225C8.17163 11.9826 7.37508 10.9452 6.70038 9.82949L8.81038 7.68849C8.93817 7.55871 9.02448 7.39386 9.05831 7.2149C9.09214 7.03594 9.07198 6.85095 9.00038 6.68349L6.80038 1.55549C6.71347 1.35329 6.5568 1.18904 6.35893 1.09267C6.16106 0.996309 5.93516 0.974239 5.72238 1.03049L1.68838 2.09749C1.48693 2.14971 1.30917 2.26876 1.18419 2.43517C1.0592 2.60157 0.9944 2.80546 1.00038 3.01349C1.25706 7.70526 3.20783 12.1444 6.49038 15.5065C9.85306 18.7901 14.2934 20.7413 18.9864 20.9975C19.1946 21.0045 19.399 20.9402 19.5657 20.8153C19.7325 20.6904 19.8516 20.5123 19.9034 20.3105L20.9694 16.2745C21.0259 16.0618 21.0041 15.8359 20.9079 15.638C20.8117 15.4401 20.6475 15.2834 20.4454 15.1965L15.3164 12.9975C15.1487 12.9248 14.9632 12.9039 14.7836 12.9374C14.6041 12.9709 14.4386 13.0573 14.3084 13.1855V13.1855Z" stroke="#72AF3A" stroke-width="2" stroke-miterlimit="10" stroke-linecap="square"/>
</svg>
