<svg width="22" height="22" viewBox="0 0 22 22" fill="none" xmlns="http://www.w3.org/2000/svg">
<path d="M11 14.9971C13.2091 14.9971 15 13.2062 15 10.9971C15 8.78793 13.2091 6.99707 11 6.99707C8.79087 6.99707 7.00001 8.78793 7.00001 10.9971C7.00001 13.2062 8.79087 14.9971 11 14.9971Z" stroke="#72AF3A" stroke-width="2" stroke-miterlimit="10" stroke-linecap="square"/>
<path d="M15 20.1652C13.0265 21.0265 10.8277 21.2278 8.73059 20.7391C6.6335 20.2504 4.75016 19.0979 3.36066 17.4529C1.97117 15.808 1.14975 13.7585 1.01858 11.6092C0.887406 9.4599 1.45349 7.32569 2.63263 5.52397C3.81177 3.72224 5.54098 2.34924 7.56308 1.60918C9.58518 0.869114 11.7922 0.801516 13.8558 1.41644C15.9194 2.03136 17.7294 3.29595 19.0166 5.02213C20.3038 6.74832 20.9994 8.84388 21 10.9972V11.9972C21 12.7928 20.6839 13.5559 20.1213 14.1185C19.5587 14.6811 18.7957 14.9972 18 14.9972C17.2044 14.9972 16.4413 14.6811 15.8787 14.1185C15.3161 13.5559 15 12.7928 15 11.9972V6.99715" stroke="#72AF3A" stroke-width="2" stroke-miterlimit="10" stroke-linecap="square"/>
</svg>
