<svg width="23" height="24" viewBox="0 0 23 24" fill="none" xmlns="http://www.w3.org/2000/svg">
<path d="M22 6.90972L11.414 2.09972L0.828 6.90972L0 5.08972L11 0.0897231C11.13 0.030594 11.2712 0 11.414 0C11.5568 0 11.698 0.030594 11.828 0.0897231L22.828 5.08972L22 6.90972Z" fill="#72AF3A"/>
<path d="M15.414 5.99976H12.414V8.99976H10.414V5.99976H7.414C7.14878 5.99976 6.89443 6.10511 6.70689 6.29265C6.51936 6.48019 6.414 6.73454 6.414 6.99976V12.9998C6.414 13.265 6.51936 13.5193 6.70689 13.7069C6.89443 13.8944 7.14878 13.9998 7.414 13.9998H15.414C15.6792 13.9998 15.9336 13.8944 16.1211 13.7069C16.3086 13.5193 16.414 13.265 16.414 12.9998V6.99976C16.414 6.73454 16.3086 6.48019 16.1211 6.29265C15.9336 6.10511 15.6792 5.99976 15.414 5.99976Z" fill="#72AF3A"/>
<path d="M9.414 15.9998H6.414V18.9998H4.414V15.9998H1.414C1.14878 15.9998 0.894431 16.1051 0.706895 16.2926C0.519358 16.4802 0.414001 16.7345 0.414001 16.9998V22.9998C0.414001 23.265 0.519358 23.5193 0.706895 23.7069C0.894431 23.8944 1.14878 23.9998 1.414 23.9998H9.414C9.67922 23.9998 9.93357 23.8944 10.1211 23.7069C10.3086 23.5193 10.414 23.265 10.414 22.9998V16.9998C10.414 16.7345 10.3086 16.4802 10.1211 16.2926C9.93357 16.1051 9.67922 15.9998 9.414 15.9998Z" fill="#72AF3A"/>
<path d="M21.414 15.9998H18.414V18.9998H16.414V15.9998H13.414C13.1488 15.9998 12.8944 16.1051 12.7069 16.2926C12.5194 16.4802 12.414 16.7345 12.414 16.9998V22.9998C12.414 23.265 12.5194 23.5193 12.7069 23.7069C12.8944 23.8944 13.1488 23.9998 13.414 23.9998H21.414C21.6792 23.9998 21.9336 23.8944 22.1211 23.7069C22.3086 23.5193 22.414 23.265 22.414 22.9998V16.9998C22.414 16.7345 22.3086 16.4802 22.1211 16.2926C21.9336 16.1051 21.6792 15.9998 21.414 15.9998Z" fill="#72AF3A"/>
</svg>
