<svg width="25" height="17" viewBox="0 0 25 17" fill="none" xmlns="http://www.w3.org/2000/svg">
<path d="M24.55 3.6C24.55 3.6 24.35 1.9 23.55 1.2C22.65 0.2 21.65 0.2 21.15 0.2C17.75 4.47035e-08 12.75 0 12.75 0C12.75 0 7.75 4.47035e-08 4.35 0.2C3.85 0.3 2.85 0.3 1.95 1.2C1.25 1.9 0.95 3.6 0.95 3.6C0.95 3.6 0.75 5.5 0.75 7.5V9.3C0.75 11.2 0.95 13.2 0.95 13.2C0.95 13.2 1.15 14.9 1.95 15.6C2.85 16.6 4.05 16.5 4.55 16.6C6.45 16.8 12.75 16.8 12.75 16.8C12.75 16.8 17.75 16.8 21.15 16.5C21.65 16.4 22.65 16.4 23.55 15.5C24.25 14.8 24.55 13.1 24.55 13.1C24.55 13.1 24.75 11.2 24.75 9.2V7.4C24.75 5.5 24.55 3.6 24.55 3.6ZM10.25 11.5V4.8L16.75 8.2L10.25 11.5Z" fill="white"/>
</svg>
