<svg width="325" height="32" viewBox="0 0 325 32" fill="none" xmlns="http://www.w3.org/2000/svg">
<path class="logo-text" fill-rule="evenodd" clip-rule="evenodd" d="M45.555 25.7296H37.3574V4.76099H45.555C48.7766 4.76099 50.7612 5.48008 52.1994 7.17713C53.8389 9.16181 54.7306 11.9806 54.7306 15.2309C54.7306 18.51 53.8389 21.3288 52.1994 23.2847C50.7612 24.9818 48.7478 25.7296 45.555 25.7296ZM41.672 8.35643V22.1342H45.555C48.8053 22.1342 50.4161 19.8619 50.4161 15.2597C50.4161 10.6288 48.8053 8.35643 45.555 8.35643H41.672ZM70.1387 18.5387C70.1387 18.7401 70.1387 18.8839 70.1099 19.2291H59.6975C59.755 20.696 59.8988 21.3863 60.2728 21.9616C60.848 22.8245 61.7685 23.3135 62.919 23.3135C64.386 23.3135 65.5077 22.5944 65.9967 21.3576H69.9661C69.0744 24.4353 66.2556 26.3912 62.7752 26.3912C58.3744 26.3912 55.6706 23.3423 55.6706 18.3662C55.6706 13.16 58.4031 9.93843 62.8615 9.93843C65.9967 9.93843 68.4992 11.6355 69.5346 14.4543C69.9086 15.5473 70.1387 16.9855 70.1387 18.5387ZM62.804 13.0161C61.0206 13.0161 60.0139 14.1667 59.755 16.5541H65.9392C65.7379 14.253 64.6448 13.0161 62.804 13.0161ZM80.7682 16.4678L78.611 18.7113V25.7296H74.2964V4.76099H78.611V13.9653L86.8086 4.76099H91.8997L83.5295 13.7927L92.7914 25.7296H87.6427L80.7682 16.4678ZM106.474 10.1973V25.7296H102.447V23.8888C101.296 25.6433 99.8868 26.3912 97.7871 26.3912C94.4505 26.3912 92.5809 24.464 92.5809 21.0124V10.1973H96.6078V20.1783C96.6078 22.0479 97.4707 22.9683 99.1965 22.9683C101.181 22.9683 102.447 21.7603 102.447 19.9194V10.1973H106.474ZM108.583 10.1973V25.7296H112.61V16.4102C112.61 14.5694 113.875 13.3613 115.86 13.3613C117.586 13.3613 118.449 14.3105 118.449 16.1514V25.7296H122.476V15.3172C122.476 11.8656 120.606 9.93843 117.269 9.93843C115.17 9.93843 113.76 10.6863 112.61 12.4409V10.1973H108.583ZM130.683 9.93843C134.853 9.93843 137.385 11.9231 137.442 15.2022H133.559C133.53 13.7927 132.581 13.1024 130.654 13.1024C129.245 13.1024 128.324 13.6777 128.324 14.5406C128.324 15.1734 128.612 15.4035 129.733 15.7487L134.825 17.2156C136.867 17.8196 137.874 19.114 137.874 21.1275C137.874 22.6519 137.183 24.0901 136.033 25.0105C134.882 25.931 133.243 26.3912 131.085 26.3912C126.368 26.3912 123.866 24.6366 123.751 21.2138H127.691C127.864 22.0479 128.036 22.3643 128.468 22.6807C128.986 23.0546 129.791 23.2272 130.855 23.2272C132.725 23.2272 133.847 22.6519 133.847 21.7027C133.847 21.0699 133.502 20.7535 132.495 20.4371L127.691 18.9414C126.196 18.4524 125.707 18.1936 125.16 17.6471C124.614 17.043 124.297 16.1514 124.297 15.1159C124.297 11.9231 126.742 9.93843 130.683 9.93843ZM146.551 10.5137H144.307V6.34298H140.28V10.5137H138.295V13.1887H140.28V22.7382C140.28 25.1831 141.574 26.3912 144.221 26.3912C145.141 26.3912 145.803 26.3049 146.551 26.0748V23.256C146.148 23.3135 145.946 23.3423 145.63 23.3423C144.566 23.3423 144.307 23.0259 144.307 21.6452V13.1887H146.551V10.5137ZM157.538 12.5847V10.1973H161.364V26.2474C161.364 29.8428 158.66 32.0001 154.173 32.0001C151.987 32.0001 150.29 31.5111 149.053 30.5044C147.989 29.6415 147.557 28.8073 147.529 27.5993H151.671C151.987 28.7786 152.879 29.4114 154.317 29.4114C156.215 29.4114 157.538 28.117 157.538 26.2474V24.1476C156.129 25.8447 155.122 26.3912 153.454 26.3912C149.744 26.3912 147.212 23.1121 147.212 18.3374C147.212 15.6049 148.018 13.3613 149.571 11.7505C150.635 10.6288 152.16 9.93843 153.54 9.93843C155.18 9.93843 156.417 10.7726 157.538 12.5847ZM157.596 18.2799C157.596 15.4035 156.187 13.3038 154.288 13.3038C152.476 13.3038 151.239 15.346 151.239 18.2799C151.239 21.0987 152.476 23.0259 154.231 23.0259C156.244 23.0259 157.596 21.0987 157.596 18.2799ZM163.703 10.1973V25.7296H167.73V17.4745C167.73 15.1159 168.909 13.9366 171.268 13.9366C171.7 13.9366 171.987 13.9653 172.534 14.0516V9.96719C172.304 9.93843 172.217 9.93843 172.045 9.93843C170.204 9.93843 168.622 11.1465 167.73 13.2462V10.1973H163.703ZM186.503 23.3423C186.503 24.1189 186.733 24.5791 187.424 25.2407V25.7296H183.052C182.678 25.2694 182.591 24.9818 182.591 24.1764C181.153 25.6721 179.6 26.3912 177.874 26.3912C175.027 26.3912 173.157 24.5216 173.157 21.7315C173.157 18.9414 174.653 17.3594 177.73 16.8417L179.341 16.5541C181.326 16.2377 181.326 16.2377 181.872 15.95C182.304 15.6911 182.563 15.2597 182.563 14.7419C182.563 13.7065 181.786 13.1887 180.233 13.1887C178.248 13.1887 177.587 13.7065 177.385 15.3172H173.502C173.761 11.7218 175.947 9.93843 180.147 9.93843C184.346 9.93843 186.503 11.5492 186.503 14.7132V23.3423ZM179.37 23.1409C181.412 23.1409 182.563 21.8178 182.563 19.4879V18.3949C182.103 18.625 181.93 18.6826 180.866 18.8839L179.485 19.1428C177.817 19.4879 177.184 20.0632 177.184 21.2713C177.184 22.4218 178.018 23.1409 179.37 23.1409ZM201.366 15.2022C201.308 11.9231 198.777 9.93843 194.606 9.93843C190.666 9.93843 188.221 11.9231 188.221 15.1159C188.221 16.1514 188.537 17.043 189.084 17.6471C189.63 18.1936 190.119 18.4524 191.615 18.9414L196.418 20.4371C197.425 20.7535 197.77 21.0699 197.77 21.7027C197.77 22.6519 196.649 23.2272 194.779 23.2272C193.715 23.2272 192.909 23.0546 192.392 22.6807C191.96 22.3643 191.788 22.0479 191.615 21.2138H187.674C187.789 24.6366 190.292 26.3912 195.009 26.3912C197.166 26.3912 198.806 25.931 199.956 25.0105C201.107 24.0901 201.797 22.6519 201.797 21.1275C201.797 19.114 200.791 17.8196 198.748 17.2156L193.657 15.7487C192.535 15.4035 192.248 15.1734 192.248 14.5406C192.248 13.6777 193.168 13.1024 194.578 13.1024C196.505 13.1024 197.454 13.7927 197.483 15.2022H201.366ZM210.397 16.6979H219.572V13.1024H210.397V8.35643H220.809V4.76099H206.082V25.7296H210.397V16.6979ZM235.028 25.2407C234.337 24.5791 234.107 24.1189 234.107 23.3423V14.7132C234.107 11.5492 231.95 9.93843 227.751 9.93843C223.551 9.93843 221.365 11.7218 221.106 15.3172H224.989C225.191 13.7065 225.852 13.1887 227.837 13.1887C229.39 13.1887 230.167 13.7065 230.167 14.7419C230.167 15.2597 229.908 15.6911 229.476 15.95C229.345 16.0191 229.245 16.0715 229.142 16.1158C228.815 16.2559 228.453 16.3136 226.945 16.5541L225.334 16.8417C222.257 17.3594 220.761 18.9414 220.761 21.7315C220.761 24.5216 222.631 26.3912 225.478 26.3912C227.204 26.3912 228.757 25.6721 230.195 24.1764C230.195 24.9818 230.282 25.2694 230.656 25.7296H235.028V25.2407ZM230.167 19.4879C230.167 21.8178 229.016 23.1409 226.974 23.1409C225.622 23.1409 224.788 22.4218 224.788 21.2713C224.788 20.0632 225.421 19.4879 227.089 19.1428L228.47 18.8839C229.534 18.6826 229.706 18.625 230.167 18.3949V19.4879ZM235.91 25.7296V4.76099H239.937V12.2108C240.915 10.6575 242.266 9.93843 244.222 9.93843C246.121 9.93843 248.019 10.9164 249.083 12.4409C250.119 13.9366 250.752 16.0651 250.752 18.1648C250.752 22.8533 247.933 26.3912 244.222 26.3912C242.266 26.3912 240.915 25.6721 239.937 24.1476V25.7296H235.91ZM246.725 18.1936C246.725 15.3172 245.315 13.3038 243.331 13.3038C241.317 13.3038 239.937 15.2597 239.937 18.1073C239.937 21.0987 241.288 23.0259 243.331 23.0259C245.344 23.0259 246.725 21.0412 246.725 18.1936ZM251.883 10.1973V25.7296H255.91V17.4745C255.91 15.1159 257.089 13.9366 259.448 13.9366C259.879 13.9366 260.167 13.9653 260.713 14.0516V9.96719C260.483 9.93843 260.397 9.93843 260.224 9.93843C258.383 9.93843 256.801 11.1465 255.91 13.2462V10.1973H251.883ZM262.171 10.1973H266.198V25.7296H262.171V10.1973ZM262.171 4.76099H266.198V8.35643H262.171V4.76099ZM282.171 19.2291C282.199 18.8839 282.199 18.7401 282.199 18.5387C282.199 16.9855 281.969 15.5473 281.595 14.4543C280.56 11.6355 278.058 9.93843 274.922 9.93843C270.464 9.93843 267.731 13.16 267.731 18.3662C267.731 23.3423 270.435 26.3912 274.836 26.3912C278.316 26.3912 281.135 24.4353 282.027 21.3576H278.058C277.569 22.5944 276.447 23.3135 274.98 23.3135C273.829 23.3135 272.909 22.8245 272.334 21.9616C271.96 21.3863 271.816 20.696 271.758 19.2291H282.171ZM271.816 16.5541C272.075 14.1667 273.081 13.0161 274.865 13.0161C276.706 13.0161 277.799 14.253 278 16.5541H271.816ZM287.799 4.76099V16.2377L292.89 10.1973H297.463L292.171 16.0651L297.837 25.7296H293.12L289.409 18.8839L287.799 20.6385V25.7296H283.772V4.76099H287.799ZM302.543 21.5302H298.229V25.7296H302.543V21.5302ZM304.48 25.7296V10.1973H308.507V12.4409C309.657 10.6863 311.067 9.93843 313.166 9.93843C316.503 9.93843 318.373 11.8656 318.373 15.3172V25.7296H314.346V16.1514C314.346 14.3105 313.483 13.3613 311.757 13.3613C309.772 13.3613 308.507 14.5694 308.507 16.4102V25.7296H304.48ZM324.48 4.76099H320.453V25.7296H324.48V4.76099Z" fill="#22251F"/>
<path fill-rule="evenodd" clip-rule="evenodd" d="M0 28.8673H5.76229C7.35944 28.8694 8.91815 28.3775 10.2248 27.4591C11.5315 26.5407 12.5222 25.2407 13.0612 23.7373C13.501 22.5131 13.7987 21.233 14.1228 19.8395C15.2025 15.1973 16.5752 9.2953 24.4684 0C16.7024 0.91365 11.0483 6.55324 7.14455 12.6087C7.64825 11.8273 8.1811 11.0529 8.74386 10.2947V10.2946C4.21216 16.4003 1.62054 23.5553 0.563614 26.9251C0.186537 28.1274 0.00480183 28.8478 0 28.8669V28.8673ZM3.88331 14.2673C5.2085 11.9027 6.81955 9.44206 8.74386 7.16964V4.62021V4.19588L5.01155 0.463572H0V22.6357C0.918914 20.2231 2.19861 17.2734 3.88331 14.2673ZM16.01 20.2987C15.7222 21.5373 15.4308 22.7913 15.0228 24.0079L19.8821 28.8672H24.056L24.2047 20.4725L17.8225 14.0903C17.6932 14.4212 17.5732 14.7444 17.4614 15.0604C16.8339 16.8336 16.4495 18.414 16.0952 19.9324L16.01 20.2987Z" fill="#72AF3A"/>
</svg>
