<svg width="121" height="27" viewBox="0 0 121 27" fill="none" xmlns="http://www.w3.org/2000/svg">
<path d="M33.0773 7.2876H45.0393V9.51446H40.3294V22.0677H37.7478V9.51446H33.0576L33.0773 7.2876ZM44.527 11.3669H46.7341V13.4361H46.7735C46.8523 13.1405 46.9903 12.8646 47.1874 12.5887C47.3844 12.3128 47.6209 12.0566 47.9165 11.8399C48.1924 11.6034 48.5077 11.426 48.8624 11.2881C49.1975 11.1501 49.5522 11.0713 49.9069 11.0713C50.1828 11.0713 50.3799 11.091 50.4784 11.091C50.5769 11.1107 50.6952 11.1304 50.7937 11.1304V13.3967C50.636 13.3573 50.4587 13.3376 50.2813 13.3179C50.104 13.2982 49.9463 13.2785 49.7689 13.2785C49.3748 13.2785 49.0004 13.3573 48.6457 13.5149C48.2909 13.6726 47.9953 13.9091 47.7194 14.2047C47.4633 14.52 47.2465 14.8944 47.0888 15.3477C46.9312 15.8009 46.8523 16.333 46.8523 16.9242V22.0085H44.4875L44.527 11.3669ZM61.6324 22.0677H59.307V20.57H59.2676C58.972 21.1217 58.5385 21.5356 57.967 21.8706C57.3955 22.2056 56.8043 22.3633 56.2131 22.3633C54.8139 22.3633 53.7891 22.0282 53.1585 21.3188C52.5279 20.6291 52.2126 19.5649 52.2126 18.1657V11.3669H54.5774V17.9292C54.5774 18.8752 54.7548 19.5452 55.1292 19.9196C55.4839 20.3138 55.9963 20.5108 56.6466 20.5108C57.1393 20.5108 57.5531 20.432 57.8881 20.2744C58.2232 20.1167 58.499 19.9196 58.6961 19.6634C58.9129 19.4073 59.0508 19.0919 59.1494 18.7372C59.2479 18.3825 59.2873 17.9884 59.2873 17.5745V11.3669H61.6521V22.0677H61.6324ZM65.6526 18.6387C65.7314 19.3284 65.9876 19.8014 66.4409 20.097C66.8941 20.3729 67.4459 20.5108 68.0765 20.5108C68.2933 20.5108 68.5495 20.4911 68.8254 20.4517C69.1013 20.4123 69.3772 20.3532 69.6137 20.2546C69.8698 20.1561 70.0669 20.0182 70.2246 19.8211C70.3822 19.624 70.461 19.3875 70.4413 19.0919C70.4216 18.7963 70.3231 18.5402 70.1063 18.3431C69.8896 18.146 69.6334 18.0081 69.3181 17.8701C69.0027 17.7519 68.6283 17.6533 68.2145 17.5745C67.8006 17.4957 67.3868 17.3972 66.9532 17.2986C66.5197 17.2001 66.0861 17.0819 65.6723 16.9439C65.2585 16.806 64.9037 16.6286 64.5687 16.3724C64.2534 16.1359 63.9775 15.8403 63.8002 15.4659C63.6031 15.0915 63.5046 14.6579 63.5046 14.1061C63.5046 13.5149 63.6425 13.042 63.9381 12.6478C64.214 12.2537 64.5884 11.9384 65.022 11.7019C65.4555 11.4654 65.9482 11.2881 66.4803 11.1895C67.0124 11.091 67.5247 11.0516 67.9977 11.0516C68.5495 11.0516 69.0816 11.1107 69.5742 11.2289C70.0669 11.3472 70.5399 11.5245 70.934 11.8004C71.3479 12.0566 71.6829 12.4114 71.9391 12.8252C72.2149 13.239 72.3726 13.7514 72.4514 14.3426H69.9881C69.8698 13.7711 69.6137 13.3967 69.2195 13.1996C68.8057 13.0026 68.3524 12.904 67.8203 12.904C67.6627 12.904 67.4459 12.9237 67.2291 12.9434C66.9927 12.9828 66.7956 13.0223 66.5788 13.1011C66.3818 13.1799 66.2044 13.2982 66.0664 13.4361C65.9285 13.574 65.8497 13.7711 65.8497 14.0076C65.8497 14.3032 65.9482 14.52 66.1453 14.6973C66.3423 14.8747 66.5985 15.0126 66.9335 15.1506C67.2488 15.2688 67.6233 15.3674 68.0371 15.4462C68.451 15.525 68.8845 15.6236 69.3181 15.7221C69.7516 15.8206 70.1654 15.9389 70.5793 16.0768C70.9931 16.2148 71.3676 16.3921 71.6829 16.6483C71.9982 16.8848 72.2741 17.1804 72.4711 17.5351C72.6682 17.8898 72.7667 18.3431 72.7667 18.8555C72.7667 19.4861 72.6288 20.0182 72.3332 20.4714C72.0376 20.905 71.6632 21.2794 71.2099 21.5553C70.7567 21.8312 70.2246 22.0283 69.6728 22.1662C69.1013 22.2844 68.5495 22.3633 67.9977 22.3633C67.3277 22.3633 66.6971 22.2844 66.1256 22.1268C65.5541 21.9691 65.0417 21.7326 64.6278 21.437C64.214 21.1217 63.879 20.7473 63.6425 20.2744C63.406 19.8211 63.2681 19.2693 63.2484 18.619H65.6329V18.6387H65.6526ZM73.4368 11.3669H75.2301V8.13499H77.5949V11.3472H79.7232V13.1011H77.5949V18.8161C77.5949 19.0722 77.6146 19.2693 77.6343 19.4664C77.654 19.6437 77.7131 19.8014 77.7723 19.9196C77.8511 20.0379 77.9693 20.1364 78.1073 20.1955C78.2649 20.2546 78.462 20.2941 78.7379 20.2941C78.8955 20.2941 79.0729 20.2941 79.2306 20.2744C79.3882 20.2546 79.5656 20.2349 79.7232 20.1955V22.0283C79.467 22.0677 79.2108 22.0874 78.9547 22.1071C78.6985 22.1465 78.462 22.1465 78.1861 22.1465C77.5555 22.1465 77.0628 22.0874 76.6884 21.9691C76.314 21.8509 76.0184 21.6735 75.8016 21.4568C75.5848 21.2203 75.4469 20.9444 75.368 20.6094C75.2892 20.2743 75.2498 19.8605 75.2301 19.427V13.1208H73.4368V11.3275V11.3669ZM81.3786 11.3669H83.6055V12.8252H83.6449C83.9799 12.1946 84.4331 11.761 85.0243 11.4851C85.6155 11.2092 86.2462 11.0713 86.9556 11.0713C87.803 11.0713 88.5321 11.2092 89.1628 11.5246C89.7934 11.8202 90.3058 12.2143 90.7196 12.7464C91.1334 13.2587 91.4487 13.8697 91.6458 14.5594C91.8429 15.2491 91.9611 15.998 91.9611 16.7665C91.9611 17.4957 91.8626 18.1854 91.6852 18.8555C91.4882 19.5255 91.2123 20.1364 90.8378 20.6488C90.4634 21.1612 89.9904 21.575 89.3992 21.8903C88.808 22.2056 88.138 22.3633 87.3497 22.3633C87.0147 22.3633 86.66 22.3239 86.325 22.2647C85.99 22.2056 85.655 22.1071 85.3396 21.9691C85.0243 21.8312 84.7287 21.6538 84.4726 21.437C84.1967 21.2203 83.9799 20.9641 83.8025 20.6882H83.7631V26.0287H81.3983V11.3669H81.3786ZM89.6357 16.7271C89.6357 16.2542 89.5766 15.7812 89.4387 15.328C89.3204 14.8747 89.1233 14.4806 88.8672 14.1258C88.611 13.7711 88.2957 13.4952 87.9409 13.2785C87.5665 13.0617 87.133 12.9631 86.66 12.9631C85.6747 12.9631 84.9258 13.2982 84.4134 13.9879C83.9208 14.6776 83.6646 15.6038 83.6646 16.7468C83.6646 17.2986 83.7237 17.7913 83.8616 18.2446C83.9996 18.6978 84.177 19.0919 84.4528 19.427C84.709 19.762 85.0243 20.0182 85.3988 20.2152C85.7732 20.4123 86.187 20.5108 86.6797 20.5108C87.2315 20.5108 87.6651 20.3926 88.0395 20.1758C88.4139 19.959 88.7095 19.6634 88.9657 19.3284C89.2022 18.9737 89.3795 18.5796 89.4781 18.1263C89.5766 17.6534 89.6357 17.2001 89.6357 16.7271ZM93.7938 7.2876H96.1587V9.51446H93.7938V7.2876ZM93.7938 11.3669H96.1587V22.0677H93.7938V11.3669ZM98.2673 7.2876H100.632V22.0677H98.2673V7.2876ZM107.845 22.3633C106.997 22.3633 106.229 22.2253 105.559 21.9297C104.889 21.6341 104.337 21.2597 103.864 20.767C103.411 20.2744 103.056 19.6634 102.82 18.9737C102.583 18.284 102.445 17.5154 102.445 16.7074C102.445 15.8994 102.563 15.1506 102.82 14.4609C103.056 13.7711 103.411 13.1799 103.864 12.6675C104.317 12.1749 104.889 11.7807 105.559 11.5048C106.229 11.2289 106.997 11.0713 107.845 11.0713C108.692 11.0713 109.461 11.2092 110.131 11.5048C110.801 11.7807 111.353 12.1749 111.826 12.6675C112.279 13.1602 112.634 13.7711 112.87 14.4609C113.106 15.1506 113.244 15.8994 113.244 16.7074C113.244 17.5351 113.126 18.284 112.87 18.9737C112.614 19.6634 112.279 20.2546 111.826 20.767C111.372 21.2597 110.801 21.6538 110.131 21.9297C109.461 22.2056 108.712 22.3633 107.845 22.3633ZM107.845 20.4911C108.357 20.4911 108.83 20.3729 109.205 20.1561C109.599 19.9393 109.894 19.6437 110.15 19.289C110.407 18.9343 110.584 18.5204 110.702 18.0869C110.82 17.6336 110.88 17.1804 110.88 16.7074C110.88 16.2542 110.82 15.8009 110.702 15.3477C110.584 14.8944 110.407 14.5003 110.15 14.1455C109.894 13.7908 109.579 13.5149 109.205 13.2982C108.81 13.0814 108.357 12.9631 107.845 12.9631C107.332 12.9631 106.859 13.0814 106.485 13.2982C106.091 13.5149 105.795 13.8105 105.539 14.1455C105.283 14.5003 105.106 14.8944 104.987 15.3477C104.869 15.8009 104.81 16.2542 104.81 16.7074C104.81 17.1804 104.869 17.6336 104.987 18.0869C105.106 18.5402 105.283 18.9343 105.539 19.289C105.795 19.6437 106.111 19.9393 106.485 20.1561C106.879 20.3926 107.332 20.4911 107.845 20.4911ZM113.954 11.3669H115.747V8.13499H118.112V11.3472H120.24V13.1011H118.112V18.8161C118.112 19.0722 118.132 19.2693 118.151 19.4664C118.171 19.6437 118.23 19.8014 118.289 19.9196C118.368 20.0379 118.486 20.1364 118.624 20.1955C118.782 20.2546 118.979 20.2941 119.255 20.2941C119.413 20.2941 119.59 20.2941 119.748 20.2744C119.905 20.2546 120.083 20.2349 120.24 20.1955V22.0283C119.984 22.0677 119.728 22.0874 119.472 22.1071C119.216 22.1465 118.979 22.1465 118.703 22.1465C118.073 22.1465 117.58 22.0874 117.205 21.9691C116.831 21.8509 116.535 21.6735 116.319 21.4568C116.102 21.2203 115.964 20.9444 115.885 20.6094C115.806 20.2743 115.767 19.8605 115.747 19.427V13.1208H113.954V11.3275V11.3669Z" fill="black"/>
<path d="M28.3186 10.2869H17.4996L14.1692 0L10.819 10.2869L0 10.2672L8.7498 16.6325L5.39965 26.9194L14.1495 20.5541L22.8993 26.9194L19.5688 16.6325L28.3186 10.2869Z" fill="#00B67A"/>
<path d="M20.3077 18.9367L19.5588 16.6113L14.1592 20.533L20.3077 18.9367Z" fill="#005128"/>
</svg>
